<svg id="Layer_1" data-name="Layer 1" xmlns="http://www.w3.org/2000/svg" viewBox="0 0 55.86 61.1"><defs><style>.cls-1{fill:#004ca3}</style></defs><title>Artboard 3</title><path class="cls-1" d="M29.5 32.65a2.6 2.6 0 0 1-1.57.52 1.89 1.89 0 0 1-1.39-.52L.52 7A2.41 2.41 0 0 1 0 5.5 2.06 2.06 0 0 1 .7 4L4 .52A2.51 2.51 0 0 1 5.59 0 1.87 1.87 0 0 1 7 .52L28 21.3 48.88.52a1.89 1.89 0 0 1 1.4-.52 2.55 2.55 0 0 1 1.57.52L55.34 4a2.37 2.37 0 0 1 0 3zm-3 27.93h-.18a2.63 2.63 0 0 0 3.14 0l25.88-25.66a2.43 2.43 0 0 0 .52-1.49 2.41 2.41 0 0 0-.52-1.43l-3.49-3.49a2.56 2.56 0 0 0-1.57-.53 1.9 1.9 0 0 0-1.4.53l-21 20.77L7 28.46a1.88 1.88 0 0 0-1.39-.53 2.52 2.52 0 0 0-1.61.53L.52 32A2.41 2.41 0 0 0 0 33.43a2.08 2.08 0 0 0 .7 1.49z"/></svg>