<svg id="Layer_1" data-name="Layer 1" xmlns="http://www.w3.org/2000/svg" viewBox="0 0 86.59 86.59"><defs><style>.cls-1{fill:#c49a6c}</style></defs><title>Artboard 4</title><path class="cls-1" d="M43.29 0a42 42 0 0 1 21.65 5.85 43.68 43.68 0 0 1 15.8 15.8 41.94 41.94 0 0 1 5.85 21.64 42 42 0 0 1-5.85 21.65 43.68 43.68 0 0 1-15.8 15.8 42 42 0 0 1-21.65 5.85 41.94 41.94 0 0 1-21.64-5.85 43.68 43.68 0 0 1-15.8-15.8A42 42 0 0 1 0 43.29a41.94 41.94 0 0 1 5.85-21.64 43.68 43.68 0 0 1 15.8-15.8A41.94 41.94 0 0 1 43.29 0zm0 8.38a33.88 33.88 0 0 0-17.45 4.71 35.26 35.26 0 0 0-12.75 12.75 33.88 33.88 0 0 0-4.71 17.45 33.89 33.89 0 0 0 4.71 17.46A35.26 35.26 0 0 0 25.84 73.5a33.88 33.88 0 0 0 17.45 4.71 33.89 33.89 0 0 0 17.46-4.71A35.26 35.26 0 0 0 73.5 60.75a33.89 33.89 0 0 0 4.71-17.46 33.88 33.88 0 0 0-4.71-17.45 35.26 35.26 0 0 0-12.75-12.75 33.89 33.89 0 0 0-17.46-4.71zm24.45 22.69a2.2 2.2 0 0 1 .69 1.58 1.66 1.66 0 0 1-.69 1.35l-30 29.86a2.19 2.19 0 0 1-1.57.69 1.68 1.68 0 0 1-1.4-.69L18.85 48a2.19 2.19 0 0 1-.69-1.57 1.68 1.68 0 0 1 .69-1.4l4-4a1.88 1.88 0 0 1 1.4-.53 2.56 2.56 0 0 1 1.57.53l10.3 10.64 24.81-24.61a1.87 1.87 0 0 1 1.39-.52 2.16 2.16 0 0 1 1.57.69z"/></svg>