<?xml version="1.0" encoding="utf-8"?>
<!-- Generator: Adobe Illustrator 21.0.0, SVG Export Plug-In . SVG Version: 6.00 Build 0)  -->
<svg version="1.1" id="Layer_1" xmlns="http://www.w3.org/2000/svg" xmlns:xlink="http://www.w3.org/1999/xlink" x="0px" y="0px"
	 viewBox="0 0 563.2 534.8" style="enable-background:new 0 0 563.2 534.8;" xml:space="preserve">
<style type="text/css">
	.st0{clip-path:url(#SVGID_2_);fill-rule:evenodd;clip-rule:evenodd;fill:#E5E6E7;}
	.st1{clip-path:url(#SVGID_2_);fill-rule:evenodd;clip-rule:evenodd;fill:#FBFCF8;}
	.st2{clip-path:url(#SVGID_2_);fill-rule:evenodd;clip-rule:evenodd;fill:#CECED0;}
	.st3{clip-path:url(#SVGID_2_);fill-rule:evenodd;clip-rule:evenodd;fill:#E0996F;}
	.st4{clip-path:url(#SVGID_2_);fill-rule:evenodd;clip-rule:evenodd;fill:#B4B7B8;}
	.st5{clip-path:url(#SVGID_2_);fill-rule:evenodd;clip-rule:evenodd;fill:#A6A8AB;}
	.st6{clip-path:url(#SVGID_2_);}
	.st7{fill-rule:evenodd;clip-rule:evenodd;fill:#FDDDC3;}
	.st8{fill-rule:evenodd;clip-rule:evenodd;fill:#434345;}
	.st9{fill-rule:evenodd;clip-rule:evenodd;fill:#3E3E3F;}
	.st10{fill-rule:evenodd;clip-rule:evenodd;fill:#EAB3A1;}
	.st11{fill-rule:evenodd;clip-rule:evenodd;fill:#3B3A3C;}
	.st12{fill-rule:evenodd;clip-rule:evenodd;fill:#5D888E;}
	.st13{fill-rule:evenodd;clip-rule:evenodd;fill:#353435;}
	.st14{fill-rule:evenodd;clip-rule:evenodd;fill:#FFFFFF;}
	.st15{fill-rule:evenodd;clip-rule:evenodd;fill:#474342;}
	.st16{fill-rule:evenodd;clip-rule:evenodd;fill:#E8E8E9;}
	.st17{fill-rule:evenodd;clip-rule:evenodd;fill:#657264;}
	.st18{fill-rule:evenodd;clip-rule:evenodd;fill:#987C66;}
	.st19{fill-rule:evenodd;clip-rule:evenodd;fill:#CB4A56;}
	.st20{fill-rule:evenodd;clip-rule:evenodd;fill:#D0D2D3;}
	.st21{fill-rule:evenodd;clip-rule:evenodd;fill:#CF9548;}
	.st22{fill-rule:evenodd;clip-rule:evenodd;fill:#4A3A31;}
	.st23{fill-rule:evenodd;clip-rule:evenodd;fill:#BD9332;}
	.st24{fill-rule:evenodd;clip-rule:evenodd;fill:#FDBD30;}
	.st25{fill-rule:evenodd;clip-rule:evenodd;fill:#AB8242;}
	.st26{fill-rule:evenodd;clip-rule:evenodd;fill:#C2964E;}
	.st27{fill-rule:evenodd;clip-rule:evenodd;fill:#F1C7A5;}
	.st28{fill-rule:evenodd;clip-rule:evenodd;fill:#D4D6D7;}
	.st29{clip-path:url(#SVGID_4_);fill-rule:evenodd;clip-rule:evenodd;fill:#4A3A31;}
</style>
<title>academic</title>
<g>
	<defs>
		<rect id="SVGID_1_" x="104.1" y="-19.5" width="561.1" height="534.4"/>
	</defs>
	<use xlink:href="#SVGID_1_"  style="display:none;overflow:visible;fill-rule:evenodd;clip-rule:evenodd;fill:#B8DEF5;"/>
	<clipPath id="SVGID_2_">
		<use xlink:href="#SVGID_1_"  style="display:none;overflow:visible;"/>
	</clipPath>
	<polygon class="st0" points="282.1,202.4 501,202.4 501,490.7 282.1,490.7 63.2,490.7 63.2,202.4 	"/>
	<polygon class="st1" points="501,202.4 282.1,202.4 63.2,202.4 63.2,219.7 282.1,219.7 501,219.7 	"/>
	<polygon class="st2" points="282.1,480.5 501,480.5 501,490.7 282.1,490.7 63.2,490.7 63.2,480.5 	"/>
	<polygon class="st1" points="57.2,163.6 282.1,163.6 507,163.6 507,202.4 282.1,202.4 57.2,202.4 	"/>
	<rect x="77.6" y="219.7" class="st1" width="43.6" height="22.3"/>
	<rect x="83" y="242" class="st1" width="32.8" height="226.4"/>
	<rect x="77.6" y="468.4" class="st1" width="43.6" height="22.3"/>
	<path class="st3" d="M94.8,250h9.2c0,3.5,2.6,6.4,5.7,6.4V454c-3.1,0-5.7,2.9-5.7,6.4h-9.2c0-3.5-2.6-6.4-5.7-6.4V256.5
		C92.3,256.5,94.8,253.6,94.8,250"/>
	<rect x="157.4" y="219.7" class="st1" width="43.6" height="22.3"/>
	<rect x="162.8" y="242" class="st1" width="32.8" height="226.4"/>
	<rect x="157.4" y="468.4" class="st1" width="43.6" height="22.3"/>
	<path class="st3" d="M174.6,250h9.2c0,3.5,2.6,6.4,5.7,6.4V454c-3.1,0-5.7,2.9-5.7,6.4h-9.2c0-3.5-2.6-6.4-5.7-6.4V256.5
		C172,256.5,174.6,253.6,174.6,250"/>
	<rect x="259.7" y="241.9" class="st1" width="39.9" height="61.8"/>
	<rect x="265.6" y="247" class="st4" width="12.5" height="14.1"/>
	<rect x="281.3" y="247" class="st4" width="12.5" height="14.1"/>
	<rect x="265.6" y="265.8" class="st4" width="12.5" height="14.1"/>
	<rect x="281.3" y="265.8" class="st4" width="12.5" height="14.1"/>
	<rect x="265.6" y="284.6" class="st4" width="12.5" height="14.1"/>
	<rect x="281.3" y="284.6" class="st4" width="12.5" height="14.1"/>
	<rect x="200" y="253.7" class="st1" width="39.9" height="61.8"/>
	<rect x="205.8" y="258.8" class="st4" width="12.5" height="14.1"/>
	<rect x="221.6" y="258.8" class="st4" width="12.5" height="14.1"/>
	<rect x="205.8" y="277.5" class="st4" width="12.5" height="14.1"/>
	<rect x="221.6" y="277.5" class="st4" width="12.5" height="14.1"/>
	<rect x="205.8" y="296.3" class="st4" width="12.5" height="14.1"/>
	<rect x="221.6" y="296.3" class="st4" width="12.5" height="14.1"/>
	<rect x="119.1" y="253.7" class="st1" width="39.9" height="61.8"/>
	<rect x="125" y="258.8" class="st4" width="12.5" height="14.1"/>
	<rect x="140.7" y="258.8" class="st4" width="12.5" height="14.1"/>
	<rect x="125" y="277.5" class="st4" width="12.5" height="14.1"/>
	<rect x="140.7" y="277.5" class="st4" width="12.5" height="14.1"/>
	<rect x="125" y="296.3" class="st4" width="12.5" height="14.1"/>
	<rect x="140.7" y="296.3" class="st4" width="12.5" height="14.1"/>
	<rect x="200" y="374.4" class="st1" width="39.9" height="61.8"/>
	<rect x="205.8" y="379.4" class="st4" width="12.5" height="14.1"/>
	<rect x="221.6" y="379.4" class="st4" width="12.5" height="14.1"/>
	<rect x="205.8" y="398.2" class="st4" width="12.5" height="14.1"/>
	<rect x="221.6" y="398.2" class="st4" width="12.5" height="14.1"/>
	<rect x="205.8" y="417" class="st4" width="12.5" height="14.1"/>
	<rect x="221.6" y="417" class="st4" width="12.5" height="14.1"/>
	<rect x="119.1" y="374.4" class="st1" width="39.9" height="61.8"/>
	<rect x="125" y="379.4" class="st4" width="12.5" height="14.1"/>
	<rect x="140.7" y="379.4" class="st4" width="12.5" height="14.1"/>
	<rect x="125" y="398.2" class="st4" width="12.5" height="14.1"/>
	<rect x="140.7" y="398.2" class="st4" width="12.5" height="14.1"/>
	<rect x="125" y="417" class="st4" width="12.5" height="14.1"/>
	<rect x="140.7" y="417" class="st4" width="12.5" height="14.1"/>
	<rect x="257.3" y="374.4" class="st3" width="24.7" height="106.1"/>
	<path class="st4" d="M266.2,386.9h8.6c0,2.5,1.8,4.5,4,4.5v47c-2.2,0-4,2-4,4.5h-8.6c0-2.5-1.8-4.5-4-4.5v-47
		C264.4,391.4,266.2,389.4,266.2,386.9"/>
	<polygon class="st1" points="282.1,163.6 6.1,163.6 282.1,6.5 558,163.6 	"/>
	<polygon class="st5" points="477.5,142 282.1,30.8 86.6,142 	"/>
	<polygon class="st2" points="99.6,142 464.6,142 282.1,38.1 	"/>
	<polygon class="st2" points="282.1,202.4 507,202.4 507,196.3 282.1,196.3 57.2,196.3 57.2,202.4 	"/>
	<polygon class="st2" points="282.1,516.9 535.5,516.9 535.5,521.9 282.1,521.9 28.6,521.9 28.6,516.9 	"/>
	<polygon class="st1" points="542.3,521.9 282.1,521.9 21.8,521.9 11.2,534.8 282.1,534.8 553,534.8 	"/>
	<polygon class="st1" points="282.1,516.9 542.3,516.9 542.3,512 282.1,512 21.8,512 21.8,516.9 	"/>
	<polygon class="st2" points="282.1,507 530.5,507 530.5,512 282.1,512 33.6,512 33.6,507 	"/>
	<polygon class="st1" points="282.1,507 537,507 537,502 282.1,502 27.2,502 27.2,507 	"/>
	<polygon class="st2" points="282.1,496.4 523.7,496.4 523.7,502 282.1,502 40.5,502 40.5,496.4 	"/>
	<polygon class="st1" points="282.1,496.4 530.2,496.4 530.2,490.7 282.1,490.7 34,490.7 34,496.4 	"/>
	<polygon class="st2" points="501,215.6 282.1,215.6 63.2,215.6 63.2,219.7 282.1,219.7 501,219.7 	"/>
	<rect x="442.9" y="219.7" class="st1" width="43.6" height="22.3"/>
	<rect x="448.3" y="242" class="st1" width="32.8" height="226.4"/>
	<rect x="442.9" y="468.4" class="st1" width="43.6" height="22.3"/>
	<path class="st3" d="M469.3,250h-9.2c0,3.5-2.6,6.4-5.7,6.4V454c3.1,0,5.7,2.9,5.7,6.4h9.2c0-3.5,2.6-6.4,5.7-6.4V256.5
		C471.9,256.5,469.3,253.6,469.3,250"/>
	<rect x="363.2" y="219.7" class="st1" width="43.6" height="22.3"/>
	<rect x="368.5" y="242" class="st1" width="32.8" height="226.4"/>
	<rect x="363.2" y="468.4" class="st1" width="43.6" height="22.3"/>
	<path class="st3" d="M389.6,250h-9.2c0,3.5-2.6,6.4-5.7,6.4V454c3.1,0,5.7,2.9,5.7,6.4h9.2c0-3.5,2.6-6.4,5.7-6.4V256.5
		C392.1,256.5,389.6,253.6,389.6,250"/>
	<rect x="324.3" y="253.7" class="st1" width="39.9" height="61.8"/>
	<rect x="345.8" y="258.8" class="st4" width="12.5" height="14.1"/>
	<rect x="330.1" y="258.8" class="st4" width="12.5" height="14.1"/>
	<rect x="345.8" y="277.5" class="st4" width="12.5" height="14.1"/>
	<rect x="330.1" y="277.5" class="st4" width="12.5" height="14.1"/>
	<rect x="345.8" y="296.3" class="st4" width="12.5" height="14.1"/>
	<rect x="330.1" y="296.3" class="st4" width="12.5" height="14.1"/>
	<rect x="405.1" y="253.7" class="st1" width="39.9" height="61.8"/>
	<rect x="426.7" y="258.8" class="st4" width="12.5" height="14.1"/>
	<rect x="410.9" y="258.8" class="st4" width="12.5" height="14.1"/>
	<rect x="426.7" y="277.5" class="st4" width="12.5" height="14.1"/>
	<rect x="410.9" y="277.5" class="st4" width="12.5" height="14.1"/>
	<rect x="426.7" y="296.3" class="st4" width="12.5" height="14.1"/>
	<rect x="410.9" y="296.3" class="st4" width="12.5" height="14.1"/>
	<rect x="324.3" y="374.4" class="st1" width="39.9" height="61.8"/>
	<rect x="345.8" y="379.4" class="st4" width="12.5" height="14.1"/>
	<rect x="330.1" y="379.4" class="st4" width="12.5" height="14.1"/>
	<rect x="345.8" y="398.2" class="st4" width="12.5" height="14.1"/>
	<rect x="330.1" y="398.2" class="st4" width="12.5" height="14.1"/>
	<rect x="345.8" y="417" class="st4" width="12.5" height="14.1"/>
	<rect x="330.1" y="417" class="st4" width="12.5" height="14.1"/>
	<rect x="405.1" y="374.4" class="st1" width="39.9" height="61.8"/>
	<rect x="426.7" y="379.4" class="st4" width="12.5" height="14.1"/>
	<rect x="410.9" y="379.4" class="st4" width="12.5" height="14.1"/>
	<rect x="426.7" y="398.2" class="st4" width="12.5" height="14.1"/>
	<rect x="410.9" y="398.2" class="st4" width="12.5" height="14.1"/>
	<rect x="426.7" y="417" class="st4" width="12.5" height="14.1"/>
	<rect x="410.9" y="417" class="st4" width="12.5" height="14.1"/>
	<rect x="282.1" y="374.4" class="st3" width="24.7" height="106.1"/>
	<path class="st4" d="M297.9,386.9h-8.6c0,2.5-1.8,4.5-4,4.5v47c2.2,0,4,2,4,4.5h8.6c0-2.5,1.8-4.5,4-4.5v-47
		C299.7,391.4,297.9,389.4,297.9,386.9"/>
	<polygon class="st2" points="282.1,169.7 507,169.7 507,163.6 282.1,163.6 57.2,163.6 57.2,169.7 	"/>
	<rect x="83" y="242" class="st2" width="32.8" height="2.6"/>
	<rect x="162.8" y="242" class="st2" width="32.8" height="2.6"/>
	<rect x="368.5" y="242" class="st2" width="32.8" height="2.6"/>
	<rect x="448.3" y="242" class="st2" width="32.8" height="2.6"/>
	<rect x="83" y="465.9" class="st2" width="32.8" height="2.6"/>
	<rect x="162.8" y="465.9" class="st2" width="32.8" height="2.6"/>
	<rect x="368.5" y="465.9" class="st2" width="32.8" height="2.6"/>
	<rect x="448.3" y="465.9" class="st2" width="32.8" height="2.6"/>
	<g class="st6">
		<path class="st7" d="M78.3,356.9c0,0-2.1,15.1-2.2,16.8c-0.1,1.7-0.4,8.3-0.4,8.3l2.6,0.7l0.2,4.4l4.1,0.7l1-3.1l0.5,5.9h4.4v-9.4
			v-7.4l2.6,6.7l2.6,7.5c0,0,3-1,3-1.3s-2.2-8.9-2.2-8.9l-1.1-13.6l3.2,5.5l1.6,5.1l3.9,1l-2.8-15.5l-5.2-6.7l-1.5-10.6l-14.1,0.7
			L78.3,356.9z"/>
		<g>
			<path class="st8" d="M107.4,276.9c0,0-10.9,51.9-9.3,68.8c0,0-5-0.6-11.6,0c-3.3,0.3-7,0.8-10.7,1.9
				c-7.4-52.5,27.8-128.9,31.4-131.3c2.4-1.6,9.1-3,15.4-4c0.4,0.7,0.8,1.5,1.3,2.4c1.1,2,2.5,4.4,4,7.2L107.4,276.9z"/>
			<path class="st9" d="M107.4,276.9c0,0-10.9,51.9-9.3,68.8c0,0-5-0.6-11.6,0c2.9-79.6,28.9-120,37.4-131.1c1.1,2,2.5,4.4,4,7.2
				L107.4,276.9z"/>
			<path class="st7" d="M183,204.9c-9.6,15.3-19.8,18.3-42.4,0.6c5-0.8,5.6-6.8,5.7-9.5c0-0.1,0-0.1,0-0.2
				c0.1-2.7,0.5-17.1,0.5-17.1l27.4-0.5c-0.1,5.1-1.2,13.6,0.1,18.3c0.4,1.3,0.9,2.3,1.7,2.9C179.7,202.3,183,204.9,183,204.9z"/>
			<path class="st10" d="M174.3,196.5c-4,1.1-8.4,1.7-13,1.7c-5.4,0-10.5-0.8-15-2.3c0-0.1,0-0.1,0-0.2c0.1-2.7,0.5-17.1,0.5-17.1
				l27.4-0.5C174,183.3,173,191.8,174.3,196.5z"/>
			<polygon class="st11" points="117.9,108.7 88.2,93.8 161.5,56 234.8,93.8 205.2,108.7 161.5,130.9 			"/>
			<path class="st7" d="M197.1,130c0,0,9.9-5,12.5-3.3c2.7,1.9,2.3,10.4,0.9,15.4c-1.4,5-12,13.2-13.6,13.1
				C195.5,155,197.1,130,197.1,130"/>
			<path class="st7" d="M127.6,130c0,0-9.9-5-12.5-3.3c-2.7,1.9-2.3,10.4-0.9,15.4c1.4,5,12,13.2,13.6,13.1
				C129.2,155,127.6,130,127.6,130"/>
			<path class="st12" d="M146.8,178.7L146.8,178.7 M146.8,178.7L146.8,178.7 M146.8,178.7C146.8,178.7,146.8,178.7,146.8,178.7
				C146.8,178.7,146.8,178.7,146.8,178.7L146.8,178.7z M146.8,178.7C146.8,178.7,146.8,178.7,146.8,178.7S146.8,178.7,146.8,178.7z
				 M146.8,178.7L146.8,178.7C146.8,178.7,146.8,178.7,146.8,178.7L146.8,178.7z M146.8,178.7C146.8,178.7,146.8,178.7,146.8,178.7
				C146.8,178.7,146.8,178.7,146.8,178.7L146.8,178.7z M146.8,178.7C146.8,178.7,146.8,178.7,146.8,178.7
				C146.8,178.7,146.8,178.7,146.8,178.7L146.8,178.7z M146.8,178.7C146.8,178.7,146.8,178.7,146.8,178.7
				C146.8,178.7,146.8,178.7,146.8,178.7L146.8,178.7z M146.5,189.5c0.1-4.8,0.3-10.4,0.3-10.8C146.8,179.1,146.6,184.8,146.5,189.5
				L146.5,189.5z M173.8,193.9c-0.5-4.8,0.2-11.4,0.4-15.7v0C174.1,182.5,173.3,189.1,173.8,193.9
				C173.8,193.9,173.8,193.9,173.8,193.9L173.8,193.9z"/>
			<path class="st8" d="M185.2,510.2c0,9.1,1.7,17.4,2.3,19.8c12.4,4.3,43.1,7.6,57.9,1.1c-3.1-12.3-29.7-1.5-36.9-20.7
				C201.4,509.2,185.2,510.2,185.2,510.2"/>
			<path class="st13" d="M206,323.6c2.5,22.6,1.2,142.2,2.4,186.9c-8.9,4.6-23.1,1.7-23.1,1.7c-2.2-29.6-8.7-145.4-12.7-157.6
				c-7.7-1.8-18.5,1.7-18.5,1.7c-3.5,9.4-14.6,151.5-17.2,162.6c-12.3,6.7-22.6,2.9-22.6,2.9c4.5-26.7,1.6-184.8,1.8-193.9
				C127.9,318,201.8,322.8,206,323.6"/>
			<path class="st14" d="M137.6,201c-3.4,2.1-10.7,4.4-10.7,4.4l-4.3,123c0,0,57.1,3.5,79.2-2.2c11.1-2.9-8.8-116.5-9.1-117.3
				c-0.3-0.9-9.4-7.1-9.4-7.1s-18.5,8.4-23.8,8.8C154.2,211,137.6,201,137.6,201"/>
			<path class="st15" d="M158.3,223.7c-1.3,10-8.2,85.9-7.5,87.6c0.7,1.8,12.5,13.5,12.8,12.6c0.3-0.9,10.1-10.6,10.1-12.6
				c0-2.1-10.5-87.6-10.5-87.6L158.3,223.7z"/>
			<path class="st15" d="M151,217.8c2,2.4,4.9,8.4,6.4,9c1.5,0.6,5.6,0.6,6.4,0c0.8-0.6,6.1-7.8,6.1-7.8l-9.4-7.6
				C160.4,211.3,152,216.9,151,217.8"/>
			<path class="st16" d="M146.2,196.2c-2.7,1.4-10.4,4.8-10.4,5.5c0,0.8,8.3,20.4,13,23.5c6.9-7.1,10.7-12.4,10.7-12.4l12.4,10.1
				c11.6-9.4,12.6-19.7,12.5-20.3c-0.1-0.6-8.5-4.9-10.1-6.4c-4.9,7.4-14.8,14.5-14.8,14.5C159.5,210.6,147.4,200.3,146.2,196.2"/>
			<path class="st8" d="M221.9,436c-1.3,1.5-7.7,2.7-16.8,3.5c-24.4,2.1-68.6,1.6-88.3-1.5c-5.2-0.8-8.7-1.8-9.7-2.9
				c-2.3-16.3-3.3-124.5-2.3-182.8c0.3-16.3,0.8-28.7,1.4-34.2c0.7-5.6,27.3-15.3,27.3-15.3l30.3,62.5l22.7-61.6
				c0,0,26.6,9.7,27.3,15.3c0.4,3.5,0.9,8.1,1.4,13.5c0,0,0,0,0,0c0.5,5.3,0.9,11.4,1.4,18.1c0.1,1.4,0.2,2.8,0.3,4.2
				c0,0,0,0.1,0,0.1C221,313.7,225.1,413.1,221.9,436z"/>
			<path class="st9" d="M221.9,436c-1.3,1.5-7.7,2.7-16.8,3.5l10.1-207c0,0,0,0,0,0c0,0.6,0.7,9.2,1.7,22.3c0,0,0,0.1,0,0.1
				C221,313.7,225.1,413.1,221.9,436z"/>
			<path class="st9" d="M221.9,436c-1.3,1.5-7.7,2.7-16.8,3.5l10.1-207c0,0,0,0,0,0c0,0.6,0.7,9.2,1.7,22.3c0,0,0,0.1,0,0.1
				C221,313.7,225.1,413.1,221.9,436z"/>
			<path class="st13" d="M187,528.1c0.2,0.8,0.3,1.5,0.4,1.9c12.4,4.3,43.1,7.6,57.9,1.1c-0.2-0.7-0.4-1.2-0.7-1.8
				C226.8,536.1,200.6,530.1,187,528.1"/>
			<path class="st8" d="M138.4,510.2c0,9.1-1.7,17.4-2.3,19.8c-12.4,4.3-43.1,7.6-57.9,1.1c3.1-12.3,29.7-1.5,36.9-20.7
				C122.2,509.2,138.4,510.2,138.4,510.2"/>
			<path class="st13" d="M136.5,528.1c-0.2,0.8-0.3,1.5-0.4,1.9c-12.4,4.3-43.1,7.6-57.9,1.1c0.2-0.7,0.4-1.2,0.7-1.8
				C96.8,536.1,123,530.1,136.5,528.1"/>
			<path class="st17" d="M93.7,352.1c-0.3-1.4-0.6-3-0.8-4.5C93.1,349,93.4,350.7,93.7,352.1 M78.7,353.6L78.7,353.6
				c0.2-1.6,0.2-3.3,0.2-4.9l0,0C78.9,350.3,78.8,351.9,78.7,353.6L78.7,353.6z"/>
			<path class="st18" d="M92.5,343.5L92.5,343.5 M92.5,343.5L92.5,343.5L92.5,343.5L92.5,343.5z M92.5,343.5
				C92.5,343.5,92.5,343.5,92.5,343.5S92.5,343.5,92.5,343.5z M92.5,343.5L92.5,343.5L92.5,343.5z M92.5,343.5 M92.5,343.5
				C92.5,343.5,92.5,343.5,92.5,343.5C92.5,343.5,92.5,343.5,92.5,343.5L92.5,343.5z M92.5,343.5 M92.5,343.5
				C92.5,343.5,92.5,343.5,92.5,343.5C92.5,343.5,92.5,343.5,92.5,343.5z M92.5,343.5L92.5,343.5L92.5,343.5z M92.5,343.5
				C92.5,343.5,92.5,343.5,92.5,343.5C92.5,343.5,92.5,343.5,92.5,343.5L92.5,343.5z M92.5,343.6C92.5,343.6,92.5,343.6,92.5,343.6
				C92.5,343.6,92.5,343.6,92.5,343.6z M92.5,343.6C92.5,343.6,92.5,343.6,92.5,343.6C92.5,343.6,92.5,343.6,92.5,343.6z
				 M92.5,343.6C92.5,343.6,92.5,343.6,92.5,343.6C92.5,343.6,92.5,343.6,92.5,343.6L92.5,343.6z M92.5,343.6
				C92.5,343.6,92.5,343.6,92.5,343.6C92.5,343.6,92.5,343.6,92.5,343.6z M92.5,343.6C92.5,343.6,92.5,343.6,92.5,343.6
				C92.5,343.6,92.5,343.6,92.5,343.6L92.5,343.6z M92.5,343.7C92.5,343.6,92.5,343.6,92.5,343.7C92.5,343.6,92.5,343.6,92.5,343.7z
				 M92.5,343.7C92.5,343.7,92.5,343.7,92.5,343.7C92.5,343.7,92.5,343.7,92.5,343.7L92.5,343.7z M92.5,343.7
				C92.5,343.7,92.5,343.7,92.5,343.7C92.5,343.7,92.5,343.7,92.5,343.7L92.5,343.7z M92.5,343.7C92.5,343.7,92.5,343.7,92.5,343.7
				C92.5,343.7,92.5,343.7,92.5,343.7L92.5,343.7z M92.5,343.7L92.5,343.7C92.5,343.7,92.5,343.7,92.5,343.7L92.5,343.7z
				 M92.5,343.7C92.5,343.7,92.5,343.7,92.5,343.7C92.5,343.7,92.5,343.7,92.5,343.7L92.5,343.7z M92.5,343.7
				C92.5,343.7,92.5,343.7,92.5,343.7C92.5,343.7,92.5,343.7,92.5,343.7L92.5,343.7z M78.7,346.3C78.7,346.3,78.7,346.3,78.7,346.3
				C78.7,346.3,78.7,346.3,78.7,346.3z M78.7,346.3C78.7,346.3,78.7,346.3,78.7,346.3C78.7,346.3,78.7,346.3,78.7,346.3L78.7,346.3z
				 M78.7,346.4C78.7,346.4,78.7,346.4,78.7,346.4C78.7,346.4,78.7,346.4,78.7,346.4z M78.7,346.4C78.7,346.4,78.7,346.4,78.7,346.4
				C78.7,346.4,78.7,346.4,78.7,346.4z M78.7,346.4C78.7,346.4,78.7,346.4,78.7,346.4C78.7,346.4,78.7,346.4,78.7,346.4L78.7,346.4z
				 M78.7,346.5C78.7,346.5,78.7,346.5,78.7,346.5C78.7,346.5,78.7,346.5,78.7,346.5z M78.7,346.5C78.7,346.5,78.7,346.5,78.7,346.5
				C78.7,346.5,78.7,346.5,78.7,346.5L78.7,346.5z M92.9,347.5L92.9,347.5c-0.2-1.7-0.3-3.2-0.4-3.8
				C92.6,344.3,92.7,345.8,92.9,347.5z M78.9,348.7c0-0.8-0.1-1.5-0.2-2.2C78.8,347.2,78.8,347.9,78.9,348.7L78.9,348.7z"/>
			<path class="st19" d="M135.7,201.7l24.6,30.1l24-29.3c0,0,10.4,4.1,17.8,7.7c0,0-39.7,75.8-38.3,75.8c1.4,0-48.8-75.3-47.7-75.8
				C122.8,207.3,135.7,201.7,135.7,201.7"/>
			<g>
				<path class="st14" d="M162.7,250.4L162.7,250.4c14.6,20.7,31.2,40.2,46.8,60.3c3.7,4.7-9.5,12.6-13.2,7.8
					c-15.6-20.1-30.5-40.5-46.8-60.3c0.7,0.9,4.2-0.1,7.9-2.3C161,253.8,163.4,251.3,162.7,250.4L162.7,250.4z M149.5,258.2
					L149.5,258.2L149.5,258.2L149.5,258.2z"/>
				<path class="st20" d="M154.8,252.7c3.6-2.1,7.2-3.2,7.9-2.3c0.7,0.9-1.7,3.4-5.3,5.5c-3.6,2.1-7.2,3.2-7.9,2.3
					C148.8,257.3,151.2,254.8,154.8,252.7"/>
				<path class="st19" d="M189.2,285.2c-1.4,1.4-3.1,2.8-5.2,4c-2.6,1.6-5.3,2.6-7.7,3.1c-1.2-1.6-2.4-3.2-3.7-4.8
					c2.4-0.5,5.1-1.6,7.7-3.1c2.1-1.2,3.8-2.6,5.2-3.9C186.7,282,188,283.6,189.2,285.2"/>
			</g>
			<path class="st7" d="M199.7,116.5c0,0-1.6,40.5-2.1,45.1c-1.3,13.9-18.3,24.3-26.1,27.8c-5.3,2.6-15.2,3.3-21,0
				c-8.2-2-23.9-14.4-23.9-25.1c0,0-3-45.1-2.9-48.9C121.5,71,201.7,71.1,199.7,116.5"/>
			<path class="st21" d="M197.1,104.2c3.3,8.1,5.2,15.6,4.1,20.9c-1.1,5.3-1.4,16.9-1.9,17.9c-0.5,1-3.1,1.2-3.1,1.2
				s1.9-28.5-1.9-40.5L197.1,104.2z"/>
			<path class="st21" d="M126.4,104.2c-3.3,8.1-5.2,15.6-4.1,20.9c1.1,5.3,1.4,16.9,1.9,17.9c0.5,1,3.1,1.2,3.1,1.2
				s-1.9-28.5,1.9-40.5L126.4,104.2z"/>
			<path class="st8" d="M161.5,80.8c-21.4,0-38.6,11.7-38.6,16.5v15.8c26-10.3,51.8-10.9,77.3,0V97.4
				C200.2,92.6,182.9,80.8,161.5,80.8"/>
			<path class="st10" d="M122.6,131.8c-1.4,0-5.8-2.3-7.2-0.9c-1.3,1.4,0.6,8.8,1.7,11.4c1.1,2.6,4.6,3.7,4.9,2.9
				c0.4-0.8-0.8-3.8-2-5.5c-1.2-1.7-1.1-3,0.1-3.6c1.2-0.6,2.3-0.6,2.4-2.4C122.6,131.8,122.6,131.8,122.6,131.8"/>
			<path class="st10" d="M201,131.8c1.4,0,5.8-2.3,7.2-0.9c1.3,1.4-0.6,8.8-1.7,11.4c-1.1,2.6-4.6,3.7-4.9,2.9
				c-0.4-0.8,0.8-3.8,2-5.5c1.2-1.7,1.1-3-0.1-3.6c-1.2-0.6-2.3-0.6-2.4-2.4C201,131.8,201,131.8,201,131.8"/>
			<path class="st22" d="M134.5,126.1c-2.2,1.8-1.1,3.5,0.9,2.8c9.6-3.2,9.9-2,17.3-3.6c2.4-0.5,4.2-2.2,0.6-3.3
				C150.2,121,137,124,134.5,126.1"/>
			<path class="st22" d="M189.4,126.8c2.1,1.9,1,3.5-0.9,2.8c-9.2-3.6-9.4-2.3-16.5-4.3c-2.3-0.6-4.1-2.4-0.5-3.3
				C174.3,121.1,187,124.6,189.4,126.8"/>
			<path class="st23" d="M108.8,82.4h1.6l-2.9,2c-0.1,0.1-0.2,0.1-0.2,0.2l0,0l0,0c-0.5,0.4-0.8,0.9-0.8,1.5v25.8v1.7h-1.9V86
				C104.6,84,106.5,82.4,108.8,82.4"/>
			<path class="st24" d="M109.7,82.4h0.8l-2.9,2c-0.1,0.1-0.2,0.1-0.2,0.2l0,0l0,0c-0.5,0.4-0.8,0.9-0.8,1.5v25.8v1.7h-1V86
				C105.5,84,107.4,82.4,109.7,82.4"/>
			<path class="st23" d="M105.6,113c2,0,3.6,1.8,3.6,4c0,2.2-1.6,4-3.6,4c-2,0-3.6-1.8-3.6-4C102,114.8,103.6,113,105.6,113"/>
			<path class="st24" d="M105.6,113c2,0,3.6,1.8,3.6,4c0,1-0.3,2-0.9,2.7c-0.4,0.2-0.8,0.3-1.3,0.3c-2,0-3.6-1.8-3.6-4
				c0-1,0.3-2,0.9-2.7C104.7,113.1,105.2,113,105.6,113"/>
			<path class="st23" d="M105.7,121.5h-2.1c-3.3,7.8,0.4,27.6-2.1,48.6h4.2h4.2c-2.5-21,1.1-40.8-2.3-48.6H105.7z"/>
			<path class="st24" d="M103.9,170.1h1.8h4.2c-2.5-21,1.1-40.8-2.3-48.6h-4.1C100.2,129.3,106.4,149.1,103.9,170.1"/>
			<rect x="103.6" y="120.1" class="st25" width="4.1" height="1.4"/>
			<path class="st26" d="M107.6,120.1v1.4h-3.9C104.7,120.7,106,120.2,107.6,120.1"/>
		</g>
		<polygon class="st27" points="219,307.8 227.7,304.9 222,293.2 201.1,298 		"/>
		<path class="st10" d="M152.2,157.8c0,0,5.2-2.9,8.6-2.7c3.4,0.2,7.6,2.7,7.6,2.7S160.2,161.8,152.2,157.8z"/>
		<path class="st10" d="M183,164.2c-1.3,2-2.5,3.8-3.8,5.4c-3.4,3.9-7.9,6.3-19.1,6.3c-7.8,0-12-1.5-15.2-4.9
			c-1.5-1.6-2.8-3.6-4.2-6.1c1.1,0.2,2.2,0.4,3.3,0.6h0c15,2.4,23.3,1.5,35.9-0.7C180.8,164.6,181.9,164.4,183,164.2z"/>
		<path class="st14" d="M179.8,164.7l-0.6,4.8c-3.4,3.9-7.9,6.3-19.1,6.3c-7.8,0-12-1.5-15.2-4.9l-0.9-5.5h0
			C158.9,167.8,167.2,166.9,179.8,164.7z"/>
		<path class="st28" d="M144.4,168.4c0,0,15.5,6.4,35.1-1.5C165.3,173.8,153.8,172.3,144.4,168.4z"/>
		<path class="st14" d="M154.5,139.4c0,0-3.2-5.2-5.8-7.3c-8.8,1.6-14.4,7.3-14.4,7.3S143,142.5,154.5,139.4z"/>
		<path class="st14" d="M169.7,139.4c0,0,3.2-5.2,5.8-7.3c8.8,1.6,14.4,7.3,14.4,7.3S181.2,142.5,169.7,139.4z"/>
		<g>
			<defs>
				<path id="SVGID_3_" d="M154.5,139.4c0,0-3.2-5.2-5.8-7.3c-8.8,1.6-14.4,7.3-14.4,7.3S143,142.5,154.5,139.4z"/>
			</defs>
			<clipPath id="SVGID_4_">
				<use xlink:href="#SVGID_3_"  style="overflow:visible;"/>
			</clipPath>
			<ellipse class="st29" cx="145.3" cy="136.9" rx="4.2" ry="3.8"/>
		</g>
		<ellipse class="st14" cx="144.3" cy="135.2" rx="1.3" ry="1.2"/>
		<g>
			<ellipse class="st22" cx="178.4" cy="136.9" rx="4.2" ry="3.8"/>
			<ellipse class="st14" cx="177.3" cy="135.2" rx="1.3" ry="1.2"/>
		</g>
		<path class="st7" d="M216.7,304.7c0.3-1-14.3-17.5-14.3-17.5l-25.7,7.3v6.3l4.1,1v3.3l3.9,1.5l-0.3,1.7l5.4,2.3l5.1-1.5l-6.7,5.2
			l1.5,3.2l7-3.1l10.2-6.8l2.6,3.6l9.6-3.4L216.7,304.7z"/>
		<path class="st8" d="M267.8,281.5c-22.6,16.8-41.9,26.4-41.9,26.4l-5.8-9.5l-5.8-9.6l30.7-18l-44-31.1l3.6-12.6l3.8-13.4
			c0,0,30.7,13.4,61.4,44.4c2.1,2.1,3.5,4.6,4.1,7.2C275.5,271.1,273.3,277.4,267.8,281.5z"/>
		<path class="st9" d="M258.1,263.6l-13.1,7.1l-28.4-20.1c-0.5-6.7-1-12.8-1.4-18.1C236.1,244.5,258.1,263.6,258.1,263.6z"/>
		<path class="st9" d="M267.8,281.5c-22.6,16.8-41.9,26.4-41.9,26.4l-5.8-9.5c0,0,33.8-17.5,53.8-33
			C275.5,271.1,273.3,277.4,267.8,281.5z"/>
		<path class="st9" d="M116.8,438L116.8,438c-5.2-0.8-8.7-1.8-9.7-2.9c-2.3-16.3-3.3-124.5-2.3-182.8
			C106.4,268.7,117.3,389.5,116.8,438z"/>
	</g>
</g>
</svg>
