<svg xmlns="http://www.w3.org/2000/svg" viewBox="0 0 563.21 534.78"><defs><style>.cls-1{fill:url(#linear-gradient)}.cls-2{isolation:isolate}.cls-3{fill:#294062}.cls-4{fill:#4d607c}.cls-16,.cls-5,.cls-8,.cls-9{fill:#001c44}.cls-23,.cls-28,.cls-5{opacity:.5}.cls-16,.cls-17,.cls-21,.cls-28,.cls-5,.cls-8{mix-blend-mode:multiply}.cls-6{mask:url(#mask)}.cls-7{fill:#75849a;opacity:.7}.cls-8{opacity:0}.cls-21,.cls-24,.cls-9{opacity:.4}.cls-10{fill:#7384a2}.cls-11{fill:#002f5c}.cls-12{fill:url(#linear-gradient-2)}.cls-13{fill:url(#linear-gradient-3)}.cls-14{fill:#8291ac}.cls-15{fill:#002856}.cls-16,.cls-17{opacity:.2}.cls-17{fill:url(#radial-gradient)}.cls-18{fill:#c49a6c}.cls-19{fill:#b9c2ce}.cls-20,.cls-23{fill:#b5bdc9}.cls-21,.cls-26{fill:#94a0b0}.cls-22{fill:#fdfdfd}.cls-24{fill:#9ea9b8;mix-blend-mode:darken}.cls-25{fill:#fff}.cls-27{fill:#c9a379}.cls-28,.cls-33{fill:#c69e72}.cls-29{fill:#003561}.cls-30{fill:#8c9ab2}.cls-31{fill:#0a3a66}.cls-32{fill:#c8a075}.cls-34{fill:#c9a278}.cls-35{fill:#d3b391}</style><linearGradient id="linear-gradient" x1="482.43" y1="245.02" x2="383.37" y2="245.02" gradientUnits="userSpaceOnUse"><stop offset="0" stop-color="#fff"/><stop offset=".11" stop-color="#dadada"/><stop offset=".36" stop-color="#8d8d8d"/><stop offset=".58" stop-color="#515151"/><stop offset=".77" stop-color="#252525"/><stop offset=".91" stop-color="#0a0a0a"/><stop offset="1"/></linearGradient><mask id="mask" x="264.55" y="104.01" width="303.71" height="282.02" maskUnits="userSpaceOnUse"><path class="cls-1" d="M264.55 104.01h303.71v282.02H264.55z"/></mask><linearGradient id="linear-gradient-2" x1="121.89" y1="266.67" x2="131.14" y2="266.67" gradientUnits="userSpaceOnUse"><stop offset="0" stop-color="#a8b2c5"/><stop offset="1" stop-color="#2d4d76"/></linearGradient><linearGradient id="linear-gradient-3" x1="1278.1" y1="1154.81" x2="1433.07" y2="1172.1" gradientTransform="matrix(.89 0 0 .89 -1089.33 -722.18)" gradientUnits="userSpaceOnUse"><stop offset="0" stop-color="#a8b2c5"/><stop offset=".19" stop-color="#8c9bb3"/><stop offset=".56" stop-color="#597192"/><stop offset=".84" stop-color="#39577e"/><stop offset="1" stop-color="#2d4d76"/></linearGradient><radialGradient id="radial-gradient" cx="275.87" cy="552.03" r="162.78" gradientUnits="userSpaceOnUse"><stop offset="0" stop-color="#231f20"/><stop offset=".22" stop-color="#16325b"/><stop offset="1" stop-color="#fff"/></radialGradient></defs><title>academic</title><g class="cls-2"><g id="Content"><path class="cls-3" d="M444.59 256.05c.38 11.49-86.64 73.44-174.46 74.18-89.25.77-179.32-59.83-179.32-74.11v53.82c0 14.28 59.61 65.68 179.32 65.68 113.8 0 174.84-54.18 174.46-65.68zM444.59 256.4z"/><path class="cls-4" d="M444.5 254.36c-2.93-35.13-81-63.28-176.8-63.28S93.75 219.26 90.89 254.41c0 .66-.09 1.33-.09 2 0 35.79 77.93 73.35 174.54 73.82h6.08c95.93-.73 173.09-38.16 173.17-73.75v-.11c0-.68-.04-1.37-.09-2.01z"/><path class="cls-3" d="M435.36 106.47L267.7 198 100 106.47l.33 147.15c0 13.51 52.23 63.67 169.64 63.67 126.25 0 165.4-52.8 165-63.67z"/><path class="cls-5" d="M100.25 221.91c0-18.55 28.38-19.75 67.15-2.36 64.73 29 139 97.63 192.36 86.51 50.28-14.47 71.14-39 74.71-49.44.24-2.27.44-4.19.58-5.56l.15-67.35c-2.45-.07-68.28-2.07-133.54-4.23L267.7 198l-38.54-21c-33.81-1.23-57.94-2.27-57.51-2.7 1.41-1.41-67.44-12.73-67.44-12.73l-4 2.39z"/><path class="cls-6 cls-7" d="M435.27 234.8v-54.08l-53.76 23.27 2.83 96.21 47.79-40.87 3.14-24.53z"/><path class="cls-8" d="M179.33 273c25.56 9 55.78 14.62 88.32 14.62 102.82 0 167.39-38.36 167.39-67.36l.32-102.34-167.66-16.74L100 113.05l.33 88.43c0 24.06 26.52 50.15 67.76 67.23z"/><path class="cls-3" d="M449.97 104.49L267.59 22.45 86.65 104.49 0 121.45v17.87h.01l267.58 118.84 269.97-118.84h.01v-17.87l-87.6-16.96z"/><path class="cls-4" d="M267.59 0L0 121.45l267.59 118.84 269.98-118.84L267.59 0z"/><path class="cls-9" d="M271.47 106s-121.65 36.15-140.12 68.73c-1.94 3.42-3.21 9.24-4 16.08l10.61 6.11s.12-14.39 1.92-17.54C158.29 147.12 282 109.91 282 109.91z"/><path class="cls-5" d="M292.28 107.74c0 6.28-10.65 11.37-23.77 11.37s-23.77-5.09-23.77-11.37 10.64-11.37 23.77-11.37 23.77 5.1 23.77 11.37z"/><path class="cls-10" d="M123 237.51c-.31-6-2.55-54 4.74-66.9 17.73-31.27 133.08-66.45 139.52-68.39l6.8 5.14c-12.81 3.77-121.17 36.5-138.79 67.34-6.9 12.06-4.14 56-3.76 61.53z"/><path class="cls-11" d="M251.52 113.05l7.07-2a51.89 51.89 0 0 0-3.77-3.68c-.51-.26-3 1-3 1l-1.37.57c1.2-.25 2.66 3.47 1.07 4.11z"/><path class="cls-3" d="M290.64 102c0 5.84-9.91 10.58-22.13 10.58s-22.13-4.74-22.13-10.58 9.91-10.59 22.13-10.59 22.13 4.72 22.13 10.59z"/><path class="cls-12" d="M121.89 251.78h9.25v29.78h-9.25z"/><path class="cls-13" d="M158.31 356.23c0-3.93-3.5-35-9.54-62.4-4.71-21.34-9.94-40.81-22.93-40.81-29.63 0-33.07 95.11-32.47 103.21.35 4.76 2.78 9.67 9.63 13.5a31.58 31.58 0 0 0 6.87 2.45 67.83 67.83 0 0 0 16 1.64 50.23 50.23 0 0 0 8.38-.42c3.32-.58 4.9-.73 6.72-1.13 13.44-2.93 17.34-10.68 17.34-16.04z"/><path class="cls-14" d="M128.9 253.42a11.87 11.87 0 0 0-2.77-.38c-1.48.89-3.41 2.12-5.89 3.77-19.57 13.05-24.87 80.44-25 105.7a19.47 19.47 0 0 0 7.75 7.22 31.58 31.58 0 0 0 6.87 2.45 52.58 52.58 0 0 0 6.15 1.09c.43-42.85 5.77-109.2 8.94-116 .05.01 2.32-2.09 3.95-3.85z"/><path class="cls-15" d="M152.23 367.26c4.5-3.45 6.08-7.66 6.08-11 0-7-2.84-103.21-32.47-103.21-4.09 0-7.68 1.82-10.83 5-1.71 2.44 13 3.39 17.49 10.14 10.69 16 19.81 46.22 19.81 98.41a5.66 5.66 0 0 1-.08.66z"/><path class="cls-16" d="M468 403.64c-21.48 7.42-39.73 14.64-57.8 22.51-9.63-23.9-71.73-42.34-146.91-42.34-81.85 0-148.21 21.86-148.21 48.83 0 26.58 64.51 48.2 144.77 48.81-24.71 4-42.43 12-42.43 21.07 0 11 13.38 24.68 31.6 29.24 24.52 6.13 35.84 1.41 42.92-1 41.52-13.84 221.27-90.15 232.65-96.68 13.09-7.46-39.33-36.42-56.59-30.44z"/><path class="cls-17" d="M467.34 405.84c-22 5.66-39.1 12.44-57.17 20.31-9.63-23.9-71.73-42.34-146.91-42.34-81.85 0-148.21 21.86-148.21 48.83 0 26.58 64.51 48.2 144.77 48.81-24.71 4-42.43 12-42.43 21.07 0 11 13.38 24.68 31.6 29.24 24.52 6.13 35.84 1.41 42.92-1 41.52-13.84 221.27-90.15 232.65-96.68 13.12-7.46-40.47-32.55-57.22-28.24z"/><path class="cls-18" d="M400.54 342.81c20.74 27.94 24.68 60.15 8.78 71.95s-45.58-1.28-66.33-29.22-24.67-60.15-8.78-72 45.59 1.34 66.33 29.27z"/><path class="cls-19" d="M484.15 189.25l.1.11c14.11-11.68 41.19-2.77 60.7 20 18.35 21.48 23.49 47.66 12.58 60.77l-275.91 251-73.79-81.36z"/><path class="cls-20" d="M220 501.91c-8.63-10.11-16.7-20.16-19.2-30.5-1-4 8.25-8.76 6.47-12.13-3.16-6-2.84-16 2.63-20.67 14-12 41.32-3.1 60.94 19.86S295 509.76 281 521.76s-41.34 3.11-61-19.85z"/><path class="cls-21" d="M405.41 286.07l.07.07c9.51-7.88 27.76-1.87 40.9 13.51 12.37 14.47 15.84 32.12 8.49 41l.27.3-186.23 168.83s9.69-17.31-8.8-39.46c-16.79-20.11-34.76-14.05-34.76-14.05z"/><path class="cls-21" d="M256 467.46c-2.74-3.2-19.41 15.61-21.76 12.49-9-12-12.45-17.22-4.94-23.63 9.46-8.09 17.57-1.47 30.79 14s17.84 31.76 8.37 39.84c-4.07 3.48 3.85-3.28 3.62-10.85-.26-10-8.53-23.04-16.08-31.85z"/><path class="cls-22" d="M270.88 458.47c-19.62-23-46.9-31.85-60.94-19.86a20.51 20.51 0 0 0-1.7 1.66l-.41-.44 276.32-250.58.1.11c14.11-11.68 41.19-2.77 60.7 20 18.35 21.48 23.49 47.66 12.58 60.77l-273.8 252.66-2.12-1.61c13.26-12.3 8.59-40.11-10.73-62.71z"/><path class="cls-23" d="M433.86 353.67c-.06-.24 15.62 8.53 15.56 8.31L563.08 254c.94-19.81-10.74-36-18.16-44.65-1.45-1.69-2.94-3.3-4.45-4.83L427.94 305.06c.62-2.46 1-3.77 1.6-6.3l-9.55 1c-.12-2.46-.18-3.68-.29-6.14l-9.11 2.28c-.83-2.2-1.24-3.3-2.07-5.49l-8.31 3.39-3.6-4.65-7.25 4.27-4.87-3.65-6 4.92-5.83-2.6-4.62 5.36-6.52-1.49-3.18 5.56-6.94-.38c-.68 2.23-1 3.35-1.72 5.59l-7.09.69c-.1 2.16-.15 3.25-.26 5.42l-7 1.72c.46 2 .71 3.05 1.15 5.11l-6.73 2.72c1 1.85 1.51 2.76 2.57 4.54l-6.21 3.66c1.51 1.57 2.29 2.34 3.9 3.81l-5.55 4.58a57.14 57.14 0 0 0 5.14 2.94c-1.9 2.18-2.87 3.28-4.67 5.36a45.1 45.1 0 0 0 6.28 1.88c-1.42 2.39-2.14 3.6-3.52 6 2.85.32 4.35.41 7.38.55-.94 2.61-1.41 3.93-2.31 6.51 3.16-.2 4.78-.34 8-.65-.38 2.77-.58 4.16-.92 6.89 3.28-.68 4.95-1.05 8.3-1.8.21 2.85.3 4.29.6 7 1.63-.57 2.86-1 4.1-1.46l-87.1 77.8 12.07 10.67L290 505.35l136.78-124.51c1.1 0-4-15.86-2.58-15.94 0-1.24.08-2.3.11-3.3l8.64-7.93z"/><path class="cls-24" d="M557.53 270.18c3.53-4.24 5.37-9.85 5.63-16.23h-.08L453.29 358.14l-41.12 35.95-117.91 107.48-11.67 20.36 1.14.86z"/><path class="cls-25" d="M274.63 529.8a28.33 28.33 0 0 0 17.49-17.08c5.56-14.51.93-33.87-12.4-51.78-24.61-33.08-49.44-36.64-64.46-28.95-5.47 2.8-9 6.91-10.59 12.2-3.85 13.05 5.85 29.87 11.07 38.9l.76 1.32c6.66 11.62 33.37 34.54 48.38 28.46 4.88-2 8.15-5.12 9.71-9.36 3.41-9.28-2.62-20.77-5.86-26.94l-.47-.91c-4.41-8.46-26-29.83-38.26-23.8a11.93 11.93 0 0 0-6.86 8.83c-1.37 7.78 4.44 17.18 8.68 21.6a3.38 3.38 0 1 0 4.88-4.69c-3.29-3.43-7.76-10.81-6.89-15.74a5.23 5.23 0 0 1 3.18-3.93c6.5-3.22 25.25 13.13 29.26 20.85l.49.93c2.55 4.87 7.87 15 5.5 21.46-.89 2.41-2.81 4.18-5.89 5.42-9.43 3.85-33.4-14.07-40-25.55l-.76-1.33c-4.71-8.15-13.47-23.33-10.44-33.6 1-3.5 3.38-6.15 7.19-8.1 12-6.14 33.83-2.76 55.94 27 11.94 16 16.24 33 11.51 45.32a22 22 0 0 1-16.82 14c-17.58 3.54-51.61-15.74-64.94-54a3.38 3.38 0 0 0-6.39 2.22c14.73 42.33 52.25 62.57 72.67 58.45a32.86 32.86 0 0 0 4.32-1.2z"/><path class="cls-26" d="M399.71 340.52c-15.29-17.89-34.63-28.32-50.52-28.88l-15.95 14.46a6.52 6.52 0 0 0 2.15-1.15c12.36-9.24 40.95 3.13 57.39 22.36 18.52 21.68 25 47.06 13 62.86L420 397c2.93-16-4.31-37.78-20.29-56.48z"/><path class="cls-18" d="M402.54 337.69c-22.39-26.2-53.47-36.42-69.67-23l-2.49 2.6-2.19 4.53.74 2.11c4.31-3.57 4.5 1.79 9.29-1.8 12.36-9.24 40.95 3.13 57.39 22.36 19.05 22.3 25.4 48.51 12 64.19-1.24 1.44 2.31 4.21 1.12 5.64 0 0 1 .16 1.26 0a76 76 0 0 0 7-6.83c12.52-15.09 6.61-45.14-14.45-69.8z"/><path class="cls-27" d="M432.68 310.8c-22.39-26.2-53.47-36.43-69.67-23l-.11-.13-29.47 26.57c16.43-12.29 47-2 69 23.67 21.07 24.66 27 54.71 14.45 69.76l30.29-27.11c12.48-15.05 6.58-45.11-14.49-69.76z"/><path class="cls-28" d="M432.68 310.8c-.14-.17-.29-.32-.43-.49-6.5.2-13.8.56-14.19 1.21-.51.85-15.07 12.29-22.92 18.75a101.41 101.41 0 0 1 7.25 7.63c12.67 14.83 19.85 31.62 20.84 45.91l30.23-27.93c-1.21-14.11-8.35-30.53-20.78-45.08z"/><g class="cls-2"><path class="cls-29" d="M470.16 317.39l-1.05 6.39-71.47 3.2-2.16-6.27 74.68-3.32z"/><path class="cls-30" d="M454.46 296.09l15.7 21.3-74.68 3.32 20.25-23.58 38.73-1.04z"/></g><g class="cls-2"><path class="cls-29" d="M399.08 359.8l2.17 6.27-38.49-21.84-2.16-6.28 38.48 21.85z"/><path class="cls-29" d="M443.9 347.98l2.16 6.27-44.81 11.82-2.17-6.27 44.82-11.82z"/><path class="cls-30" d="M394.87 321.43l49.03 26.55-44.82 11.82-38.48-21.85 34.27-16.52z"/></g><path class="cls-31" d="M406.99 351.99l2.14-5.34 7.99-.92.46-5.14 8.09-2-.15-.56-30.65-16.6-34.27 16.52 32.99 18.73 2.17.42 3.7-5.3 7.53.19z"/><path class="cls-32" d="M408.9 269.16l4.33 12.54 1.19 4.73-4.33-12.54-1.19-4.73z"/><path class="cls-33" d="M329.16 304.84l4.32 12.54-2.86-4.09-4.33-12.54 2.87 4.09zM418.18 271.87l4.33 12.54-.51 5.15-4.32-12.55.5-5.14zM326.28 311.97l4.32 12.54-4.37-3.28-4.32-12.54 4.37 3.28zM425.66 276.07l4.32 12.54-2.16 5.34-4.33-12.55 2.17-5.33z"/><path class="cls-33" d="M325.63 318.84l4.33 12.54-5.7-2.33-4.32-12.55 5.69 2.34zM431.04 281.58l4.32 12.54-3.74 5.3-4.33-12.55 3.75-5.29z"/><path class="cls-33" d="M327.24 325.14l4.33 12.55-6.76-1.28-4.33-12.55 6.76 1.28zM434.06 288.15l4.33 12.55-5.17 5.02-4.32-12.54 5.16-5.03z"/><path class="cls-33" d="M331.05 330.61l4.32 12.54-7.54-.17-4.33-12.54 7.55.17zM434.59 295.51l4.33 12.54-6.34 4.54-4.33-12.54 6.34-4.54z"/><path class="cls-33" d="M336.86 335l4.32 12.55-7.98.94-4.33-12.54 7.99-.95zM432.63 303.33l4.32 12.54-7.24 3.84-4.33-12.54 7.25-3.84z"/><path class="cls-33" d="M344.45 338.13l4.32 12.54-8.08 2.01-4.32-12.54 8.08-2.01z"/><path class="cls-34" d="M428.25 311.25l4.32 12.55-7.84 2.98-4.33-12.54 7.85-2.99zM353.46 339.85l4.33 12.54-7.84 3.01-4.32-12.54 7.83-3.01z"/><path class="cls-33" d="M420.4 314.24l4.33 12.54 1.23 4.72-4.32-12.54-1.24-4.72z"/><path class="cls-34" d="M421.64 318.96l4.32 12.54-8.09 2-4.33-12.55 8.1-1.99zM363.52 340.09l4.32 12.55-7.21 3.85-4.33-12.54 7.22-3.86z"/><path class="cls-33" d="M356.3 343.95l4.33 12.54-2.84-4.1-4.33-12.54 2.84 4.1zM413.08 326.1l4.33 12.54-7.98.92-4.33-12.54 7.98-.92z"/><path class="cls-34" d="M413.54 320.95l4.33 12.55-.46 5.14-4.33-12.54.46-5.15zM374.18 338.84l4.33 12.54-6.32 4.55-4.33-12.54 6.32-4.55z"/><path class="cls-33" d="M367.86 343.39l4.33 12.54-4.35-3.29-4.32-12.55 4.34 3.3zM402.96 332.36l4.32 12.54-7.53-.19-4.32-12.55 7.53.2z"/><path class="cls-34" d="M405.1 327.02l4.33 12.54-2.15 5.34-4.32-12.54 2.14-5.34zM384.97 336.17l4.32 12.54-5.11 5.03-4.33-12.54 5.12-5.03z"/><path class="cls-33" d="M379.85 341.2l4.33 12.54-5.67-2.36-4.33-12.54 5.67 2.36zM391.73 337.47l4.32 12.54-6.76-1.3-4.32-12.54 6.76 1.3z"/><path class="cls-35" d="M420.4 314.23l1.23 4.72-8.09 2-.46 5.14-8 .93-2.08 5.33-7.53-.2-3.7 5.3-6.75-1.3-5.12 5-5.67-2.36-6.32 4.55-4.35-3.3-7.21 3.85-2.84-4.09-7.83 3-1.19-4.73-8.07 2 .48-5.14-8 .95 2.17-5.35-7.54-.16 3.74-5.3-6.76-1.28 5.15-5-5.69-2.33 6.33-4.53-4.37-3.28 7.25-3.85-2.86-4.09 7.84-3-1.26-4.71 8.09-2 .46-5.13 8-.92 2.14-5.34 7.53.19 3.71-5.3 6.75 1.3 5.13-5 5.66 2.34 6.32-4.54 4.34 3.3 7.24-3.86 2.82 4.11 7.83-3 1.19 4.73 8.08-2-.5 5.14 8-.94-2.16 5.33 7.54.18-3.75 5.29 6.78 1.28-5.17 5 5.7 2.33-6.38 4.51 4.37 3.28-7.24 3.83 2.86 4.09zm-67.88 20.58"/><path class="cls-34" d="M395.43 332.16l4.32 12.55-3.7 5.3-4.32-12.54 3.7-5.31z"/></g></g></svg>