<svg xmlns="http://www.w3.org/2000/svg" viewBox="0 0 673.55 538.44"><defs><style>.cls-1{fill:#284972}.cls-2{fill:#fff}.cls-3{fill:#d0af8b}.cls-4{fill:#143e69}.cls-5{fill:#bbc2d2}.cls-6{fill:#8c9ab2}.cls-7{fill:#99a5bb}.cls-8{fill:#002856}.cls-9{fill:#16325b}.cls-10{opacity:.82}.cls-11{fill:#cfac86}.cls-12,.cls-14,.cls-15,.cls-16,.cls-17{fill:none}.cls-13{fill:#ecdece}.cls-14,.cls-15,.cls-16,.cls-17{stroke:#e1cbb4;stroke-miterlimit:10;stroke-width:.04px}.cls-15,.cls-16,.cls-17{stroke-dasharray:.13 .09}.cls-18{fill:#c69e72}.cls-19{fill:#ccac8d}.cls-20{fill:#f3f8ff}.cls-21{opacity:.15}.cls-22{fill:#bec5d4}.cls-23{fill:#c49a6c}.cls-24{fill:#36537b}.cls-25{fill:#a3aec2}.cls-26{fill:#8291ac}.cls-27{fill:#002f5c}.cls-28{fill:#b9c1d0}.cls-29{fill:#9ca8bd}</style></defs><title>broad-experience</title><g id="Content"><path class="cls-1" d="M240.06 11.38h-1.76c-2.39 0-13.83.87-16.71 16.75h1S224.64 17.7 234.66 15a32.23 32.23 0 0 1 4.47-.38 14.11 14.11 0 0 1 4.54.54 18.4 18.4 0 0 1 11.53 13h1.1c-4.23-16.16-13.85-16.82-16.24-16.78z"/><path class="cls-2" d="M645.86 310.61a23 23 0 0 0-6.22-7.8 22.77 22.77 0 0 0-14.32-5.07 23 23 0 0 0-8.69 1.71l-1 .4-.67-.8a33.44 33.44 0 0 0-39.11-9.05l-.82.37-.68-.58A28.48 28.48 0 0 0 547 284.5l-.85.28-.62-.64a39.22 39.22 0 0 0-27.93-11.7 39.52 39.52 0 0 0-9.21 1.09 38.92 38.92 0 0 0-16.12 8.19 39.88 39.88 0 0 0-6.28 6.76l-.1.14a1.71 1.71 0 0 1-.11.14l-.53.75-.9-.18a31.48 31.48 0 0 0-5.75-.56h-.17a30.81 30.81 0 0 0-26.92 15.62l-.4.7h-.81a18.94 18.94 0 0 0-4.65.68 18.44 18.44 0 0 0-7.11 3.77 18.92 18.92 0 0 0-2.6 2.7l-.52.66-.83-.13a26.88 26.88 0 0 0-4.32-.35A24.59 24.59 0 0 0 419 315a14.14 14.14 0 0 0-6.55 6.36 9.73 9.73 0 0 0-.94 4.13 11.31 11.31 0 0 0 .06 1.17l.16 1.64H647l.34-1.35v-.07a23.62 23.62 0 0 0 .84-6.22 22.85 22.85 0 0 0-2.32-10.05z"/><path class="cls-2" d="M418.73 321a18.29 18.29 0 0 1 11.52-3.73 21.83 21.83 0 0 1 5.16.55l2.15.5 1.17-1.88a14 14 0 0 1 11.93-6.62c.34 0 .72 0 1.15.05l2.07.17.76-1.54.16-.33a26.29 26.29 0 0 1 30.37-13.79l2.16.57 1.2-1.88c.53-.83 1.09-1.62 1.68-2.39a35.53 35.53 0 0 1 3.45-3.87 34.5 34.5 0 0 1 49.73 2l1.44 1.63 2-.83a23.86 23.86 0 0 1 25.76 5l1.59 1.55 2-1a28.39 28.39 0 0 1 13.25-3.24 28.86 28.86 0 0 1 23.3 11.92l1.58 2.17 2.36-1.28a18.17 18.17 0 0 1 26 10.47 19.51 19.51 0 0 1 .85 5.7 22 22 0 0 1-.2 2.86h-226.6a7.73 7.73 0 0 1 2.01-2.76z"/><rect class="cls-2" x="116" y="174.29" width="6.53" height="17.12" rx="1.72" ry="1.72" transform="rotate(-35.66 119.27 182.863)"/><path class="cls-3" d="M254.64 328.36v8.52a156.75 156.75 0 0 0 3.05 30.79 153.33 153.33 0 0 0 8.79 28.75c.18.44.37.88.56 1.31h-15.32l-108.58 75.39 28.5-75.39H126.2A125.77 125.77 0 0 1 0 271.57v-8.52a125.91 125.91 0 0 1 126.2-126.33h140.4a124.69 124.69 0 0 1 96.37 45 150.09 150.09 0 0 0-15.6 5.61 152.09 152.09 0 0 0-80.89 81.49 153.76 153.76 0 0 0-8.79 28.77 156.75 156.75 0 0 0-3.05 30.77z"/><path class="cls-3" d="M392.17 263.05v8.52c0 60.21-41.1 110.17-97.13 123a127.13 127.13 0 0 1-13.66-57.67v-8.52c0-60.19 41.07-110.26 97.08-123.12a127.37 127.37 0 0 1 13.71 57.79z"/><circle class="cls-2" cx="96.74" cy="274.37" r="28.22"/><circle class="cls-2" cx="196.09" cy="274.37" r="28.22"/><path class="cls-4" d="M407 202h140.4a125.91 125.91 0 0 1 126.2 126.32v8.52a125.78 125.78 0 0 1-126.2 126.17h-45.49l28.5 75.39-108.58-75.35H407c-70 0-125.57-56.16-125.57-126.17v-8.52C281.38 258.35 336.94 202 407 202z"/><circle class="cls-2" cx="378.11" cy="333.14" r="28.22"/><circle class="cls-2" cx="477.46" cy="333.14" r="28.22"/><circle class="cls-2" cx="576.81" cy="333.14" r="28.22"/><path class="cls-5" d="M354.33 246.2c2.64.72 4.6 2.3 4.37 3.55a.87.87 0 0 1-.08.26s-6.77 6.69-.42 21.73c6.2 14.71 9.7 11.21 9.7 11.21l-9.41 1.57s-7.89-8.35-9.44-12.94c-3.68-11 .47-24 .47-24a5.12 5.12 0 0 1 4.81-1.38zM400.27 246.2c-2.64.72-4.6 2.3-4.38 3.55a1.34 1.34 0 0 0 .09.26s6.76 6.69.42 21.73c-6.21 14.71-9.7 11.21-9.7 11.21l9.41 1.57s7.89-8.35 9.43-12.94c3.69-11-.47-24-.47-24a5.09 5.09 0 0 0-4.8-1.38z"/><path class="cls-6" d="M390.25 233.17l-1.81-2-.43-.81-.88.15-.73 1.19-9.23 15v.06-.06l-10-16.21-.87-.15-2.86 3.37c1.3-.09 4-4.27 4.24-4.4a12.39 12.39 0 0 0 2.75-2.72 10.05 10.05 0 0 0 1.76-4.1c.11-.53.19-1 .25-1.55a22.61 22.61 0 0 0 .07-4.52h9.3a22.11 22.11 0 0 0 0 4.26 11.74 11.74 0 0 0 2 5.91 12.39 12.39 0 0 0 2.75 2.72c.15.07.76 1.15 1.85 1.31s1.22 2.51 1.84 2.55z"/><ellipse class="cls-7" cx="377.89" cy="204.54" rx="14.73" ry="19.1"/><path class="cls-8" d="M387.78 181a7.32 7.32 0 0 0-4.73-4.49c-11.39-3.7-20.89.7-25.91 10.28-.22.41-.44.84-.65 1.29-2.74 5.7-2.74 11.5-1.16 17.55 1.7 6.48 5.27 12.32 16.7 16.51 0 0-8.87-4.78-8.87-17.58 0 0 .42-4.93 1-6.08l5.09.06c.34-1-.61-2.91 2.1-4.59v4.46l6.5-.11s.29-3.72 1.92-4.84a5.8 5.8 0 0 0 1 5.13l5.38.07-.63-6.47s3.83 4.23 2.91 6.21l3.53.4s.83 15.88-9.42 24c0 0 9.12-1 14.47-13.56s1.99-20.38 1.99-20.38-3-8.7-11.22-7.86z"/><path class="cls-1" d="M384.44 181.8s-10.13-6.8-19.38 3.2a24.28 24.28 0 0 1 19.38-3.2z"/><path class="cls-1" d="M380.52 182.63s-11.88-2.73-17 9.9a24.31 24.31 0 0 1 17-9.9zM391.16 183.82s7.45 4 5.5 13.74a25.64 25.64 0 0 0-5.5-13.74z"/><path class="cls-9" d="M396.15 255.67c.43 2.13.78 4.09 1 5.58a46.31 46.31 0 0 0 5.41-1 35.38 35.38 0 0 0 6.36-2.06c-3.07-6.56-6.17-20.38-6.33-21-.52-1.7-1.52-4.51-4.65-4.76a4.74 4.74 0 0 0-1.16-.38 48.31 48.31 0 0 1-9.27-2.65l-1.4-.64c-.53 2.2-3 8.14-9.61 8.27-5.33.1-7.65-5.75-8.78-8l-1.21.88c-2.37 1.35-6.77 2.34-9.6 2.94h-.06a4.16 4.16 0 0 0-1 .38c-3.18.34-4.07 3.22-4.53 5-.14.63-2.7 14.55-5.52 21.22a34.83 34.83 0 0 0 6.43 1.82 47.6 47.6 0 0 0 5.45.82c.12-1.28.34-2.91.62-4.69a69.44 69.44 0 0 1 2.33 14.6 50.91 50.91 0 0 1-2.48 16.51c-.72 2.33 38.07 2.74 37.42.46a55.59 55.59 0 0 1-2.32-16.06 75.72 75.72 0 0 1 2.9-17.24z"/><g class="cls-10"><path class="cls-11" d="M448.46 196.46l-.01.21.01.02v-.23z"/><path class="cls-11" d="M512.13 172.41l-11.64-34.53a9.87 9.87 0 0 0-1.25-2.84 16.25 16.25 0 0 0-12.39-7.64l-5.76-.53L470 141.62l-11.09-14.75-5.75.53a16.22 16.22 0 0 0-12.39 7.6 9.91 9.91 0 0 0-1.26 2.84l-11.63 34.44a8.7 8.7 0 0 0-.32 2.71v.44a20.09 20.09 0 0 0 2.43 7.34l15.18 13.52 4.89 4.06L470 201l19.85-.84-.07.14 7.5-3.88 12.57-13.75a38.59 38.59 0 0 0 2.6-7.43 10.3 10.3 0 0 0-.32-2.83zm-63.68 24.29L439 175.23l.18-.56 8.31-24.12 1.69 46.92v.92l-.64-1.44zm42.83-.11v.11l-.05.25-.54 1.23.1-1.83 1.72-45.8 8.31 24.1h-.16l.12.59z"/><path class="cls-11" d="M491.24 196.69l.05-.1-.05-.13v.23z"/></g><path class="cls-12" d="M448.44 196.7l-.01-.01-9.49-21.46.21-.59 8.3-24.09.98 45.91.01.24z"/><path class="cls-6" d="M483.24 129.34l-8.44 8.93-4.8 3.35-5.09-3.35-8.39-8.93 2.18-2.46c3.17-.33 4.51-3 5-4.73a10.28 10.28 0 0 0 .3-1.23.62.62 0 0 0 0-.09H475.62s.74 5.53 5.34 6z"/><path class="cls-5" d="M456.55 94.85c.09 2.41-.4 4.5-1.64 4.54s-2.14-1.87-2.23-4.28.87-4.38 2.11-4.42 1.68 1.76 1.76 4.16zM483.4 94.85c-.08 2.41.41 4.5 1.65 4.54s2.14-1.87 2.23-4.28-.87-4.38-2.11-4.42-1.68 1.76-1.77 4.16z"/><path class="cls-7" d="M485.25 89.81l-1.78 15.24-.69 5.85a11.81 11.81 0 0 1-1.57 4.68 23.29 23.29 0 0 1-3.7 4.73c-.26.25-.53.5-.81.74a4.52 4.52 0 0 1-2.29 1.11 5.36 5.36 0 0 1-.54.14h-7.82a4.94 4.94 0 0 1-.74-.17 4.46 4.46 0 0 1-2.1-1c-.14-.12-.27-.27-.41-.39a22.68 22.68 0 0 1-4.09-5.12 11.66 11.66 0 0 1-1.58-4.69l-.64-5.46-1.83-15.63a16.61 16.61 0 0 1 1.12-8.31 15.43 15.43 0 0 1 28.36 0 16.61 16.61 0 0 1 1.11 8.28z"/><path class="cls-8" d="M488.55 79.09a12.83 12.83 0 0 0-.89-4.36 9.89 9.89 0 0 0-5.37-5.58s-2.52-4-12.55-3.21c0 0-.17-.69 1.38-1.32 0 0-4.32-.28-7.24 1.78h-.23c-.95.06-1.81.16-2.56.28 0 0-11.54.93-9.52 15.18l4.51 20.06c0-.34-1.05-9.52.37-17.2l.06-.28a15.51 15.51 0 0 0 2.32-.23 14.84 14.84 0 0 0 8.85-4.49s2.28 7.07 16.89 7.8l-.71 14.18 4.31-17.82.12-.52a13.19 13.19 0 0 0 .27-1.65c.05-.59.09-1.18.09-1.77a8.39 8.39 0 0 0-.1-.85zM483.47 105.05l-.69 5.85a11.81 11.81 0 0 1-1.57 4.68 23.29 23.29 0 0 1-3.7 4.73c-.93.7-1.3 1.55-3.1 1.82a5.12 5.12 0 0 1-.54.1h-7.82a4.78 4.78 0 0 1-.74-.13c-1.71-.35-1.74-.85-2.51-1.38a22.68 22.68 0 0 1-4.09-5.12 11.7 11.7 0 0 1-1.58-4.7l-.64-5.46.37.85c1.11 2.58 4.09 4.18 6.45 2.82a9.89 9.89 0 0 1 5-1.87h3.16a9.85 9.85 0 0 1 5 1.87c2.37 1.36 5.34-.24 6.46-2.82z"/><path class="cls-13" d="M488 163.05l-4.55 1.77a1.3 1.3 0 0 1-.89 0l-4.78-1.78v-9.86H488z"/><path class="cls-14" d="M487.3 162.31v.23l-.2.08"/><path class="cls-15" d="M486.82 162.72l-3.49 1.36a1.08 1.08 0 0 1-.77 0l-3.82-1.42"/><path class="cls-14" d="M478.61 162.61l-.21-.07v-.23"/><path class="cls-16" d="M478.4 162.03v-7.73"/><path class="cls-14" d="M478.4 154.16v-.22h.22"/><path class="cls-17" d="M478.92 153.94h8.01"/><path class="cls-14" d="M487.08 153.94h.22v.22"/><path class="cls-16" d="M487.3 154.45v7.72"/><path class="cls-18" d="M481 126.87l2.31.23 2 .16-5.77 19.4-9.62-5 9.69-12.88z"/><path class="cls-18" d="M458.91 126.87l-2.31.23-2 .17 5.77 19.39 9.61-5-9.68-12.88z"/><path class="cls-5" d="M452.46 248.23l-.65 9.72-10.38 3.08 2.37-13.65 8.66.85z"/><path class="cls-2" d="M452.46 254.21s3.35 2.53 1.38 12.72a1.84 1.84 0 0 1-1.21 1.38c-2.17.71-8.73 2.08-27.84 2.7a3.68 3.68 0 0 1-3.71-4.57.65.65 0 0 1 0-.13 4.3 4.3 0 0 1 2-2.57 24.64 24.64 0 0 1 7.81-3.06 19.64 19.64 0 0 0 5.1-1.48 10.24 10.24 0 0 0 5-4.34 13.69 13.69 0 0 1 5 2s3.52 1.42 6.47-2.65z"/><path class="cls-5" d="M486.58 248.23l.65 9.72 10.38 3.08-2.37-13.65-8.66.85z"/><path class="cls-2" d="M486.58 254.21s-3.35 2.53-1.38 12.72a1.84 1.84 0 0 0 1.21 1.38c2.17.71 8.73 2.08 27.84 2.7a3.68 3.68 0 0 0 3.71-4.57.65.65 0 0 0 0-.13 4.3 4.3 0 0 0-2-2.57 24.64 24.64 0 0 0-7.81-3.06 19.64 19.64 0 0 1-5.1-1.48 10.24 10.24 0 0 1-5-4.34 13.69 13.69 0 0 0-5 2s-3.52 1.42-6.47-2.65z"/><path class="cls-19" d="M499.16 197.57s-5.47-3.44-7.57-3.44H449.2c-2.09 0-7.57 3.44-7.57 3.44 0 2.1-.72 4.19 1.38 4.19h54.77c2.1 0 1.38-2.09 1.38-4.19z"/><path class="cls-19" d="M454 248.31l-12.85-1.37s-.66-19.54-.37-21.55c1.1-7.55 1.09-20 2.66-25.2s7.06-7.29 7.06-7.29 6.94-5.58 10.82-2.5c1.07.85 5.14 3-2.87 40-2.1 9.6-4.45 17.91-4.45 17.91zM485.3 248.31l12.86-1.37s.66-19.54.37-21.55c-1.11-7.55-1.09-20-2.66-25.2s-7.06-7.29-7.06-7.29-6.94-5.58-10.82-2.5c-1.08.85-5.14 3 2.87 40 2.14 9.6 4.44 17.91 4.44 17.91z"/><rect class="cls-19" x="438.61" y="246.03" width="18.39" height="6.9" rx=".36" ry=".36"/><rect class="cls-19" x="482.23" y="246.03" width="18.39" height="6.9" rx=".36" ry=".36" transform="rotate(180 491.425 249.475)"/><rect class="cls-20" x="432.64" y="148.67" width="72.27" height="45.48" rx=".97" ry=".97"/><path class="cls-21 cls-7" d="M433.22 192.72a3.27 3.27 0 0 0 2.72 1.48h65.77a3.25 3.25 0 0 0 3.21-3.28V152a3.25 3.25 0 0 0-.74-2.09z"/><rect class="cls-2" x="432.29" y="194.01" width="73.04" height="4.11" rx=".35" ry=".35"/><path class="cls-4" d="M167.74 136.57a4.7 4.7 0 0 0-.78-2.16v-.1l-.21-.16a18.45 18.45 0 0 0-5.44-4.89 74.16 74.16 0 0 0-6.36-4.07c-4.29-3-14.14-8.69-14.14-8.69H104.9s-8.5 5.64-12.79 8.69a74.16 74.16 0 0 0-6.36 4.07 18.45 18.45 0 0 0-5.44 4.89l-.21.16v.1a4.74 4.74 0 0 0-.77 2.16c-1.35 3.56 4.51 14.65 4.51 14.65l15.46 35.35c9.38 1.43 10-2.12 10-2.12-.23-2-2.48-14.83-2.48-14.83a63.55 63.55 0 0 0-11-23.91 1.58 1.58 0 0 1 .74-2.38c1.83-.69 3.75-1.43 5.63-2.19a110 110 0 0 0 15.23-7.34h12.09c0 .06.05.08.15.1a111.71 111.71 0 0 0 15 7.21c2 .8 4 1.58 5.9 2.29a1.38 1.38 0 0 1 .66 2.06c-2.32 3.5-7.12 10.39-10.38 23.9 0 0-2.6 12.87-2.84 14.89 0 0 .25 3.72 9.63 2.29l15.46-35.35s5.99-11.06 4.65-14.62z"/><path class="cls-22" d="M148.93 184.83s-.33 6.08 1.07 9.27l-11.12-1.1s1.75-3.3 0-8.15zM98.44 183.85s.33 6.07-1.07 9.26l11.12-1.11s-1.75-3.31 0-8.15z"/><path class="cls-8" d="M99.37 192.44a4.37 4.37 0 0 1-1.94-.56c-.33.32-.73.68-1.19 1.08l-.06.06-1 .86-.43.34-.09.07c-.32.26-.66.51-1 .76l-.23.17-.4.28-.31.22c-.28.19-.57.4-.88.58l-.44.29a26 26 0 0 1-3.73 2c-.23.1-.46.2-.7.28-4.6 1.77-5 4.34-4.87 5.65a3.11 3.11 0 0 0 .21.86 10.79 10.79 0 0 0 4.29 1c8.91.19 22.81-4.6 22.81-4.6s1-1.19.66-3.93c0-.13 0-.26-.05-.39s-1.3-5.37-1.8-6.84a48.67 48.67 0 0 1-6.27 1.63c-.3.06-.57.11-.81.14l-.48.05a4.12 4.12 0 0 1-.78 0h-.15z"/><path class="cls-23" d="M86.39 204.71a11.8 11.8 0 0 1-4.35-1 4.05 4.05 0 0 0 0 .78 3.11 3.11 0 0 0 .21.86 10.87 10.87 0 0 0 4.3 1c8.91.19 22.81-4.61 22.81-4.61a3.69 3.69 0 0 0 .64-1.71c-3.62 1.23-15.52 4.85-23.61 4.68z"/><path class="cls-8" d="M148.05 193.43a4.32 4.32 0 0 0 1.93-.56c.34.31.74.68 1.2 1.08l.06.05 1 .86.43.35.09.07 1 .76.23.16.4.29.3.21c.29.2.58.4.88.59l.45.29a27 27 0 0 0 3.73 2l.7.29c4.6 1.76 5 4.33 4.87 5.64a3 3 0 0 1-.21.86 10.79 10.79 0 0 1-4.29 1c-8.91.2-22.81-4.6-22.81-4.6s-1-1.19-.66-3.92c0-.13 0-.26.05-.4s1.3-5.36 1.8-6.84a46.5 46.5 0 0 0 6.27 1.64c.3.06.57.1.81.13l.48.06a6.92 6.92 0 0 0 .78 0h.15z"/><path class="cls-23" d="M161 205.7a12.29 12.29 0 0 0 4.35-1 4 4 0 0 1 0 .77 3 3 0 0 1-.21.86 11 11 0 0 1-4.31 1c-8.9.19-22.81-4.61-22.81-4.61a3.84 3.84 0 0 1-.63-1.71c3.61 1.23 15.55 4.86 23.61 4.69z"/><rect class="cls-4" x="95.59" y="180.95" width="14.96" height="5.61" rx=".29" ry=".29"/><rect class="cls-4" x="136.77" y="181.11" width="14.96" height="5.61" rx=".29" ry=".29" transform="rotate(180 144.245 183.92)"/><path class="cls-6" d="M142.34 59.73l-8.2-3c-6.13-2-4.81-5.55-4.81-5.55h-12.71s1.32 3.53-4.82 5.55l-8.19 3L123 62.06z"/><path class="cls-2" d="M111.83 56l3.59 18.5v.13l2.9 15 1 24.2h6.29l1.45-23.3 3.06-15.81 3.58-18.52a9 9 0 0 0-2.75-1s.69 5-7.17 5.2c-8.82.23-8.94-5.2-8.94-5.2a18 18 0 0 0-3.13.82z"/><path class="cls-24" d="M160.12 92.2L155 72.73C151.69 59.58 133.63 56 133.63 56l-10.88 55.89-10.53-56s-18.41 3.69-21.71 16.84L85.38 92.2a25.15 25.15 0 0 0-.21 9.44 14.22 14.22 0 0 0 2.67 6.36l4.16 5.52 8.83-1.93-5.35-9.14a22.75 22.75 0 0 1 .78-5.87l4.57-11 1.78 17.64.78 13.32h38.68l.78-13.32 1.78-17.64 4.57 11a22.75 22.75 0 0 1 .78 5.87l-5.35 9.14 8.83 1.93 4.18-5.56a14.22 14.22 0 0 0 2.67-6.32 25.15 25.15 0 0 0-.19-9.44z"/><rect class="cls-20" x="88.67" y="75.17" width="69.75" height="43.89" rx=".94" ry=".94"/><path class="cls-21 cls-7" d="M89.24 117.69a3.14 3.14 0 0 0 2.62 1.43h63.47a3.14 3.14 0 0 0 3.11-3.17V78.34a3.12 3.12 0 0 0-.72-2z"/><rect class="cls-2" x="88.34" y="118.93" width="70.49" height="3.96" rx=".34" ry=".34"/><path class="cls-8" d="M201.4 134.46l7.4-.3 7.23-.32-3 .63s-4.1.66-8 1l-7.38.49s-4.16.35-4.87 2.64a5.88 5.88 0 0 0-.26 3 4.86 4.86 0 0 0 1.09 2.18c1.3 1.91 5.58.81 5.58.81l7.1-2.09c3.75-1.06 7.82-1.86 7.82-1.86l3-.45-6.89 2.2-7.05 2.28c-2.93 1.23-9.85 2.24-9.85 2.24-5.8.89-7.23-1.78-7.23-1.78a6.26 6.26 0 0 1-.84-2.26c-.33-1.85-.38-2.32-.12-3.06 0 0 1-3 6.2-4 .05-.05 6.89-1.5 10.07-1.35z"/><path class="cls-25" d="M197.66 135.92l7.38-.49c3.88-.3 8-1 8-1l4.37-.92 1.24 6.41-4.51.67s-4.08.8-7.83 1.86l-7.1 2.09s-4.28 1.1-5.58-.81a4.86 4.86 0 0 1-1.09-2.18 5.83 5.83 0 0 1 .27-3c.69-2.28 4.85-2.63 4.85-2.63z"/><path class="cls-8" d="M277.89 134.3l-7.4-.3-7.23-.32 3 .63s4.1.66 8 1l7.38.5s4.16.34 4.86 2.63a5.83 5.83 0 0 1 .27 3 4.93 4.93 0 0 1-1.09 2.19c-1.3 1.9-5.58.8-5.58.8l-7.1-2.09c-3.75-1.06-7.82-1.85-7.82-1.85l-3-.46 6.89 2.2 7.05 2.28c2.93 1.24 9.85 2.24 9.85 2.24 5.8.89 7.23-1.78 7.23-1.78a6.67 6.67 0 0 0 .84-2.25c.33-1.86.38-2.32.12-3.06 0 0-1-3-6.21-4-.05-.05-6.88-1.5-10.06-1.36z"/><path class="cls-25" d="M281.63 135.77l-7.38-.5c-3.88-.3-8-1-8-1l-4.37-.91-1.24 6.4 4.51.67s4.08.8 7.83 1.86l7.1 2.09s4.28 1.1 5.58-.8a4.93 4.93 0 0 0 1.09-2.19 5.83 5.83 0 0 0-.27-3c-.69-2.28-4.85-2.62-4.85-2.62z"/><path class="cls-8" d="M220.95 26.66h34.52v45.98h-34.52z"/><ellipse class="cls-7" cx="239.06" cy="37.27" rx="15.16" ry="19.65"/><path class="cls-8" d="M263.51 74.41s-3.8-10.4-4.14-17.09c0 0 .55-22.47.64-28 0 0-.06-8.4-4.51-14.46 0 0-2.66-4.25-6.72-4 0 0-2.61-4.6-7.45-5.13a25.59 25.59 0 0 0-4.74 0 18.12 18.12 0 0 0-8.05 2.89 24.88 24.88 0 0 0-6.4 6.06c-4.45 6.06-4.22 14.69-4.22 14.69.09 5.53.63 28 .63 28-.34 6.69-4.14 17.09-4.14 17.09l-3.11 21.1c4.28 4.15 15.62.34 15.62.34 4.43-1.36 5.58-2.8 5.58-2.8-2.34-8.26-5.13-29.85-5.13-29.85-.76-9.4.06-12.75.06-12.75-3-3.27-3.6-9-3.6-9-.78-10.67 2.43-14.79 2.43-14.79A34.15 34.15 0 0 0 239 28.42a35 35 0 0 0 12.84-1.81s3.07 4.17 2.3 14.84c0 0-.62 5.78-3.61 9 0 0 .82 3.35.07 12.75 0 0-2.8 21.59-5.14 29.85 0 0 1.23 1.35 5.58 2.8 0 0 11.34 3.81 15.62-.34z"/><path class="cls-6" d="M235.1 67.18l-8.9.39-1.55 5.56 12.95 9.22 12.13-4.69 3.32-10.09-17.95-.39z"/><path class="cls-5" d="M211.39 77.65c.22-1.24 2.54-1.66 5.18-1s4.6 2.3 4.38 3.54a1.14 1.14 0 0 1-.09.26s-6.76 6.7-.42 21.73c6.21 14.71 9.71 11.22 9.71 11.22l-9.42 1.6s-7.91-8.34-9.43-12.93c-2.86-8.66.09-24 .09-24a1.21 1.21 0 0 1 0-.42zM267.7 77.65c-.22-1.24-2.54-1.66-5.18-1s-4.6 2.3-4.38 3.54a1.14 1.14 0 0 0 .09.26s6.76 6.7.42 21.73c-6.21 14.71-9.7 11.22-9.7 11.22l9.41 1.56s7.91-8.34 9.43-12.93c2.86-8.66-.09-24-.09-24a1 1 0 0 0 0-.38z"/><path class="cls-26" d="M258.41 113.55a58.37 58.37 0 0 1 1.11-10.71 10.72 10.72 0 0 0 3.89-8.58 11.6 11.6 0 0 0-1.84-6.39v-3.91L269 82.2l-1-5.12c-.46-2.16-3.06-4.41-5.61-5.37l-2.5-1.16-.1-.06c-.36-.19-.87-.42-1.5-.7-1.32-.57-3.17-1.31-5.23-2.22-2 1.35-6.09 10.35-13.43 11.36-7.34-1-11.46-10-13.42-11.36-2.06.91-3.9 1.65-5.21 2.22-.64.28-1.15.51-1.5.7l-.11.06-2.82 1.31a5.79 5.79 0 0 0-1.48 1c-2 1.14-3.64 2.9-4 4.6L210 82.59l7.63 1.81v3.47a11.6 11.6 0 0 0-1.85 6.39 10.66 10.66 0 0 0 4.06 8.7 58.46 58.46 0 0 1 1.09 10.6c0 10.55.2 9 0 9.49-1.13 2.3 3.27.77 2 6.31l32 .69c-1.24-5.55 5.53-3.84 4.4-6.15-.13-.53-.92.2-.92-10.35z"/><path class="cls-6" d="M244.54 55.6a14 14 0 0 1-5.54 1.32 13.11 13.11 0 0 1-5-1.07s3.93 8.94-7.83 11.72l13.46 5.69 13.39-5.69c-10.51-.84-8.48-11.97-8.48-11.97z"/><path class="cls-27" d="M204.17 129.48l9.92 2.14a188.76 188.76 0 0 1 18.91 3.61c21.11 5.94 37 6.13 37 6.13l1.74-6.32s-21.4-7.41-30.35-9.57c-7.92-1.91-23.14-9.75-36.37-10.12-6.14-.18-10.86 9.09-.85 14.13z"/><path class="cls-27" d="M276.06 129.54l-9.92 2.12a187.63 187.63 0 0 0-18.94 3.57c-21.12 5.9-37 6.05-37 6.05l-1.75-6.28s21.42-7.38 30.37-9.52c7.92-1.89 23.16-9.7 36.39-10 6.17-.23 10.88 9.05.85 14.06z"/><rect class="cls-20" x="216" y="94.71" width="47.2" height="29.7" rx=".63" ry=".63"/><path class="cls-21 cls-7" d="M216.38 123.48a2.12 2.12 0 0 0 1.77 1h43a2.12 2.12 0 0 0 2.1-2.14V96.85a2.09 2.09 0 0 0-.48-1.36z"/><rect class="cls-2" x="215.77" y="124.32" width="47.71" height="2.68" rx=".23" ry=".23"/><path class="cls-2" d="M339.15 304l7.41-.3 7.22-.32-3 .63s-4.09.66-8 1l-7.38.49s-4.15.34-4.86 2.63a5.88 5.88 0 0 0-.27 3 4.82 4.82 0 0 0 1.1 2.18c1.29 1.9 5.57.8 5.57.8l7.1-2.09c3.75-1.06 7.82-1.85 7.82-1.85l3.05-.46-6.9 2.2-7 2.28c-2.93 1.24-9.84 2.24-9.84 2.24-5.81.9-7.24-1.78-7.24-1.78a6.67 6.67 0 0 1-.84-2.25c-.33-1.86-.38-2.32-.12-3.06 0 0 1-3 6.21-4-.04-.07 6.82-1.52 9.97-1.34z"/><path class="cls-25" d="M335.41 305.43l7.38-.49c3.89-.31 8-1 8-1l4.37-.91 1.24 6.4-4.51.67s-4.08.8-7.83 1.86l-7.06 2.12s-4.29 1.1-5.58-.8a4.82 4.82 0 0 1-1.1-2.18 5.88 5.88 0 0 1 .27-3c.67-2.33 4.82-2.67 4.82-2.67z"/><path class="cls-2" d="M415.64 303.81l-7.4-.3-7.23-.32 3 .63s4.1.66 8 1l7.39.49s4.15.35 4.86 2.64a6 6 0 0 1 .27 3 4.93 4.93 0 0 1-1.1 2.18c-1.29 1.91-5.58.81-5.58.81l-7.09-2.09c-3.75-1.06-7.83-1.86-7.83-1.86l-3-.45 6.89 2.2 7.05 2.28c2.93 1.23 9.85 2.24 9.85 2.24 5.81.89 7.23-1.79 7.23-1.79a6.2 6.2 0 0 0 .84-2.25c.34-1.86.39-2.32.12-3.06 0 0-1-3-6.2-4-.05-.05-6.89-1.5-10.07-1.35z"/><path class="cls-25" d="M419.39 305.27l-7.39-.49c-3.88-.3-8-1-8-1l-4.38-.91-1.24 6.41 4.52.67s4.07.8 7.82 1.86l7.1 2.09s4.28 1.1 5.58-.81a4.86 4.86 0 0 0 1.09-2.18 5.88 5.88 0 0 0-.26-3c-.69-2.29-4.84-2.64-4.84-2.64z"/><path class="cls-28" d="M341.93 299l9.91 2.14a188.23 188.23 0 0 1 18.93 3.61c21.11 5.95 37 6.13 37 6.13l1.74-6.31s-21.4-7.42-30.35-9.58c-7.91-1.91-23.13-9.75-36.37-10.12-6.15-.19-10.88 9.13-.86 14.13z"/><path class="cls-28" d="M413.81 299l-9.92 2.13a185.37 185.37 0 0 0-18.89 3.61c-21.12 5.89-37 6.05-37 6.05l-1.72-6.32s21.41-7.37 30.36-9.51c7.92-1.9 23.16-9.71 36.4-10 6.09-.21 10.8 9.04.77 14.04z"/><rect class="cls-20" x="349.2" y="256.59" width="56.3" height="35.43" rx=".76" ry=".76"/><path class="cls-21 cls-7" d="M349.65 290.91a2.53 2.53 0 0 0 2.12 1.15H403a2.53 2.53 0 0 0 2.5-2.55v-30.37a2.49 2.49 0 0 0-.58-1.62z"/><rect class="cls-2" x="348.93" y="291.91" width="56.9" height="3.2" rx=".27" ry=".27"/><path class="cls-29" d="M137.85 32.61c-.48 2.16-.38 4.14.73 4.38s2.25-1.34 2.73-3.5-.06-4.11-1.17-4.36-1.82 1.32-2.29 3.48zM108 32.69c.48 2.16.38 4.14-.73 4.39s-2.25-1.34-2.73-3.5.05-4.12 1.17-4.36 1.76 1.31 2.29 3.47z"/><path class="cls-7" d="M138.67 35.28c0 .31 0 .63-.07.95-.09 1.16-.21 2.38-.36 3.65L137 46.41a4.36 4.36 0 0 1-1.84 2.59 46.41 46.41 0 0 1-9.28 4.37 9.55 9.55 0 0 1-2.72.66 7.43 7.43 0 0 1-1.78-.33c-.54-.17-.94-.33-.94-.33a46.41 46.41 0 0 1-9.31-4.37 3.3 3.3 0 0 1-1.38-1.39 5 5 0 0 1-.58-1.63l-1.12-6.08c-.18-1.58-.33-3.08-.42-4.49-2.16-30.58 15-23.21 15.52-23 .51-.23 17.63-7.59 15.52 22.87z"/><path class="cls-8" d="M139 35.77l-.39.46s-.14-7.52-.61-9.41c0 0-1.05-4.25-2.68-5.08 0 0 1.43-5.23-2.32-7a17.35 17.35 0 0 1-12 4.83 16.21 16.21 0 0 1-9.86-3 5.71 5.71 0 0 0-.21 4.48 14.84 14.84 0 0 0-3.4 7.5s-.15 5.41.08 6.8a7 7 0 0 1-1.32-1.33 7.71 7.71 0 0 1-1.48-3.44 33.36 33.36 0 0 1-.12-12.89s1.16-5.28 2.18-5.69c0 0-2.31-7.5-1.83-9.42A5.53 5.53 0 0 0 111 5.83 9.27 9.27 0 0 1 109.47 0s3.48 2.71 7.16 2a18 18 0 0 0 3.85-.87 10.52 10.52 0 0 1 2-.6c2.6-.48 8.13-1 10.81 2.51a10.85 10.85 0 0 1 2.47 4.67 16.22 16.22 0 0 1 6 11.58 51 51 0 0 1-.15 10 16 16 0 0 1-1.45 4.73 8.68 8.68 0 0 1-1.16 1.75zM130.84 44.46c-.69 1.83-1.33 3.27-1.33 3.27.59-3.95-.59-5.08-.59-5.08a5.53 5.53 0 0 0-2.53-1.16 13.53 13.53 0 0 0-6.66 0 5.67 5.67 0 0 0-2.55 1.17s-1.18 1.13-.59 5.08c0 0-.64-1.44-1.33-3.27 0 0-5.73-7.54-7.63-9.07.09 1.41.24 2.91.42 4.49l1.12 6.11a5 5 0 0 0 .58 1.63 3.3 3.3 0 0 0 1.38 1.37 46.41 46.41 0 0 0 9.28 4.37s.4.16.94.33a7.43 7.43 0 0 0 1.78.33 9.55 9.55 0 0 0 2.72-.66 46.41 46.41 0 0 0 9.31-4.37 4.36 4.36 0 0 0 1.84-2.59l1.2-6.53c.15-1.27.27-2.49.36-3.65-1.86 1.53-7.72 8.23-7.72 8.23zm-3.58 6a2.24 2.24 0 0 1-1.74.88 2.94 2.94 0 0 1-2.47-1.55 3 3 0 0 1-2.47 1.55 2.28 2.28 0 0 1-1.75-.88c-.63-.79-1.39-2.37-1.41-5.45 0 0 .87-2.31 5.71-2.31 5 0 5.54 2.31 5.54 2.31-.01 3.1-.78 4.68-1.41 5.47z"/><path class="cls-3" d="M624.89 307.64a5.09 5.09 0 0 0-.85-2.35l.06-.1-.24-.18a20 20 0 0 0-5.91-5.32c-3-2.26-6.18-3.89-6.93-4.43-4.66-3.32-15.39-9.45-15.39-9.45h-39.11s-9.25 6.13-13.91 9.45a81.53 81.53 0 0 0-6.93 4.43 20.21 20.21 0 0 0-5.92 5.32l-.23.18.05.1a5.09 5.09 0 0 0-.85 2.35c-1.46 3.88 4.91 15.94 4.91 15.94l16.83 38.48c10.21 1.55 10.94-2.31 10.94-2.31-.26-2.2-2.7-16.14-2.7-16.14a69.2 69.2 0 0 0-11.94-26 1.71 1.71 0 0 1 .8-2.59c2-.75 4.08-1.56 6.13-2.39a120 120 0 0 0 16.57-8h13.15c0 .05.06.09.17.1a120.39 120.39 0 0 0 16.34 7.85c2.14.87 4.33 1.71 6.41 2.49a1.5 1.5 0 0 1 .72 2.24c-2.52 3.81-7.74 11.31-11.29 26 0 0-2.83 14-3.09 16.2 0 0 .27 4.05 10.48 2.5L620 323.58s6.36-12.06 4.89-15.94z"/><path class="cls-6" d="M594.53 231.18l-7.89-2.91c-5.91-2-4.64-5.35-4.64-5.35h-12.24s1.27 3.4-4.64 5.35l-7.89 2.91 18.65 2.25z"/><path class="cls-2" d="M565.15 227.57l3.45 17.82v.12l2.8 14.41 1 23.32h6.06l1.39-22.45 3-15.22 3.45-17.85a8.94 8.94 0 0 0-2.65-.94s.66 4.82-6.9 5c-8.51.22-8.62-5-8.62-5a17.75 17.75 0 0 0-3 .79z"/><path class="cls-26" d="M611.66 262.46l-4.94-18.76c-3.17-12.67-20.58-16.11-20.58-16.11l-10.48 53.83-10.14-54s-17.74 3.58-20.91 16.28l-5 18.76a24.21 24.21 0 0 0-.2 9.09 13.65 13.65 0 0 0 2.58 6.09l4 5.36 8.51-1.86-5.16-8.81a21.66 21.66 0 0 1 .76-5.65l4.4-10.63 1.71 17 .76 12.83h37.25L595 273l1.72-17 4.4 10.63a22.13 22.13 0 0 1 .76 5.65l-5.16 8.81 8.51 1.86 4-5.36a13.76 13.76 0 0 0 2.58-6.09 24.06 24.06 0 0 0-.15-9.04z"/><ellipse class="cls-7" cx="576.3" cy="203.9" rx="15.44" ry="22.03"/><path class="cls-8" d="M559.35 199.64a30 30 0 0 1 1.14-12.64c1-3 2.48-6.63 5.42-7.86 3.65-1.53 1.12.95 8.73-.55 3.25-.64 6.28-2.27 11.54-.78 0 0 5.18 1.59 6.71 13.34a.09.09 0 0 0 0 .05 37.51 37.51 0 0 1 .44 8.17c-.05.75-.78 4.42-1.4 4.87-.94.69-1-.14-1-.18-.32-.14.41-4.45.36-4.8-.27-2-1.66-8.19-4.88-9.74 0 0-2-.68-5.32.93-6.39 3.1-9.38.38-10.21.14-.06 0-1-.58-1.08-.61-.63-.3-4.29-1.81-6.12 1.56l-.06.11c-.24.34-1.87 2.68-2.46 8 0 .32.7 4.16.62 4.54 0 0-.94.47-1.09-.14a20.29 20.29 0 0 1-1.34-4.41z"/><path class="cls-8" d="M590.85 203.91a20.57 20.57 0 0 1-1.45 5.55c-.19.43-.37.84-.54 1.21-1.08 2.37-3.94 3.84-6.22 2.59a9.85 9.85 0 0 0-4.82-1.72h-3.05a9.85 9.85 0 0 0-4.82 1.72c-2.28 1.25-5.14-.22-6.22-2.59-.17-.37-.35-.78-.54-1.21a20.57 20.57 0 0 1-1.45-5.55h-1.12a38.18 38.18 0 0 0 .83 6s2.17 15.19 14.22 16a4.55 4.55 0 0 0 .58 0h.08a4.63 4.63 0 0 0 .59 0c12.05-.82 14.22-16 14.22-16a38.18 38.18 0 0 0 .83-6z"/><path class="cls-22" d="M604.43 360.16s-.36 6.61 1.17 10.08L593.49 369s1.9-3.6 0-8.87zM549.49 359.09s.36 6.61-1.17 10.08l12.1-1.21s-1.9-3.6 0-8.87z"/><path class="cls-2" d="M550.5 368.44a4.62 4.62 0 0 1-2.11-.61c-.36.34-.8.74-1.3 1.18l-.07.06c-.33.29-.71.61-1.11.93l-.46.38a.39.39 0 0 0-.1.08l-1.09.83-.25.17c-.14.11-.29.21-.44.31l-.33.24c-.31.21-.62.43-1 .63-.16.12-.33.22-.49.32a28.47 28.47 0 0 1-4.06 2.15c-.25.11-.5.22-.76.31-5 1.92-5.45 4.71-5.3 6.14a3.59 3.59 0 0 0 .23.94 11.82 11.82 0 0 0 4.67 1.1c9.7.21 24.82-5 24.82-5s1.09-1.29.72-4.27l-.06-.43c0-.2-1.42-5.84-1.95-7.44a52 52 0 0 1-6.83 1.78l-.88.15h-.52a4.89 4.89 0 0 1-.85 0h-.16z"/><path class="cls-2" d="M536.37 381.79a12.94 12.94 0 0 1-4.73-1 4.7 4.7 0 0 0 0 .84 3.59 3.59 0 0 0 .23.94 11.9 11.9 0 0 0 4.68 1.1c9.7.21 24.83-5 24.83-5a4.13 4.13 0 0 0 .69-1.86c-3.94 1.19-16.89 5.19-25.7 4.98zM603.47 369.52a4.93 4.93 0 0 0 2.11-.61c.36.34.8.73 1.3 1.17l.06.06 1.11.93.47.37a.87.87 0 0 1 .1.08c.35.28.71.56 1.09.83l.24.17.44.32.34.23c.31.22.62.44 1 .64l.49.31a28.47 28.47 0 0 0 4.06 2.15c.25.11.49.22.76.31 5 1.92 5.45 4.72 5.29 6.15a3.24 3.24 0 0 1-.22.93 11.69 11.69 0 0 1-4.67 1.1c-9.7.21-24.82-5-24.82-5s-1.09-1.29-.72-4.27c0-.14 0-.28.06-.43s1.41-5.84 1.95-7.44a52 52 0 0 0 6.83 1.78l.88.15.52.06a8.23 8.23 0 0 0 .85 0h.16z"/><path class="cls-2" d="M617.6 382.87a13.11 13.11 0 0 0 4.73-1.05 4 4 0 0 1 0 .85 3.24 3.24 0 0 1-.22.93 11.78 11.78 0 0 1-4.69 1.1c-9.69.21-24.82-5-24.82-5a4.13 4.13 0 0 1-.69-1.86c3.93 1.27 16.88 5.21 25.69 5.03z"/><rect class="cls-3" x="546.39" y="355.94" width="16.28" height="6.11" rx=".32" ry=".32"/><rect class="cls-3" x="591.19" y="356.11" width="16.28" height="6.11" rx=".32" ry=".32" transform="rotate(180 599.33 359.17)"/><rect class="cls-20" x="542.84" y="246.06" width="67.19" height="42.28" rx=".9" ry=".9"/><path class="cls-21 cls-7" d="M543.38 287a3 3 0 0 0 2.53 1.38h61.14a3 3 0 0 0 3-3.05V249.1a3 3 0 0 0-.7-1.93z"/><rect class="cls-2" x="542.51" y="288.21" width="67.91" height="3.82" rx=".33" ry=".33"/></g></svg>