<svg id="Layer_1" data-name="Layer 1" xmlns="http://www.w3.org/2000/svg" viewBox="0 0 513.23 403.85"><defs><style>.cls-1,.cls-3{fill:#fff}.cls-2{fill:#c49a6c}.cls-3{stroke:#fff;stroke-miterlimit:10;stroke-width:4.5px}</style></defs><title>Artboard 22</title><path class="cls-1" d="M81.07 336.24l3.41 20.87a98.21 98.21 0 0 1-19.66 5.41A68.9 68.9 0 0 1 52 363.73a58.28 58.28 0 0 1-6.62-.4 43.25 43.25 0 0 1-16.95-4.72 28.82 28.82 0 0 1-11.84-12.44q-4.52-8.52-4.51-21.16v-64.4q0-15.24 4.31-23.07a36 36 0 0 1 13.12-13.24q9-5 21.47-5h2.6a62.31 62.31 0 0 1 25.88 6.62L73.24 246A58.09 58.09 0 0 0 53 242.55q-8.43 0-13.64 4.62a14.85 14.85 0 0 0-5.22 11.63v65.8a24.37 24.37 0 0 0 .81 6.53 10.38 10.38 0 0 0 2.6 4.71 38.63 38.63 0 0 0 3.62 3.21 10.06 10.06 0 0 0 5 1.81c2.14.26 3.94.5 5.42.7a22.66 22.66 0 0 0 6.12-.3q3.9-.6 6.12-.91c1.46-.2 3.57-.63 6.31-1.3l5.72-1.41q1.6-.39 5.21-1.4zM140.85 403.85l-8.63-17.45a14.81 14.81 0 0 0 9.33-3.21q4.11-3.21 4.12-10.24v-11.63a56 56 0 0 1-16.46 2.81q-17.66 0-27.18-9.53t-9.53-28.19v-65.2h22.07v59.18q0 12.64 3.31 17.15t11.33 4.52q8.83 0 12.64-4.31t3.82-17.36v-31.5a30.16 30.16 0 0 1 7.33-19.56 26.17 26.17 0 0 1 18.56-9.93l8.22 18.06a15.27 15.27 0 0 0-8.93 5.52 14.78 14.78 0 0 0-3.11 9.12V374q0 13-6.12 20.56t-20.77 9.29zM213.78 399.44l-22.06 4.41V261.21h20.86l1.2 1.4a37.13 37.13 0 0 1 15.45-3q18.66 0 28.39 10.83t9.73 28.08v27.89q0 18.25-10.23 28T230 364.13a57.9 57.9 0 0 1-7.62-.4 27 27 0 0 1-5.52-1.41 18 18 0 0 0-3.11-1zm31.5-78.25v-23.47q0-16.44-15.25-16.45-8.22 0-12.23 4.11c-2.68 2.75-4 6.52-4 11.34V324q0 18.06 16.25 18.06c6.15 0 10.24-1.61 12.24-4.82s2.99-8.55 2.99-16.05zM303.16 361.72h-22.07V261.21h20.47l1.6.8a52.32 52.32 0 0 1 13.44-2.4c1.71-.11 1.77-.15 4-.15a46 46 0 0 1 5.62.35q2.81.39 11 2.2L332 283.48a24.22 24.22 0 0 0-10.83-2.81 21.59 21.59 0 0 0-8.63 1.81q-9.43 4.2-9.43 14.64zM422.73 361.72h-20.66l-1.41-1.2q-9 3.41-15 3.41-37.72 0-37.72-36.72v-66H370V324q0 9.24 3.31 13.64t12.34 4.42q9 0 12-4.92t3-13.94v-62h22.07zM437.58 336.24l22.06-2.24q0 3.62 3.71 6.83t11.34 3.21q6.62 0 10.23-3.32a10.16 10.16 0 0 0 3.61-7.72 11.07 11.07 0 0 0-4.71-9.33 37.84 37.84 0 0 0-11.54-5.61q-6.82-2.11-13.74-4.82a30.81 30.81 0 0 1-12.24-8.93q-5.3-6.18-6.3-15.82a15 15 0 0 1-.2-2.4q0-9.84 7.83-18.06 8.42-9.22 26.68-9.23a46.12 46.12 0 0 1 12 1.51 35 35 0 0 1 8 2.91l2.41 1.4-6.42 20.46q-4.62-4.6-16-4.61c-3.75 0-6.52.54-8.33 1.6s-2.61 2.25-2.4 3.51a21.85 21.85 0 0 1 .3 3.31q.6 3 5.91 5.52a129.59 129.59 0 0 0 12.14 4.92 99.56 99.56 0 0 1 13.64 6 31 31 0 0 1 16.25 28.08 29.67 29.67 0 0 1-9.43 22.17q-9.42 9.13-27.68 9.13-17.06 0-26.88-8.23t-10.24-20.24z"/><path class="cls-2" d="M94.23 64.23a7.19 7.19 0 0 1-7 7 6.61 6.61 0 0 1-4.94-2.2 7 7 0 0 1-2.1-4.94 6.66 6.66 0 0 1 2.1-4.84 6.88 6.88 0 0 1 5.05-2.1 6.56 6.56 0 0 1 4.94 2.1 7 7 0 0 1 1.95 4.98zM93 206.46H81.19V101.13H93zM135.43 108.28q10.73-9 30.06-9 10.94 0 18.72 4 17.86 8.2 17.87 30.48v72.75h-11.57v-72.16q0-10.93-5.88-17-7.15-7.35-21.34-7.35a54.66 54.66 0 0 0-27 7.15v89.35H124.5V101.13h11.77zM255.27 206.46h-16.19l-32.17-105.33h12.41l28 93.13 28.17-93.13h12.4zM327.59 198.68q14.51 0 30.69-8.62l4.63 9a64 64 0 0 1-33.85 9.94q-36.58 0-36.58-30.7v-43.11q0-17 10.62-26.49t28.06-9.46q17.46 0 27.23 9.35t9.78 26v27.33l-63.62-.44-.3 16.83q0 11.35 8.2 16.4a27.66 27.66 0 0 0 15.14 3.97zm28.8-47.31v-18.29q0-9-4.83-14.82t-10.09-7.36a36.5 36.5 0 0 0-10.47-1.57q-11.56 0-19.13 6.3t-7.57 19.77v15.84zM383.93 179.76h11.14a18.41 18.41 0 0 0 9.47 14.24 37.19 37.19 0 0 0 35.53.42 14 14 0 0 0 7.77-13q0-8.72-6-13.56a44.46 44.46 0 0 0-14.61-7.57q-8.62-2.73-17.45-5.78a44.6 44.6 0 0 1-15.56-9.14 22.87 22.87 0 0 1-8-17.77q0-10.61 8.52-19.76t27.65-9.15a48.67 48.67 0 0 1 12.61 1.49 37.15 37.15 0 0 1 8.41 3l2.59 1.52-4 9.67q-7.57-5.46-18.92-5.46t-18.19 4.83a15.17 15.17 0 0 0-6.83 13 14.18 14.18 0 0 0 6.94 12.55 59.68 59.68 0 0 0 15.87 7.14q8.93 2.64 17.76 6a37.11 37.11 0 0 1 14.93 10.3q6.09 6.93 6.1 18.5t-9.36 20q-9.36 8.4-27.33 8.41T394.65 201q-10.3-8.62-10.72-21.24zM501.88 200.15l-3.37 9q-11.77-3.36-17-10.72t-5.25-19.76V59.29H488v41.84h25.23l-5.05 11.14H488v66.44q0 16.81 13.88 21.44z"/><path class="cls-3" d="M78.79.96L2.03 164.03"/></svg>