<svg id="Layer_1" xmlns="http://www.w3.org/2000/svg" xmlns:xlink="http://www.w3.org/1999/xlink" viewBox="0 0 360 354"><style>.st0,.st1,.st2{enable-background:new}.st0{opacity:.32;fill:#172b54}.st1,.st2{fill:#fff}.st1{display:none;stroke:#c3996c;stroke-width:1e-2;stroke-miterlimit:10;opacity:.1}.st2{opacity:6e-2}.st3,.st4{stroke-miterlimit:10}.st3{opacity:7e-2;enable-background:new;fill:#fff;stroke:#c3996c;stroke-width:1e-2}.st4{fill:none;stroke:#ed2224;stroke-width:2.6906;stroke-linecap:round;stroke-linejoin:round}.st5{fill:#fff}.st6{fill:#c2986c}.st7,.st8{stroke-miterlimit:10}.st7{opacity:.13;stroke-width:1e-2;enable-background:new;fill:#fff;stroke:#c3996c}.st8{clip-path:url(#SVGID_2_);fill:none;stroke:#fff}</style><path class="st0" d="M139.4 211.1l-.4-.6-.6-1.8-.9-1.4 1.3-2.2h-3.3l-.1-.2-1-.7-2.9-.6-.8.3-1.1-.3-1.4.6-.3-.1-2.7.3-1.4.6-.2.4-.3-.1-1.6.1-.7.5-.9-.3-.9-.2-2.1-.8-1.2-.3-.5-.2-.7-.6-.7-.4-1.7-1-1-.3-1.8-.6h-.4l-1-.6-1.3.1h-.9l-2-1.8-1.2-.6-.1-.2-1.2-1-.3-1.1-.3-.4v-.8l-.6-1.7-.1-1.6-1-1.3-.8-.4-.8-.8h-.6l-.5-.4-.3-.7-.8-.7.6-1.7-.7-1.7-.5-.6.2-.2-.4-1.2.4-.9-.8-2.5-.1-.2-.5-.9-.5-1.2-1.3-1.8.6.6 1.5 1.2 1.5 1 1.5.5 1.5.2h1l1.7-.4 2-.7 2.8-2.1 1.3-1.4.9-1.4 1.2-2.8.2-.3 1.5-1.3.6-.1h.4l.6-.2.8-.4h.8l1.3-.6.2.1 1.6-.8h.2l.3.1 1.4.6h1.5l1.5.4h.1v.1l1.9 1.1 1.1.2 1 .8 1 .2 1 .6 1.3.1 1.5-.1.8-.3 1.5-.9 1.9-1.3 1.1-.7.7-1 1.3-4 .7-2.9.1-.6.3-3.1v-2l-.2-2.1-.5-1.2-.1-.2 1 .6 2.3 1.3h.9l.7-.1 1.1.6 1.6.4 1.5-.1 1.1-.3 1.3-.5.1-.1 3.5 1 2.7-.4.3.3.9.1.3.3 1.4.4.8-.3.8.3 1.3-.1.1-.1.9.3 2.1.2 1.8.6 1.1-.2 1.6.2 3.8-.2.7.2 1.9-.2.6-.2h1.1l1.6-.5 2.9-.3 2.3-.8h1.5v1l4.4-1.5 1.7-.9.8-.8 2.4-1.1 1.4-.6.4-.1h1l2.2.3.7-.3 1.2.1 5.4-1.6 2-.7 1.1-.2 1.1-.4 4.2-2.1 2.7-1.4.8-.7 1.2-.4 1.8-.9 1.9-2 .8-1 .8-.5.2-.3h.5l.4.6 1.6-.6.7.1.7-.5.8-.5.3-.2.1-.1 1-.1.6-.3h.8l1.2-.6.5-.4.9-.3.7-.8.6-.1 1.2-1.3.3-.6.9-.1.7-.6h.9l-.1.1-.2.5-.5.1-.7 2.2-1.2 1-1.8.7-1.9 1.3-1.1 1.1-1.5 1.6-6.5 2.9-2.4 1.4-3.2 2.3-1.5 1.4-2 2.3-.5 1-.2.7-.4 1.1-.4.1H214.3l-1.5-.5-2.5.3-1.6 1-.8.8-.8 1.1-.6 1.1-.6.5-1.3 2.6-.8 3.9.1.9v.4l.4 1.1-1.3 1.3 1.3 1.5.7.7.8.1 1.2 1.7.9 1 .6.4.6 1.4 1 1.3 1.3 1.3 2.9 2.3.9 1.4-.1-.1-1.6.2-.7-.3-.8.2-.9-.3h-1.7l-.6.7-1.4.1-2.4.9-.7 1-.5.3-.5.4-.9-.8-1.3-1-1.3-.4-2.9-.5h-1.1H191.4l-1.2.2-1 .4-1.5 1-1.1 1.2-1.1 2.5-.2 2 .1 1.3-.2.7v.9l-.7 1-.8.5-.3.9-.7-.1-2.4.1-1.3.8-.6.9-.1.2-.5.2-.4.4-1.1.1-.3.8-1.3.1-1.2.3-1.1.6-.9.7-1.5.8-1.5.4-1.3.9h-.7l-1.1.6h-.5l-.5.3-1.3-.3-1.1.2-1.5.7-.8.7-7.4-.5-1.3.2h-.2l-.4.1-2.1.7-2.2-.8v1.7h-.1l-1.3.9-1.3 1.2-1.4.9-.9 1.2-.2.8-.3.4-.2 1.6.2 1.9-1 .5-.2-.6z"/><circle class="st1" cx="169.3" cy="-1064.1" r="108.8"/><path class="st2" d="M180.1 24.2C95.2 24.2 26.4 93 26.4 177.9s68.8 153.7 153.7 153.7 153.7-68.8 153.7-153.7S265 24.2 180.1 24.2zm0 262.5C120 286.7 71.3 238 71.3 177.9S120 69.1 180.1 69.1s108.8 48.7 108.8 108.8c.1 60.1-48.6 108.8-108.8 108.8z"/><path class="st0" d="M180.2 73.3c-57.8 0-104.6 46.8-104.6 104.6s46.8 104.6 104.6 104.6 104.5-46.9 104.5-104.6S237.9 73.3 180.2 73.3zm73.8 49.1l-.2.2-.2.9-.3.4v1.5l-.3.5-.4.2h-.3l-1.5.3-.4.6-.8-.1-5.2 2.6-.1.1-1.3.9-.1.2-.3.7-.4.1-.5 1.4-.3.5-1.6 1.3-1.9.8-1.6 1.1-.9.9-1.7 1.8-6.8 3-.8.4-1.5.9-3 2.2-1.4 1.2-1.8 2.1-.3.6-.2.5-.5 1.7-.2.4-.5.3-1 .3-.6.1h-1.6l-1.4-.4-.8.1-.8.1-1 .6-.1.1-.5.5-.7.8-.7 1.3-.6.5-1 2-.1.4-.6 3 .1.7v.1l.7 2.1-.2.4-.4.1-.3.3.1.1h.7l.3.2.2.3 1.4 1.9.7.7.8.6.5 1.1.2.4.1.2.8 1 1.1 1.1.3.2.7.6 2.1 1.7 1.6 2.4.3.5.1.1.1.2.9 1.1-.6.6.6 1.1.7.1.1.1.1.2-.3.5h-.3l-.2-.3v-.1l-.3.1-.2.1h-.3l-1.9-1.1-.5-.1-.9-.6-.9.1h-.4l-.6-.2-.7.2-1.1-.4h-.4l-.5.5-.1.1-.2.1-1.8.1-1.5.6-.2.3-.4.6-.8.4-.6.5-.8.4-.5.1-.2-.1-.6-.3-.2-.2-1-1-.9-.7-.8-.3h-.2l-2.4-.4h-.9H191.2l-.8.1-.6.3-1.1.8-.7.8-.8 1.9-.2 1.5.1 1.5-.2.8v1.3l-1.3 1.9-.5.3-.5 1.6-.3.2-2-.3-1.7.1-.5.3-.4.5-.5.7-.6.3-.6.6-.9.1-.4.7-2.1.2-.8.2-.8.4-.9.7-1.4.7-.1.1-.4.2-1.3.4-1.4 1-.3.1h-.7l-1.1.6h-.5l-.8.4-.5-.1-1.2-.3-.4.1-.9.4-.1.1-.1.1-.3.8-.3.1-8.4-.6-1.2.2-2.8 1h-.1v.1l-1.1.5-1.1.7-1.3 1.2-1.3.8-.5.6v.2l-.2.7-.2.3-.1.8.1.6.1.9.3.7.3.5.8 1 .4.5.1.3-.1.3-.2.1h-.5l-1-.5-.4-.2h-.8l-.8-.3-.5.2-.7.4-.5-.1-.7-.1-.4.1-.3.2-.2.1-.1-.2v-.1l.1-.2.4-.3v-.5l-.3-.8-.4-.6-.5-1.6-.1-.2-.8-1.2-.8-.9.3-.4h-.7l-.6-.7-.5-.4-1.9-.4-.9.3-1-.3-1.5.7-.6-.2-2 .3-.6.3-.2.2-.8.5-.5.1-.5-.1h-.7l-.7.6h-.5l-.6-.2-.9-.3-1-.2-1.8-.7-.3-.1-.4-.1-.8-.2-1-.4-.5-.4-.3-.3-.6-.4-1.4-.9-.7-.2-1.6-.5h-.8l-.6-.4-.3-.2-.7.1h-.1l-.6.4-.4-.4-.3-.1-.4-.2-2-1.8-.4-.2-.7.1-.7-1-.5-.5h-.3l-.5.1-.5-.4.2-1.4-.1-.5-.4-.7v-1l-.6-1.6-.1-1.3-.3-.4-.4-.2-.3-.1-.4-.4h-.4l-.3-.2-.5.1-.4-.4-.6-1.4-1.1-.9-.6-.5-.1-.4.2-.2.5-.6.3-1-.3-.7-1.3-1.7.1-.5.5-.3-.2-.6.3-.8-.5-1.5-.2-.4-.3-.5-.1-.1-.5-1.1-1.5-2.1-.1-.9v-.1l.2-2.1.1-.4.1-.4.2-.3h.5l.6.4h.1l.3.2 1.9 1.9 1.3 1.1 1.2.8 1.1.4 1.2.2h.7l1.3-.3 1.6-.6 1.7-1.3.7-.6.8-.9.2-.3.8-1.1 1.2-2.8.5-.7.7-.6.7-.6.2-.5v-.8l.2-.2.4.1.3.2.5.3.3-.1H111.3l.2-.1.4-.2.5-.2.3-.1h.7l.3-.2.1-.1.5-.8h.4l.6.2.4-.2.9-.4h.9l.6.1 1.2.5h1.3l.3.1.4.1 1 .3.7.1.3.4 1.3.8 1.2.3 1.1.8.8.2.8.5h.7l1.1-.1.4-.2 1.3-.8 1.8-1.3.8-.5.3-.5 1.2-3.6.3-1.4.3-1.5.1-.4.3-2.9v-1.8l-.2-1.8-.2-.6-.6-.6-.2-.5v-1.4l-.1-.9-.3-.9.1-.3.6.1 1.6.8 2.4 1.5 1.8 1h.3l1-.1.4.1 1.2.6 1.2.3h1l.7-.2.9-.3.5-.4h.5l2.9.8.9.3 3.1-.4.6.5.9.1.4.3.4.1.7-.3h.3l.9.3h.4l.5-.3 1.1.3.5.1 2.1.3 1.4.5.9-.2 1.8.2 3.9-.2h.1l.5.1 1.3-.2.7-.2h1.1l1.5-.5 2.9-.3 2.6-.9h.1l.5.1h.7l1.3-.2.4-.1.5-.2v.7l1.6-.5 1.3-.7.9-.8 2.6-1.3 1.6-.8.8-.2h1.3l1.9.2.7-.3 1.2.1 2.6-.8.4-.1h.1l1.9-.6 2.1-.8 1.2-.2.8-.3 4-2 2.5-1.3 1-.8 1.4-.4 1.4-.7 1.6-1.7.8-1.1.1-.1.7-.4.4-.5v-.1l.1-.6.4-.1.5.2.7.3h.5l.4-.3.2.4.6-.2.5.1.1-.1.4-.3.3-.1.1-.1.5-.5 1.3-.1.7-.4h.9l.5-.3.6-.5.7-.3.3-.3.1-.7h.3l.4.1.3-.1.6-.6.5-1.1.3-.2 1.1-.1.7-.6.4-.1.9.1h.2l.7-.3 1.4-1.2.6-.3 1.4.4 1-.5 1.3-.1.4-.3.3-.5.1-.7.3-.1.5.2.6-.2.1-.1 1.6-1.1.9-.4h1l.3-.1.8-.3.1.2-.4.3.4.4z"/><path class="st3" d="M180.2 73.3c-57.8 0-104.6 46.8-104.6 104.6s46.8 104.6 104.6 104.6 104.5-46.9 104.5-104.6S237.9 73.3 180.2 73.3zm73.8 49.1l-.2.2-.2.9-.3.4v1.5l-.3.5-.4.2h-.3l-1.5.3-.4.6-.8-.1-5.2 2.6-.1.1-1.3.9-.1.2-.3.7-.4.1-.5 1.4-.3.5-1.6 1.3-1.9.8-1.6 1.1-.9.9-1.7 1.8-6.8 3-.8.4-1.5.9-3 2.2-1.4 1.2-1.8 2.1-.3.6-.2.5-.5 1.7-.2.4-.5.3-1 .3-.6.1h-1.6l-1.4-.4-.8.1-.8.1-1 .6-.1.1-.5.5-.7.8-.7 1.3-.6.5-1 2-.1.4-.6 3 .1.7v.1l.7 2.1-.2.4-.4.1-.3.3.1.1h.7l.3.2.2.3 1.4 1.9.7.7.8.6.5 1.1.2.4.1.2.8 1 1.1 1.1.3.2.7.6 2.1 1.7 1.6 2.4.3.5.1.1.1.2.9 1.1-.6.6.6 1.1.7.1.1.1.1.2-.3.5h-.3l-.2-.3v-.1l-.3.1-.2.1h-.3l-1.9-1.1-.5-.1-.9-.6-.9.1h-.4l-.6-.2-.7.2-1.1-.4h-.4l-.5.5-.1.1-.2.1-1.8.1-1.5.6-.2.3-.4.6-.8.4-.6.5-.8.4-.5.1-.2-.1-.6-.3-.2-.2-1-1-.9-.7-.8-.3h-.2l-2.4-.4h-.9H191.2l-.8.1-.6.3-1.1.8-.7.8-.8 1.9-.2 1.5.1 1.5-.2.8v1.3l-1.3 1.9-.5.3-.5 1.6-.3.2-2-.3-1.7.1-.5.3-.4.5-.5.7-.6.3-.6.6-.9.1-.4.7-2.1.2-.8.2-.8.4-.9.7-1.4.7-.1.1-.4.2-1.3.4-1.4 1-.3.1h-.7l-1.1.6h-.5l-.8.4-.5-.1-1.2-.3-.4.1-.9.4-.1.1-.1.1-.3.8-.3.1-8.4-.6-1.2.2-2.8 1h-.1v.1l-1.1.5-1.1.7-1.3 1.2-1.3.8-.5.6v.2l-.2.7-.2.3-.1.8.1.6.1.9.3.7.3.5.8 1 .4.5.1.3-.1.3-.2.1h-.5l-1-.5-.4-.2h-.8l-.8-.3-.5.2-.7.4-.5-.1-.7-.1-.4.1-.3.2-.2.1-.1-.2v-.1l.1-.2.4-.3v-.5l-.3-.8-.4-.6-.5-1.6-.1-.2-.8-1.2-.8-.9.3-.4h-.7l-.6-.7-.5-.4-1.9-.4-.9.3-1-.3-1.5.7-.6-.2-2 .3-.6.3-.2.2-.8.5-.5.1-.5-.1h-.7l-.7.6h-.5l-.6-.2-.9-.3-1-.2-1.8-.7-.3-.1-.4-.1-.8-.2-1-.4-.5-.4-.3-.3-.6-.4-1.4-.9-.7-.2-1.6-.5h-.8l-.6-.4-.3-.2-.7.1h-.1l-.6.4-.4-.4-.3-.1-.4-.2-2-1.8-.4-.2-.7.1-.7-1-.5-.5h-.3l-.5.1-.5-.4.2-1.4-.1-.5-.4-.7v-1l-.6-1.6-.1-1.3-.3-.4-.4-.2-.3-.1-.4-.4h-.4l-.3-.2-.5.1-.4-.4-.6-1.4-1.1-.9-.6-.5-.1-.4.2-.2.5-.6.3-1-.3-.7-1.3-1.7.1-.5.5-.3-.2-.6.3-.8-.5-1.5-.2-.4-.3-.5-.1-.1-.5-1.1-1.5-2.1-.1-.9v-.1l.2-2.1.1-.4.1-.4.2-.3h.5l.6.4h.1l.3.2 1.9 1.9 1.3 1.1 1.2.8 1.1.4 1.2.2h.7l1.3-.3 1.6-.6 1.7-1.3.7-.6.8-.9.2-.3.8-1.1 1.2-2.8.5-.7.7-.6.7-.6.2-.5v-.8l.2-.2.4.1.3.2.5.3.3-.1H111.3l.2-.1.4-.2.5-.2.3-.1h.7l.3-.2.1-.1.5-.8h.4l.6.2.4-.2.9-.4h.9l.6.1 1.2.5h1.3l.3.1.4.1 1 .3.7.1.3.4 1.3.8 1.2.3 1.1.8.8.2.8.5h.7l1.1-.1.4-.2 1.3-.8 1.8-1.3.8-.5.3-.5 1.2-3.6.3-1.4.3-1.5.1-.4.3-2.9v-1.8l-.2-1.8-.2-.6-.6-.6-.2-.5v-1.4l-.1-.9-.3-.9.1-.3.6.1 1.6.8 2.4 1.5 1.8 1h.3l1-.1.4.1 1.2.6 1.2.3h1l.7-.2.9-.3.5-.4h.5l2.9.8.9.3 3.1-.4.6.5.9.1.4.3.4.1.7-.3h.3l.9.3h.4l.5-.3 1.1.3.5.1 2.1.3 1.4.5.9-.2 1.8.2 3.9-.2h.1l.5.1 1.3-.2.7-.2h1.1l1.5-.5 2.9-.3 2.6-.9h.1l.5.1h.7l1.3-.2.4-.1.5-.2v.7l1.6-.5 1.3-.7.9-.8 2.6-1.3 1.6-.8.8-.2h1.3l1.9.2.7-.3 1.2.1 2.6-.8.4-.1h.1l1.9-.6 2.1-.8 1.2-.2.8-.3 4-2 2.5-1.3 1-.8 1.4-.4 1.4-.7 1.6-1.7.8-1.1.1-.1.7-.4.4-.5v-.1l.1-.6.4-.1.5.2.7.3h.5l.4-.3.2.4.6-.2.5.1.1-.1.4-.3.3-.1.1-.1.5-.5 1.3-.1.7-.4h.9l.5-.3.6-.5.7-.3.3-.3.1-.7h.3l.4.1.3-.1.6-.6.5-1.1.3-.2 1.1-.1.7-.6.4-.1.9.1h.2l.7-.3 1.4-1.2.6-.3 1.4.4 1-.5 1.3-.1.4-.3.3-.5.1-.7.3-.1.5.2.6-.2.1-.1 1.6-1.1.9-.4h1l.3-.1.8-.3.1.2-.4.3.4.4z"/><path class="st5" d="M221.5 31.4h-.2c-13.4-3.7-27.2-5.6-41.3-5.6-12.8 0-25.4 1.6-37.7 4.7-.4.1-.8-.1-.9-.6-.1-.4.1-.8.6-.9 12.4-3.1 25.2-4.7 38.1-4.7 14.1 0 28.2 1.9 41.7 5.7.4.1.7.5.5 1-.1.2-.4.4-.8.4zM186.3 217.1v1.8h-7.2V207h2v10.1h5.2zM196.7 214.4c0 2.7-1.9 4.6-4.7 4.6-2.8 0-4.7-1.9-4.7-4.6s1.9-4.6 4.7-4.6c2.8 0 4.7 1.8 4.7 4.6zm-7.5 0c0 1.8 1.1 2.9 2.8 2.9 1.6 0 2.8-1.2 2.8-2.9s-1.1-2.9-2.8-2.9c-1.6 0-2.8 1.2-2.8 2.9zM206.2 211.3l-1.1 1.3c-.6-.6-1.5-1-2.6-1-1.6 0-2.7 1.2-2.7 2.9s1.1 2.9 2.7 2.9c1.1 0 2.1-.4 2.7-1.1l1.1 1.1c-.8 1.1-2.1 1.7-3.8 1.7-2.7 0-4.6-1.9-4.6-4.6s1.9-4.6 4.6-4.6c1.6-.1 2.9.4 3.7 1.4zM213.4 217.8c-.6.8-1.7 1.2-3 1.2-2 0-3.2-1.2-3.2-2.8 0-1.6 1.2-2.7 3.4-2.7h2.7v-.3c0-1.1-.7-1.8-2.2-1.8-.9 0-1.8.3-2.7.9l-.8-1.4c1.3-.7 2.2-1.1 3.9-1.1 2.3 0 3.6 1.2 3.7 3.2v5.9h-1.9v-1.1h.1zm0-2.1v-.8H211c-1.3 0-1.9.3-1.9 1.2 0 .8.7 1.3 1.8 1.3 1.3 0 2.4-.7 2.5-1.7zM223.1 218.3c-.7.4-1.5.7-2.2.7-1.4 0-2.5-.8-2.5-2.6v-4.7H217v-1.5h1.3v-2.5h1.9v2.5h2.7v1.5h-2.7v4.3c0 .9.4 1.2 1 1.2.4 0 .8-.1 1.4-.4l.5 1.5zM227 207.3c0 .7-.5 1.2-1.1 1.2s-1.1-.5-1.1-1.2.5-1.2 1.1-1.2c.6 0 1.1.5 1.1 1.2zm-2.1 11.6v-9h1.9v9h-1.9zM238.3 214.4c0 2.7-1.9 4.6-4.7 4.6-2.8 0-4.7-1.9-4.7-4.6s1.9-4.6 4.7-4.6c2.7 0 4.7 1.8 4.7 4.6zm-7.5 0c0 1.8 1.1 2.9 2.8 2.9 1.6 0 2.8-1.2 2.8-2.9s-1.1-2.9-2.8-2.9-2.8 1.2-2.8 2.9zM249 213.3v5.6h-2v-5.1c0-1.4-.8-2.2-2.2-2.2-1.5 0-2.4 1.1-2.6 2.5v4.8h-2v-9h2v1.7c.6-1.3 1.8-1.8 3.3-1.8 2.2 0 3.5 1.3 3.5 3.5z"/><g><path class="st5" d="M240.1 181.2c2.1 0 4 .5 5.8 1.6s3.2 2.5 4.2 4.2 1.6 3.7 1.6 5.8-.5 4-1.6 5.8-2.5 3.2-4.2 4.2-3.7 1.6-5.8 1.6-4-.5-5.8-1.6-3.2-2.5-4.2-4.2-1.6-3.7-1.6-5.8.5-4 1.6-5.8 2.5-3.2 4.2-4.2 3.7-1.6 5.8-1.6zm10.1 11.7c0-1.8-.5-3.5-1.4-5.1s-2.1-2.8-3.7-3.7-3.3-1.4-5.1-1.4-3.5.5-5.1 1.4-2.8 2.1-3.7 3.7-1.4 3.3-1.4 5.1.5 3.5 1.4 5.1 2.1 2.8 3.7 3.7 3.3 1.4 5.1 1.4 3.5-.5 5.1-1.4 2.8-2.1 3.7-3.7 1.4-3.3 1.4-5.1zm-7.9-6.6c.2-.2.4-.3.7-.4h.3c.5 0 .9.2 1.2.6s.4.8.3 1.3l-1.5 6.5c-.1.3-.2.5-.4.7l-4.8 4.6c-.3.3-.7.4-1.2.4s-.8-.3-1.1-.6-.4-.8-.2-1.2l1.5-6.5c.1-.3.2-.5.4-.7l4.8-4.7zm1 1l-4.8 4.6-1.5 6.5 4.8-4.6 1.5-6.5zm-2.1 5.6c0-.3-.1-.6-.3-.8s-.5-.3-.8-.3-.6.1-.8.3-.3.5-.3.8.1.6.3.8.5.3.8.3.6-.1.8-.3.3-.5.3-.8z"/></g><g><path class="st6" d="M130.2 231.6c2 .2 3.3 1.3 3.3 3.2 0 2.2-1.7 3.8-4.3 3.8-1.5 0-3-.5-4-1.3l.8-1.6c.9.8 2 1.2 3 1.2 1.6 0 2.5-.8 2.5-2 0-1.3-.9-2-2.5-2h-1.6v-1.2l3.1-3.3h-4.8v-1.8h7.2v1.3l-3.4 3.7h.7zM137.5 228.4v2.6h1.6c2.6 0 4.2 1.5 4.2 3.6 0 2.4-1.7 4-4.4 4-1.4 0-3.1-.5-4.2-1.4l.8-1.6c1 .8 2.1 1.3 3.2 1.3 1.5 0 2.5-.8 2.5-2.1 0-1.2-.9-2-2.5-2-.7 0-2.3.1-3.1.2v-6.3h7.2v1.8h-5.3v-.1zM153.8 226.6c0 1.1-.9 2-2 2s-2-.9-2-2 .9-2 2-2 2 1 2 2zm-3.1 0c0 .6.5 1.1 1.1 1.1s1.1-.5 1.1-1.1-.5-1.1-1.1-1.1-1.1.6-1.1 1.1zM164.3 238.5L158 230v8.5h-2v-11.9h2l6.4 8.5v-8.5h2v11.9h-2.1zM179.1 237.4c-.6.8-1.7 1.2-3 1.2-2 0-3.2-1.2-3.2-2.8 0-1.6 1.2-2.7 3.4-2.7h2.7v-.3c0-1.1-.7-1.8-2.2-1.8-.9 0-1.8.3-2.7.9l-.8-1.4c1.3-.7 2.2-1.1 3.9-1.1 2.3 0 3.6 1.2 3.7 3.2v5.9H179v-1.1h.1zm0-2.1v-.8h-2.4c-1.3 0-1.9.3-1.9 1.2 0 .8.7 1.3 1.8 1.3 1.3 0 2.4-.7 2.5-1.7zM192.3 232.8v5.6h-2v-5.1c0-1.4-.8-2.2-2.2-2.2-1.5 0-2.4 1.1-2.6 2.5v4.8h-2v-9h2v1.7c.6-1.3 1.8-1.8 3.3-1.8 2.2 0 3.5 1.4 3.5 3.5zM203.5 238.5h-2v-1.6c-.6 1.1-1.7 1.6-3.2 1.6-2.6 0-4.3-1.9-4.3-4.6s1.8-4.6 4.3-4.6c1.5 0 2.5.6 3.2 1.6v-5.1h2v12.7zm-1.9-4.5c0-1.8-1.1-3-2.8-3s-2.8 1.2-2.8 3c0 1.7 1.1 2.9 2.8 2.9 1.6 0 2.8-1.2 2.8-2.9zM214.5 231.6c2 .2 3.3 1.3 3.3 3.2 0 2.2-1.7 3.8-4.3 3.8-1.5 0-3-.5-4-1.3l.8-1.6c.9.8 2 1.2 3 1.2 1.6 0 2.5-.8 2.5-2 0-1.3-.9-2-2.5-2h-1.6v-1.2l3.1-3.3H210v-1.8h7.2v1.3l-3.4 3.7h.7zM223.7 231.6c2 .2 3.3 1.3 3.3 3.2 0 2.2-1.7 3.8-4.3 3.8-1.5 0-3-.5-4-1.3l.8-1.6c.9.8 2 1.2 3 1.2 1.6 0 2.5-.8 2.5-2 0-1.3-.9-2-2.5-2h-1.6v-1.2l3.1-3.3h-4.8v-1.8h7.2v1.3l-3.4 3.7h.7zM237.5 226.6c0 1.1-.9 2-2 2s-2-.9-2-2 .9-2 2-2 2 1 2 2zm-3.1 0c0 .6.5 1.1 1.1 1.1s1.1-.5 1.1-1.1-.5-1.1-1.1-1.1c-.6.1-1.1.6-1.1 1.1zM241.6 228.4v3.2h5.8v1.8h-5.8v3.3h6.7v1.8h-8.7v-11.9h8.5v1.8h-6.5z"/></g><g><path class="st5" d="M140.1 326.2c-.1.4-.5.7-1 .5-9.9-2.7-19.5-6.5-28.7-11.2-12.4-6.3-23.8-14.2-33.9-23.4l-.6-.6c-.3-.3-.3-.8-.1-1.1h1.1c.3.2.5.4.8.7 10 9.1 21.3 16.9 33.4 23 9.1 4.6 18.7 8.4 28.5 11.1.4.2.6.6.5 1z"/></g><path class="st7" d="M180.2 73.3c-57.8 0-104.6 46.8-104.6 104.6s46.8 104.6 104.6 104.6 104.5-46.9 104.5-104.6S237.9 73.3 180.2 73.3zm73.8 49.1l-.2.2-.2.9-.3.4v1.5l-.3.5-.4.2h-.3l-1.5.3-.4.6-.8-.1-5.2 2.6-.1.1-1.3.9-.1.2-.3.7-.4.1-.5 1.4-.3.5-1.6 1.3-1.9.8-1.6 1.1-.9.9-1.7 1.8-6.8 3-.8.4-1.5.9-3 2.2-1.4 1.2-1.8 2.1-.3.6-.2.5-.5 1.7-.2.4-.5.3-1 .3-.6.1h-1.6l-1.4-.4-.8.1-.8.1-1 .6-.1.1-.5.5-.7.8-.7 1.3-.6.5-1 2-.1.4-.6 3 .1.7v.1l.7 2.1-.2.4-.4.1-.3.3.1.1h.7l.3.2.2.3 1.4 1.9.7.7.8.6.5 1.1.2.4.1.2.8 1 1.1 1.1.3.2.7.6 2.1 1.7 1.6 2.4.3.5.1.1.1.2.9 1.1-.6.6.6 1.1.7.1.1.1.1.2-.3.5h-.3l-.2-.3v-.1l-.3.1-.2.1h-.3l-1.9-1.1-.5-.1-.9-.6-.9.1h-.4l-.6-.2-.7.2-1.1-.4h-.4l-.5.5-.1.1-.2.1-1.8.1-1.5.6-.2.3-.4.6-.8.4-.6.5-.8.4-.5.1-.2-.1-.6-.3-.2-.2-1-1-.9-.7-.8-.3h-.2l-2.4-.4h-.9H191.2l-.8.1-.6.3-1.1.8-.7.8-.8 1.9-.2 1.5.1 1.5-.2.8v1.3l-1.3 1.9-.5.3-.5 1.6-.3.2-2-.3-1.7.1-.5.3-.4.5-.5.7-.6.3-.6.6-.9.1-.4.7-2.1.2-.8.2-.8.4-.9.7-1.4.7-.1.1-.4.2-1.3.4-1.4 1-.3.1h-.7l-1.1.6h-.5l-.8.4-.5-.1-1.2-.3-.4.1-.9.4-.1.1-.1.1-.3.8-.3.1-8.4-.6-1.2.2-2.8 1h-.1v.1l-1.1.5-1.1.7-1.3 1.2-1.3.8-.5.6v.2l-.2.7-.2.3-.1.8.1.6.1.9.3.7.3.5.8 1 .4.5.1.3-.1.3-.2.1h-.5l-1-.5-.4-.2h-.8l-.8-.3-.5.2-.7.4-.5-.1-.7-.1-.4.1-.3.2-.2.1-.1-.2v-.1l.1-.2.4-.3v-.5l-.3-.8-.4-.6-.5-1.6-.1-.2-.8-1.2-.8-.9.3-.4h-.7l-.6-.7-.5-.4-1.9-.4-.9.3-1-.3-1.5.7-.6-.2-2 .3-.6.3-.2.2-.8.5-.5.1-.5-.1h-.7l-.7.6h-.5l-.6-.2-.9-.3-1-.2-1.8-.7-.3-.1-.4-.1-.8-.2-1-.4-.5-.4-.3-.3-.6-.4-1.4-.9-.7-.2-1.6-.5h-.8l-.6-.4-.3-.2-.7.1h-.1l-.6.4-.4-.4-.3-.1-.4-.2-2-1.8-.4-.2-.7.1-.7-1-.5-.5h-.3l-.5.1-.5-.4.2-1.4-.1-.5-.4-.7v-1l-.6-1.6-.1-1.3-.3-.4-.4-.2-.3-.1-.4-.4h-.4l-.3-.2-.5.1-.4-.4-.6-1.4-1.1-.9-.6-.5-.1-.4.2-.2.5-.6.3-1-.3-.7-1.3-1.7.1-.5.5-.3-.2-.6.3-.8-.5-1.5-.2-.4-.3-.5-.1-.1-.5-1.1-1.5-2.1-.1-.9v-.1l.2-2.1.1-.4.1-.4.2-.3h.5l.6.4h.1l.3.2 1.9 1.9 1.3 1.1 1.2.8 1.1.4 1.2.2h.7l1.3-.3 1.6-.6 1.7-1.3.7-.6.8-.9.2-.3.8-1.1 1.2-2.8.5-.7.7-.6.7-.6.2-.5v-.8l.2-.2.4.1.3.2.5.3.3-.1H111.3l.2-.1.4-.2.5-.2.3-.1h.7l.3-.2.1-.1.5-.8h.4l.6.2.4-.2.9-.4h.9l.6.1 1.2.5h1.3l.3.1.4.1 1 .3.7.1.3.4 1.3.8 1.2.3 1.1.8.8.2.8.5h.7l1.1-.1.4-.2 1.3-.8 1.8-1.3.8-.5.3-.5 1.2-3.6.3-1.4.3-1.5.1-.4.3-2.9v-1.8l-.2-1.8-.2-.6-.6-.6-.2-.5v-1.4l-.1-.9-.3-.9.1-.3.6.1 1.6.8 2.4 1.5 1.8 1h.3l1-.1.4.1 1.2.6 1.2.3h1l.7-.2.9-.3.5-.4h.5l2.9.8.9.3 3.1-.4.6.5.9.1.4.3.4.1.7-.3h.3l.9.3h.4l.5-.3 1.1.3.5.1 2.1.3 1.4.5.9-.2 1.8.2 3.9-.2h.1l.5.1 1.3-.2.7-.2h1.1l1.5-.5 2.9-.3 2.6-.9h.1l.5.1h.7l1.3-.2.4-.1.5-.2v.7l1.6-.5 1.3-.7.9-.8 2.6-1.3 1.6-.8.8-.2h1.3l1.9.2.7-.3 1.2.1 2.6-.8.4-.1h.1l1.9-.6 2.1-.8 1.2-.2.8-.3 4-2 2.5-1.3 1-.8 1.4-.4 1.4-.7 1.6-1.7.8-1.1.1-.1.7-.4.4-.5v-.1l.1-.6.4-.1.5.2.7.3h.5l.4-.3.2.4.6-.2.5.1.1-.1.4-.3.3-.1.1-.1.5-.5 1.3-.1.7-.4h.9l.5-.3.6-.5.7-.3.3-.3.1-.7h.3l.4.1.3-.1.6-.6.5-1.1.3-.2 1.1-.1.7-.6.4-.1.9.1h.2l.7-.3 1.4-1.2.6-.3 1.4.4 1-.5 1.3-.1.4-.3.3-.5.1-.7.3-.1.5.2.6-.2.1-.1 1.6-1.1.9-.4h1l.3-.1.8-.3.1.2-.4.3.4.4z"/><g><defs><path id="SVGID_1_" d="M140.1 24.2l3.2 18-62 240.3-7.4 10.1 34 39 140.4 6.9L360 226.6 319.8 48.5l-121-40z"/></defs><clipPath id="SVGID_2_"><use xlink:href="#SVGID_1_" overflow="visible"/></clipPath><circle class="st8" cx="180.2" cy="177.9" r="152.8"/></g><g><defs><path id="SVGID_3_" d="M151.8 67.8l2.3 12.9-44.5 172.5-5.4 7.3 24.5 27.9 100.8 5 80.1-80.3-28.8-127.9-86.9-28.7z"/></defs><clipPath id="SVGID_4_"><use xlink:href="#SVGID_3_" overflow="visible"/></clipPath></g></svg>