<svg id="Layer_1" data-name="Layer 1" xmlns="http://www.w3.org/2000/svg" viewBox="0 0 335.53 188.98"><defs><style>.cls-1{fill:#c49a6c}</style></defs><title>cyprus</title><path class="cls-1" d="M324.41 6.07l-1.5.59-.59.24-1.82-.1-1.7.82-3 2.06-.13.1-1.13.29-1-.45-.6.27-.2 1.23-.57.88-.69.49-2.42.24-2 1-2.65-.71-1.23.48-2.61 2.36-1.34.63h-.47l-1.77-.1-.75.25-1.24 1.11-2.12.16-.66.46-1 2.08-1.12 1.15-.64.14-.69-.26-.52.1-.25 1.33-.5.55-1.42.49-1.13.94-1 .51H282.31l-1.31.7-2.49.22-1 1-.23.21-.48.29-.79.47-.19.12-1-.17-1.11.44-.45-.69-.78.46h-1l-1.28-.56-1-.44-.71.11-.24 1.23v.14l-.74 1-1.4.84-.19.25-1.58 2.05-3 3.16-2.55 1.3-2.64.8-1.85 1.52-4.84 2.4-7.65 3.81-1.57.5-2.24.36-4 1.47-3.53 1.07-.2.06-.7.21-5 1.51-2.33-.24-1.37.5-3.58-.4h-2.48l-1.57.33-3 1.42-5 2.4-1.65 1.51-2.57 1.34-3 1v-1.31l-1 .33-.76.24-2.44.38h-1.35l-.85-.25h-.13l-5 1.65-5.57.53-2.78.9h-2.08l-1.3.39-2.55.31-.91-.24-.2-.06-7.5.33-3.42-.39-1.64.37-2.74-.92-4-.46-.93-.28-2.1-.63-.95.55-.72.08-1.7-.62h-.61l-1.4.5-.81-.2-.75-.6-1.76-.27-1.08-.9-6 .8-1.63-.48-5.46-1.59h-.86l-1.04.84-1.62.6-1.41.36-1.92.07-2.23-.58-2.3-1.12-.85-.2-1.9.19h-.58l-3.49-1.87-4.49-2.81-3.05-1.46-1.16-.14-.16.55.57 1.79.2 1.77-.06 1.63v1l.28.91 1.1 1.22.46 1.23.34 3.37V68l-.53 5.45-.18.83-.64 2.83-.59 2.59-2.26 6.91-.62.86-1.52 1-3.51 2.43-2.55 1.47-.8.33-2.07.16-1.28-.07-1.61-.87-1.57-.4L79.94 90l-2.29-.48-2.52-1.45-.65-.79-1.37-.13-1.9-.57-.7-.21-.51-.1-2.42-.07-2.26-1-1.19-.28-1.62-.09-1.7.79L60 86l-1.09-.43h-.79L57.21 87l-.13.21-.62.32H55.1l-.65.28-.87.38-.77.34-.38.16h-.23l-.41.07-.51.1-.9-.53-.49-.33-.8-.16-.43.31-.09 1.47-.39.87-1.25 1.11-1.27 1.12-.89 1.31-2.34 5.37-1.43 2.16-.46.5-1.54 1.69-1.37 1.06-3.14 2.43-3 1.11-2.56.53h-1.24l-2.36-.31-2.12-.65-2.33-1.46-2.55-2-3.7-3.65-.52-.32-.11-.07-1.16-.74h-.87l-.33.56-.19.8-.16.72-.42 4.06v.23l.23 1.68 2.8 3.92.87 2.08.14.24.58 1 .44.75.05.07.95 2.86-.67 1.62.34 1.08-.85.66-.16.94 2.52 3.16.55 1.39-.61 1.93-1 1.07-.28.29.14.82 1.16 1 2 1.75 1.07 2.64.8.7.93-.2.52.4h.78l.77.77.5.24.79.4.62.81.14 2.49 1.16 3.1v1.92l.72 1.24.23 1-.39 2.59.92.83 1-.2.65.1 1 .87 1.26 1.91 1.23-.18.78.37 3.76 3.41.86.43.62.3.76.77 1.18-.78H43l1.28-.12.57.38 1.09.74h1.42l3.09.94 1.35.35 2.72 1.69 1.16.71.68.56.91.74 1.81.78 1.56.37.84.2.64.25 3.38 1.29 1.82.43 1.69.62 1.23.45h.9l1.28-1.07 1.23-.07 1 .25 1-.16 1.58-1 .31-.46 1.13-.53 3.79-.47 1.11.36 2.84-1.24 1.91.53 1.68-.6 3.69.82 1 .69 1.1 1.25h1.35l-.51.85 1.61 1.69 1.45 2.19.1.3 1.06 3.1.78 1.1.55 1.53v1l-.85.65-.15.37v.14l.17.42.32-.18.62-.34.74-.11 1.32.14.87.09 1.37-.68.91-.45 1.46.62h1.61l.68.3 1.91.86 1 .1.36-.24.23-.55-.12-.63-.73-.85-1.61-1.87-.66-1-.5-1.4-.16-1.78-.11-1.2.2-1.58.43-.57.32-1.25.08-.33.9-1.19 2.37-1.53 2.55-2.28 2-1.33 2.08-.9v-.25l.24.09 5.29-1.8h.08l2.36-.41 15.89 1.12.59-.18.53-1.49.29-.27.19-.18L149 158l.81-.12 2.27.56.93.23 1.49-.83h1l2.18-1.19h1.35l.51-.21 2.62-1.88 2.53-.73.66-.35.23-.12 2.59-1.37 1.64-1.26 1.42-.76 1.56-.4 4.07-.29.82-1.36 1.74-.23 1.06-1.2 1.21-.49.87-1.25.72-1 1-.59 3.25-.2 3.86.47.51-.31.87-3.11.91-.58 2.46-3.58v-2.39l.4-1.55-.27-2.8.32-2.84 1.53-3.6 1.35-1.46 2.16-1.46 1.11-.49 1.56-.26h.23l.4-.07 5.38-.07c.07-.06 2 0 2 0h1.8l4.53.8.33.06 1.53.5 1.77 1.37 1.87 1.83.35.34 1.22.51.36.16 1-.16 1.42-.74 1.08-.91 1.47-.8.83-1.24.32-.49 2.84-1.11 3.34-.19.37-.2.21-.11.88-1h.83l2 .73 1.4-.28 1.12.44.87-.1 1.63-.19 1.76 1.23 1 .13 3.61 2.12H254.54l.43-.13.64-.18h.08l.08.11.41.58.57.08.66-.89-.26-.4-.1-.15-1.29-.26-1.16-2 1.1-1.18-1.73-2.13-.28-.35-.1-.15-.6-.9-3-4.62-3.94-3.15-1.38-1.11-.48-.38-2.11-2.14-1.5-2-.2-.43-.31-.68-.9-2-1.57-1.21-1.28-1.4-.07-.08-2.64-3.59-.43-.6-.62-.36h-1.32l-.13-.13-.07-.08.64-.63.7-.18.31-.69-1.35-3.9V84l-.1-1.25 1.1-5.64.14-.69 1.87-3.8 1.15-.95 1.27-2.48 1.23-1.58 1-1 .18-.11 1.88-1.13 1.57-.22 1.5-.21 2.61.81h2.97l1.13-.13 1.86-.59.88-.54.45-.7 1-3.18.3-1 .59-1.1 3.38-3.9 2.56-2.36 5.75-4.22 2.82-1.68 1.44-.86 12.84-5.71 3.29-3.5 1.74-1.76 3.07-2.06 3.6-1.48 3.1-2.45.67-.85.86-2.74.71-.17.64-1.39.18-.39 2.53-1.79.28-.14 9.82-4.92 1.42.2.77-1.14 2.85-.48.53-.09.7-.35.6-1v-.2l.08-2.73.61-.74.34-1.79.31-.42.33-.43.8-.57-.14-.4z"/></svg>