<svg xmlns="http://www.w3.org/2000/svg" viewBox="0 0 262.43 260.75"><defs><style>.cls-1{fill:#c49a6c;stroke:#c49a6c;stroke-miterlimit:10;stroke-width:4px}</style></defs><title>european</title><g id="Objects"><path class="cls-1" d="M131.23 6.47l3.11 9.57h10.06l-8.14 5.92 3.11 9.56-8.14-5.91-8.14 5.91 3.11-9.56-8.14-5.92h10.06l3.11-9.57zM74.64 21.64l3.1 9.57h10.07l-8.15 5.91 3.11 9.57-8.14-5.92-8.14 5.92 3.11-9.57-8.14-5.92h10.07l3.11-9.56zM21.3 71.69l10.06.03 3.13-9.56 3.09 9.57 10.06.03-8.15 5.89 3.08 9.58-8.12-5.94-8.16 5.9 3.14-9.56-8.13-5.94zM6.14 128.26l10.07.05 3.15-9.56 3.07 9.59 10.06.05-8.17 5.87 3.06 9.58-8.11-5.95-8.17 5.87 3.16-9.55-8.12-5.95zM25.79 198.88l3.16-9.56-8.11-5.95 10.06.05 3.16-9.55 3.06 9.58 10.06.05-8.17 5.87 3.06 9.59-8.11-5.96-8.17 5.88zM67.27 240.34l3.11-9.57-8.14-5.91H72.3l3.11-9.57 3.11 9.57h10.06l-8.14 5.92 3.11 9.56-8.14-5.91-8.14 5.91zM123.87 255.51l3.1-9.57-8.14-5.91h10.06l3.1-9.57 3.12 9.56 10.06-.01-8.13 5.92 3.11 9.57-8.14-5.91-8.14 5.92zM195.19 240.34l-8.14-5.91-8.14 5.92 3.1-9.57-8.14-5.91 10.06-.01 3.1-9.57 3.12 9.57 10.06-.01-8.14 5.92 3.12 9.57zM236.55 198.96l-8.1-5.96-8.18 5.86 3.17-9.55-8.1-5.97 10.06.07 3.17-9.55 3.05 9.58 10.06.07-8.18 5.86 3.05 9.59zM256.29 128.21l-8.08 5.99 3.19 9.54-8.19-5.84-8.09 5.98 3.02-9.6-8.19-5.84 10.06-.09 3.03-9.59 3.19 9.54 10.06-.09zM241.15 71.66l-8.12 5.96 3.16 9.55-8.17-5.87-8.11 5.95 3.06-9.58-8.17-5.88 10.07-.05 3.06-9.58 3.15 9.55 10.07-.05zM187.84 21.64l3.09 9.57 10.07.01-8.15 5.91 3.1 9.57-8.14-5.93-8.15 5.91 3.13-9.57-8.14-5.92 10.07.01 3.12-9.56z"/></g></svg>