<svg xmlns="http://www.w3.org/2000/svg" viewBox="0 0 950 672"><defs><style>.cls-1{fill:#a6b1c1}.cls-2{fill:#d5dae1}.cls-3{fill:#1b426c}.cls-4{fill:#f6f7f8}.cls-5{fill:#3e5577}.cls-6{fill:#e8d8c6}.cls-7{fill:#eaedf0}.cls-8{fill:#c49a6c}.cls-9{fill:#d3b391}.cls-10{fill:#a4afbf}.cls-11{fill:#002856}.cls-12{fill:#f3f5f7}.cls-13{fill:#eee3d6}.cls-14{fill:none}.cls-15,.cls-16{fill:#c69d70}.cls-16{stroke:#f6f7f8;stroke-miterlimit:10;stroke-width:3px}.cls-17{fill:#fff}.cls-18{fill:#eadccc}</style></defs><title>Artboard 16</title><g id="Layer_6" data-name="Layer 6"><g id="Computer"><path class="cls-1" d="M464.8 506.35c0-5.5-6.19-10-13.83-10H353.6c-7.64 0-13.83 4.46-13.83 10L316.2 593.5c0 5.5 6.19 10 13.83 10H480.4c7.63 0 13.82-4.46 13.82-10z"/><path class="cls-2" d="M762 496.09a13.84 13.84 0 0 1-13.83 13.84H74.05a13.84 13.84 0 0 1-13.83-13.84V39.75a13.83 13.83 0 0 1 13.83-13.83H748.2A13.83 13.83 0 0 1 762 39.75z"/><path class="cls-3" d="M60.22 52.67h701.81v389.47H60.22z"/><rect class="cls-2" x="250.09" y="567.74" width="311.88" height="41.57" rx="13.83" ry="13.83"/><path class="cls-4" d="M752.98 80.32H60.22v327.25h701.81V80.32h-9.05z"/><path class="cls-5" d="M432 477.93a26 26 0 1 1-26-26 26 26 0 0 1 26 26z"/><path class="cls-6" d="M60.22 80.32h701.81v28.37H60.22z"/><path class="cls-7" d="M743 94.78a6.08 6.08 0 1 1-6.08-6.08 6.08 6.08 0 0 1 6.08 6.08zM719.49 94.78a6.07 6.07 0 1 1-6.07-6.08 6.07 6.07 0 0 1 6.07 6.08zM696 94.78a6.08 6.08 0 1 1-6.07-6.08 6.07 6.07 0 0 1 6.07 6.08zM189.5 94.78a6.08 6.08 0 0 1-6.08 6.07h-80.71a6.07 6.07 0 0 1-6.07-6.07 6.08 6.08 0 0 1 6.07-6.08h80.71a6.08 6.08 0 0 1 6.08 6.08z"/><path class="cls-8" d="M101.86 130.09h629v84.73h-629z"/><path class="cls-9" d="M613.38 227.75h117.48v75.14H613.38zM613.38 316.02h117.48v75.14H613.38zM461.54 227.75h117.48v75.14H461.54zM461.54 316.02h117.48v75.14H461.54zM309.71 227.75h117.48v75.14H309.71zM309.71 316.02h117.48v75.14H309.71z"/><path class="cls-10" d="M101.86 227.75h179.43v28.19H101.86zM101.86 265.13h179.43v28.19H101.86zM101.86 302.51h179.43v28.19H101.86zM101.86 339.89h179.43v28.19H101.86z"/></g><g id="Badge"><path class="cls-11" d="M186.95 631.87l-76.56-67.5-76.56 67.5V421.58h153.12v210.29z"/><path class="cls-8" d="M222.41 405.83l-15 10.81 12.25 13.86-17.04 7.2 8.83 16.25-18.21 3.21 4.98 17.81-18.47-.92.92 18.48-17.81-4.99-3.21 18.21-16.25-8.82-7.2 17.03-13.86-12.24-10.81 15-10.82-15-13.86 12.24-7.2-17.03-16.25 8.82-3.21-18.21-17.81 4.98.92-18.47-18.47.92 4.98-17.81-18.21-3.21 8.83-16.25-17.03-7.2 12.24-13.86-15-10.81 15-10.82L3.4 381.15l17.03-7.2-8.83-16.25 18.22-3.21-4.99-17.81 18.47.92-.92-18.47 17.82 4.99 3.2-18.22 16.25 8.83 7.2-17.03 13.86 12.24 10.82-15 10.81 15 13.86-12.24 7.21 17.03 16.25-8.83 3.2 18.22 17.81-4.99-.92 18.48 18.47-.92-4.98 17.81 18.21 3.2-8.83 16.25 17.04 7.2-12.25 13.86 15 10.82z"/><path class="cls-6" d="M191.47 405.83a79.95 79.95 0 1 1-79.94-79.95 79.95 79.95 0 0 1 79.94 79.95z"/><path class="cls-12" d="M179 392.15c-2.79.25-1.19-31-7-36.83s-37-4.25-36.81-7c.21-2.5 29.51-4.49 35.44-10.4s8.08-35.23 10.61-35.41c2.74-.2 2.43 30 8 35.63s35.83 5.18 35.76 7.86-30.13 4-36.19 10.08-7.31 35.85-9.81 36.07z"/></g><g id="List"><path class="cls-13" d="M949.36 626.1c0 11-8.09 20-18.05 20H588.25c-10 0-18.06-9-18.06-20V146.52c0-11 8.09-20 18.06-20h343.06c10 0 18.05 8.94 18.05 20z"/><path class="cls-14" d="M859.81 180.88H652.84v-44.54h-5.16v57.4h218.33v-57.4h-6.2v44.54zM753.87 88.78c-24.82-1.08-32.39 14.85-34.66 23.38h65.7c-2.32-8.01-9.47-22.47-31.04-23.38z"/><path class="cls-4" d="M611.51 165.04v425.98h299.81V243.65l-117.29-78.61H611.51z"/><path class="cls-2" d="M911.32 243.65L794 165v78.61s22.81-7.54 54-7.54c37.15.04 63.32 7.58 63.32 7.58z"/><path class="cls-3" d="M859.81 129.55v-17.39h-67.36c-2.32-9.3-10.54-29.57-38.27-30.74-31.41-1.33-40.13 20.84-42.46 30.74h-58.88v17.39h-12v71h231.97v-71zm-34.74 7.12a9.76 9.76 0 1 1-9.76 9.76 9.75 9.75 0 0 1 9.76-9.76zm-71.2-47.89c21.57.91 28.72 15.37 31 23.38h-65.7c2.31-8.53 9.88-24.46 34.7-23.38zm-70 47.89a9.76 9.76 0 1 1-9.76 9.76 9.75 9.75 0 0 1 9.76-9.76zM866 193.74H647.68v-57.4h5.16v44.54h207v-44.54H866z"/><path class="cls-15" d="M689.39 200.54h104.64v13.72H689.39zM689.39 219.49h104.64v5.85H689.39zM689.39 229.11h104.64v5.85H689.39z"/><path class="cls-1" d="M710.47 439.65H878.3v22.01H710.47zM710.47 467.16H878.3v7.34H710.47zM710.47 512.55H878.3v22H710.47zM710.47 540.05H878.3v7.33H710.47z"/><path class="cls-2" d="M703 456.61a22.47 22.47 0 1 1-22.47-22.46A22.47 22.47 0 0 1 703 456.61zM703 530a22.47 22.47 0 1 1-22.47-22.47A22.47 22.47 0 0 1 703 530z"/><path class="cls-16" d="M717 430.7c-2.17-2.62-7.22-1.86-9.4-.07l-25.06 20.81-10.46-10.13a5.82 5.82 0 1 0-8.08 8.35l14.52 14.06a6 6 0 0 0 7.41.85 5.36 5.36 0 0 0 .55-.38l29-24c2.13-1.84 3.67-6.86 1.52-9.49zM717 501.81c-2.17-2.63-7.22-1.86-9.4-.07l-25.06 20.8-10.46-10.12a5.82 5.82 0 1 0-8.08 8.35l14.52 14.06a6 6 0 0 0 7.41.85 5.36 5.36 0 0 0 .55-.38l29-24c2.13-1.84 3.67-6.86 1.52-9.49z"/><path class="cls-1" d="M794.03 273.35h101.5V326h-101.5zM794.03 333.4h101.5v10.88h-101.5zM794.03 348.41h101.5v10.88h-101.5zM794.03 364.08h101.5v10.88h-101.5z"/><g id="Pie_Chart" data-name="Pie Chart"><path class="cls-17" d="M703.6 251.36v68.16h68.16a68.16 68.16 0 0 0-68.16-68.16z"/><path class="cls-15" d="M698.51 257.85a68.16 68.16 0 1 0 50.45 114L698.51 326z"/><path class="cls-18" d="M704.06 323.69l50.45 45.83a67.93 67.93 0 0 0 17.71-45.83z"/></g></g></g></svg>