<?xml version="1.0" encoding="utf-8"?>
<!-- Generator: Adobe Illustrator 21.0.0, SVG Export Plug-In . SVG Version: 6.00 Build 0)  -->
<svg version="1.1" id="Layer_1" xmlns="http://www.w3.org/2000/svg" xmlns:xlink="http://www.w3.org/1999/xlink" x="0px" y="0px"
	 viewBox="0 0 563.2 534.8" style="enable-background:new 0 0 563.2 534.8;" xml:space="preserve">
<style type="text/css">
	.st0{fill:#143E69;}
	.st1{fill:#EFEADD;}
	.st2{fill:#F2B134;}
	.st3{fill:#FA9028;}
	.st4{fill:#EE2820;}
	.st5{fill:#D9D6CC;}
	.st6{fill:#F26158;}
</style>
<title>academic</title>
<path class="st0" d="M505,55.3l58.2-55.6H1l58.2,55.6H505z"/>
<path class="st0" d="M505,55.3V352l58.2,55.6V-0.3L505,55.3z"/>
<path class="st0" d="M59.2,55.3L1-0.3v407.9L59.2,352V55.3z"/>
<path class="st0" d="M59.2,352L1,407.6h562.2L505,352H59.2z"/>
<path class="st1" d="M59.2,55.3H505V352H59.2V55.3z"/>
<path class="st2" d="M277.3,500.2l23.8,34.6l43.6-72.3c-3.8-5.7-8.8-10.5-14.7-14.2c-10.7-4.2-30.8,4.7-38.9-3
	c-8-7.7,1.2-26.9-3.1-37.1l-54,89.5L277.3,500.2z"/>
<path class="st2" d="M428.2,445.3c-8,7.7-28.2-1.2-38.9,3c-5.9,3.7-10.9,8.5-14.7,14.2l43.6,72.3l23.8-34.6l43.2-2.5l-54-89.5
	C427,418.4,436.2,437.6,428.2,445.3z"/>
<path class="st3" d="M456.6,379.8c0,11.3-21,18.5-25.3,28.4v0.1c-4.3,10.2,4.9,29.4-3.1,37.1s-28.2-1.2-38.9,3
	c-5.9,3.7-10.9,8.5-14.7,14.2c-4.5,5.4-9.2,10-14.9,10s-10.5-4.6-14.9-10c-3.8-5.7-8.8-10.5-14.7-14.2c-10.7-4.2-30.8,4.7-38.9-3
	c-8-7.7,1.2-26.9-3.1-37.1v-0.1c-4.3-9.8-25.3-17.1-25.3-28.4s21-18.5,25.3-28.4c4.4-10.2-4.9-29.5,3.1-37.2s28.2,1.2,38.9-3
	c10.3-4.1,17.8-24.2,29.7-24.2c11.8,0,19.4,20.1,29.7,24.2c10.7,4.2,30.8-4.7,38.9,3c8,7.7-1.3,27,3.1,37.2
	C435.5,361.2,456.6,368.5,456.6,379.8z"/>
<path class="st4" d="M408.1,379.8c0,25.6-21.7,46.4-48.5,46.4s-48.5-20.8-48.5-46.4s21.7-46.4,48.5-46.4S408.1,354.2,408.1,379.8z"
	/>
<path class="st0" d="M301.5,129.5c0,10.2-8.7,18.5-19.4,18.5s-19.4-8.3-19.4-18.5s8.7-18.5,19.4-18.5S301.5,119.2,301.5,129.5z"/>
<path class="st5" d="M59.2,148.1V352h190.4C144,350,59.2,259.6,59.2,148.1z"/>
<path class="st6" d="M117.3,175.8h329.6v18.5H117.3V175.8z"/>
<path class="st6" d="M156.1,212.9H253v18.5h-96.9V212.9z"/>
<path class="st6" d="M311.2,212.9h96.9v18.5h-96.9V212.9z"/>
<g>
	<path class="st4" d="M311.2,250h19.4v18.5h-19.4V250z"/>
	<path class="st4" d="M272.4,250h19.4v18.5h-19.4V250z"/>
	<path class="st4" d="M233.6,250H253v18.5h-19.4V250z"/>
</g>
</svg>
