<svg xmlns="http://www.w3.org/2000/svg" viewBox="0 0 437.91 546.27"><defs><style>.cls-1{fill:#415b81}.cls-2{fill:#97a3ba}.cls-3{fill:#cbd1dc}.cls-4{fill:#a8b2c5}.cls-5{fill:#8f9cb4}.cls-6{fill:#7a8aa7}.cls-7{fill:#7889a5}.cls-8{fill:#0f3c67}.cls-9{fill:#d9bd9f}.cls-10{fill:#94a1b8}.cls-11{fill:#697c9b}.cls-12{fill:#6b7e9d}.cls-13{fill:#627596}.cls-14{fill:#8594ae}.cls-15{fill:#002a58}.cls-16{fill:#1e436d}.cls-17{fill:#16325b}.cls-18{fill:#002856}.cls-19{fill:#f0e6da}.cls-20{fill:#9da9ba}.cls-21{fill:#002f5c}.cls-22{fill:#003561}.cls-23{fill:#dbdfe7}.cls-24{fill:#fff}.cls-25{fill:#002e5b}.cls-26{fill:#c49a6c}.cls-27{fill:#f0f2f5}.cls-28{fill:#ecdece}.cls-29{fill:#eee2d4}</style></defs><title>business</title><g id="Content"><path class="cls-1" d="M257.94 521.58c73.12 2 136.26-28.54 151.51-70.43a55.39 55.39 0 0 0 3.29-14.93.79.79 0 0 0 .07-.4 41.26 41.26 0 0 0 0-7c-2.3-46.37-63.33-84.64-141.19-86.68-81.76-2.23-151.08 36.17-154.89 85.75-.12 1.39-.12 2.83-.12 4.22a55.82 55.82 0 0 0 3.47 19.33c14.08 38.64 69.46 68.3 137.86 70.14z"/><path class="cls-2" d="M361 436.22l.12-18.32a35.86 35.86 0 0 1-2.14 9.72c-9.92 27.26-51 47.12-98.61 45.83-44.52-1.19-80.56-20.5-89.72-45.67a36.29 36.29 0 0 1-2.26-12.58v25.3c0 31.07 40.27 56.88 92 58.29 52.05 1.37 96.39-22.51 100.54-53.76a15.72 15.72 0 0 0 .25-2 31.77 31.77 0 0 0-.18-6.81z"/><path class="cls-3" d="M260.33 473.45c47.59 1.29 88.69-18.57 98.61-45.83a35.86 35.86 0 0 0 2.14-9.72.59.59 0 0 0 0-.26 25 25 0 0 0 0-4.58c-1.49-30.18-41.21-55.09-91.89-56.41-53.2-1.46-98.32 23.54-100.8 55.81-.08.9-.08 1.84-.08 2.74a36.29 36.29 0 0 0 2.26 12.58c9.2 25.22 45.24 44.48 89.76 45.67z"/><path class="cls-4" d="M97.31 403.31c-29.18 0-52-9.44-51.05-21.11v-.16l-.07-.08c-3.26 2.77-5.19 5.81-5.46 9-1 12.39 23.21 22.42 54.18 22.4 27.55 0 51.07-8 56.67-18.49l-5.94-3.44c-9.18 7.02-27.54 11.86-48.33 11.88z"/><path class="cls-5" d="M46.26 382.2c-1 11.67 21.87 21.13 51.05 21.11 20.79 0 39.15-4.86 48.35-11.86l-35.49-20.53v15.42a1 1 0 0 1 0 .18c-.25 3-6.43 5.35-13.79 5.35s-12.91-2.28-12.91-5.15v-17.38c-16.4 1.83-30 6.52-37.25 12.62l.07.08s-.02.1-.03.16z"/><path class="cls-6" d="M96.37 391.87c7.36 0 13.54-2.4 13.79-5.35a1 1 0 0 0 0-.18v-15.42l-26.7-15.45v31.25c0 2.87 5.69 5.15 12.91 5.15z"/><path class="cls-7" d="M56.86 250.36l-7.71-4.84v-1.35l-.08.05-16.32-121.15c-1.87-13.87 4.74-29.64 14.75-35.21l54.33-30.2c-3.28-5.33-6.29-10.66-9.28-16.47a8.08 8.08 0 0 0-1.42.58L24.67 78.72C14.65 84.29 8 100.06 9.91 113.93l16 118.77 1.61 18.71c0 4.16 2.11 8.6 5.42 12.69z"/><path class="cls-8" d="M49.71 243.83l-.54.35v1.34l7.71 4.84L78.48 238a127.18 127.18 0 0 0 1.83-12.64z"/><path class="cls-9" d="M138.38 91.27l.36.41c.08-.25.15-.51.23-.77-.19.09-.39.25-.59.36z"/><path class="cls-1" d="M80.31 225.31c.29-3.15.49-6.46.49-10.23 0-10.52-8.19-36.55-9.73-48.41h.08a234.15 234.15 0 0 1-5-24.65c-.08-.55-.15-1.1-.22-1.66-3.59-9.76-2.49-17.7.33-22.78.17-.62.35-1.2.56-1.77a13.73 13.73 0 0 1 2.48-4.41l-.29-.26c9.46-10.41 21.17-20.94 32.3-30.51l1.12-1a55.74 55.74 0 0 1 8-11.15c0-.25 0-.5-.06-.73h-.28c-1.15-.78-2-.5-3.4-1.49a22.62 22.62 0 0 0-2.29-5.13l-.29.16c-.79-1.22-1.52-2.44-2.27-3.66L47.5 87.86c-10 5.57-16.62 21.34-14.75 35.21l16.32 121.15.08-.05.56-.34z"/><path class="cls-10" d="M437.14 217.72L264.39 322.57l-4.08 2.48L227.43 345l-3.15 1.91-4.13 2.51-32.9 19.97-18.27 11.09V404.65l5.39-3.26 18.32-11.12.18-.11 31.75-19.27 3.28-1.99 5.03-3.05 31.86-19.33 3.21-1.96 138.77-84.22 18.49-11.23 12.65-7.68V218.1l-.77-.38z"/><path class="cls-11" d="M406.77 397.14a6.8 6.8 0 0 0 6.8 6.81h4.87a6.81 6.81 0 0 0 6.82-6.81v-148l-18.49 11.23z"/><path class="cls-5" d="M277 270.2l-23.32-9.76-7.49-3.13-6.91-2.89c-4.57 3.32-4.75 7.72-5.26 7.92l14.54 6.36 7.11 3.11 20.97 9.19 72.63-41.89s-2.22-2.67-7.59-4.86l.24.11z"/><path class="cls-6" d="M278.51 250.76l-.69.42c-5.2 2.37-8.62-4.69-8.62-4.69-.09-.3.28-4 .93-9.66-6.71 3.84-13.32 7.59-18.7 10.65l-6.5 3.67c-3.32 1.88-5.48 3.07-5.85 3.21l.23.1 6.91 2.89 7.49 3.13L277 270.2l64.9-35.87-.24-.11-33.24-16.14-.63 14.92z"/><path class="cls-12" d="M311.4 149.44l-.23 5.37-.51 11.84 28.42 12.57.18-10.38 1.81-103-.31.66-39 82.47a21.84 21.84 0 0 1 9.64.47z"/><path class="cls-6" d="M217.44 132.25v.14h.2l26.57 10.4L285.54 159a39 39 0 0 1 9.17-7.52 22.68 22.68 0 0 1 5.46-2.13 18.9 18.9 0 0 1 1.57-.31l39-82.47a3.56 3.56 0 0 0-.17-.41l-123.11 64.9s0 .42-.02 1.19z"/><path class="cls-13" d="M309.44 194.99v.06l.06-.03 6.87-3.67 22.7-12.13-28.41-12.57-1.22 28.34z"/><path class="cls-6" d="M309.19 200.65l-.42 9.86 15.14-8.44.35-.2v-9l-.3-.06-9.12 4.87z"/><path class="cls-4" d="M309.44 195.05V195l1.22-28.34.51-11.84.23-5.37a21.84 21.84 0 0 0-9.66-.44c-.51.08-1 .18-1.57.31a22.68 22.68 0 0 0-5.46 2.13 39 39 0 0 0-9.17 7.52 69.27 69.27 0 0 0-6.72 8.46s-.4 22.62-.71 44.36c-.1 7.26-.2 14.41-.27 20.6-.12 10.35-.15 18 0 18.76.23-.12.46-.23.7-.38L307.79 233l.65-14.95.33-7.57.42-9.86 5.65-3 9.12-4.87-7.59-1.42-6.87 3.67z"/><path class="cls-1" d="M280.18 416.84c-6.39-1.5-22.83-11.28-33-18-3.61-2.37-6.43-4.37-7.74-5.47l-.12-.09c-.11 2.16 0 3.76.07 5.58.72.62 1.94 1.51 3.5 2.61 1.26.88 2.75 1.89 4.4 3 .73-1.26 2.77-.92 4-.23 1.88 1.13 2.51 2.94 3.09 4.74 9.52 5.92 20.76 12.23 25.79 13.4a19.57 19.57 0 0 0 5.89-1.56l5.74-3.53c1.8-1.56 3-3.22 3.05-4.6a29.18 29.18 0 0 0-.11-4.87c-.95 3.55-8.2 8.49-14.56 9.02z"/><path class="cls-14" d="M278.51 250.76c-.24.15-.47.26-.7.38z"/><path class="cls-5" d="M269.19 246.45s3.42 7.06 8.62 4.69c-.12-.79-.09-8.41 0-18.76.07-6.19.17-13.34.27-20.6.31-21.74.71-44.36.71-44.36l-1.8 14c-1.18 9.21-2.77 21.66-4.21 33.22-.25 2-.49 3.94-.73 5.85-.5 4-1 7.87-1.36 11.27-.22 1.81-.42 3.51-.6 5.06-.62 5.63-.99 9.33-.9 9.63z"/><path class="cls-15" d="M272.44 383.31l1-.64c-.79-7.77-2.79-21.33-5.48-38.11l-3.21 2z"/><path class="cls-16" d="M232.93 365.85c2.27 8.34 3.91 13.86 5.4 18.24.34.34.69.67 1 1 9.41 8.75 17.45 7.19 25 3.19l8.06-5-7.65-36.79z"/><path class="cls-6" d="M248.84 232.86l-7 3.71-33.63 18-.56.29-6.52 3.48-3.32 1.78.89.26.5 11 .29.12 3.91-2.19c1-.56 2.15-1.19 3.36-1.86l3.38-1.88c8.73-4.88 20.76-11.58 33.8-18.85l6.64-3.71 20.09-11.2c.4-3.4.86-7.23 1.36-11.27z"/><path class="cls-17" d="M239.36 385.08c.06 3.19.18 6.28.07 8.33 1.31 1.1 4.13 3.1 7.74 5.47 10.17 6.71 26.61 16.49 33 18 6.36-.53 13.61-5.47 14.57-9a2.32 2.32 0 0 0-.2-1.91c-.6-6.28-7.9-5.84-12.75-11.64a.25.25 0 0 0-.08-.1 10.26 10.26 0 0 1-.66-.89c-2.43-3.07-6.83-7.84-7.57-10.57l-1 .67c-2.66 1.7-5.34 3.47-8.07 4.91-7.6 3.92-15.64 5.48-25.05-3.27z"/><path class="cls-1" d="M240.28 442.52c-6.39-1.5-22.82-11.27-33-18-3.6-2.38-6.43-4.37-7.74-5.47a.87.87 0 0 1-.11-.09c-.12 2.17 0 3.76.07 5.57.72.63 1.93 1.52 3.5 2.63 1.26.87 2.75 1.88 4.4 3 .72-1.25 2.77-.92 4-.23 1.88 1.14 2.52 2.94 3.08 4.74 9.53 5.91 20.77 12.23 25.8 13.4a19.33 19.33 0 0 0 5.91-1.56l5.74-3.53c1.8-1.56 3-3.23 3-4.59a32.89 32.89 0 0 0-.11-4.88c-.91 3.54-8.16 8.49-14.54 9.01z"/><path class="cls-13" d="M238.71 221.25L215.88 245l25-13.34 7.1-3.79 24.85-13.26c1.44-11.56 3-24 4.21-33.22l-31.48 32.74z"/><path class="cls-14" d="M215.88 245l22.83-23.75 6.83-7.12L277 181.39l1.8-14a69.27 69.27 0 0 1 6.72-8.46l-41.33-16.17-26.57-10.4h-.2c-.05 3.46-.22 13.39-.43 26-.11 6.12-.22 12.88-.34 19.84-.29 16.73-.6 34.61-.84 47.69v2.28a.07.07 0 0 1 0 .06c-.15 8.43-.26 14.5-.31 16.37v.58z"/><path class="cls-15" d="M232.55 409l1-.62c-.81-8-2.9-22.07-5.7-39.46l-3.28 2z"/><path class="cls-16" d="M192.87 390.16v.74c2.36 8.7 4 14.37 5.57 18.87l1 1c9.4 8.75 17.44 7.17 25 3.19l8.05-5-7.93-38.09z"/><path class="cls-17" d="M199.48 410.77c.06 3.17.17 6.28.06 8.32 1.31 1.1 4.14 3.09 7.74 5.47 10.18 6.72 26.61 16.49 33 18 6.38-.53 13.63-5.47 14.59-9a2.36 2.36 0 0 0-.2-1.91c-.61-6.28-7.9-5.84-12.76-11.64l-.07-.09a15 15 0 0 1-.67-.9c-2.42-3.07-6.81-7.85-7.56-10.57l-1 .66c-2.66 1.7-5.35 3.47-8.07 4.92-7.62 3.91-15.66 5.49-25.06-3.26z"/><path class="cls-5" d="M209 163c0 3.67-.1 7.49-.16 11.38-.2 15.88-.43 32.9-.61 45.78v3c0 2.22-.06 4.28-.08 6.16 0 2.48-.08 4.64-.1 6.41 0 2.3-.07 3.95-.09 4.79v.59a4.24 4.24 0 0 0 .6.89 7.1 7.1 0 0 0 1.3 1.22 8.15 8.15 0 0 0 5.72 1.39c.05-1.87.16-7.94.31-16.37a.07.07 0 0 0 0-.06v-2.28c.24-13.08.55-31 .84-47.69.12-7 .23-13.72.34-19.84.21-12.63.38-22.56.43-26v-.14-1.19l123.09-64.92C339 62.65 333.41 62 333.41 62l-118.86 63.75-5.16 2.78s-.19 15.24-.39 34.47z"/><path class="cls-18" d="M179.7 128.37c0 .26-.07.52-.1.78 7 13 12.3 27.49 20 39.24L209 163c.25-19.27.44-34.51.44-34.51l5.16-2.78c-2.41-5.25-5.09-10.73-8.22-16.48-4.28-7.84-21.53-35-27.17-41.06 6.02 18.36 7.29 41.96.49 60.2z"/><path class="cls-19" d="M198.77 211.13c-6.93.28-12.23 2.9-18.26 5.09-1 .36-2 .72-3.06 1-.11-.3-.23-.6-.35-.91-3.63 2.09-7 8.62-8.31 14.53a17.78 17.78 0 0 0-.4 7.44 18.71 18.71 0 0 0 9.16.26c4.28-.77 8.55-2.32 12.84-2.72 1.13.57 2.34 1.13 3.54 1.73s2.23 1.13 3.31 1.78a19.47 19.47 0 0 1 4 3.06 6.41 6.41 0 0 0 5 .59 13.07 13.07 0 0 0 2.24-1 4.24 4.24 0 0 1-.6-.89v-.59c-.84-.67-1.66-1.41-2.47-2.18-1.78-1.69-3.53-3.52-5.44-5.07a29.11 29.11 0 0 1 4.77 1.25c1.13.38 2.26.8 3.23 1.21 0-1.77.06-3.93.1-6.41 0-1.88.05-3.94.08-6.16v-3a71.66 71.66 0 0 0-9.38-9.01zM192 222.28l-.08-.3a14 14 0 0 0 1.64-3.94c2.66 0 4.58 1.13 6.8 2.11-2.79-.03-5.85 1.35-8.36 2.13z"/><path class="cls-4" d="M200 233.31c1.91 1.55 3.66 3.38 5.44 5.07.81.77 1.63 1.51 2.47 2.18 0-.84 0-2.49.09-4.79-1-.41-2.1-.83-3.23-1.21a29.11 29.11 0 0 0-4.77-1.25z"/><path class="cls-12" d="M197.87 260.08l-23.81-7.14-23.87-7.14-1.96-.58-.21 2.17-.18 2.09 23.64 10.04 27.77 11.78-.5-10.96-.88-.26z"/><path class="cls-14" d="M193.51 218a14 14 0 0 1-1.64 3.94l.08.3c2.56-.78 5.62-2.16 8.36-2.16-2.22-.94-4.14-2.08-6.8-2.08z"/><path class="cls-11" d="M192.69 390.27l-18.32 11.12v138.06a6.81 6.81 0 0 0 6.81 6.82h4.87a6.82 6.82 0 0 0 6.82-6.82V390.16z"/><path class="cls-4" d="M174.06 253l23.8 7.13 3.32-1.78 6.52-3.48.56-.29 33.63-18 7-3.71 23.24-12.4c.24-1.91.48-3.87.73-5.85L248 227.87l-7.1 3.79-25 13.34-.42.23v-.58a8.15 8.15 0 0 1-5.72-1.39 7.1 7.1 0 0 1-1.3-1.22 13.07 13.07 0 0 1-2.24 1 6.41 6.41 0 0 1-5-.59 19.47 19.47 0 0 0-4-3.06c-1.08-.65-2.19-1.23-3.31-1.78s-2.41-1.16-3.54-1.73c-4.29.4-8.56 1.95-12.84 2.72-2.37 3.62-5 5.39-8.89 5.33-1-.31-2.26-.7-3.65-1.15-2.15-.72-4.67-1.59-7.45-2.61l-.16.09-4.31 2.35-4.85 2.64 2 .57z"/><path class="cls-20" d="M168.73 380.63l.25-.15 18.27-11.09 32.9-20 4.13-2.51 3.15-1.91 32.88-19.95 4.08-2.48 172.75-104.82-97.88-48.88-.18 10.38-22.71 12.13 7.59 1.42.3.06v9l-.35.2-15.14 8.44-.33 7.57 33.24 16.14c5.37 2.19 7.59 4.86 7.59 4.86L276.64 281l-20.95-9.16-7.11-3.11-14.58-6.39c.51-.2.69-4.6 5.26-7.92l-.23-.1c.37-.14 2.53-1.33 5.85-3.21l6.5-3.67c5.38-3.06 12-6.81 18.7-10.65.18-1.55.38-3.25.6-5.06l-20.09 11.2-6.59 3.71c-13 7.27-25.07 14-33.8 18.85l-3.38 1.88c-1.21.67-2.33 1.3-3.36 1.86l-3.91 2.19-.29-.12-27.77-11.78-23.64-10 .18-2.09.21-2.16 4.85-2.64 4.31-2.35.16-.09q-2.2-.79-4.61-1.69c-13.55-5.07-31.31-12.29-43.85-18.06l-2.13 1.23L78.48 238l-21.62 12.36-23.93 13.74L0 283z"/><path class="cls-21" d="M162.3 74.08c-1.62 1.13-3.17 2.26-4.69 3.39a22.72 22.72 0 0 1 2.73 1.93c1.31 1.64.48.95 0 2.6-.33 1-1.15 2.13-.67 3.45.34 1 7.81 3.78 8.77 3.78.58 0 1.83 6.94 1.21 11.67-1.65 12.32-2.33 18.23-4.14 27.92a147.61 147.61 0 0 1-5.32 19.41c5.34-3.55 10.42-7.07 15-10.49a52.92 52.92 0 0 0 4.31-8.81c.08-.19.14-.37.22-.56 6.8-18.24 5.53-41.84-.54-60.16q-1-3.1-2.22-6c-3.16 4.5-10.38 8.71-14.66 11.87z"/><path class="cls-18" d="M179.9 215.72a4.32 4.32 0 0 0-2.8.63c.12.31.24.61.35.91 1.05-.32 2.07-.68 3.06-1a2.68 2.68 0 0 0-.07-.27 5.08 5.08 0 0 0-3.35-3.37l-1.54-.65-.39-.17a11.61 11.61 0 0 0-3.44 1.61c1.4.51 3.13.89 4.79 1.33a25.32 25.32 0 0 1 3.39.98z"/><path class="cls-15" d="M152.93 163.15a2.34 2.34 0 0 0 0 .26c-.13 1.07-.24 2.13-.36 3.2a.13.13 0 0 1 0 .06 272.76 272.76 0 0 0-1.33 29.53l23-13.18c1.5-18 3.22-36.08 5.45-53.87 0-.26.07-.52.1-.78-.08.19-.14.37-.22.56a52.92 52.92 0 0 1-4.31 8.81c-4.57 3.42-9.65 6.94-15 10.49-2 5.53-4.34 10.81-7 14.17z"/><path class="cls-22" d="M152.43 68.54c.12 1.55-1.61 3.2-3.84 4.57a39.11 39.11 0 0 1 9 4.36c1.52-1.13 3.07-2.26 4.69-3.39 4.28-3.16 11.5-7.37 14.64-11.85-.1-.27-.22-.54-.33-.8-3.1-3.09-16-7.07-24.4-4.41.14 4.37.81 7.45.24 11.52z"/><path class="cls-20" d="M151.19 196.2l-5.57 3.2 5.63 2.38c9.25 3.89 18.23 7.6 23.91 10l.39.17 1.54.65a5.08 5.08 0 0 1 3.35 3.37 2.68 2.68 0 0 1 .07.27c6-2.19 11.33-4.81 18.26-5.09a71.66 71.66 0 0 1 9.41 9.07c.18-12.88.41-29.9.61-45.78.06-3.89.11-7.71.16-11.38l-9.34 5.35L174.15 183z"/><path class="cls-18" d="M168.39 238.32a5.11 5.11 0 0 0 1 2.21 32.66 32.66 0 0 1-6.42-2.12 11.18 11.18 0 0 0 2.05 4.35c1.39.45 2.61.84 3.65 1.15 3.89.06 6.52-1.71 8.89-5.33a18.71 18.71 0 0 1-9.17-.26z"/><path class="cls-17" d="M168.74 380.63L.01 283l-.01.01v24.16l14.22 8.23 18.49 10.69 50.76 29.38 26.7 15.45 35.49 20.53 5.94 3.44 17.14 9.92.24-.16v-23.88l-.24-.14z"/><path class="cls-23" d="M168.39 238.32a17.78 17.78 0 0 1 .4-7.44c1.35-5.91 4.68-12.44 8.31-14.53a4.32 4.32 0 0 1 2.8-.63 25.32 25.32 0 0 0-3.39-1c-1.66-.44-3.39-.82-4.79-1.33-6.37 4.3-10 14.83-9.18 22.69a15.77 15.77 0 0 0 .41 2.35 32.66 32.66 0 0 0 6.42 2.12 5.11 5.11 0 0 1-.98-2.23z"/><path class="cls-22" d="M163 238.41a15.77 15.77 0 0 1-.41-2.35c-.83-7.86 2.81-18.39 9.18-22.69a11.61 11.61 0 0 1 3.44-1.61c-5.68-2.38-14.66-6.09-23.91-10l-5.63-2.38c-11.29-4.8-22.07-9.57-26.84-12.25-1.43-3.41-2.89-7.23-4.38-11.32-5.84-15.92-12.17-35.73-18.7-49.47a33.13 33.13 0 0 0-4-6.1c-4.16-5.11-10.26-9.48-17.5-8.84a3.88 3.88 0 0 0-.48 0c-2.66.4-5.48 2.54-7.45 6.1-2.82 5.08-3.92 13-.33 22.78.07.56.14 1.11.22 1.66 5.46 18.47 22.39 61.49 28.15 69.41l-.62.37c.74 1.35 5.85 4.15 13.15 7.59l2.18 1c12.54 5.77 30.3 13 43.85 18.06q2.4.9 4.61 1.69c2.78 1 5.3 1.89 7.45 2.61a11.18 11.18 0 0 1-1.98-4.26zm-58-52.28c-.09-1.63-.2-3.26-.34-4.9.18-.1.34-.2.52-.28-.03 1.69-.08 3.42-.18 5.18z"/><path class="cls-24" d="M151 95.76a6.19 6.19 0 0 0-2 .67C156.7 113 159.84 134 156 151a52.24 52.24 0 0 1-2.59 8.37c-.17 1.11-.32 2.22-.45 3.34 0 .16-.05.32-.06.49l.27-.75c1.42-3.86 3.34-8.23 4.68-12.66a36.67 36.67 0 0 0 1.46-7 129.69 129.69 0 0 0 .8-22.89c-1.39-8.6-4.81-16-8.83-23.45q-.14-.35-.28-.69z"/><path class="cls-23" d="M151.31 96.45c4 7.5 7.44 14.85 8.83 23.45 0-.69-.09-1.39-.14-2.09a116.49 116.49 0 0 0-4.61-26 32.33 32.33 0 0 0-3.47-7.78 8.24 8.24 0 0 1-.79 4.66 12.54 12.54 0 0 1-1.26-.84c.59 2.48.85 5.51 1.3 7.84.05.31.09.53.14.76z"/><path class="cls-16" d="M150.9 82.52l.56.84a1 1 0 0 1 .46.71 32.33 32.33 0 0 1 3.47 7.78 116.49 116.49 0 0 1 4.61 26c.05.7.1 1.4.14 2.09a129.69 129.69 0 0 1-.8 22.89 36.67 36.67 0 0 1-1.46 7c-1.34 4.43-3.26 8.8-4.68 12.66 2.64-3.36 5-8.64 7-14.17a147.61 147.61 0 0 0 5.32-19.41c1.81-9.69 2.49-15.6 4.14-27.92.62-4.73-.63-11.67-1.21-11.67-1 0-8.43-2.8-8.77-3.78-.48-1.32.34-2.47.67-3.45.49-1.65 1.32-1 0-2.6a22.72 22.72 0 0 0-2.73-1.93 39.11 39.11 0 0 0-9-4.36 28.33 28.33 0 0 1-6 2.72c3.1.57 5.99 3.32 8.28 6.6z"/><path class="cls-24" d="M153.44 159.32A52.24 52.24 0 0 0 156 151c3.81-17 .67-38-7.09-54.52a9.63 9.63 0 0 0-2.2 1.67c1.89 6.88 4.42 14.46 4.84 21.87.44 6.36.11 13.77.11 20.34a44.76 44.76 0 0 1 1.34 12.53c0 3.38-.17 6.73-.11 9.91a3.47 3.47 0 0 1-.25.29c0 1.4 0 2.67-.1 3.52.12-1.07.23-2.13.36-3.2a2.34 2.34 0 0 1 0-.26c0-.17 0-.33.06-.49.16-1.12.31-2.23.48-3.34z"/><path class="cls-25" d="M152.52 166.67a.13.13 0 0 0 0-.06c.06-.85.1-2.12.1-3.52a37.12 37.12 0 0 0-.68-8.15c-.11-.39-.23-.78-.34-1.17-12.36 7.82-25.54 15.5-37.21 22.06 1.49 4.09 2.95 7.91 4.38 11.32 4.77 2.68 15.55 7.45 26.84 12.25l5.57-3.2a272.76 272.76 0 0 1 1.34-29.53z"/><path class="cls-19" d="M151.25 32.33a73.53 73.53 0 0 0-3-11.07c-4.86 8-16.77 13.94-26.78 14.9a50.67 50.67 0 0 1 2.34 7.91c-1.24 3.92-.41 4 .85 8.64.77 2.82.08 5.23-.1 8.5-.45 5.16.63 8.06.08 12 6.7 2.1 13.69 3.35 15.5 3.22a8.16 8.16 0 0 0 1.09-.18c.41-.1.87-.22 1.35-.38a28.33 28.33 0 0 0 6-2.72c2.23-1.37 4-3 3.84-4.57.57-4.07-.1-7.15-.22-11.52v-3.85c.13-3.75.72-6.57.09-9.78 0-.18-.08-.37-.12-.54-1.29-5.73-2.12-5.81-.92-10.56z"/><path class="cls-26" d="M104.1 61.32l.29-.16a22.62 22.62 0 0 1 2.29 5.13c1.39 1 2.25.71 3.4 1.49h.28l-.3-3.95c-3.39-.5-4.73-7.91-6.06-11.17-1.71-4.16 3.37-5.39 5.1-3.93.53 1.81 1.14 5.06 1.83 8.21 1.62 1.17 3.38 2.28 5.15 3.33-1.78-8 .29-11 .83-14.8.51-3.46 1.25-6 1.11-9.16a24.19 24.19 0 0 0 3.48-.13c10-1 21.92-6.89 26.78-14.9a73.53 73.53 0 0 1 3 11.07c-1.2 4.75-.37 4.83 1 10.52 0 .17.07.36.12.54 1.54-9.18-.66-21-.66-21C150-.26 115.54-6.57 99 7.37l-.1-.13c-8.17 6.86-14.29 17.92-10.14 26.38 1.28 2.63 2.54 5.14 3.79 7.57 3 5.81 6 11.14 9.28 16.47.75 1.22 1.48 2.44 2.27 3.66z"/><path class="cls-24" d="M148.94 96.43a6.19 6.19 0 0 1 2-.67h.22c-.45-2.33-.71-5.36-1.3-7.84-1-.74-2.05-1.59-3.12-2.29a6.86 6.86 0 0 0-4.66-1.31h-.16a2.11 2.11 0 0 1 0 .25c.71 1 1.41 2 2.07 3a74.1 74.1 0 0 1 4.95 8.86z"/><path class="cls-27" d="M141.7 81.21a2.26 2.26 0 0 1 .09 1.2c-1.08 5.67-24.2 8.3-30.45-1.77a7.29 7.29 0 0 1-.54-1h-.09c-1.9 3.78-.41 7.9 2.06 11.45a29.05 29.05 0 0 0 9.11 4.33c1.45.43 4 1.22 6.74 1.78 3.41.71 7 1 8.87-.14a35.7 35.7 0 0 1 1.2-5.43l-.36-.41c.2-.11.4-.24.59-.36a65.69 65.69 0 0 1 2.46-6.62l.21-.15.31.42a2.11 2.11 0 0 0 0-.25h.16a6.86 6.86 0 0 1 4.66 1.31c1.07.7 2.1 1.55 3.12 2.29a12.54 12.54 0 0 0 1.26.84 8.24 8.24 0 0 0 .79-4.66l-.46-.71-.56-.84c-2.29-3.28-5.18-6-8.29-6.69-.48.16-.94.28-1.35.38l.07.25c.15 1.62.27 3.22.4 4.78z"/><path class="cls-24" d="M146.7 98.08a9.63 9.63 0 0 1 2.2-1.67 74.1 74.1 0 0 0-4.9-8.86c-.66-1-1.36-2-2.07-3l-.31-.42-.21.15a65.69 65.69 0 0 0-2.41 6.63c-.08.26-.15.52-.23.77a28.7 28.7 0 0 0 7.93 6.4z"/><path class="cls-21" d="M151.61 153.77c-3.19-10.59-6.52-18.62-15.6-23.91-5.47-3.29-13-5.69-18.53-8.76 0 0 3-9.68.13-11-1.76 0-5.92 3.29-7.89.88a13.54 13.54 0 0 1-.85-1.58c-5.89 3.63-11.06 7.42-17.13 10.82a33.13 33.13 0 0 1 4 6.1c6.53 13.74 12.86 33.55 18.7 49.47 11.63-6.52 24.81-14.2 37.17-22.02z"/><path class="cls-28" d="M110.73 72.63q.3 4 .61 8c6.25 10.07 29.37 7.44 30.45 1.77a2.26 2.26 0 0 0-.09-1.2c-.13-1.56-.25-3.16-.37-4.75l-.07-.25a8.16 8.16 0 0 1-1.09.18c-1.81.13-8.8-1.12-15.5-3.22a56.58 56.58 0 0 1-7.24-2.76 16.22 16.22 0 0 1-5-7.24 3.41 3.41 0 0 1-2.33.65l.3 3.95c0 .23 0 .48.06.73.06 1.38.16 2.76.27 4.14z"/><path class="cls-23" d="M118.92 97.77c1.31 1.06 2.59 2.06 3.86 3 5.39 4.15 10.34 7.79 14.87 13.39a80.94 80.94 0 0 1 13.69 25.08c.12.35.22.71.32 1.06 0-6.57.33-14-.11-20.34-.42-7.41-2.95-15-4.84-21.87a28.7 28.7 0 0 1-8-6.4 35.7 35.7 0 0 0-1.2 5.43c-1.83 1.19-5.46.85-8.87.14-2.72-.56-5.29-1.35-6.74-1.78a29.05 29.05 0 0 1-9.11-4.33 37.55 37.55 0 0 0 6.13 6.62z"/><path class="cls-29" d="M117.43 70.41a56.58 56.58 0 0 0 7.24 2.76c.55-3.9-.53-6.8-.08-12 .18-3.27.87-5.68.1-8.5-1.26-4.67-2.09-4.72-.85-8.64a50.67 50.67 0 0 0-2.34-7.91 24.19 24.19 0 0 1-3.48.13c.14 3.17-.6 5.7-1.11 9.16-.54 3.84-2.61 6.75-.83 14.8-1.77-1-3.53-2.16-5.15-3.33-.69-3.15-1.3-6.4-1.83-8.21-1.73-1.46-6.81-.23-5.1 3.93 1.33 3.26 2.67 10.67 6.06 11.17a3.41 3.41 0 0 0 2.33-.65 16.22 16.22 0 0 0 5.04 7.29z"/><path class="cls-16" d="M105.78 101.38c.88 2.31 1.91 5.6 3.09 8.06a13.54 13.54 0 0 0 .85 1.58c2 2.41 6.13-.88 7.89-.88 2.84 1.28-.13 11-.13 11 5.48 3.07 13.06 5.47 18.53 8.76 9.08 5.29 12.41 13.32 15.6 23.91.11.39.23.78.34 1.17a37.12 37.12 0 0 1 .68 8.15 3.47 3.47 0 0 0 .25-.29c-.06-3.18.1-6.53.11-9.91a44.76 44.76 0 0 0-1.33-12.55c-.1-.35-.2-.71-.32-1.06a80.94 80.94 0 0 0-13.69-25.08c-4.53-5.6-9.48-9.24-14.87-13.39-1.27-1-2.55-2-3.86-3a37.55 37.55 0 0 1-6.15-6.63c-2.47-3.55-4-7.67-2.06-11.45h.09a7.29 7.29 0 0 0 .54 1q-.32-4-.61-8c-.11-1.38-.21-2.76-.31-4.13a55.74 55.74 0 0 0-8 11.15l-1.12 1c-1.66 5.34 2.64 16.1 4.48 20.59z"/><path class="cls-25" d="M106.92 221.62l2.13-1.23-2.18-1c.01.72.02 1.47.05 2.23z"/><path class="cls-22" d="M108.87 109.44c-1.18-2.46-2.21-5.75-3.09-8.06-1.84-4.49-6.14-15.25-4.43-20.77-11.13 9.57-22.84 20.1-32.3 30.51l.29.26a13.73 13.73 0 0 0-2.48 4.41H67c1.32-3.54 3.83-4.68 6.75-4.38a3.88 3.88 0 0 1 .48 0c7.24-.64 13.34 3.73 17.5 8.84 6.07-3.4 11.24-7.19 17.13-10.82z"/><path class="cls-18" d="M93.72 211.78l.62-.37c-5.76-7.92-22.69-50.94-28.15-69.41a234.15 234.15 0 0 0 5 24.65h-.08c1.54 11.86 9.73 37.89 9.73 48.41 0 3.77-.2 7.08-.49 10.23A127.18 127.18 0 0 1 78.48 238l28.44-16.33v-2.25c-7.35-3.49-12.46-6.29-13.2-7.64zM105 186.13c.08-1.76.13-3.49.17-5.18-.18.08-.34.18-.52.28.16 1.64.27 3.27.35 4.9zM67 115.84h-.14c-.21.57-.39 1.15-.56 1.77 2-3.56 4.79-5.7 7.45-6.1-2.92-.35-5.43.79-6.75 4.33z"/><path class="cls-11" d="M14.22 466.28A6.81 6.81 0 0 0 21 473.1h4.9a6.83 6.83 0 0 0 6.81-6.82V326.09L14.22 315.4z"/></g></svg>