<?xml version="1.0" encoding="utf-8"?>
<!-- Generator: Adobe Illustrator 21.0.0, SVG Export Plug-In . SVG Version: 6.00 Build 0)  -->
<svg version="1.1" id="Layer_1" xmlns="http://www.w3.org/2000/svg" xmlns:xlink="http://www.w3.org/1999/xlink" x="0px" y="0px"
	 viewBox="0 0 609.2 531.2" style="enable-background:new 0 0 609.2 531.2;" xml:space="preserve">
<style type="text/css">
	.st0{opacity:0.1;fill:#0000CC;enable-background:new    ;}
	.st1{fill:#FF9D33;}
	.st2{fill:#FF8B00;}
	.st3{fill:#FFC599;}
	.st4{fill:#FF7300;}
	.st5{fill:#FF7300;enable-background:new    ;}
	.st6{fill:#FFFFFF;}
	.st7{fill:#FF2C2C;}
	.st8{fill:#143E69;}
	.st9{fill:#FF4D4D;}
	.st10{fill:#FF6C6C;}
	.st11{fill:#6C6CFF;}
</style>
<title>scholarship</title>
<ellipse class="st0" cx="177.4" cy="161.2" rx="50.2" ry="45.8"/>
<path class="st0" d="M547.9,520.1L504,200.1c-0.8-5.9-6.3-10.4-12.8-10.4h-50.2v-68.2c0-47.8-42.6-86.7-95-86.7s-95,38.9-95,86.7
	v68.2h-50.2c-6.5,0-12,4.4-12.8,10.4l-3,21.8l-0.8,5.7c-8.4-3.9-17.9-6.1-27.9-6.1c-34,0-61.6,25.2-61.6,56.3v42.3H67.3
	c-7.1,0-12.9,5.3-12.9,11.8v189.5c0,6.5,5.8,11.8,12.9,11.8h89.6h0h378.3C542.9,533.3,548.9,527.1,547.9,520.1L547.9,520.1z
	 M265.4,121.5c0-40.6,36.2-73.6,80.6-73.6c44.5,0,80.6,33,80.6,73.6v68.2H265.4V121.5z M109,277.9c0-23.8,21.2-43.2,47.3-43.2
	c9.6,0,18.5,2.6,26,7.1l-10.8,78.4H109L109,277.9L109,277.9z"/>
<path class="st1" d="M535.1,505.8H156.8c-7.8,0-13.8-6.2-12.8-13.3l40.9-298.1l3-21.8c0.8-5.9,6.3-10.4,12.8-10.4h290.4
	c6.5,0,12,4.4,12.8,10.4l43.9,319.9C548.9,499.6,542.9,505.8,535.1,505.8L535.1,505.8z"/>
<path class="st2" d="M225.5,162.2c-5.5,16.8-21.2,29.5-40.6,32.2l3-21.8c0.8-5.9,6.3-10.4,12.8-10.4L225.5,162.2z"/>
<path class="st2" d="M430.2,294.6L399,323c-2.8,2.6-7.3,2.6-10.2,0l-44.3-40.4c-1.6-1.4-2.3-3.5-2-5.5l3.6-25.2
	c0.4-2.9,3-5.3,6.2-5.6l27.6-3.3c2.2-0.3,4.4,0.4,6,1.9l44.3,40.4C433,287.8,433,292,430.2,294.6z"/>
<path class="st3" d="M537.9,419.7H154l7.6-55.2h368.8L537.9,419.7z"/>
<path class="st4" d="M455.6,471.4H265.4c-4,0-7.2-2.9-7.2-6.6c0-3.6,3.2-6.6,7.2-6.6h190.2c4,0,7.2,2.9,7.2,6.6
	C462.7,468.4,459.5,471.4,455.6,471.4z"/>
<path class="st5" d="M-537-218"/>
<ellipse class="st4" cx="258.2" cy="207.7" rx="16.2" ry="14.8"/>
<ellipse class="st4" cx="433.8" cy="207.7" rx="16.2" ry="14.8"/>
<path class="st6" d="M54.3,304.5V494c0,6.5,5.8,11.8,12.9,11.8h178c7.1,0,12.9-5.3,12.9-11.8V304.5c0-6.5-5.8-11.8-12.9-11.8h-178
	C60.1,292.7,54.3,298,54.3,304.5z"/>
<path class="st7" d="M430.2,276.2L399,304.7c-2.8,2.6-7.3,2.6-10.2,0l-44.3-40.4c-1.6-1.4-2.3-3.5-2-5.5l3.6-25.2
	c0.4-2.9,3-5.3,6.2-5.6l27.6-3.3c2.2-0.3,4.4,0.4,6,1.9l44.3,40.4C433,269.5,433,273.7,430.2,276.2z"/>
<path class="st7" d="M210,387.3H102.5c-4,0-7.2-2.9-7.2-6.6V348c0-3.6,3.2-6.6,7.2-6.6H210c4,0,7.2,2.9,7.2,6.6v32.8
	C217.2,384.4,214,387.3,210,387.3L210,387.3z"/>
<path class="st8" d="M186.8,371h-61c-4,0-7.2-2.9-7.2-6.6c0-3.6,3.2-6.6,7.2-6.6h61c4,0,7.2,2.9,7.2,6.6
	C193.9,368,190.7,371,186.8,371z"/>
<ellipse class="st9" cx="177.4" cy="133.7" rx="50.2" ry="45.8"/>
<path class="st8" d="M555,491.7l-43.9-319.9c-1.3-9.2-9.8-16.1-20-16.1h-50.2V94c0-47.8-42.6-86.7-95-86.7S251,46.2,251,94v61.7
	h-21.5c3.4-6.7,5.3-14.1,5.3-22c0-28.9-25.7-52.4-57.4-52.4S120,104.8,120,133.7s25.7,52.4,57.4,52.4c0.5,0,1,0,1.5,0l-1.6,11.4
	c-6.6-2.2-13.7-3.4-21-3.4c-34,0-61.6,25.2-61.6,56.3v35.8H67.3c-11.1,0-20.1,8.2-20.1,18.4V494c0,10.1,9,18.4,20.1,18.4h467.8
	c5.8,0,11.3-2.3,15.1-6.2C554,502.2,555.8,496.9,555,491.7L555,491.7z M265.4,94c0-40.6,36.2-73.6,80.6-73.6s80.6,33,80.6,73.6v61.7
	h-52.1v-6.4c0-11.8-10.5-21.4-23.4-21.4s-23.4,9.6-23.4,21.4v6.4h-62.2L265.4,94z M360.1,155.7h-18.2v-6.4c0-4.6,4.1-8.3,9.1-8.3
	s9.1,3.7,9.1,8.3L360.1,155.7L360.1,155.7z M134.4,133.7c0-21.7,19.3-39.3,43-39.3s43,17.6,43,39.3s-19.3,39.3-43,39.3
	S134.4,155.4,134.4,133.7z M109,250.3c0-23.8,21.2-43.2,47.3-43.2c6.8,0,13.3,1.3,19.2,3.7l-5.8,42.2c-0.5,3.6,2.3,6.9,6.2,7.3
	c3.9,0.4,7.5-2.1,8-5.7l4.9-35.7c9.1,7.9,14.7,19,14.7,31.3v35.8H109L109,250.3L109,250.3z M539.4,497.5c-0.6,0.7-2.1,1.8-4.3,1.8
	H264.5c0.5-1.7,0.8-3.4,0.8-5.3V349c0-3.6-3.2-6.6-7.2-6.6s-7.2,2.9-7.2,6.6v145c0,2.9-2.6,5.3-5.8,5.3h-178c-3.2,0-5.8-2.4-5.8-5.3
	V304.5c0-2.9,2.6-5.3,5.8-5.3h27.3v17.2c0,3.6,3.2,6.6,7.2,6.6s7.2-2.9,7.2-6.6v-17.2h94.6v17.2c0,3.6,3.2,6.6,7.2,6.6
	c4,0,7.2-2.9,7.2-6.6v-17.2h27.3c3.2,0,5.8,2.4,5.8,5.3c0,3.6,3.2,6.6,7.2,6.6c4,0,7.2-2.9,7.2-6.6c0-10.1-9-18.4-20.1-18.4h-27.3
	v-35.8c0-19.3-10.7-36.4-27-46.5l2.7-19.8c10.3-2.8,19.4-8.1,26.4-15.2h31v18.7c-9.4,2.8-16.2,10.8-16.2,20.3
	c0,11.8,10.5,21.3,23.4,21.3c12.9,0,23.4-9.6,23.4-21.3c0-9.5-6.8-17.5-16.2-20.3v-18.7h94.8v51.6l-8.7,1
	c-6.4,0.8-11.5,5.4-12.4,11.3l-3.6,25.2c-0.6,4,1,8.1,4.1,11l44.3,40.4c2.8,2.6,6.5,3.8,10.2,3.8s7.4-1.3,10.2-3.8l31.2-28.5
	c2.7-2.5,4.2-5.8,4.2-9.3c0-3.5-1.5-6.8-4.2-9.3L391,221.9c-3.1-2.9-7.6-4.3-12-3.7l-4.5,0.5v-49.9h52.1v18.7
	c-9.4,2.8-16.2,10.8-16.2,20.3c0,11.8,10.5,21.3,23.4,21.3s23.4-9.6,23.4-21.3c0-9.5-6.8-17.5-16.2-20.3v-18.7h50.2
	c2.9,0,5.4,2,5.7,4.6l43.9,319.9C541.1,495.4,540.1,496.8,539.4,497.5L539.4,497.5z M251.3,202.4c0.9,2.7,3.6,4.7,6.9,4.7
	c3.3,0,6-2,6.9-4.7c1.3,1.4,2.1,3.3,2.1,5.3c0,4.5-4,8.2-9,8.2c-5,0-9-3.7-9-8.2C249.2,205.7,250,203.9,251.3,202.4L251.3,202.4z
	 M367.3,246.7c4,0,7.2-2.9,7.2-6.6v-8.2l6.4-0.8l44.3,40.4l0,0v0L393.9,300l-44.3-40.4l3.6-25.2l6.8-0.8v6.5
	C360.1,243.7,363.3,246.7,367.3,246.7z M426.9,202.4c0.9,2.7,3.6,4.7,6.9,4.7c3.3,0,6-2,6.9-4.7c1.3,1.4,2.1,3.3,2.1,5.3
	c0,4.5-4,8.2-9,8.2c-5,0-9-3.7-9-8.2C424.8,205.7,425.6,203.9,426.9,202.4z"/>
<path class="st8" d="M177.4,155.7c-4,0-7.2-2.9-7.2-6.6v-30.8c0-3.6,3.2-6.6,7.2-6.6s7.2,2.9,7.2,6.6v30.8
	C184.6,152.7,181.4,155.7,177.4,155.7z"/>
<path class="st8" d="M194.2,140.3h-33.7c-4,0-7.2-2.9-7.2-6.6c0-3.6,3.2-6.6,7.2-6.6h33.7c4,0,7.2,2.9,7.2,6.6
	C201.4,137.3,198.2,140.3,194.2,140.3z"/>
<path class="st10" d="M-463.7,49.9c-1.3,0-2.6-0.5-3.5-1.5c-2-2-2-5.1,0-7.1l10-10c2-2,5.1-2,7.1,0c2,2,2,5.1,0,7.1l-10,10
	C-461.2,49.4-462.5,49.9-463.7,49.9z"/>
<path class="st10" d="M180.8,41.5c-1.8,0-3.7-0.6-5.1-1.9c-2.8-2.6-2.8-6.7,0-9.3l14.4-13.1c2.8-2.6,7.3-2.6,10.2,0
	c2.8,2.6,2.8,6.7,0,9.3l-14.4,13.1C184.5,40.9,182.7,41.5,180.8,41.5z"/>
<path class="st1" d="M517.9,120.3c-1.8,0-3.7-0.6-5.1-1.9l-9.3-8.5l-9.3,8.5c-2.8,2.6-7.3,2.6-10.2,0c-2.8-2.6-2.8-6.7,0-9.3
	L498.5,96c2.8-2.6,7.3-2.6,10.2,0l14.4,13.1c2.8,2.6,2.8,6.7,0,9.3C521.6,119.7,519.8,120.3,517.9,120.3z"/>
<path class="st11" d="M549.5,168.8c-1.8,0-3.7-0.6-5.1-1.9c-2.8-2.6-2.8-6.7,0-9.3l14.4-13.1c2.8-2.6,7.3-2.6,10.2,0
	c2.8,2.6,2.8,6.7,0,9.3l-14.4,13.1C553.1,168.1,551.3,168.8,549.5,168.8z"/>
<path class="st1" d="M-463.7,183.7c-1.3,0-2.6-0.5-3.5-1.5l-6.5-6.5l-6.5,6.5c-2,2-5.1,2-7.1,0c-2-2-2-5.1,0-7.1l10-10
	c2-2,5.1-2,7.1,0l10,10c2,2,2,5.1,0,7.1C-461.2,183.2-462.5,183.7-463.7,183.7z"/>
</svg>
