<svg id="Layer_1" data-name="Layer 1" xmlns="http://www.w3.org/2000/svg" viewBox="0 0 1013.32 442.13"><defs><style>.cls-1{fill:#fdfefe;}.cls-2{fill:#fff;}.cls-3{fill:#f9f9fa;}</style></defs><title>EduExpress.svg 1</title><path class="cls-1" d="M35.28,505.28v19.34c-.6,1.33-3,3.87-5.43,3.87a2.28,2.28,0,0,1-2.42-2.06V505.28H19V525c0,4.35,4.23,7.49,8.34,7.49a13.61,13.61,0,0,0,8-2.9v26.35a5.69,5.69,0,0,1-3.5-1.33L29.24,557a8.47,8.47,0,0,0,14.38-5.93v-45.8Z" transform="translate(-16.8 -150.61)"/><path class="cls-1" d="M60.06,504.92c-7.38,0-12.09,7.13-12.09,14.14,0,6.65,5,13.78,12.09,13.78s12.08-6.17,12.08-13.9C72.14,511.45,67.43,504.92,60.06,504.92ZM63,528.37c-3.75,0-5.44-4.72-5.44-9.55,0-5.2,1.69-9.55,5.19-9.55,4,0,5.93,4.35,5.93,9.79C68.64,523.65,66.7,528.37,63,528.37Z" transform="translate(-16.8 -150.61)"/><path class="cls-1" d="M104,525.34c0,1.58-.6,3-1.69,3a.57.57,0,0,1-.6-.61V505.28H93.29v18.49c-.85,2.18-3.39,4.72-6.29,4.72a1.9,1.9,0,0,1-2-1.7V505.28H76.49V525c0,4.71,4.35,7.37,8.7,7.37a13.16,13.16,0,0,0,8.94-3.86,6.79,6.79,0,0,0,6.17,4,7,7,0,0,0,7.25-7.13Z" transform="translate(-16.8 -150.61)"/><path class="cls-1" d="M123.74,505.28a11.56,11.56,0,0,0-5.92,1.7,6.1,6.1,0,0,0-4.47-1.7,7.07,7.07,0,0,0-7.13,7.13h3.5c0-1.93,1-3.14,1.57-3.14a.83.83,0,0,1,.85.85v22.35h8.22V512.29a6.16,6.16,0,0,0-.49-2.53,6.66,6.66,0,0,1,3.75-1v.72c0,2.9,1.81,6.29,5.2,6.29,2.41,0,3.62-1.94,3.62-4.23C132.44,507.46,128,505.28,123.74,505.28Z" transform="translate(-16.8 -150.61)"/><path class="cls-1" d="M187.67,528.73c-.37,0-.49-.49-.49-.73V485.29a4.74,4.74,0,0,1,3.63,1.45l2.41-2.54a7.5,7.5,0,0,0-5.8-2.42,8.4,8.4,0,0,0-8.45,8.46V507.1a10.4,10.4,0,0,0-5.93-1.82c-7,0-12.08,6.05-12.08,13.54,0,8.22,5.08,14,12.08,14a10.56,10.56,0,0,0,7.38-2.9,6.71,6.71,0,0,0,5,2.78c4.71,0,7.73-2.66,7.73-7.13h-3.38C189.72,526.92,189,528.73,187.67,528.73Zm-8.7-2.3c-1.21,1.21-2.42,2.42-3.63,2.42-4.11,0-5.44-6.41-5.44-10,0-3.26,1.21-9.43,5.44-9.43,1.57,0,2.78,1.21,3.63,2.3Z" transform="translate(-16.8 -150.61)"/><path class="cls-1" d="M218.6,525.22c-1.93,2.3-4.11,4-7.13,4-2.41,0-5.31-3.14-5.31-5.92,5.67-1.93,13.29-3.75,13.29-11.12,0-4.71-4.84-6.89-9.07-6.89-7.49,0-14.38,5.81-14.38,13.66,0,8.34,6.29,13.9,13.18,13.9a15,15,0,0,0,12.08-5.44Zm-6.89-16.31c2.06,0,4.23,1,4.23,3.38,0,4.72-6.4,6.41-10,7.5C205.91,512.9,208.81,508.91,211.71,508.91Z" transform="translate(-16.8 -150.61)"/><path class="cls-1" d="M239.27,516.52l-4-2.9c-1.33-1-3-2.29-3-3.14,0-1.33,1.93-1.69,3-1.69a3.41,3.41,0,0,1,1.09.12,1.59,1.59,0,0,0-.25,1c0,2.78,2.06,5.92,5.2,5.92,2.54,0,3.5-2.06,3.5-4.35,0-4.59-5.8-6.17-9.54-6.17-4.71,0-9.67,2.54-9.67,7.26,0,2.17,1.69,4.47,4.11,6.28l5.2,4c2.41,1.93,4.71,3.5,4.71,4.59,0,1.69-2.54,1.93-3.75,1.93a9.36,9.36,0,0,1-1.81-.24,3.56,3.56,0,0,0,.48-1.93,6,6,0,0,0-5.68-5.92c-2.41,0-3.26,1.69-3.26,3.5,0,4.11,5.68,8,10.76,8,4.23,0,10.15-2.54,10.15-7.5C246.52,521.24,242.17,518.58,239.27,516.52Z" transform="translate(-16.8 -150.61)"/><path class="cls-1" d="M262.71,525.22c0,.85-.73,3.15-1.81,3.15a.58.58,0,0,1-.61-.61V506h-8.21v19.21a7,7,0,0,0,7,7.13,7.06,7.06,0,0,0,7.13-7.13ZM256.18,485a5.31,5.31,0,0,0-5.31,5.44,5.21,5.21,0,0,0,5.31,5.32,5.38,5.38,0,0,0,0-10.76Z" transform="translate(-16.8 -150.61)"/><path class="cls-1" d="M283.25,505.28a11.56,11.56,0,0,0-5.92,1.7,6.1,6.1,0,0,0-4.47-1.7,7.07,7.07,0,0,0-7.13,7.13h3.5c0-1.93,1-3.14,1.58-3.14a.83.83,0,0,1,.84.85v22.35h8.22V512.29a6.31,6.31,0,0,0-.48-2.53,6.61,6.61,0,0,1,3.74-1v.72c0,2.9,1.81,6.29,5.2,6.29,2.41,0,3.62-1.94,3.62-4.23C292,507.46,287.48,505.28,283.25,505.28Z" transform="translate(-16.8 -150.61)"/><path class="cls-1" d="M318.9,525.22c-1.93,2.3-4.11,4-7.13,4-2.42,0-5.32-3.14-5.32-5.92,5.68-1.93,13.3-3.75,13.3-11.12,0-4.71-4.84-6.89-9.07-6.89-7.49,0-14.38,5.81-14.38,13.66,0,8.34,6.29,13.9,13.18,13.9a15,15,0,0,0,12.08-5.44ZM312,508.91c2.06,0,4.23,1,4.23,3.38,0,4.72-6.4,6.41-10,7.5C306.21,512.9,309.11,508.91,312,508.91Z" transform="translate(-16.8 -150.61)"/><path class="cls-1" d="M445.69,566c-7.13,0-12.08-7.13-12.08-13.77,0-7,4.71-14.14,12.08-14.14s12.09,6.52,12.09,14C457.78,559.87,452.82,566,445.69,566Zm2.66-23.56c-3.5,0-5.2,4.35-5.2,9.55,0,4.83,1.7,9.54,5.44,9.54s5.68-4.71,5.68-9.3C454.27,546.82,452.34,542.47,448.35,542.47Z" transform="translate(-16.8 -150.61)"/><path class="cls-1" d="M485.93,565.67a6.77,6.77,0,0,1-6.16-4,13.16,13.16,0,0,1-8.94,3.87c-4.35,0-8.7-2.66-8.7-7.37v-19.7h8.45V560a1.9,1.9,0,0,0,2.06,1.69c2.9,0,5.44-2.53,6.28-4.71V538.48h8.46V561a.56.56,0,0,0,.61.6c1.08,0,1.69-1.45,1.69-3h3.5A7,7,0,0,1,485.93,565.67Z" transform="translate(-16.8 -150.61)"/><path class="cls-1" d="M509.25,542.71V542a6.71,6.71,0,0,0-3.74,1,6.36,6.36,0,0,1,.48,2.54v20.18h-8.22V543.31a.82.82,0,0,0-.84-.84c-.61,0-1.57,1.21-1.57,3.14h-3.51a7.06,7.06,0,0,1,7.13-7.13,6.08,6.08,0,0,1,4.47,1.69,11.58,11.58,0,0,1,5.93-1.69c4.22,0,8.7,2.18,8.7,6.29,0,2.29-1.21,4.22-3.63,4.22C511.07,549,509.25,545.61,509.25,542.71Z" transform="translate(-16.8 -150.61)"/><path class="cls-1" d="M564,542.71V542a6.74,6.74,0,0,0-3.75,1,6.36,6.36,0,0,1,.48,2.54v20.18h-8.21V543.31a.83.83,0,0,0-.85-.84c-.61,0-1.57,1.21-1.57,3.14h-3.51a7.07,7.07,0,0,1,7.13-7.13,6.1,6.1,0,0,1,4.48,1.69,11.52,11.52,0,0,1,5.92-1.69c4.23,0,8.7,2.18,8.7,6.29,0,2.29-1.21,4.22-3.63,4.22C565.81,549,564,545.61,564,542.71Z" transform="translate(-16.8 -150.61)"/><path class="cls-1" d="M590.34,566c-6.89,0-13.17-5.56-13.17-13.89,0-7.86,6.88-13.66,14.38-13.66,4.23,0,9.06,2.18,9.06,6.89,0,7.37-7.61,9.18-13.29,11.12,0,2.78,2.9,5.92,5.31,5.92,3,0,5.2-1.69,7.13-4l2.66,2.18A15,15,0,0,1,590.34,566Zm-3.26-13c3.62-1.08,10-2.78,10-7.49,0-2.42-2.17-3.38-4.22-3.38C590,542.11,587.08,546.09,587.08,553Z" transform="translate(-16.8 -150.61)"/><path class="cls-1" d="M617.53,565.91c-5.08,0-10.76-3.86-10.76-8,0-1.82.85-3.51,3.26-3.51a6,6,0,0,1,5.68,5.92,3.59,3.59,0,0,1-.48,1.94,9.36,9.36,0,0,0,1.81.24c1.21,0,3.75-.24,3.75-1.93,0-1.09-2.3-2.66-4.71-4.6l-5.2-4c-2.42-1.82-4.11-4.11-4.11-6.29,0-4.71,5-7.25,9.67-7.25,3.75,0,9.55,1.57,9.55,6.16,0,2.3-1,4.35-3.51,4.35-3.14,0-5.19-3.14-5.19-5.92a1.61,1.61,0,0,1,.24-1,3.41,3.41,0,0,0-1.09-.12c-1.09,0-3,.36-3,1.69,0,.84,1.69,2.17,3,3.14l4,2.9c2.9,2,7.25,4.71,7.25,8.7C627.68,563.37,621.76,565.91,617.53,565.91Z" transform="translate(-16.8 -150.61)"/><path class="cls-1" d="M640.37,564v28.76H632V533.16h8.34v6.89a10.94,10.94,0,0,1,5.55-1.57c7,0,12,6.53,12,13.17,0,7.13-4.35,13.9-12.09,13.9A10.85,10.85,0,0,1,640.37,564Zm3-21.51a4.76,4.76,0,0,0-3,2v15.11c1,.84,2.29,2,3.62,2,3.14,0,5-4,5-8.58C649,546.58,647,542.47,643.39,542.47Z" transform="translate(-16.8 -150.61)"/><path class="cls-1" d="M674.32,566c-7.13,0-12.08-7.13-12.08-13.77,0-7,4.71-14.14,12.08-14.14s12.09,6.52,12.09,14C686.41,559.87,681.45,566,674.32,566ZM677,542.47c-3.5,0-5.2,4.35-5.2,9.55,0,4.83,1.7,9.54,5.44,9.54s5.68-4.71,5.68-9.3C682.9,546.82,681,542.47,677,542.47Z" transform="translate(-16.8 -150.61)"/><path class="cls-1" d="M718.91,565.79a7.06,7.06,0,0,1-7.13-7.13V544.52c0-1.45-1.33-2.17-2.66-2.17-1.57,0-6.16,1.93-6.16,6.4v16.92h-8.34V543.19a.64.64,0,0,0-.72-.72c-1,0-1.69,1.81-1.69,3.14H688.7a7.06,7.06,0,0,1,7.13-7.13,6.45,6.45,0,0,1,6.53,4.35,13.28,13.28,0,0,1,9.42-4.35c7.5,0,8.7,5.08,8.7,8.58,0,3-.24,11.24-.24,13.9,0,.72.37.84.61.84,1.08,0,1.57-2.29,1.69-3.14H726A7.06,7.06,0,0,1,718.91,565.79Z" transform="translate(-16.8 -150.61)"/><path class="cls-1" d="M741.15,565.91c-5.08,0-10.76-3.86-10.76-8,0-1.82.85-3.51,3.26-3.51a6,6,0,0,1,5.68,5.92,3.59,3.59,0,0,1-.48,1.94,9.36,9.36,0,0,0,1.81.24c1.21,0,3.75-.24,3.75-1.93,0-1.09-2.3-2.66-4.72-4.6l-5.19-4c-2.42-1.82-4.11-4.11-4.11-6.29,0-4.71,5-7.25,9.67-7.25,3.74,0,9.54,1.57,9.54,6.16,0,2.3-1,4.35-3.5,4.35-3.14,0-5.2-3.14-5.2-5.92a1.56,1.56,0,0,1,.25-1,3.41,3.41,0,0,0-1.09-.12c-1.09,0-3,.36-3,1.69,0,.84,1.69,2.17,3,3.14l4,2.9c2.9,2,7.25,4.71,7.25,8.7C751.3,563.37,745.38,565.91,741.15,565.91Z" transform="translate(-16.8 -150.61)"/><path class="cls-1" d="M761,528.93a5.2,5.2,0,0,1-5.31-5.31,5.32,5.32,0,1,1,5.31,5.31Zm2.9,36.62a7,7,0,0,1-7-7.13V539.21h8.21V561a.57.57,0,0,0,.61.6c1.09,0,1.81-2.29,1.81-3.14H771A7.06,7.06,0,0,1,763.86,565.55Z" transform="translate(-16.8 -150.61)"/><path class="cls-1" d="M789.24,565.91c-8.1,0-13.9-5.68-13.9-13.77V503.8a8.41,8.41,0,0,1,8.46-8.46,7.46,7.46,0,0,1,5.8,2.42l-2.41,2.53a4.77,4.77,0,0,0-3.63-1.45v40.85a13.82,13.82,0,0,1,5.8-1.21,14.19,14.19,0,0,1,14.14,13.9C803.5,560.6,797.22,565.91,789.24,565.91Zm-1.09-23.8a10.35,10.35,0,0,0-4.59,1.57v13.77c0,2.18,1.93,5,4.59,5,4,0,5.56-5,5.56-10S792.14,542.11,788.15,542.11Z" transform="translate(-16.8 -150.61)"/><path class="cls-1" d="M813.17,528.93a5.21,5.21,0,0,1-5.32-5.31,5.32,5.32,0,1,1,5.32,5.31Zm2.9,36.62a7,7,0,0,1-7-7.13V539.21h8.21V561a.57.57,0,0,0,.61.6c1.09,0,1.81-2.29,1.81-3.14h3.51A7.07,7.07,0,0,1,816.07,565.55Z" transform="translate(-16.8 -150.61)"/><path class="cls-1" d="M839.39,500.29a4.49,4.49,0,0,0-3.5-1.45V561.2a.57.57,0,0,0,.6.6c1,0,1.81-2.29,1.81-3.14h3.51a7.13,7.13,0,0,1-14.26,0V503.8a8.56,8.56,0,0,1,8.46-8.46,8.43,8.43,0,0,1,5.92,2.42Z" transform="translate(-16.8 -150.61)"/><path class="cls-1" d="M851.59,528.93a5.2,5.2,0,0,1-5.31-5.31,5.32,5.32,0,1,1,5.31,5.31Zm2.9,36.62a7,7,0,0,1-7-7.13V539.21h8.21V561a.57.57,0,0,0,.61.6c1.08,0,1.81-2.29,1.81-3.14h3.5A7.06,7.06,0,0,1,854.49,565.55Z" transform="translate(-16.8 -150.61)"/><path class="cls-1" d="M871.9,565.55a7.06,7.06,0,0,1-7.13-7.13V542h-3.39v-3.51h3.39v-20.3h8.33v20.3h5.56V542H873.1v19a.57.57,0,0,0,.61.6c1,0,1.81-2.41,1.81-3.14H879A7.07,7.07,0,0,1,871.9,565.55Z" transform="translate(-16.8 -150.61)"/><path class="cls-1" d="M899.57,592.62a8.41,8.41,0,0,1-5.92-2.42l2.53-2.41a5.72,5.72,0,0,0,3.51,1.33V562.77a13.74,13.74,0,0,1-8,2.9c-4.11,0-8.34-3.14-8.34-7.49v-19.7h8.46v21.15a2.27,2.27,0,0,0,2.42,2c2.42,0,4.83-2.53,5.44-3.86V538.48H908v45.8A8.46,8.46,0,0,1,899.57,592.62Z" transform="translate(-16.8 -150.61)"/><rect class="cls-1" x="320.49" y="363.75" width="404.3" height="3.24"/><rect class="cls-1" x="320.49" y="371.47" width="404.3" height="3.24"/><path class="cls-1" d="M1026.85,483.84h-6.64V477a3.17,3.17,0,0,0-2.7-3.14,48.74,48.74,0,0,0-14.52.44c-8.68,1.58-15.6,5.47-20.3,11.36-4.69-5.89-11.61-9.78-20.29-11.36a48.74,48.74,0,0,0-14.52-.44,3.17,3.17,0,0,0-2.7,3.14v6.87h-6.64a3.18,3.18,0,0,0-3.18,3.18v59.85a3.17,3.17,0,0,0,1.34,2.59,3.2,3.2,0,0,0,2.89.42c.23-.09,24-8.21,41.79-.12a3.1,3.1,0,0,0,2.63,0c17.7-8.07,41.56,0,41.79.12a3.44,3.44,0,0,0,1,.17,3.19,3.19,0,0,0,3.18-3.18V487a3.18,3.18,0,0,0-3.18-3.18Zm-85.13,58.78V490.19h3.46V532.5a3.16,3.16,0,0,0,1.1,2.4,3.2,3.2,0,0,0,2.54.74c.17,0,14-1.92,24,5-12.41-2.13-24.84.33-31.15,2Zm37.8-4.85a34.32,34.32,0,0,0-17.12-8,50.19,50.19,0,0,0-8.85-.78c-.73,0-1.41,0-2,0V479.89c6.1-.28,21,.38,28,12.3Zm6.35-45.58c7-11.87,21.88-12.55,28-12.29v49.15a51,51,0,0,0-10.87.74,34.32,34.32,0,0,0-17.12,8Zm6.63,48.45c10.09-6.92,23.89-5,24.06-5a3.18,3.18,0,0,0,3.65-3.14V490.19h3.46v52.43c-6.31-1.65-18.74-4.11-31.17-2Zm0,0" transform="translate(-16.8 -150.61)"/><path class="cls-2" d="M139.93,281.87a28.42,28.42,0,0,1-28,0L48.5,243s-5.73-3.51-5.73,4.44v38.84c0,20.46,37.23,42.52,83.15,42.52s83.15-22.06,83.15-42.52v-41c0-6.38-4.07-3.26-4.07-3.26Zm0,0" transform="translate(-16.8 -150.61)"/><path class="cls-2" d="M231.4,212c4.87-3,4.87-7.88,0-10.87l-96.62-48.31c-4.87-3-12.84-3-17.72,0L20.45,201.16c-4.87,3-4.87,7.88,0,10.87l96.61,59.25c4.88,3,12.85,3,17.72,0" transform="translate(-16.8 -150.61)"/><path class="cls-2" d="M227.4,299.86V234.42s0-3.1-1.79-2.08a52.5,52.5,0,0,0-6.37,3.95c-1.47,1.28-1.14,4.15-1.14,4.15v59.42a1.74,1.74,0,0,1-1.07,1.45,11.3,11.3,0,1,0,11.4,0,1.68,1.68,0,0,1-1-1.42Zm0,0" transform="translate(-16.8 -150.61)"/><path class="cls-3" d="M206.34,384.27v-5.18a40.78,40.78,0,1,0,0,69.25v-5.18a42.47,42.47,0,0,1-25.77,8.57v-76A42.47,42.47,0,0,1,206.34,384.27Z" transform="translate(-16.8 -150.61)"/><rect class="cls-3" x="189.54" y="198.05" width="30.01" height="103.31"/><path class="cls-3" d="M625.56,442.23v5.18a40.78,40.78,0,1,0,0-69.26v5.18a42.53,42.53,0,0,1,25.77-8.56v76A42.46,42.46,0,0,1,625.56,442.23Z" transform="translate(-16.8 -150.61)"/><rect class="cls-3" x="578.75" y="223.92" width="30.01" height="103.31"/><path class="cls-3" d="M126.18,374.83H17.44V346.51H126.18ZM17.44,456.64V387.33H126.18v28.32H44.71v12.68h81.47v28.31Z" transform="translate(-16.8 -150.61)"/><path class="cls-3" d="M275.17,372v33.11h-21V372Zm.67,84.64a17.41,17.41,0,0,1-9.94-2.73,21.5,21.5,0,0,1-6.68-7.28,34.57,34.57,0,0,1-3.8-10.54,63.23,63.23,0,0,1-1.21-12.55h21A11.42,11.42,0,0,0,276,428a13.2,13.2,0,0,0,2.2,3.6,10,10,0,0,0,3.07,2.41,8,8,0,0,0,3.61.86h32.44a7.67,7.67,0,0,0,3.47-.86,10.73,10.73,0,0,0,3.14-2.41,12.46,12.46,0,0,0,2.27-3.6,11.42,11.42,0,0,0,.87-4.47h21a63.23,63.23,0,0,1-1.21,12.55,34.83,34.83,0,0,1-3.8,10.54,21.5,21.5,0,0,1-6.68,7.28,17.44,17.44,0,0,1-9.94,2.73Zm51.27-51.53V372h21v33.11Z" transform="translate(-16.8 -150.61)"/><path class="cls-3" d="M475.07,374.83H366.32V346.51H475.07ZM366.32,456.64V387.33H475.07v28.32H393.6v12.68h81.47v28.31Z" transform="translate(-16.8 -150.61)"/><path class="cls-3" d="M514.32,439.56v17.08h-21V442.76q0-3.74.27-6.54a21,21,0,0,1,1.07-5.07,15.42,15.42,0,0,1,2.33-4.28,32.8,32.8,0,0,1,4.08-4.27,25.92,25.92,0,0,1-5.21-7q-2-3.93-2.54-11V372h21v31.38a8.79,8.79,0,0,0,2.87,6.6,10,10,0,0,0,6.08,3h8.54v21.76H518.6a5,5,0,0,0-3.08,1.6A4.64,4.64,0,0,0,514.32,439.56Zm43,0a4.64,4.64,0,0,0-1.2-3.21,5,5,0,0,0-3.07-1.6H539.82V413h8.68a8.56,8.56,0,0,0,3.07-.94,10.82,10.82,0,0,0,2.87-2.07,10.57,10.57,0,0,0,2.07-2.93,8.43,8.43,0,0,0,.8-3.67V372h21v32.58c-.45,4.72-1.33,8.39-2.67,11a29,29,0,0,1-4.94,7,37.71,37.71,0,0,1,3.94,4.27,15.72,15.72,0,0,1,2.34,4.28,21.53,21.53,0,0,1,1.06,5.07q.27,2.8.27,6.54v13.88h-21Z" transform="translate(-16.8 -150.61)"/><path class="cls-3" d="M757,436.35a5,5,0,0,0-3.07-1.6H715.51v21.89h-21V413h54.74a8.13,8.13,0,0,0,3.13-.94,12.5,12.5,0,0,0,2.87-2.07,10,10,0,0,0,2.14-2.93,8.43,8.43,0,0,0,.8-3.67,8.23,8.23,0,0,0-.87-3.74,10.88,10.88,0,0,0-2.27-3.07A10.65,10.65,0,0,0,752,394.5a8.07,8.07,0,0,0-3.27-.74h-54.2V372h63a18.78,18.78,0,0,1,9.21,2.21,19.76,19.76,0,0,1,6.75,6.14,30,30,0,0,1,4.2,9.41,45.7,45.7,0,0,1,1.47,11.88v2.94q-.68,7.08-2.67,11a29,29,0,0,1-4.94,7,38.67,38.67,0,0,1,3.94,4.27,15.42,15.42,0,0,1,2.33,4.28,21,21,0,0,1,1.07,5.07q.27,2.8.27,6.54v13.88h-21V439.56A4.64,4.64,0,0,0,757,436.35Z" transform="translate(-16.8 -150.61)"/><path class="cls-3" d="M869.57,457H805.76a6.11,6.11,0,0,1-1.61-.33c-.71-.22-1.44-.47-2.2-.73s-1.45-.54-2.07-.8l-1.2-.54a17.75,17.75,0,0,1-4.81-3.54,26,26,0,0,1-3.67-4.74,22.26,22.26,0,0,1-2.33-5.2,16.69,16.69,0,0,1-.8-4.81V373.07h62.07a2.1,2.1,0,0,1,.4.07,2.5,2.5,0,0,0,.54.07c.53.09,1.07.15,1.6.2a4.94,4.94,0,0,1,1.47.33c.62.18,1.24.38,1.87.6s1.24.47,1.87.73a20.61,20.61,0,0,1,3.6,2.21,22.75,22.75,0,0,1,3.47,3.2,27.89,27.89,0,0,1,2.81,3.74,15.35,15.35,0,0,1,1.73,3.8,15.84,15.84,0,0,1,.6,2.07c.22.94.34,1.45.34,1.54v31.91H803.75v9.27a5.88,5.88,0,0,0,.74,2.91,8.34,8.34,0,0,0,1.86,2.32,9.48,9.48,0,0,0,2.53,1.59,6.6,6.6,0,0,0,2.6.59h58.09Zm-16.29-50.33V398.3a8.74,8.74,0,0,0-2.26-5.74,7.19,7.19,0,0,0-5.73-2.67H803.75v16.82Z" transform="translate(-16.8 -150.61)"/><path class="cls-3" d="M885.69,373.07H946.3V389.6H893.93v17.17H942a7.5,7.5,0,0,1,5.93,3,10.64,10.64,0,0,1,2.5,7v30.29a10.51,10.51,0,0,1-2.5,7A7.56,7.56,0,0,1,942,457H877.22V440.52h56.54V423.29H885.69a7.59,7.59,0,0,1-6-2.92,10.46,10.46,0,0,1-2.5-7V383a10.5,10.5,0,0,1,2.5-7A7.59,7.59,0,0,1,885.69,373.07Z" transform="translate(-16.8 -150.61)"/><path class="cls-3" d="M965.34,373.07H1026V389.6H973.58v17.17h48.12a7.52,7.52,0,0,1,5.93,3,10.63,10.63,0,0,1,2.49,7v30.29a10.51,10.51,0,0,1-2.49,7,7.57,7.57,0,0,1-5.93,2.92H956.88V440.52h56.53V423.29H965.34a7.6,7.6,0,0,1-6-2.92,10.51,10.51,0,0,1-2.49-7V383a10.54,10.54,0,0,1,2.49-7A7.6,7.6,0,0,1,965.34,373.07Z" transform="translate(-16.8 -150.61)"/></svg>