<svg id="Layer_1" xmlns="http://www.w3.org/2000/svg" viewBox="0 0 841.9 595.3"><style>.st0{opacity:.32;fill:#172b54;enable-background:new}.st1{display:none;opacity:.1;fill:#fff;stroke:#c3996c;stroke-width:1e-2;stroke-miterlimit:10}.st1,.st2,.st3{enable-background:new}.st2{fill:#fff;stroke:#c3996c;stroke-width:1e-2;stroke-miterlimit:10;opacity:7e-2}.st3{opacity:6e-2}.st3,.st4{fill:#fff}.st5,.st6{stroke-miterlimit:10}.st5{stroke-linecap:round;stroke-linejoin:round;fill:none;stroke:#ed2224;stroke-width:2.6906}.st6{fill:#fff;stroke:#fff;stroke-width:3e-2}.st7{fill:#c2986c}.st8{opacity:.13;fill:#fff;stroke:#c3996c;stroke-width:1e-2;stroke-miterlimit:10;enable-background:new}</style><path class="st0" d="M272.4 316.2l-.4-.6-.6-1.8-.9-1.4 1.3-2.2h-3.3l-.1-.2-1-.7-2.9-.6-.8.3-1.1-.3-1.4.6-.3-.1-2.7.3-1.4.6-.2.4-.3-.1-1.6.1-.7.5-.9-.3-.9-.2-2.1-.8-1.2-.3-.5-.2-.7-.6-.7-.4-1.7-1-1-.3-1.8-.6h-.4l-1-.6-1.3.1h-.9l-2-1.8-1.2-.6-.1-.2-1.2-1-.3-1.1-.3-.4v-.8l-.6-1.7-.1-1.6-1-1.3-.8-.4-.8-.8h-.6l-.5-.4-.3-.7-.8-.7.6-1.7-.7-1.7-.5-.6.2-.2-.4-1.2.4-.9-.8-2.5-.1-.2-.5-.9-.5-1.2-1.3-1.8.6.6 1.5 1.2 1.5 1 1.5.5 1.5.2h1l1.7-.4 2-.7 2.8-2.1 1.3-1.4.9-1.4 1.2-2.8.2-.3 1.5-1.3.6-.1h.4l.6-.2.8-.4h.8l1.3-.6.2.1 1.6-.8h.2l.3.1 1.4.6h1.5l1.5.4h.1v.1l1.9 1.1 1.1.2 1 .8 1 .2 1 .6 1.3.1 1.5-.1.8-.3 1.5-.9 1.9-1.3 1.1-.7.7-1 1.3-4 .7-2.9.1-.6.3-3.1v-2l-.2-2.1-.5-1.2-.1-.2 1 .6 2.3 1.3h.9l.7-.1 1.1.6 1.6.4 1.5-.1 1.1-.3 1.3-.5.1-.1 3.5 1 2.7-.4.3.3.9.1.3.3 1.4.4.8-.3.8.3 1.3-.1.1-.1.9.3 2.1.2 1.8.6 1.1-.2 1.6.2 3.8-.2.7.2 1.9-.2.6-.2h1.1l1.6-.5 2.9-.3 2.3-.8h1.5v1l4.4-1.5 1.7-.9.8-.8 2.4-1.1 1.4-.6.4-.1h1l2.2.3.7-.3 1.2.1 5.4-1.6 2-.7 1.1-.2 1.1-.4 4.2-2.1 2.7-1.4.8-.7 1.2-.4 1.8-.9 1.9-2 .8-1 .8-.5.2-.3h.5l.4.6 1.6-.6.7.1.7-.5.8-.5.3-.2.1-.1 1-.1.6-.3h.8l1.2-.6.5-.4.9-.3.7-.8.6-.1 1.2-1.3.3-.6.9-.1.7-.6h.9l-.1.1-.2.5-.5.1-.7 2.2-1.2 1-1.8.7-1.9 1.3-1.1 1.1-1.5 1.6-6.5 2.9-2.4 1.4-3.2 2.3-1.5 1.4-2 2.3-.5 1-.2.7-.4 1.1-.4.1H347.3l-1.5-.5-2.5.3-1.6 1-.8.8-.8 1.1-.6 1.1-.6.5-1.3 2.6-.8 3.9.1.9v.4l.4 1.1-1.3 1.3 1.3 1.5.7.7.8.1 1.2 1.7.9 1 .6.4.6 1.4 1 1.3 1.3 1.3 2.9 2.3.9 1.4-.1-.1-1.6.2-.7-.3-.8.2-.9-.3h-1.7l-.6.7-1.4.1-2.4.9-.7 1-.5.3-.5.4-.9-.8-1.3-1-1.3-.4-2.9-.5h-1.1H324.4l-1.2.2-1 .4-1.5 1-1.1 1.2-1.1 2.5-.2 2 .1 1.3-.2.7v.9l-.7 1-.8.5-.3.9-.7-.1-2.4.1-1.3.8-.6.9-.1.2-.5.2-.4.4-1.1.1-.3.8-1.3.1-1.2.3-1.1.6-.9.7-1.5.8-1.5.4-1.3.9h-.7l-1.1.6h-.5l-.5.3-1.3-.3-1.1.2-1.5.7-.8.7-7.4-.5-1.3.2h-.2l-.4.1-2.1.7-2.2-.8v1.7h-.1l-1.3.9-1.3 1.2-1.4.9-.9 1.2-.2.8-.3.4-.2 1.6.2 1.9-1 .5-.2-.6z"/><circle class="st1" cx="266.3" cy="-354.6" r="108.8"/><path class="st0" d="M313.2 178.4c-57.8 0-104.6 46.8-104.6 104.6s46.8 104.6 104.6 104.6S417.7 340.7 417.7 283s-46.8-104.6-104.5-104.6zm73.8 49.1l-.2.2-.2.9-.3.4v1.5l-.3.5-.4.2h-.3l-1.5.3-.4.6-.8-.1-5.2 2.6-.1.1-1.3.9-.1.2-.3.7-.4.1-.5 1.4-.3.5-1.6 1.3-1.9.8-1.6 1.1-.9.9-1.7 1.8-6.8 3-.8.4-1.5.9-3 2.2-1.4 1.2-1.8 2.1-.3.6-.2.5-.5 1.7-.2.4-.5.3-1 .3-.6.1h-1.6l-1.4-.4-.8.1-.8.1-1 .6-.1.1-.5.5-.7.8-.7 1.3-.6.5-1 2-.1.4-.6 3 .1.7v.1l.7 2.1-.2.4-.4.1-.3.3.1.1h.7l.3.2.2.3 1.4 1.9.7.7.8.6.5 1.1.2.4.1.2.8 1 1.1 1.1.3.2.7.6 2.1 1.7 1.6 2.4.3.5.1.1.1.2.9 1.1-.6.6.6 1.1.7.1.1.1.1.2-.3.5h-.3l-.2-.3v-.1l-.3.1-.2.1h-.3l-1.9-1.1-.5-.1-.9-.6-.9.1h-.4l-.6-.2-.7.2-1.1-.4h-.4l-.5.5-.1.1-.2.1-1.8.1-1.5.6-.2.3-.4.6-.8.4-.6.5-.8.4-.5.1-.2-.1-.6-.3-.2-.2-1-1-.9-.7-.8-.3h-.2l-2.4-.4h-.9H324.2l-.8.1-.6.3-1.1.8-.7.8-.8 1.9-.2 1.5.1 1.5-.2.8v1.3l-1.3 1.9-.5.3-.5 1.6-.3.2-2-.3-1.7.1-.5.3-.4.5-.5.7-.6.3-.6.6-.9.1-.4.7-2.1.2-.8.2-.8.4-.9.7-1.4.7-.1.1-.4.2-1.3.4-1.4 1-.3.1h-.7l-1.1.6h-.5l-.8.4-.5-.1-1.2-.3-.4.1-.9.4-.1.1-.1.1-.3.8-.3.1-8.4-.6-1.2.2-2.8 1h-.1v.1l-1.1.5-1.1.7-1.3 1.2-1.3.8-.5.6v.2l-.2.7-.2.3-.1.8.1.6.1.9.3.7.3.5.8 1 .4.5.1.3-.1.3-.2.1h-.5l-1-.5-.4-.2h-.8l-.8-.3-.5.2-.7.4-.5-.1-.7-.1-.4.1-.3.2-.2.1-.1-.2v-.1l.1-.2.4-.3v-.5l-.3-.8-.4-.6-.5-1.6-.1-.2-.8-1.2-.8-.9.3-.4h-.7l-.6-.7-.5-.4-1.9-.4-.9.3-1-.3-1.5.7-.6-.2-2 .3-.6.3-.2.2-.8.5-.5.1-.5-.1h-.7l-.7.6h-.5l-.6-.2-.9-.3-1-.2-1.8-.7-.3-.1-.4-.1-.8-.2-1-.4-.5-.4-.3-.3-.6-.4-1.4-.9-.7-.2-1.6-.5h-.8l-.6-.4-.3-.2-.7.1h-.1l-.6.4-.4-.4-.3-.1-.4-.2-2-1.8-.4-.2-.7.1-.7-1-.5-.5h-.3l-.5.1-.5-.4.2-1.4-.1-.5-.4-.7v-1l-.6-1.6-.1-1.3-.3-.4-.4-.2-.3-.1-.4-.4h-.4l-.3-.2-.5.1-.4-.4-.6-1.4-1.1-.9-.6-.5-.1-.4.2-.2.5-.6.3-1-.3-.7-1.3-1.7.1-.5.5-.3-.2-.6.3-.8-.5-1.5-.2-.4-.3-.5-.1-.1-.5-1.1-1.5-2.1-.1-.9v-.1l.2-2.1.1-.4.1-.4.2-.3h.5l.6.4h.1l.3.2 1.9 1.9 1.3 1.1 1.2.8 1.1.4 1.2.2h.7l1.3-.3 1.6-.6 1.7-1.3.7-.6.8-.9.2-.3.8-1.1 1.2-2.8.5-.7.7-.6.7-.6.2-.5v-.8l.2-.2.4.1.3.2.5.3.3-.1H244.3l.2-.1.4-.2.5-.2.3-.1h.7l.3-.2.1-.1.5-.8h.4l.6.2.4-.2.9-.4h.9l.6.1 1.2.5h1.3l.3.1.4.1 1 .3.7.1.3.4 1.3.8 1.2.3 1.1.8.8.2.8.5h.7l1.1-.1.4-.2 1.3-.8 1.8-1.3.8-.5.3-.5 1.2-3.6.3-1.4.3-1.5.1-.4.3-2.9v-1.8l-.2-1.8-.2-.6-.6-.6-.2-.5v-1.4l-.1-.9-.3-.9.1-.3.6.1 1.6.8 2.4 1.5 1.8 1h.3l1-.1.4.1 1.2.6 1.2.3h1l.7-.2.9-.3.5-.4h.5l2.9.8.9.3 3.1-.4.6.5.9.1.4.3.4.1.7-.3h.3l.9.3h.4l.5-.3 1.1.3.5.1 2.1.3 1.4.5.9-.2 1.8.2 3.9-.2h.1l.5.1 1.3-.2.7-.2h1.1l1.5-.5 2.9-.3 2.6-.9h.1l.5.1h.7l1.3-.2.4-.1.5-.2v.7l1.6-.5 1.3-.7.9-.8 2.6-1.3 1.6-.8.8-.2h1.3l1.9.2.7-.3 1.2.1 2.6-.8.4-.1h.1l1.9-.6 2.1-.8 1.2-.2.8-.3 4-2 2.5-1.3 1-.8 1.4-.4 1.4-.7 1.6-1.7.8-1.1.1-.1.7-.4.4-.5v-.1l.1-.6.4-.1.5.2.7.3h.5l.4-.3.2.4.6-.2.5.1.1-.1.4-.3.3-.1.1-.1.5-.5 1.3-.1.7-.4h.9l.5-.3.6-.5.7-.3.3-.3.1-.7h.3l.4.1.3-.1.6-.6.5-1.1.3-.2 1.1-.1.7-.6.4-.1.9.1h.2l.7-.3 1.4-1.2.6-.3 1.4.4 1-.5 1.3-.1.4-.3.3-.5.1-.7.3-.1.5.2.6-.2.1-.1 1.6-1.1.9-.4h1l.3-.1.8-.3.1.2-.4.3.4.4z"/><path class="st2" d="M313.2 178.4c-57.8 0-104.6 46.8-104.6 104.6s46.8 104.6 104.6 104.6S417.7 340.7 417.7 283s-46.8-104.6-104.5-104.6zm73.8 49.1l-.2.2-.2.9-.3.4v1.5l-.3.5-.4.2h-.3l-1.5.3-.4.6-.8-.1-5.2 2.6-.1.1-1.3.9-.1.2-.3.7-.4.1-.5 1.4-.3.5-1.6 1.3-1.9.8-1.6 1.1-.9.9-1.7 1.8-6.8 3-.8.4-1.5.9-3 2.2-1.4 1.2-1.8 2.1-.3.6-.2.5-.5 1.7-.2.4-.5.3-1 .3-.6.1h-1.6l-1.4-.4-.8.1-.8.1-1 .6-.1.1-.5.5-.7.8-.7 1.3-.6.5-1 2-.1.4-.6 3 .1.7v.1l.7 2.1-.2.4-.4.1-.3.3.1.1h.7l.3.2.2.3 1.4 1.9.7.7.8.6.5 1.1.2.4.1.2.8 1 1.1 1.1.3.2.7.6 2.1 1.7 1.6 2.4.3.5.1.1.1.2.9 1.1-.6.6.6 1.1.7.1.1.1.1.2-.3.5h-.3l-.2-.3v-.1l-.3.1-.2.1h-.3l-1.9-1.1-.5-.1-.9-.6-.9.1h-.4l-.6-.2-.7.2-1.1-.4h-.4l-.5.5-.1.1-.2.1-1.8.1-1.5.6-.2.3-.4.6-.8.4-.6.5-.8.4-.5.1-.2-.1-.6-.3-.2-.2-1-1-.9-.7-.8-.3h-.2l-2.4-.4h-.9H324.2l-.8.1-.6.3-1.1.8-.7.8-.8 1.9-.2 1.5.1 1.5-.2.8v1.3l-1.3 1.9-.5.3-.5 1.6-.3.2-2-.3-1.7.1-.5.3-.4.5-.5.7-.6.3-.6.6-.9.1-.4.7-2.1.2-.8.2-.8.4-.9.7-1.4.7-.1.1-.4.2-1.3.4-1.4 1-.3.1h-.7l-1.1.6h-.5l-.8.4-.5-.1-1.2-.3-.4.1-.9.4-.1.1-.1.1-.3.8-.3.1-8.4-.6-1.2.2-2.8 1h-.1v.1l-1.1.5-1.1.7-1.3 1.2-1.3.8-.5.6v.2l-.2.7-.2.3-.1.8.1.6.1.9.3.7.3.5.8 1 .4.5.1.3-.1.3-.2.1h-.5l-1-.5-.4-.2h-.8l-.8-.3-.5.2-.7.4-.5-.1-.7-.1-.4.1-.3.2-.2.1-.1-.2v-.1l.1-.2.4-.3v-.5l-.3-.8-.4-.6-.5-1.6-.1-.2-.8-1.2-.8-.9.3-.4h-.7l-.6-.7-.5-.4-1.9-.4-.9.3-1-.3-1.5.7-.6-.2-2 .3-.6.3-.2.2-.8.5-.5.1-.5-.1h-.7l-.7.6h-.5l-.6-.2-.9-.3-1-.2-1.8-.7-.3-.1-.4-.1-.8-.2-1-.4-.5-.4-.3-.3-.6-.4-1.4-.9-.7-.2-1.6-.5h-.8l-.6-.4-.3-.2-.7.1h-.1l-.6.4-.4-.4-.3-.1-.4-.2-2-1.8-.4-.2-.7.1-.7-1-.5-.5h-.3l-.5.1-.5-.4.2-1.4-.1-.5-.4-.7v-1l-.6-1.6-.1-1.3-.3-.4-.4-.2-.3-.1-.4-.4h-.4l-.3-.2-.5.1-.4-.4-.6-1.4-1.1-.9-.6-.5-.1-.4.2-.2.5-.6.3-1-.3-.7-1.3-1.7.1-.5.5-.3-.2-.6.3-.8-.5-1.5-.2-.4-.3-.5-.1-.1-.5-1.1-1.5-2.1-.1-.9v-.1l.2-2.1.1-.4.1-.4.2-.3h.5l.6.4h.1l.3.2 1.9 1.9 1.3 1.1 1.2.8 1.1.4 1.2.2h.7l1.3-.3 1.6-.6 1.7-1.3.7-.6.8-.9.2-.3.8-1.1 1.2-2.8.5-.7.7-.6.7-.6.2-.5v-.8l.2-.2.4.1.3.2.5.3.3-.1H244.3l.2-.1.4-.2.5-.2.3-.1h.7l.3-.2.1-.1.5-.8h.4l.6.2.4-.2.9-.4h.9l.6.1 1.2.5h1.3l.3.1.4.1 1 .3.7.1.3.4 1.3.8 1.2.3 1.1.8.8.2.8.5h.7l1.1-.1.4-.2 1.3-.8 1.8-1.3.8-.5.3-.5 1.2-3.6.3-1.4.3-1.5.1-.4.3-2.9v-1.8l-.2-1.8-.2-.6-.6-.6-.2-.5v-1.4l-.1-.9-.3-.9.1-.3.6.1 1.6.8 2.4 1.5 1.8 1h.3l1-.1.4.1 1.2.6 1.2.3h1l.7-.2.9-.3.5-.4h.5l2.9.8.9.3 3.1-.4.6.5.9.1.4.3.4.1.7-.3h.3l.9.3h.4l.5-.3 1.1.3.5.1 2.1.3 1.4.5.9-.2 1.8.2 3.9-.2h.1l.5.1 1.3-.2.7-.2h1.1l1.5-.5 2.9-.3 2.6-.9h.1l.5.1h.7l1.3-.2.4-.1.5-.2v.7l1.6-.5 1.3-.7.9-.8 2.6-1.3 1.6-.8.8-.2h1.3l1.9.2.7-.3 1.2.1 2.6-.8.4-.1h.1l1.9-.6 2.1-.8 1.2-.2.8-.3 4-2 2.5-1.3 1-.8 1.4-.4 1.4-.7 1.6-1.7.8-1.1.1-.1.7-.4.4-.5v-.1l.1-.6.4-.1.5.2.7.3h.5l.4-.3.2.4.6-.2.5.1.1-.1.4-.3.3-.1.1-.1.5-.5 1.3-.1.7-.4h.9l.5-.3.6-.5.7-.3.3-.3.1-.7h.3l.4.1.3-.1.6-.6.5-1.1.3-.2 1.1-.1.7-.6.4-.1.9.1h.2l.7-.3 1.4-1.2.6-.3 1.4.4 1-.5 1.3-.1.4-.3.3-.5.1-.7.3-.1.5.2.6-.2.1-.1 1.6-1.1.9-.4h1l.3-.1.8-.3.1.2-.4.3.4.4z"/><path class="st3" d="M313.1 129.3c-84.9 0-153.7 68.8-153.7 153.7s68.8 153.7 153.7 153.7S466.8 367.9 466.8 283 398 129.3 313.1 129.3zm0 262.5c-60.1 0-108.8-48.7-108.8-108.8S253 174.2 313.1 174.2 421.9 222.9 421.9 283c.1 60.1-48.6 108.8-108.8 108.8z"/><path class="st4" d="M385 410.1c-.1 0-.3 0-.4-.1l-5.2-2.7c-1.2.3-2.4.5-3.6.5-6.2 0-11.2-4-11.2-8.8 0-4.9 5-8.8 11.2-8.8s11.2 4 11.2 8.8c0 2-.8 3.9-2.3 5.4l1.2 4.7c.1.3 0 .7-.3.9-.2 0-.4.1-.6.1zm-5.5-4.7c.1 0 .3 0 .4.1l3.7 2-.8-3.2c-.1-.3 0-.7.3-.9 1.4-1.3 2.2-2.8 2.2-4.5 0-3.9-4.2-7-9.4-7s-9.4 3.2-9.4 7c0 3.9 4.2 7 9.4 7 1.2 0 2.4-.2 3.6-.5-.2 0-.1 0 0 0z"/><path class="st4" d="M385 409.6h-.2l-5.3-2.8c-1.2.3-2.4.5-3.7.5-5.9 0-10.7-3.7-10.7-8.3 0-4.6 4.8-8.3 10.7-8.3 5.9 0 10.7 3.7 10.7 8.3 0 1.9-.9 3.8-2.4 5.3l1.3 4.9c0 .2 0 .3-.1.4h-.3zm-5.5-3.7h.2l4.7 2.5-1.1-4.3c0-.1 0-.3.1-.4 1.5-1.4 2.3-3.1 2.3-4.8 0-4.2-4.5-7.5-9.9-7.5-5.5 0-9.9 3.4-9.9 7.5 0 4.2 4.5 7.5 9.9 7.5 1.2 0 2.5-.2 3.7-.5-.1 0-.1 0 0 0z"/><path class="st4" d="M359.5 413.5c-.2 0-.4-.1-.6-.2-.3-.2-.4-.6-.3-.9l1-3.8c-1.3-1.3-2-2.9-2-4.5 0-2.5 1.7-4.9 4.5-6.3.1-.1.3-.1.4-.1.3 0 .7.2.8.5.2.4 0 1-.4 1.2-2.2 1.1-3.5 2.8-3.5 4.6 0 1.3.6 2.5 1.8 3.6.3.2.4.6.3.9l-.6 2.3 3-1.5c.1-.1.3-.1.4-.1h.2c1 .3 2 .4 3 .4 1.8 0 3.5-.4 4.9-1.2.1-.1.3-.1.4-.1.3 0 .6.2.8.5.2.4.1 1-.4 1.2-1.7.9-3.7 1.4-5.8 1.4-1.1 0-2.1-.1-3.1-.4l-4.5 2.3c0 .1-.2.2-.3.2z"/><path class="st4" d="M359.5 413c-.1 0-.2 0-.3-.1-.1-.1-.2-.3-.1-.4l1.1-4c-1.3-1.2-2.1-2.8-2.1-4.4 0-2.3 1.6-4.5 4.2-5.8.2-.1.4 0 .5.2s0 .4-.2.5c-2.3 1.2-3.7 3.1-3.7 5.1 0 1.4.7 2.8 2 3.9.1.1.2.3.1.4l-.9 3.4 4-2c.1 0 .2-.1.3 0 1 .3 2.1.4 3.1.4 1.9 0 3.7-.4 5.2-1.2.2-.1.4 0 .5.2s0 .4-.2.5c-1.6.9-3.5 1.3-5.6 1.3-1.1 0-2.2-.1-3.2-.4l-4.6 2.3s0 .1-.1.1zM452.8 221c-.3 0-.6-.2-.7-.5-8.2-18.1-19.6-34.2-34.1-47.9-.3-.3-.3-.8 0-1.1s.8-.3 1.1 0c14.6 13.8 26.2 30.1 34.4 48.4.2.4 0 .9-.4 1-.1.1-.2.1-.3.1zM451.2 350.6c-.1 0-.2 0-.3-.1-.4-.2-.5-.7-.4-1 8.5-17.6 13.4-36.5 14.7-56.1 0-.4.4-.8.8-.7.4 0 .8.4.7.8-1.3 19.8-6.3 38.9-14.9 56.7 0 .2-.3.4-.6.4zM410.2 402.7c-.2 0-.4-.1-.6-.3-.3-.3-.2-.8.1-1.1 15.4-12.6 27.9-27.8 37.4-45.2.2-.4.7-.5 1.1-.3s.5.7.3 1.1c-9.6 17.6-22.3 32.9-37.8 45.6-.2.1-.4.2-.5.2zM413 167.9c-.2 0-.4-.1-.5-.2-14.7-12.7-31.5-22.3-49.8-28.6-.4-.1-.6-.6-.5-1s.6-.6 1-.5c18.5 6.4 35.4 16.1 50.3 28.9.3.3.4.8.1 1.1-.2.2-.4.3-.6.3zM354.5 136.5h-.2c-13.4-3.7-27.2-5.6-41.3-5.6-12.8 0-25.4 1.6-37.7 4.7-.4.1-.8-.1-.9-.6-.1-.4.1-.8.6-.9 12.4-3.1 25.2-4.7 38.1-4.7 14.1 0 28.2 1.9 41.7 5.7.4.1.7.5.5 1-.1.2-.4.4-.8.4zM351 432.6c-.3 0-.7-.2-.8-.6-.1-.4.1-.8.6-.9 19.6-5 37.7-13.7 53.9-25.8.3-.3.8-.2 1.1.2.3.3.2.8-.2 1.1-16.4 12.3-34.7 21.1-54.4 26.1-.1-.1-.2-.1-.2-.1zM466.3 286c-.4 0-.8-.4-.8-.8v-1.8c0-19.3-3.5-38.1-10.5-55.8-.2-.4 0-.9.4-1 .4-.2.9 0 1 .4 7.1 18 10.7 36.9 10.7 56.4v1.9c0 .3-.4.7-.8.7zM313.1 437.4c-14.1 0-28.2-1.9-41.7-5.7-.4-.1-.7-.5-.5-1 .1-.4.5-.7 1-.5 13.4 3.7 27.2 5.6 41.3 5.6 10.2 0 20.5-1 30.4-3 .4-.1.8.2.9.6s-.2.8-.6.9c-10.2 2-20.5 3.1-30.8 3.1z"/><path class="st4" d="M369.5 505.4l-136.8-.1c-.4 0-.8-.3-.8-.8 0-.4.3-.8.8-.8l135.8.1-18.3-71.8c-.1-.4.1-.8.6-.9.4-.1.8.1.9.6l18.6 72.8c.1.2 0 .5-.1.7-.2.1-.4.2-.7.2zM671.8 490.1H518.9c-.2 0-.3-.1-.5-.2l-108.8-87.4c-.3-.3-.4-.8-.1-1.1.3-.3.8-.4 1.1-.1l108.6 87.2h152.6c.4 0 .8.3.8.8s-.3.8-.8.8zM723.4 386.9h-73.7L451 350.6c-.4-.1-.7-.5-.6-.9s.5-.7.9-.6l198.5 36.3h73.5c.4 0 .8.3.8.8.1.3-.3.7-.7.7zM565.3 287l-99-1c-.4 0-.8-.4-.8-.8s.4-.8.8-.8l99 1c.4 0 .8.4.8.8s-.4.8-.8.8zM452.8 221c-.3 0-.6-.2-.7-.5-.2-.4 0-.9.4-1l191-84.5c.1 0 .2-.1.3-.1h104.5c.4 0 .8.3.8.8 0 .4-.3.8-.8.8H643.9l-190.8 84.4c-.1.1-.2.1-.3.1zM413 167.9c-.2 0-.4-.1-.5-.2-.3-.3-.4-.8-.1-1.1l38.2-44.4c.1-.2.4-.3.6-.3h106.1c.4 0 .8.3.8.8s-.3.8-.8.8H451.6l-38 44.2c-.2.1-.4.2-.6.2zM354.5 136.5h-.2c-.4-.1-.7-.5-.5-1l19.6-69.8c.1-.3.4-.6.7-.6h79.4c.4 0 .8.3.8.8 0 .4-.3.8-.8.8h-78.8L355.3 136c-.1.3-.4.5-.8.5zM383.4 57l-1.1 2.7h-2.1l5.3-11.9h2.1l5.2 11.9h-2.1l-1.1-2.7h-6.2zm3-7.1l-2.2 5.3h4.5l-2.3-5.3zM396.1 52.4c.6-1.2 1.7-1.9 3.1-1.9v1.9c-1.8-.1-3 1-3.1 2.5v4.7h-2v-9h2v1.8zM408.8 55.9H402c.3 1.4 1.4 2.3 2.8 2.3 1 0 1.9-.4 2.5-1.1l1 1.1c-.9 1-2.2 1.5-3.7 1.5-2.8 0-4.6-1.9-4.6-4.6 0-2.7 1.9-4.6 4.6-4.6 3.2 0 4.5 2.1 4.2 5.4zm-1.7-1.5c-.1-1.5-1-2.3-2.5-2.3-1.4 0-2.4.9-2.7 2.3h5.2zM416.3 58.5c-.6.8-1.7 1.2-3 1.2-2 0-3.2-1.2-3.2-2.8s1.2-2.7 3.4-2.7h2.7v-.3c0-1.1-.7-1.8-2.2-1.8-.9 0-1.8.3-2.7.9l-.8-1.4c1.3-.7 2.2-1.1 3.9-1.1 2.3 0 3.6 1.2 3.7 3.2v5.9h-1.9v-1.1h.1zm0-2v-.8h-2.4c-1.3 0-1.9.3-1.9 1.2 0 .8.7 1.3 1.8 1.3 1.3 0 2.4-.7 2.5-1.7zM463.7 101.8c3 0 4.7 1.5 4.7 4.1 0 2.7-1.7 4.3-4.7 4.3H461v3.6h-2v-11.9l4.7-.1zm-2.7 6.5h2.7c1.8 0 2.9-.8 2.9-2.4s-1-2.3-2.9-2.3H461v4.7zM478.9 109.1c0 2.7-1.9 4.6-4.7 4.6-2.8 0-4.7-1.9-4.7-4.6s1.9-4.6 4.7-4.6c2.7 0 4.7 1.9 4.7 4.6zm-7.5 0c0 1.8 1.1 2.9 2.8 2.9 1.6 0 2.8-1.2 2.8-2.9s-1.1-2.9-2.8-2.9-2.8 1.2-2.8 2.9zM490.4 109.2c0 2.7-1.7 4.6-4.3 4.6-1.4 0-2.5-.6-3.2-1.6v4.9h-2v-12.3h2v1.6c.7-1.1 1.8-1.6 3.2-1.6 2.6-.3 4.3 1.6 4.3 4.4zm-2-.1c0-1.7-1.1-2.9-2.8-2.9-1.6 0-2.8 1.2-2.8 2.9 0 1.8 1.1 3 2.8 3s2.8-1.3 2.8-3zM500.7 113.7h-2v-1.8c-.6 1.3-1.8 1.8-3.2 1.8-2.1 0-3.3-1.3-3.3-3.5v-5.6h2v5.1c0 1.4.8 2.2 2.1 2.2 1.6 0 2.5-1.2 2.5-2.8v-4.5h2v9.1h-.1zM503.6 113.7V101h2v12.6l-2 .1zM514 112.5c-.6.8-1.7 1.2-3 1.2-2 0-3.2-1.2-3.2-2.8 0-1.6 1.2-2.7 3.4-2.7h2.7v-.3c0-1.1-.7-1.8-2.2-1.8-.9 0-1.8.3-2.7.9l-.8-1.4c1.3-.7 2.2-1.1 3.9-1.1 2.3 0 3.6 1.2 3.7 3.2v5.9H514v-1.1zm0-2v-.8h-2.4c-1.3 0-1.9.3-1.9 1.2 0 .8.7 1.3 1.8 1.3 1.3 0 2.4-.7 2.5-1.7zM523.7 113.1c-.7.4-1.5.7-2.2.7-1.4 0-2.5-.8-2.5-2.6v-4.7h-1.3V105h1.3v-2.5h1.9v2.5h2.7v1.5h-2.7v4.3c0 .9.4 1.2 1 1.2.4 0 .8-.1 1.4-.4l.4 1.5zM527.6 102c0 .7-.5 1.2-1.1 1.2s-1.1-.5-1.1-1.2.5-1.2 1.1-1.2 1.1.5 1.1 1.2zm-2.1 11.7v-9h1.9v9h-1.9zM538.9 109.1c0 2.7-1.9 4.6-4.7 4.6s-4.7-1.9-4.7-4.6 1.9-4.6 4.7-4.6c2.7 0 4.7 1.9 4.7 4.6zm-7.5 0c0 1.8 1.1 2.9 2.8 2.9 1.6 0 2.8-1.2 2.8-2.9s-1.1-2.9-2.8-2.9-2.8 1.2-2.8 2.9zM549.6 108v5.6h-2v-5.1c0-1.4-.8-2.2-2.2-2.2-1.5 0-2.4 1.1-2.6 2.5v4.8h-2v-9h2v1.7c.6-1.3 1.8-1.8 3.3-1.8 2.2 0 3.5 1.4 3.5 3.5zM673.1 365.3l-1.2 1.5c-.9-.9-2.1-1.5-3.3-1.5-2.4 0-4.2 1.8-4.2 4.2s1.9 4.2 4.2 4.2c1.2 0 2.4-.5 3.3-1.4l1.2 1.3c-1.2 1.2-2.9 2-4.6 2-3.5 0-6.2-2.6-6.2-6.1 0-3.4 2.7-6 6.3-6 1.7-.1 3.3.6 4.5 1.8zM680.5 374.3c-.6.8-1.7 1.2-3 1.2-2 0-3.2-1.2-3.2-2.8 0-1.6 1.2-2.7 3.4-2.7h2.7v-.3c0-1.1-.7-1.8-2.2-1.8-.9 0-1.8.3-2.7.9l-.8-1.4c1.3-.7 2.2-1.1 3.9-1.1 2.3 0 3.6 1.2 3.7 3.2v5.9h-1.9l.1-1.1zm-.1-2.1v-.8H678c-1.3 0-1.9.3-1.9 1.2 0 .8.7 1.3 1.8 1.3 1.4 0 2.4-.7 2.5-1.7zM694.5 370.9c0 2.7-1.7 4.6-4.3 4.6-1.4 0-2.5-.6-3.2-1.6v4.9h-2v-12.3h2v1.6c.7-1.1 1.8-1.6 3.2-1.6 2.6-.2 4.3 1.6 4.3 4.4zm-1.9-.1c0-1.7-1.1-2.9-2.8-2.9-1.6 0-2.8 1.2-2.8 2.9 0 1.8 1.1 3 2.8 3 1.6 0 2.8-1.3 2.8-3zM698.7 363.7c0 .7-.5 1.2-1.1 1.2s-1.1-.5-1.1-1.2.5-1.2 1.1-1.2 1.1.5 1.1 1.2zm-2.1 11.7v-9h1.9v9h-1.9zM706.5 374.8c-.7.4-1.5.7-2.2.7-1.4 0-2.5-.8-2.5-2.6v-4.7h-1.3v-1.5h1.3v-2.5h1.9v2.5h2.7v1.5h-2.7v4.3c0 .9.4 1.2 1 1.2.4 0 .8-.1 1.4-.4l.4 1.5zM713.7 374.3c-.6.8-1.7 1.2-3 1.2-2 0-3.2-1.2-3.2-2.8 0-1.6 1.2-2.7 3.4-2.7h2.7v-.3c0-1.1-.7-1.8-2.2-1.8-.9 0-1.8.3-2.7.9l-.8-1.4c1.3-.7 2.2-1.1 3.9-1.1 2.3 0 3.6 1.2 3.7 3.2v5.9h-1.9l.1-1.1zm0-2.1v-.8h-2.4c-1.3 0-1.9.3-1.9 1.2 0 .8.7 1.3 1.8 1.3 1.3 0 2.4-.7 2.5-1.7zM718.4 375.4v-12.6h2v12.6h-2zM493.4 265.1l-1.2 1.5c-.9-.9-2.1-1.5-3.3-1.5-2.4 0-4.2 1.8-4.2 4.2s1.9 4.2 4.2 4.2c1.2 0 2.4-.5 3.3-1.4l1.2 1.3c-1.2 1.2-2.9 2-4.6 2-3.5 0-6.2-2.6-6.2-6.1 0-3.4 2.7-6 6.3-6 1.7 0 3.4.7 4.5 1.8zM503.6 275.2h-2v-1.8c-.6 1.3-1.8 1.8-3.2 1.8-2.1 0-3.3-1.3-3.3-3.5v-5.6h2v5.1c0 1.4.8 2.2 2.1 2.2 1.6 0 2.5-1.2 2.5-2.8v-4.5h2v9.1h-.1zM508.4 268c.6-1.2 1.7-1.9 3.1-1.9v1.9c-1.8-.1-3 1-3.1 2.5v4.7h-2v-9h2v1.8zM515.1 268c.6-1.2 1.7-1.9 3.1-1.9v1.9c-1.8-.1-3 1-3.1 2.5v4.7h-2v-9h2v1.8zM527.8 271.4H521c.3 1.4 1.4 2.3 2.8 2.3 1 0 1.9-.4 2.5-1.1l1 1.1c-.9 1-2.2 1.5-3.7 1.5-2.8 0-4.6-1.9-4.6-4.6s1.9-4.6 4.6-4.6c3.2.1 4.5 2.2 4.2 5.4zm-1.7-1.4c-.1-1.5-1-2.3-2.5-2.3-1.4 0-2.4.9-2.7 2.3h5.2zM538.5 269.6v5.6h-2v-5.1c0-1.4-.8-2.2-2.2-2.2-1.5 0-2.4 1.1-2.6 2.5v4.8h-2v-9h2v1.7c.6-1.3 1.8-1.8 3.3-1.8 2.3 0 3.5 1.3 3.5 3.5zM548.6 267.6l-1.1 1.3c-.6-.6-1.5-1-2.6-1-1.6 0-2.7 1.2-2.7 2.9s1.1 2.9 2.7 2.9c1.1 0 2.1-.4 2.7-1.1l1.1 1.1c-.8 1.1-2.1 1.7-3.8 1.7-2.7 0-4.6-1.9-4.6-4.6s1.9-4.6 4.6-4.6c1.6-.1 2.9.4 3.7 1.4zM554.3 276.5c-.6 1.4-1.6 2.1-2.9 2.1-.8 0-1.5-.2-2.1-.8l.8-1.5c.4.3.8.4 1.2.4.6 0 1.1-.3 1.4-1l.3-.7-3.7-8.9h2l2.7 6.9 2.5-6.9h2l-4.2 10.4z"/><g><path class="st4" d="M451.6 266.8c-2.1 2-5 3.3-8 3.3-5 0-9.1-3-10.6-7.3h-3.5v-1.6h3.1c-.1-.7-.2-1.4-.2-2.1s.1-1.3.2-2h-3.1v-1.6h3.5c1.5-4.3 5.7-7.3 10.7-7.3 3 0 5.9 1.2 7.9 3.2l-1.4 1.9c-1.7-1.7-4-2.7-6.4-2.7-3.6 0-6.7 2-8.1 5h8.4v1.6h-8.9c-.2.6-.2 1.3-.2 2s.1 1.4.2 2.1h8.9v1.6h-8.3c1.4 2.9 4.5 4.9 8 4.9 2.4 0 4.7-1 6.4-2.6l1.4 1.6z"/></g><g><path class="st4" d="M657.4 117.5v10.1h-2v-10.1h-3.8v-1.8h9.5v1.8h-3.7zM664.9 116c0 .7-.5 1.2-1.1 1.2s-1.1-.5-1.1-1.2.5-1.2 1.1-1.2 1.1.5 1.1 1.2zm-2.1 11.6v-9h1.9v9h-1.9zM682.7 122v5.6h-2v-5.1c0-1.4-.8-2.2-2.1-2.2-1.5.1-2.5 1.2-2.5 2.8v4.5h-2v-5.1c0-1.4-.8-2.2-2.1-2.2-1.6.1-2.5 1.2-2.5 2.8v4.5h-1.9v-9h1.9v1.8c.6-1.3 1.8-1.8 3.3-1.8 1.6 0 2.7.8 3.1 2.2.6-1.5 1.8-2.2 3.4-2.2 2.2-.1 3.4 1.2 3.4 3.4zM693.3 123.8h-6.8c.3 1.4 1.4 2.3 2.8 2.3 1 0 1.9-.4 2.5-1.1l1 1.1c-.9 1-2.2 1.5-3.7 1.5-2.8 0-4.6-1.9-4.6-4.6s1.9-4.6 4.6-4.6c3.2.1 4.4 2.2 4.2 5.4zm-1.7-1.4c-.1-1.5-1-2.3-2.5-2.3-1.4 0-2.4.9-2.7 2.3h5.2zM701.6 125.8h7.3v1.8h-10v-1.4l7.3-8.7h-7v-1.8h9.7v1.4l-7.3 8.7zM719.6 123.1c0 2.7-1.9 4.6-4.7 4.6s-4.7-1.9-4.7-4.6 1.9-4.6 4.7-4.6c2.8 0 4.7 1.8 4.7 4.6zm-7.4 0c0 1.8 1.1 2.9 2.8 2.9 1.6 0 2.8-1.2 2.8-2.9s-1.1-2.9-2.8-2.9-2.8 1.2-2.8 2.9zM730.3 122v5.6h-2v-5.1c0-1.4-.8-2.2-2.2-2.2-1.5 0-2.4 1.1-2.6 2.5v4.8h-2v-9h2v1.7c.6-1.3 1.8-1.8 3.3-1.8 2.3 0 3.5 1.3 3.5 3.5zM740.9 123.8h-6.8c.3 1.4 1.4 2.3 2.8 2.3 1 0 1.9-.4 2.5-1.1l1 1.1c-.9 1-2.2 1.5-3.7 1.5-2.8 0-4.6-1.9-4.6-4.6s1.9-4.6 4.6-4.6c3.1.1 4.4 2.2 4.2 5.4zm-1.7-1.4c-.1-1.5-1-2.3-2.5-2.3-1.4 0-2.4.9-2.7 2.3h5.2z"/></g><g><path class="st4" d="M533.8 469.1c3 0 4.7 1.5 4.7 4.1 0 2.7-1.7 4.3-4.7 4.3h-2.7v3.6h-2v-11.9h4.7v-.1zm-2.7 6.5h2.7c1.8 0 2.9-.8 2.9-2.4s-1-2.3-2.9-2.3h-2.7v4.7zM549 476.5c0 2.7-1.9 4.6-4.7 4.6s-4.7-1.9-4.7-4.6 1.9-4.6 4.7-4.6 4.7 1.8 4.7 4.6zm-7.5 0c0 1.8 1.1 2.9 2.8 2.9 1.6 0 2.8-1.2 2.8-2.9s-1.1-2.9-2.8-2.9c-1.6 0-2.8 1.2-2.8 2.9zM551.1 481v-12.6h2V481h-2zM558.2 469.4c0 .7-.5 1.2-1.1 1.2s-1.1-.5-1.1-1.2.5-1.2 1.1-1.2c.6 0 1.1.5 1.1 1.2zm-2.1 11.6v-9h1.9v9h-1.9zM566 480.4c-.7.4-1.5.7-2.2.7-1.4 0-2.5-.8-2.5-2.6v-4.7H560v-1.5h1.3v-2.5h1.9v2.5h2.7v1.5h-2.7v4.3c0 .9.4 1.2 1 1.2.4 0 .8-.1 1.4-.4l.4 1.5zM569.9 469.4c0 .7-.5 1.2-1.1 1.2s-1.1-.5-1.1-1.2.5-1.2 1.1-1.2c.6 0 1.1.5 1.1 1.2zm-2.1 11.6v-9h1.9v9h-1.9zM580.1 473.4l-1.1 1.3c-.6-.6-1.5-1-2.6-1-1.6 0-2.7 1.2-2.7 2.9s1.1 2.9 2.7 2.9c1.1 0 2.1-.4 2.7-1.1l1.1 1.1c-.8 1.1-2.1 1.7-3.8 1.7-2.7 0-4.6-1.9-4.6-4.6s1.9-4.6 4.6-4.6c1.6-.1 2.9.4 3.7 1.4zM587.3 479.9c-.6.8-1.7 1.2-3 1.2-2 0-3.2-1.2-3.2-2.8 0-1.6 1.2-2.7 3.4-2.7h2.7v-.3c0-1.1-.7-1.8-2.2-1.8-.9 0-1.8.3-2.7.9l-.8-1.4c1.3-.7 2.2-1.1 3.9-1.1 2.3 0 3.6 1.2 3.7 3.2v5.9h-1.9l.1-1.1zm0-2.1v-.8h-2.4c-1.3 0-1.9.3-1.9 1.2 0 .8.7 1.3 1.8 1.3 1.3 0 2.4-.7 2.5-1.7zM591.9 481v-12.6h2V481h-2zM609.4 470.2l-.8 1.8c-1.3-.8-2.6-1.1-3.5-1.1-1.2 0-1.9.4-1.9 1.2 0 2.6 6.4 1.2 6.4 5.5 0 2.1-1.9 3.4-4.5 3.4-1.9 0-3.6-.8-4.9-1.9l.9-1.7c1.2 1.1 2.8 1.7 4 1.7 1.4 0 2.2-.5 2.2-1.4 0-2.7-6.4-1.2-6.4-5.4 0-2 1.8-3.3 4.3-3.3 1.6 0 3.1.5 4.2 1.2zM615.3 482.2c-.6 1.4-1.6 2.1-2.9 2.1-.8 0-1.5-.2-2.1-.8l.8-1.5c.4.3.8.4 1.2.4.6 0 1.1-.3 1.4-1l.3-.7-3.7-8.9h2l2.7 6.9 2.5-6.9h2l-4.2 10.4zM626.6 472.8l-.7 1.4c-.8-.5-1.8-.8-2.6-.8s-1.3.3-1.3.9c0 1.7 4.8.8 4.8 4 0 1.9-1.6 2.7-3.5 2.7-1.3 0-2.7-.4-3.6-1.3l.7-1.4c.8.7 2 1.1 3 1.1.8 0 1.5-.3 1.5-1 0-1.9-4.8-.8-4.7-4.1 0-1.8 1.6-2.6 3.3-2.6 1.1.2 2.3.5 3.1 1.1zM633.8 480.4c-.7.4-1.5.7-2.2.7-1.4 0-2.5-.8-2.5-2.6v-4.7h-1.3v-1.5h1.3v-2.5h1.9v2.5h2.7v1.5H631v4.3c0 .9.4 1.2 1 1.2.4 0 .8-.1 1.4-.4l.4 1.5zM643.5 477.2h-6.8c.3 1.4 1.4 2.3 2.8 2.3 1 0 1.9-.4 2.5-1.1l1 1.1c-.9 1-2.2 1.5-3.7 1.5-2.8 0-4.6-1.9-4.6-4.6s1.9-4.6 4.6-4.6c3.1.1 4.4 2.2 4.2 5.4zm-1.7-1.4c-.1-1.5-1-2.3-2.5-2.3-1.4 0-2.4.9-2.7 2.3h5.2zM660.7 475.4v5.6h-2v-5.1c0-1.4-.8-2.2-2.1-2.2-1.5.1-2.5 1.2-2.5 2.8v4.5h-2v-5.1c0-1.4-.8-2.2-2.1-2.2-1.6.1-2.5 1.2-2.5 2.8v4.5h-1.9v-9h1.9v1.8c.6-1.3 1.8-1.8 3.3-1.8 1.6 0 2.7.8 3.1 2.2.6-1.5 1.8-2.2 3.4-2.2 2.1-.1 3.4 1.2 3.4 3.4z"/></g><g><path class="st4" d="M255.3 492.8v1.8h-7.2v-11.9h2v10.1h5.2zM262.5 493.5c-.6.8-1.7 1.2-3 1.2-2 0-3.2-1.2-3.2-2.8 0-1.6 1.2-2.7 3.4-2.7h2.7v-.3c0-1.1-.7-1.8-2.2-1.8-.9 0-1.8.3-2.7.9l-.8-1.4c1.3-.7 2.2-1.1 3.9-1.1 2.3 0 3.6 1.2 3.7 3.2v5.9h-1.9v-1.1h.1zm0-2.1v-.8H260c-1.3 0-1.9.3-1.9 1.2 0 .8.7 1.3 1.8 1.3 1.4.1 2.5-.7 2.6-1.7zM275.7 489v5.6h-2v-5.1c0-1.4-.8-2.2-2.2-2.2-1.5 0-2.4 1.1-2.6 2.5v4.8h-2v-9h2v1.7c.6-1.3 1.8-1.8 3.3-1.8 2.2 0 3.5 1.3 3.5 3.5zM286.5 493.7c0 2.6-1.9 4.2-4.7 4.2-1.4 0-2.7-.4-3.8-1.2l.8-1.4c.9.6 1.7 1 2.8 1 1.7 0 2.8-1 2.8-2.6v-1.1c-.6 1-1.6 1.5-3 1.5-2.4 0-4.1-1.8-4.1-4.4 0-2.5 1.6-4.3 4-4.3 1.4 0 2.4.5 3.1 1.5v-1.5h1.9v8.3h.2zm-2-3.8c0-1.6-1.1-2.8-2.6-2.8s-2.6 1.2-2.6 2.8c0 1.6 1.1 2.8 2.6 2.8 1.5-.1 2.6-1.2 2.6-2.8zM297.4 494.6h-2v-1.8c-.6 1.3-1.8 1.8-3.2 1.8-2.1 0-3.3-1.3-3.3-3.5v-5.6h2v5.1c0 1.4.8 2.2 2.1 2.2 1.6 0 2.5-1.2 2.5-2.8v-4.5h2v9.1h-.1zM305.7 493.5c-.6.8-1.7 1.2-3 1.2-2 0-3.2-1.2-3.2-2.8 0-1.6 1.2-2.7 3.4-2.7h2.7v-.3c0-1.1-.7-1.8-2.2-1.8-.9 0-1.8.3-2.7.9l-.8-1.4c1.3-.7 2.2-1.1 3.9-1.1 2.3 0 3.6 1.2 3.7 3.2v5.9h-1.9v-1.1h.1zm0-2.1v-.8h-2.4c-1.3 0-1.9.3-1.9 1.2 0 .8.7 1.3 1.8 1.3 1.3.1 2.4-.7 2.5-1.7zM318.4 493.7c0 2.6-1.9 4.2-4.7 4.2-1.4 0-2.7-.4-3.8-1.2l.8-1.4c.8.6 1.7 1 2.8 1 1.7 0 2.8-1 2.8-2.6v-1.1c-.6 1-1.6 1.5-3 1.5-2.4 0-4.1-1.8-4.1-4.4 0-2.5 1.6-4.3 4-4.3 1.4 0 2.4.5 3.1 1.5v-1.5h1.9v8.3h.2zm-1.9-3.8c0-1.6-1.1-2.8-2.6-2.8s-2.6 1.2-2.6 2.8c0 1.6 1.1 2.8 2.6 2.8 1.5-.1 2.6-1.2 2.6-2.8zM329.1 490.8h-6.8c.3 1.4 1.4 2.3 2.8 2.3 1 0 1.9-.4 2.5-1.1l1 1.1c-.9 1-2.2 1.5-3.7 1.5-2.8 0-4.6-1.9-4.6-4.6s1.9-4.6 4.6-4.6c3.1.1 4.4 2.2 4.2 5.4zm-1.7-1.4c-.1-1.5-1-2.3-2.5-2.3-1.4 0-2.4.9-2.7 2.3h5.2zM337 486.4l-.7 1.4c-.8-.5-1.8-.8-2.6-.8s-1.3.3-1.3.9c0 1.7 4.8.8 4.8 4 0 1.9-1.6 2.7-3.5 2.7-1.3 0-2.7-.4-3.6-1.3l.7-1.4c.8.7 2 1.1 3 1.1.8 0 1.5-.3 1.5-1 0-1.9-4.8-.8-4.7-4.1 0-1.8 1.6-2.6 3.3-2.6 1.1.2 2.3.5 3.1 1.1z"/></g><g><path class="st4" d="M79.1 377.6v3.2h5.8v1.8h-5.8v3.3h6.7v1.8h-8.7v-11.9h8.5v1.8h-6.5zM98.4 382.7c0 3.1-2 5-5.2 5s-5.2-1.9-5.2-5v-7h2v7c0 2 1.2 3.2 3.2 3.2 1.9 0 3.1-1.2 3.1-3.2v-7h2l.1 7zM116.4 387.7v-8.9l-3.8 7.6h-1.3l-3.8-7.6v8.9h-1.9v-11.9h2.4l3.9 7.9 3.9-7.9h2.4v11.9h-1.8zM129.2 383.9h-6.8c.3 1.4 1.4 2.3 2.8 2.3 1 0 1.9-.4 2.5-1.1l1 1.1c-.9 1-2.2 1.5-3.7 1.5-2.8 0-4.6-1.9-4.6-4.6s1.9-4.6 4.6-4.6c3.1 0 4.4 2.1 4.2 5.4zm-1.7-1.4c-.1-1.5-1-2.3-2.5-2.3-1.4 0-2.4.9-2.7 2.3h5.2zM146.4 382v5.6h-2v-5.1c0-1.4-.8-2.2-2.1-2.2-1.5.1-2.5 1.2-2.5 2.8v4.5h-2v-5.1c0-1.4-.8-2.2-2.1-2.2-1.6.1-2.5 1.2-2.5 2.8v4.5h-1.9v-9h1.9v1.8c.6-1.3 1.8-1.8 3.3-1.8 1.6 0 2.7.8 3.1 2.2.6-1.5 1.8-2.2 3.4-2.2 2.1-.1 3.4 1.3 3.4 3.4zM158.5 383.2c0 2.7-1.7 4.6-4.3 4.6-1.4 0-2.5-.6-3.2-1.6v1.6h-2V375h2v5.1c.7-1.1 1.8-1.6 3.2-1.6 2.5 0 4.3 1.9 4.3 4.7zm-2-.1c0-1.7-1.1-2.9-2.8-2.9-1.6 0-2.8 1.2-2.8 2.9 0 1.8 1.1 3 2.8 3s2.8-1.3 2.8-3zM168.5 383.9h-6.8c.3 1.4 1.4 2.3 2.8 2.3 1 0 1.9-.4 2.5-1.1l1 1.1c-.9 1-2.2 1.5-3.7 1.5-2.8 0-4.6-1.9-4.6-4.6s1.9-4.6 4.6-4.6c3.1 0 4.4 2.1 4.2 5.4zm-1.7-1.4c-.1-1.5-1-2.3-2.5-2.3-1.4 0-2.4.9-2.7 2.3h5.2zM172.5 380.4c.6-1.2 1.7-1.9 3.1-1.9v1.9c-1.8-.1-3 1-3.1 2.5v4.7h-2v-9h2v1.8z"/></g><g><path class="st4" d="M319.3 322.2v1.8h-7.2v-11.9h2v10.1h5.2zM329.7 319.5c0 2.7-1.9 4.6-4.7 4.6-2.8 0-4.7-1.9-4.7-4.6s1.9-4.6 4.7-4.6c2.8 0 4.7 1.8 4.7 4.6zm-7.5 0c0 1.8 1.1 2.9 2.8 2.9 1.6 0 2.8-1.2 2.8-2.9s-1.1-2.9-2.8-2.9c-1.6 0-2.8 1.2-2.8 2.9zM339.2 316.4l-1.1 1.3c-.6-.6-1.5-1-2.6-1-1.6 0-2.7 1.2-2.7 2.9s1.1 2.9 2.7 2.9c1.1 0 2.1-.4 2.7-1.1l1.1 1.1c-.8 1.1-2.1 1.7-3.8 1.7-2.7 0-4.6-1.9-4.6-4.6s1.9-4.6 4.6-4.6c1.6-.1 2.9.4 3.7 1.4zM346.4 322.9c-.6.8-1.7 1.2-3 1.2-2 0-3.2-1.2-3.2-2.8 0-1.6 1.2-2.7 3.4-2.7h2.7v-.3c0-1.1-.7-1.8-2.2-1.8-.9 0-1.8.3-2.7.9l-.8-1.4c1.3-.7 2.2-1.1 3.9-1.1 2.3 0 3.6 1.2 3.7 3.2v5.9h-1.9v-1.1h.1zm0-2.1v-.8H344c-1.3 0-1.9.3-1.9 1.2 0 .8.7 1.3 1.8 1.3 1.3 0 2.4-.7 2.5-1.7zM356.1 323.4c-.7.4-1.5.7-2.2.7-1.4 0-2.5-.8-2.5-2.6v-4.7H350v-1.5h1.3v-2.5h1.9v2.5h2.7v1.5h-2.7v4.3c0 .9.4 1.2 1 1.2.4 0 .8-.1 1.4-.4l.5 1.5zM360 312.4c0 .7-.5 1.2-1.1 1.2s-1.1-.5-1.1-1.2.5-1.2 1.1-1.2c.6 0 1.1.5 1.1 1.2zm-2.1 11.6v-9h1.9v9h-1.9zM371.3 319.5c0 2.7-1.9 4.6-4.7 4.6-2.8 0-4.7-1.9-4.7-4.6s1.9-4.6 4.7-4.6c2.7 0 4.7 1.8 4.7 4.6zm-7.5 0c0 1.8 1.1 2.9 2.8 2.9 1.6 0 2.8-1.2 2.8-2.9s-1.1-2.9-2.8-2.9-2.8 1.2-2.8 2.9zM382 318.4v5.6h-2v-5.1c0-1.4-.8-2.2-2.2-2.2-1.5 0-2.4 1.1-2.6 2.5v4.8h-2v-9h2v1.7c.6-1.3 1.8-1.8 3.3-1.8 2.2 0 3.5 1.3 3.5 3.5z"/></g><g><path class="st4" d="M323.9 148.6h-1v12h1c.3 0 .6.1.9.4s.4.5.4.9v3.6c0 .3-.1.6-.4.9s-.5.4-.9.4h-3.6c-.3 0-.6-.1-.9-.4s-.4-.5-.4-.9v-1h-12v1c0 .3-.1.6-.4.9s-.5.4-.9.4h-3.6c-.3 0-.6-.1-.9-.4s-.4-.5-.4-.9v-3.6c0-.3.1-.6.4-.9s.5-.4.9-.4h1v-12h-1c-.3 0-.6-.1-.9-.4s-.4-.5-.4-.9v-3.6c0-.3.1-.6.4-.9s.5-.4.9-.4h3.6c.3 0 .6.1.9.4s.4.5.4.9v1h12v-1c0-.3.1-.6.4-.9s.5-.4.9-.4h3.6c.3 0 .6.1.9.4s.4.5.4.9v3.6c0 .3-.1.6-.4.9s-.6.4-.9.4zm-21.3-1.5h3v-3h-3v3zm3 18v-3h-3v3h3zm15.8-4.5v-12h-1c-.3 0-.6-.1-.9-.4s-.4-.5-.4-.9v-1h-12v1c0 .3-.1.6-.4.9s-.5.4-.9.4h-1v12h1c.3 0 .6.1.9.4s.4.5.4.9v1h12v-1c0-.3.1-.6.4-.9s.5-.4.9-.4h1zm-.8-16.5v3h3v-3h-3zm3 18h-3v3h3v-3z"/></g><g><path class="st4" d="M372.5 162.7c.7.3 1.2.7 1.7 1.3s.6 1.3.6 2v4.9c0 .6-.2 1.1-.5 1.5s-.8.7-1.3.9v4.4c0 .7-.2 1.3-.7 1.8s-1.1.7-1.8.7H368c-.7 0-1.3-.2-1.8-.7s-.7-1.1-.7-1.8v-4.4c-.5-.1-1-.4-1.3-.9s-.5-1-.5-1.5V166c0-.8.2-1.4.6-2s1-1 1.7-1.3c-.5-.7-.8-1.5-.8-2.4 0-1.1.4-2.1 1.2-2.9s1.8-1.2 2.9-1.2 2.1.4 2.9 1.2 1.2 1.8 1.2 2.9c-.1.9-.4 1.7-.9 2.4zm.8 8.2V166c0-.5-.2-1-.6-1.4s-.9-.6-1.4-.6h-.4c-.6.3-1.1.4-1.7.4s-1.2-.1-1.7-.4h-.5c-.5 0-1 .2-1.4.6s-.6.9-.6 1.4v4.9c0 .3.1.5.3.7s.4.3.7.3h.9v5.8c0 .3.1.5.3.7s.4.3.7.3h2.5c.3 0 .5-.1.7-.3s.3-.4.3-.7v-5.8h.9c.3 0 .5-.1.7-.3s.3-.4.3-.7zm-4.2-13.3c-.7 0-1.3.3-1.9.8s-.8 1.1-.8 1.9.3 1.3.8 1.9 1.1.8 1.9.8 1.3-.3 1.9-.8.8-1.1.8-1.9-.3-1.3-.8-1.9-1.1-.8-1.9-.8zM387.1 172.1c.2.7 0 1.3-.4 1.9s-1 .9-1.8.9h-.6v2.8c0 .7-.2 1.3-.7 1.8s-1.1.7-1.8.7h-1.3c-.7 0-1.3-.2-1.8-.7s-.7-1.1-.7-1.8v-2.8h-.6c-.7 0-1.3-.3-1.8-.9s-.6-1.2-.4-1.9l1.9-7.7c.1-.5.4-1 .8-1.3l.2-.1c-.7-.8-1.1-1.7-1.1-2.8s.4-2.1 1.2-2.9 1.8-1.2 2.9-1.2 2.1.4 2.9 1.2 1.2 1.8 1.2 2.9c0 1.1-.4 2-1.1 2.8l.2.1c.4.3.7.7.8 1.3l2 7.7zm-2.2 1.3c.3 0 .4-.1.6-.3s.2-.4.2-.7l-1.9-7.7c-.1-.2-.2-.3-.3-.4s-.3-.2-.5-.2h-.6c-.9.3-1.8.3-2.6 0h-.6c-.2 0-.3.1-.5.2s-.2.2-.3.4l-1.9 7.7c0 .3 0 .5.2.7s.3.3.6.3h2.1v4.3c0 .3.1.5.3.7s.4.3.7.3h1.3c.3 0 .5-.1.7-.3s.3-.4.3-.7v-4.3h2.2zm-3.8-15.8c-.7 0-1.3.3-1.9.8s-.8 1.1-.8 1.9.3 1.3.8 1.9 1.1.8 1.9.8 1.3-.3 1.9-.8.8-1.1.8-1.9-.3-1.3-.8-1.9-1.1-.8-1.9-.8z"/></g><g><path class="st4" d="M417.4 194.2c2.1 0 4 .5 5.8 1.6s3.2 2.5 4.2 4.2 1.6 3.7 1.6 5.8-.5 4-1.6 5.8-2.5 3.2-4.2 4.2-3.7 1.6-5.8 1.6-4-.5-5.8-1.6-3.2-2.5-4.2-4.2-1.6-3.7-1.6-5.8.5-4 1.6-5.8 2.5-3.2 4.2-4.2 3.7-1.6 5.8-1.6zm10.2 11.6c0-1.8-.5-3.5-1.4-5.1s-2.1-2.8-3.7-3.7-3.3-1.4-5.1-1.4-3.5.5-5.1 1.4-2.8 2.1-3.7 3.7-1.4 3.3-1.4 5.1.5 3.5 1.4 5.1 2.1 2.8 3.7 3.7 3.3 1.4 5.1 1.4 3.5-.5 5.1-1.4 2.8-2.1 3.7-3.7 1.4-3.2 1.4-5.1zm-7 4.2c.1.1.3.1.4.1s.3-.1.4-.2l.4-.6c.1-.1.1-.3.1-.4s-.1-.3-.2-.4l-3.3-2.4v-6.8c0-.2-.1-.3-.2-.4s-.2-.2-.4-.2h-.7c-.2 0-.3.1-.4.2s-.2.2-.2.4v7.5c0 .2.1.3.2.4l3.9 2.8z"/></g><g><path class="st4" d="M452.4 310.5c.2 0 .4.1.5.2s.2.3.2.5V323c0 .3-.1.6-.3.8s-.4.4-.7.6l-7.1 2.5c-.6.2-1.3.2-1.9 0L435 324l-8 3h-.3c-.2 0-.4-.1-.5-.2s-.2-.3-.2-.5v-11.7c0-.3.1-.6.3-.8s.4-.4.7-.6l7-2.4c-.3-.8-.5-1.4-.5-1.9 0-1 .3-2 .8-2.9s1.3-1.6 2.2-2.1 1.9-.8 3-.8 2.1.3 3 .8 1.6 1.2 2.2 2.1.8 1.9.8 2.9-.7 2.6-2 4.5l.5.2 8-3c.2-.1.3-.1.4-.1zm-18 12.2v-10.5l-6.8 2.3v10.6l6.8-2.4zm5.2-18.2c-1.3 0-2.3.4-3.2 1.2s-1.3 1.8-1.3 3c0 .6.4 1.6 1.2 3s1.9 2.8 3.3 4.4c1.4-1.6 2.5-3.1 3.3-4.4s1.2-2.3 1.2-3c0-1.2-.4-2.2-1.3-3s-1.9-1.2-3.2-1.2zm3.8 20.8v-10.5l-.6-.2c-.8 1-1.6 2.1-2.6 3.1-.2.2-.3.3-.6.3s-.4-.1-.6-.3c-1.2-1.4-2.3-2.7-3.2-4v9l7.6 2.6zm1.5 0l6.8-2.3v-10.6l-6.8 2.5v10.4z"/></g><g><path class="st4" d="M425.6 359.5c.3.1.4.3.4.5v.4c0 .2-.1.3-.2.4s-.2.2-.4.2h-.9v.6c0 .2-.1.3-.2.4s-.2.2-.4.2H404c-.2 0-.3-.1-.4-.2s-.2-.2-.2-.4v-.6h-.9c-.2 0-.3-.1-.4-.2s-.2-.2-.2-.4v-.4c0-.3.1-.4.4-.5l10.9-4.8c.5-.2.9-.2 1.4 0l11 4.8zm-.3 14.6c.2 0 .4.1.5.2s.2.3.2.5v.4c0 .1 0 .2-.1.3s-.2.1-.3.1h-23.3c-.1 0-.2 0-.3-.1s-.1-.2-.1-.3v-.4c0-.2.1-.4.2-.5s.3-.2.5-.2h.8v-1.9c0-.3.1-.6.3-.8s.5-.3.8-.3h1.9v-8.3h1.5v8.3h3v-8.3h1.5v8.3h3v-8.3h1.5v8.3h3v-8.3h1.5v8.3h1.9c.3 0 .6.1.8.3s.3.5.3.8v1.9h.9zm-2.3-13.5v-.6l-8.8-3.8c-.1-.1-.3-.1-.4 0L405 360v.7h18v-.1zm-18 12v1.5h18v-1.5h-18z"/></g><g><path class="st4" d="M373.1 286.3c2.1 0 4 .5 5.8 1.6s3.2 2.5 4.2 4.2 1.6 3.7 1.6 5.8-.5 4-1.6 5.8-2.5 3.2-4.2 4.2-3.7 1.6-5.8 1.6-4-.5-5.8-1.6-3.2-2.5-4.2-4.2-1.6-3.7-1.6-5.8.5-4 1.6-5.8 2.5-3.2 4.2-4.2 3.7-1.6 5.8-1.6zm10.1 11.7c0-1.8-.5-3.5-1.4-5.1s-2.1-2.8-3.7-3.7-3.3-1.4-5.1-1.4-3.5.5-5.1 1.4-2.8 2.1-3.7 3.7-1.4 3.3-1.4 5.1.5 3.5 1.4 5.1 2.1 2.8 3.7 3.7 3.3 1.4 5.1 1.4 3.5-.5 5.1-1.4 2.8-2.1 3.7-3.7 1.4-3.3 1.4-5.1zm-7.9-6.6c.2-.2.4-.3.7-.4h.3c.5 0 .9.2 1.2.6s.4.8.3 1.3l-1.5 6.5c-.1.3-.2.5-.4.7l-4.8 4.6c-.3.3-.7.4-1.2.4s-.8-.3-1.1-.6-.4-.8-.2-1.2l1.5-6.5c.1-.3.2-.5.4-.7l4.8-4.7zm1 1l-4.8 4.6-1.5 6.5 4.8-4.6 1.5-6.5zm-2.1 5.6c0-.3-.1-.6-.3-.8s-.5-.3-.8-.3-.6.1-.8.3-.3.5-.3.8.1.6.3.8.5.3.8.3.6-.1.8-.3.3-.5.3-.8z"/></g><g id="Objects_1_"><path class="st6" d="M309.6 403.9l-1.5 1.1.6-1.7-1.5-1.1h1.8l.6-1.7.6 1.7h1.8l-1.5 1.1.6 1.7z"/><path class="st6" d="M309.6 401.5l.3 1h1.1l-.9.7.4 1-.9-.7-.8.7.3-1-.9-.7h1.1zM302.8 404.9l-1.5-1.1h1.8l.6-1.7.5 1.7h1.9l-1.5 1.1.6 1.7-1.5-1.1-1.5 1.1z"/><path class="st6" d="M303.7 403.1l.3 1h1.1l-.9.6.3 1-.8-.6-.9.6.3-1-.8-.6h1zM299.5 409.8l-1.5 1.1.5-1.8-1.4-1.1h1.8l.6-1.7.5 1.7 1.9.1-1.5 1 .5 1.8z"/><path class="st6" d="M298.1 408.4h1l.4-1 .3 1h1l-.8.6.3 1-.8-.6-.9.6.3-1zM297.9 415.7l-1.5 1.1.6-1.7-1.5-1.1h1.8l.6-1.8.5 1.8h1.9l-1.5 1.1.5 1.7z"/><path class="st6" d="M296.5 414.3h1l.4-1 .3 1h1.1l-.9.6.3 1-.8-.6-.9.6.3-1zM299.4 421.5l-1.5 1.1.6-1.8-1.5-1h1.8l.6-1.8.6 1.8h1.8l-1.5 1.1.6 1.7z"/><path class="st6" d="M298.5 421.7l.4-1-.9-.6h1.1l.3-1 .3 1h1.1l-.9.6.4 1-.9-.6zM302.8 425.2l-1.4-1.1h1.8l.6-1.7.5 1.7h1.8l-1.4 1.1.5 1.7-1.4-1-1.5 1z"/><path class="st6" d="M302.9 426.1l.3-1-.8-.7h1l.4-1 .3 1h1l-.8.7.3 1-.8-.6zM308.8 426.8l-1.5-1.1h1.8l.6-1.7.6 1.7h1.8l-1.5 1.1.6 1.7-1.5-1.1-1.5 1.1z"/><path class="st6" d="M308.8 427.7l.4-1-.9-.7h1.1l.3-1 .3 1h1.1l-.9.7.4 1-.9-.7zM315.5 425.9l-1.5 1 .6-1.7-1.5-1.1h1.8l.6-1.7.5 1.7h1.9l-1.5 1.1.6 1.7z"/><path class="st6" d="M316.3 426.1l-.8-.6-.9.6.3-1-.8-.7h1l.4-1 .3 1h1.1l-.9.7zM319.8 421.5l-1.5 1.1.6-1.8-1.5-1h1.9l.5-1.8.6 1.8h1.8l-1.5 1.1.6 1.7z"/><path class="st6" d="M320.7 421.7l-.9-.6-.8.6.3-1-.9-.6h1.1l.3-1 .4 1h1l-.8.6zM320.5 415.1L319 414h1.8l.5-1.8.6 1.8h1.9l-1.5 1.1.6 1.7-1.5-1.1-1.5 1.1z"/><path class="st6" d="M322.7 414.3l-.8.6.3 1-.8-.6-.9.6.3-1-.8-.6h1l.4-1 .3 1zM318.9 409.1l-1.5-1 1.8-.1.6-1.7.5 1.7h1.9l-1.5 1.1.6 1.8-1.5-1.1-1.5 1.1z"/><path class="st6" d="M321.2 408.4l-.9.6.3 1-.8-.6-.9.6.3-1-.8-.6h1l.4-1 .3 1zM315.6 405.5l-1.5 1.1.5-1.7-1.4-1.1h1.8l.6-1.7.5 1.7h1.9l-1.5 1.1.5 1.7z"/><path class="st6" d="M315.6 403.1l.3 1h1l-.8.6.3 1-.8-.6-.9.6.3-1-.8-.6h1z"/></g><g><path class="st7" d="M379.3 86.5l.8-1.5c.7.5 1.7.7 2.6.7 2.3 0 3.4-1.7 3.3-4.3-.6 1.1-1.8 1.7-3.2 1.7-2.4 0-3.8-1.5-3.8-3.8 0-2.5 1.6-4 4.2-4 3 0 4.8 2.1 4.8 5.8 0 3.8-2 6.3-5.1 6.3-1.2 0-2.6-.4-3.6-.9zm6.4-7.2c0-1-.7-2.2-2.5-2.2-1.4 0-2.4.8-2.4 2.3 0 1.4.9 2.2 2.3 2.2 1.7-.1 2.6-1.1 2.6-2.3zM391.6 86.3c0 .7-.5 1.1-1.1 1.1s-1.1-.5-1.1-1.1.5-1.1 1.1-1.1c.7 0 1.1.5 1.1 1.1zM401.1 78.3c0 1.2-.9 2.5-2.2 3.9l-3.1 3.3h5.8v1.8h-8.5v-1.5l4.4-4.7c.9-.9 1.4-1.9 1.4-2.5 0-1-.7-1.5-2-1.5-1 0-2.2.6-3.2 1.5L393 77c1.3-1.1 2.8-1.7 4.3-1.7 2.3 0 3.8 1.2 3.8 3zM405.6 77.2v2.6h1.6c2.6 0 4.3 1.5 4.3 3.6 0 2.4-1.7 4-4.4 4-1.4 0-3.1-.5-4.2-1.4l.8-1.6c1 .8 2.1 1.3 3.2 1.3 1.5 0 2.5-.8 2.5-2.1 0-1.2-.9-2-2.5-2-.7 0-2.3.1-3.1.2v-6.3h7.2v1.8l-5.4-.1zM414.8 87.3V77.2h-2.3v-1.8h4.3v11.9h-2zM426.7 84.8v2.5h-2V74.7h2v7.6l4-4h2.2l-3.3 3.5 3.6 5.5h-2.3l-2.7-4.1-1.5 1.6zM449.9 81.7v5.6h-2v-5.1c0-1.4-.8-2.2-2.1-2.2-1.5.1-2.5 1.2-2.5 2.8v4.5h-2v-5.1c0-1.4-.8-2.2-2.1-2.2-1.6.1-2.5 1.2-2.5 2.8v4.5h-1.9v-9h1.9V80c.6-1.3 1.8-1.8 3.3-1.8 1.6 0 2.7.8 3.1 2.2.6-1.5 1.8-2.2 3.4-2.2 2.1 0 3.4 1.3 3.4 3.5zM456.1 76.4c0 .7-.5 1.5-1.3 2.3l-1.8 1.9h3.4v1.1h-4.9v-.9L454 78c.5-.5.8-1.1.8-1.5 0-.6-.4-.9-1.2-.9-.6 0-1.3.3-1.9.9l-.5-.9c.8-.6 1.6-1 2.5-1 1.5.1 2.4.7 2.4 1.8z"/></g><g><path class="st7" d="M472.5 136c0 1.2-.7 2.1-1.8 2.5 1.4.5 2.4 1.6 2.4 3 0 2.1-1.8 3.4-4.6 3.4s-4.6-1.3-4.6-3.4c0-1.5.9-2.6 2.4-3.1-1.2-.5-1.9-1.5-1.9-2.6 0-1.9 1.5-3 4-3 2.6.1 4.1 1.3 4.1 3.2zm-6.6 5.4c0 1.3 1 2 2.7 2s2.7-.7 2.7-2c0-1.2-1-2-2.7-2s-2.7.7-2.7 2zm.4-5.3c0 1.1.8 1.7 2.3 1.7 1.4 0 2.3-.6 2.3-1.7s-.8-1.8-2.3-1.8c-1.5.1-2.3.7-2.3 1.8zM480.1 140.2v-2.8h1.9v2.8h1.7v1.8H482v2.9h-1.9V142h-5.7v-1.5l4.1-7.5h1.9l-3.9 7.2h3.6zM488.6 144.9h-2.1l4.6-10.1h-4.6v1.7h-1.8V133h8.7v1.5l-4.8 10.4zM496.6 143.9c0 .3-.1.6-.3.9l-1 1.5h-1l.6-1.5c-.3-.2-.5-.5-.5-.9 0-.6.4-1.1 1.1-1.1.6 0 1.1.4 1.1 1.1zM508.3 138.9c0 3.9-1.8 6-5 6-3.3 0-5.1-2.1-5.1-6s1.8-6 5.1-6c3.2 0 5 2.2 5 6zm-8 0c0 3 1 4.4 3 4.4s3-1.4 3-4.4-1-4.4-3-4.4-3 1.4-3 4.4zM520.1 138.9c0 3.9-1.8 6-5 6-3.3 0-5.1-2.1-5.1-6s1.8-6 5.1-6c3.2 0 5 2.2 5 6zm-8.1 0c0 3 1 4.4 3 4.4s3-1.4 3-4.4-1-4.4-3-4.4-3 1.4-3 4.4zM531.8 138.9c0 3.9-1.8 6-5 6-3.3 0-5.1-2.1-5.1-6s1.8-6 5.1-6c3.2 0 5 2.2 5 6zm-8.1 0c0 3 1 4.4 3 4.4s3-1.4 3-4.4-1-4.4-3-4.4-3 1.4-3 4.4z"/></g><g><path class="st7" d="M673 151v4.4c-1.2.9-3 1.5-4.6 1.5-3.5 0-6.3-2.6-6.3-6s2.8-6 6.4-6c1.7 0 3.4.6 4.6 1.7l-1.1 1.5c-.9-.9-2.2-1.4-3.4-1.4-2.4 0-4.3 1.9-4.3 4.2 0 2.4 1.9 4.2 4.4 4.2.9 0 1.9-.3 2.7-.8V151h1.6zM686.5 156.9V148l-3.8 7.6h-1.3l-3.8-7.6v8.9h-1.9V145h2.4l3.9 7.9 3.9-7.9h2.4v11.9h-1.8zM695.9 146.8v10.1h-2v-10.1h-3.8V145h9.5v1.8h-3.7zM704.7 152v3h-1.3v-3h-3v-1.3h3v-3h1.3v3h3v1.3h-3zM717 147.9c0 1.2-.9 2.5-2.2 3.9l-3.1 3.3h5.8v1.8H709v-1.5l4.4-4.7c.9-.9 1.4-1.9 1.4-2.5 0-1-.7-1.5-2-1.5-1 0-2.2.6-3.2 1.5l-.8-1.5c1.3-1.1 2.8-1.7 4.3-1.7 2.3-.1 3.9 1.1 3.9 2.9z"/></g><g><path class="st7" d="M484.1 301v3.2h5.8v1.8h-5.8v3.3h6.7v1.8h-8.7v-11.9h8.5v1.8h-6.5zM503.3 306.2c0 3.1-2 5-5.2 5s-5.2-1.9-5.2-5v-7h2v7c0 2 1.2 3.2 3.2 3.2 1.9 0 3.1-1.2 3.1-3.2v-7h2v7h.1zM511.6 307.5h-3.3v3.6h-2v-11.9h4.8c3 0 4.8 1.5 4.8 4.1 0 1.9-.9 3.2-2.5 3.9l2.7 4h-2.3l-2.2-3.7zm-.6-1.8c1.8 0 2.9-.8 2.9-2.4s-1.1-2.3-2.9-2.3h-2.8v4.7h2.8zM530.1 305.2c0 3.4-2.8 6-6.3 6-3.6 0-6.3-2.6-6.3-6s2.8-6 6.3-6c3.6 0 6.3 2.6 6.3 6zm-10.6 0c0 2.4 2 4.2 4.3 4.2s4.2-1.9 4.2-4.2c0-2.4-1.9-4.2-4.2-4.2s-4.3 1.8-4.3 4.2z"/></g><g><path class="st7" d="M678.2 410.4l-6.3-8.5v8.5h-2v-11.9h2l6.4 8.6v-8.6h2v11.9h-2.1zM685.4 398.8c0 .7-.5 1.2-1.1 1.2s-1.1-.5-1.1-1.2.5-1.2 1.1-1.2c.6 0 1.1.5 1.1 1.2zm-2.2 11.6v-9h1.9v9h-1.9zM695.5 402.8l-1.1 1.3c-.6-.6-1.5-1-2.6-1-1.6 0-2.7 1.2-2.7 2.9s1.1 2.9 2.7 2.9c1.1 0 2.1-.4 2.7-1.1l1.1 1.1c-.8 1.1-2.1 1.7-3.8 1.7-2.7 0-4.6-1.9-4.6-4.6s1.9-4.6 4.6-4.6c1.6-.1 2.9.4 3.7 1.4zM705.9 405.9c0 2.7-1.9 4.6-4.7 4.6s-4.7-1.9-4.7-4.6 1.9-4.6 4.7-4.6 4.7 1.8 4.7 4.6zm-7.5 0c0 1.8 1.1 2.9 2.8 2.9 1.6 0 2.8-1.2 2.8-2.9s-1.1-2.9-2.8-2.9-2.8 1.2-2.8 2.9zM713.8 402.2l-.7 1.4c-.8-.5-1.8-.8-2.6-.8s-1.3.3-1.3.9c0 1.7 4.8.8 4.8 4 0 1.9-1.6 2.7-3.5 2.7-1.3 0-2.7-.4-3.6-1.3l.7-1.4c.8.7 2 1.1 3 1.1.8 0 1.5-.3 1.5-1 0-1.9-4.8-.8-4.7-4.1 0-1.8 1.6-2.6 3.3-2.6 1.1.2 2.3.5 3.1 1.1zM718 398.8c0 .7-.5 1.2-1.1 1.2s-1.1-.5-1.1-1.2.5-1.2 1.1-1.2c.6 0 1.1.5 1.1 1.2zm-2.1 11.6v-9h1.9v9h-1.9zM726.2 409.3c-.6.8-1.7 1.2-3 1.2-2 0-3.2-1.2-3.2-2.8 0-1.6 1.2-2.7 3.4-2.7h2.7v-.3c0-1.1-.7-1.8-2.2-1.8-.9 0-1.8.3-2.7.9l-.8-1.4c1.3-.7 2.2-1.1 3.9-1.1 2.3 0 3.6 1.2 3.7 3.2v5.9h-1.9l.1-1.1zm0-2.1v-.8h-2.4c-1.3 0-1.9.3-1.9 1.2 0 .8.7 1.3 1.8 1.3 1.3 0 2.4-.7 2.5-1.7z"/></g><g><path class="st7" d="M536.6 498.5c3 0 4.7 1.5 4.7 4.1 0 2.7-1.7 4.3-4.7 4.3h-2.7v3.6h-2v-11.9h4.7v-.1zm-2.7 6.5h2.7c1.8 0 2.9-.8 2.9-2.4s-1-2.3-2.9-2.3h-2.7v4.7zM545.2 503.1c.6-1.2 1.7-1.9 3.1-1.9v1.9c-1.8-.1-3 1-3.1 2.5v4.7h-2v-9h2v1.8zM557.9 506.6H551c.3 1.4 1.4 2.3 2.8 2.3 1 0 1.9-.4 2.5-1.1l1 1.1c-.9 1-2.2 1.5-3.7 1.5-2.8 0-4.6-1.9-4.6-4.6s1.9-4.6 4.6-4.6c3.2.1 4.5 2.2 4.3 5.4zm-1.7-1.4c-.1-1.5-1-2.3-2.5-2.3-1.4 0-2.4.9-2.7 2.3h5.2zM565.8 502.2l-.7 1.4c-.8-.5-1.8-.8-2.6-.8s-1.3.3-1.3.9c0 1.7 4.8.8 4.8 4 0 1.9-1.6 2.7-3.5 2.7-1.3 0-2.7-.4-3.6-1.3l.7-1.4c.8.7 2 1.1 3 1.1.8 0 1.5-.3 1.5-1 0-1.9-4.8-.8-4.7-4.1 0-1.8 1.6-2.6 3.3-2.6 1.1.2 2.3.5 3.1 1.1zM570 498.8c0 .7-.5 1.2-1.1 1.2s-1.1-.5-1.1-1.2.5-1.2 1.1-1.2c.6 0 1.1.5 1.1 1.2zm-2.1 11.6v-9h1.9v9h-1.9zM581.4 510.4h-2v-1.5c-.6 1.1-1.7 1.6-3.2 1.6-2.6 0-4.3-1.9-4.3-4.6s1.8-4.6 4.3-4.6c1.5 0 2.5.6 3.2 1.6v-5.1h2v12.6zm-2-4.5c0-1.8-1.1-3-2.8-3s-2.8 1.2-2.8 3c0 1.7 1.1 2.9 2.8 2.9 1.7 0 2.8-1.2 2.8-2.9zM592.3 506.6h-6.8c.3 1.4 1.4 2.3 2.8 2.3 1 0 1.9-.4 2.5-1.1l1 1.1c-.9 1-2.2 1.5-3.7 1.5-2.8 0-4.6-1.9-4.6-4.6s1.9-4.6 4.6-4.6c3.1.1 4.4 2.2 4.2 5.4zm-1.7-1.4c-.1-1.5-1-2.3-2.5-2.3-1.4 0-2.4.9-2.7 2.3h5.2zM603 504.8v5.6h-2v-5.1c0-1.4-.8-2.2-2.2-2.2-1.5 0-2.4 1.1-2.6 2.5v4.8h-2v-9h2v1.7c.6-1.3 1.8-1.8 3.3-1.8 2.2 0 3.5 1.3 3.5 3.5zM610.7 509.8c-.7.4-1.5.7-2.2.7-1.4 0-2.5-.8-2.5-2.6v-4.7h-1.3v-1.5h1.3v-2.5h1.9v2.5h2.7v1.5h-2.7v4.3c0 .9.4 1.2 1 1.2.4 0 .8-.1 1.4-.4l.4 1.5zM614.6 498.8c0 .7-.5 1.2-1.1 1.2s-1.1-.5-1.1-1.2.5-1.2 1.1-1.2c.6 0 1.1.5 1.1 1.2zm-2.1 11.6v-9h1.9v9h-1.9zM622.8 509.3c-.6.8-1.7 1.2-3 1.2-2 0-3.2-1.2-3.2-2.8 0-1.6 1.2-2.7 3.4-2.7h2.7v-.3c0-1.1-.7-1.8-2.2-1.8-.9 0-1.8.3-2.7.9l-.8-1.4c1.3-.7 2.2-1.1 3.9-1.1 2.3 0 3.6 1.2 3.7 3.2v5.9h-1.9l.1-1.1zm-.1-2.1v-.8h-2.4c-1.3 0-1.9.3-1.9 1.2 0 .8.7 1.3 1.8 1.3 1.4 0 2.4-.7 2.5-1.7zM627.4 510.4v-12.6h2v12.6h-2zM536.8 518.9c3.6 0 6.2 2.5 6.2 5.9s-2.6 5.9-6.2 5.9H532v-11.9l4.8.1zm-2.9 10.1h2.9c2.3 0 4.1-1.7 4.1-4.1 0-2.4-1.8-4.2-4.2-4.2h-2.8v8.3zM552.9 527h-6.8c.3 1.4 1.4 2.3 2.8 2.3 1 0 1.9-.4 2.5-1.1l1 1.1c-.9 1-2.2 1.5-3.7 1.5-2.8 0-4.6-1.9-4.6-4.6 0-2.7 1.9-4.6 4.6-4.6 3.2.1 4.5 2.2 4.2 5.4zm-1.7-1.4c-.1-1.5-1-2.3-2.5-2.3-1.4 0-2.4.9-2.7 2.3h5.2zM570.1 525.2v5.6h-2v-5.1c0-1.4-.8-2.2-2.1-2.2-1.5.1-2.5 1.2-2.5 2.8v4.5h-2v-5.1c0-1.4-.8-2.2-2.1-2.2-1.6.1-2.5 1.2-2.5 2.8v4.5H555v-9h1.9v1.8c.6-1.3 1.8-1.8 3.3-1.8 1.6 0 2.7.8 3.1 2.2.6-1.5 1.8-2.2 3.4-2.2 2.1-.1 3.4 1.2 3.4 3.4zM581.3 526.3c0 2.7-1.9 4.6-4.7 4.6s-4.7-1.9-4.7-4.6c0-2.7 1.9-4.6 4.7-4.6 2.7 0 4.7 1.8 4.7 4.6zm-7.5 0c0 1.8 1.1 2.9 2.8 2.9 1.6 0 2.8-1.2 2.8-2.9s-1.1-2.9-2.8-2.9c-1.7 0-2.8 1.2-2.8 2.9zM590.8 523.2l-1.1 1.3c-.6-.6-1.5-1-2.6-1-1.6 0-2.7 1.2-2.7 2.9s1.1 2.9 2.7 2.9c1.1 0 2.1-.4 2.7-1.1l1.1 1.1c-.8 1.1-2.1 1.7-3.8 1.7-2.7 0-4.6-1.9-4.6-4.6 0-2.7 1.9-4.6 4.6-4.6 1.5-.1 2.8.4 3.7 1.4zM594.9 523.5c.6-1.2 1.7-1.9 3.1-1.9v1.9c-1.8-.1-3 1-3.1 2.5v4.7h-2v-9h2v1.8zM604.7 529.7c-.6.8-1.7 1.2-3 1.2-2 0-3.2-1.2-3.2-2.8s1.2-2.7 3.4-2.7h2.7v-.3c0-1.1-.7-1.8-2.2-1.8-.9 0-1.8.3-2.7.9l-.8-1.4c1.3-.7 2.2-1.1 3.9-1.1 2.3 0 3.6 1.2 3.7 3.2v5.9h-1.9l.1-1.1zm-.1-2.1v-.8h-2.4c-1.3 0-1.9.3-1.9 1.2 0 .8.7 1.3 1.8 1.3 1.4 0 2.4-.7 2.5-1.7zM614.3 530.2c-.7.4-1.5.7-2.2.7-1.4 0-2.5-.8-2.5-2.6v-4.7h-1.3v-1.5h1.3v-2.5h1.9v2.5h2.7v1.5h-2.7v4.3c0 .9.4 1.2 1 1.2.4 0 .8-.1 1.4-.4l.4 1.5zM618.2 519.2c0 .7-.5 1.2-1.1 1.2s-1.1-.5-1.1-1.2.5-1.2 1.1-1.2 1.1.5 1.1 1.2zm-2.1 11.6v-9h1.9v9h-1.9zM628.4 523.2l-1.1 1.3c-.6-.6-1.5-1-2.6-1-1.6 0-2.7 1.2-2.7 2.9s1.1 2.9 2.7 2.9c1.1 0 2.1-.4 2.7-1.1l1.1 1.1c-.8 1.1-2.1 1.7-3.8 1.7-2.7 0-4.6-1.9-4.6-4.6 0-2.7 1.9-4.6 4.6-4.6 1.6-.1 2.9.4 3.7 1.4zM640.4 527.2H637v3.6h-2v-11.9h4.8c3 0 4.8 1.5 4.8 4.1 0 1.9-.9 3.2-2.5 3.9l2.7 4h-2.3l-2.1-3.7zm-.5-1.8c1.8 0 2.9-.8 2.9-2.4 0-1.6-1.1-2.3-2.9-2.3H637v4.7h2.9zM655.2 527h-6.8c.3 1.4 1.4 2.3 2.8 2.3 1 0 1.9-.4 2.5-1.1l1 1.1c-.9 1-2.2 1.5-3.7 1.5-2.8 0-4.6-1.9-4.6-4.6 0-2.7 1.9-4.6 4.6-4.6 3.1.1 4.4 2.2 4.2 5.4zm-1.7-1.4c-.1-1.5-1-2.3-2.5-2.3-1.4 0-2.4.9-2.7 2.3h5.2zM666.7 526.3c0 2.7-1.7 4.6-4.3 4.6-1.4 0-2.5-.6-3.2-1.6v4.9h-2v-12.3h2v1.6c.7-1.1 1.8-1.6 3.2-1.6 2.6-.2 4.3 1.6 4.3 4.4zm-1.9-.1c0-1.7-1.1-2.9-2.8-2.9s-2.8 1.2-2.8 2.9c0 1.8 1.1 3 2.8 3s2.8-1.2 2.8-3zM677 530.8h-2V529c-.6 1.3-1.8 1.8-3.2 1.8-2.1 0-3.3-1.3-3.3-3.5v-5.6h2v5.1c0 1.4.8 2.2 2.1 2.2 1.6 0 2.5-1.2 2.5-2.8v-4.5h2l-.1 9.1zM689.4 526.3c0 2.7-1.7 4.6-4.3 4.6-1.4 0-2.5-.6-3.2-1.6v1.6h-2v-12.6h2v5.1c.7-1.1 1.8-1.6 3.2-1.6 2.5-.1 4.3 1.7 4.3 4.5zm-2-.1c0-1.7-1.1-2.9-2.8-2.9s-2.8 1.2-2.8 2.9c0 1.8 1.1 3 2.8 3s2.8-1.2 2.8-3zM691.5 530.8v-12.6h2v12.6h-2zM698.6 519.2c0 .7-.5 1.2-1.1 1.2s-1.1-.5-1.1-1.2.5-1.2 1.1-1.2 1.1.5 1.1 1.2zm-2.2 11.6v-9h1.9v9h-1.9zM708.7 523.2l-1.1 1.3c-.6-.6-1.5-1-2.6-1-1.6 0-2.7 1.2-2.7 2.9s1.1 2.9 2.7 2.9c1.1 0 2.1-.4 2.7-1.1l1.1 1.1c-.8 1.1-2.1 1.7-3.8 1.7-2.7 0-4.6-1.9-4.6-4.6 0-2.7 1.9-4.6 4.6-4.6 1.6-.1 2.9.4 3.7 1.4z"/></g><g><path class="st7" d="M255 520.5v4.4c-1.2.9-3 1.5-4.6 1.5-3.5 0-6.3-2.6-6.3-6s2.8-6 6.4-6c1.7 0 3.4.6 4.6 1.7l-1.1 1.5c-.9-.8-2.2-1.4-3.4-1.4-2.4 0-4.3 1.9-4.3 4.2 0 2.4 1.9 4.2 4.4 4.2.9 0 1.9-.3 2.7-.8v-3.3h1.6zM259.7 519.1c.6-1.2 1.7-1.9 3.1-1.9v1.9c-1.8-.1-3 1-3.1 2.5v4.7h-2v-9h2v1.8zM272.4 522.6h-6.8c.3 1.4 1.4 2.3 2.8 2.3 1 0 1.9-.4 2.5-1.1l1 1.1c-.9 1-2.2 1.5-3.7 1.5-2.8 0-4.6-1.9-4.6-4.6 0-2.7 1.9-4.6 4.6-4.6 3.1.1 4.4 2.2 4.2 5.4zm-1.7-1.4c-.1-1.5-1-2.3-2.5-2.3-1.4 0-2.4.9-2.7 2.3h5.2zM282.4 522.6h-6.8c.3 1.4 1.4 2.3 2.8 2.3 1 0 1.9-.4 2.5-1.1l1 1.1c-.9 1-2.2 1.5-3.7 1.5-2.8 0-4.6-1.9-4.6-4.6 0-2.7 1.9-4.6 4.6-4.6 3.1.1 4.4 2.2 4.2 5.4zm-1.7-1.4c-.1-1.5-1-2.3-2.5-2.3-1.4 0-2.4.9-2.7 2.3h5.2zM286.5 523.9v2.5h-2v-12.6h2v7.6l4-4h2.2l-3.3 3.5 3.6 5.5h-2.3l-2.7-4.1-1.5 1.6zM296 525.4c0 .3-.1.6-.3.9l-1 1.5h-1l.6-1.5c-.3-.2-.5-.5-.5-.9 0-.6.4-1.1 1.1-1.1.6 0 1.1.4 1.1 1.1zM304.7 516.3v3.2h5.8v1.8h-5.8v3.3h6.7v1.8h-8.7v-11.9h8.5v1.8h-6.5zM322.4 520.8v5.6h-2v-5.1c0-1.4-.8-2.2-2.2-2.2-1.5 0-2.4 1.1-2.6 2.5v4.8h-2v-9h2v1.7c.6-1.3 1.8-1.8 3.3-1.8 2.2 0 3.5 1.3 3.5 3.5zM333.1 525.5c0 2.6-1.9 4.2-4.7 4.2-1.4 0-2.7-.4-3.8-1.2l.8-1.4c.8.6 1.7 1 2.8 1 1.7 0 2.8-1 2.8-2.6v-1.1c-.6 1-1.6 1.5-3 1.5-2.4 0-4.1-1.8-4.1-4.4 0-2.5 1.6-4.3 4-4.3 1.4 0 2.4.5 3.1 1.5v-1.5h1.9v8.3h.2zm-1.9-3.9c0-1.6-1.1-2.8-2.6-2.8s-2.6 1.2-2.6 2.8 1.1 2.8 2.6 2.8 2.6-1.1 2.6-2.8zM335.9 526.4v-12.6h2v12.6h-2zM343 514.8c0 .7-.5 1.2-1.1 1.2s-1.1-.5-1.1-1.2.5-1.2 1.1-1.2 1.1.5 1.1 1.2zm-2.1 11.6v-9h1.9v9h-1.9zM351.6 518.2l-.7 1.4c-.8-.5-1.8-.8-2.6-.8s-1.3.3-1.3.9c0 1.7 4.8.8 4.8 4 0 1.9-1.6 2.7-3.5 2.7-1.3 0-2.7-.4-3.6-1.3l.7-1.4c.8.7 2 1.1 3 1.1.8 0 1.5-.3 1.5-1 0-1.9-4.8-.8-4.7-4.1 0-1.8 1.6-2.6 3.3-2.6 1 .2 2.2.5 3.1 1.1zM362.4 520.8v5.6h-2v-5.1c0-1.4-.8-2.2-2.2-2.2-1.6 0-2.6 1.2-2.6 2.8v4.5h-2v-12.6h2v5.3c.6-1.3 1.8-1.8 3.3-1.8 2.3 0 3.5 1.3 3.5 3.5zM247.1 535.2c0 .7-.5 1.2-1.1 1.2s-1.1-.5-1.1-1.2.5-1.2 1.1-1.2 1.1.5 1.1 1.2zm-2.1 11.6v-9h1.9v9H245zM255.7 538.6l-.7 1.4c-.8-.5-1.8-.8-2.6-.8s-1.3.3-1.3.9c0 1.7 4.8.8 4.8 4 0 1.9-1.6 2.7-3.5 2.7-1.3 0-2.7-.4-3.6-1.3l.7-1.4c.8.7 2 1.1 3 1.1.8 0 1.5-.3 1.5-1 0-1.9-4.8-.8-4.7-4.1 0-1.8 1.6-2.6 3.3-2.6 1.1.2 2.3.5 3.1 1.1zM270.7 546.8l-2.3-6.7-2.3 6.7h-2l-3.3-9h2l2.3 7.1 2.3-7.1h2l2.3 7.1 2.3-7.1h2l-3.3 9h-2zM279.5 535.2c0 .7-.5 1.2-1.1 1.2s-1.1-.5-1.1-1.2.5-1.2 1.1-1.2 1.1.5 1.1 1.2zm-2.1 11.6v-9h1.9v9h-1.9zM290.8 546.8h-2v-1.5c-.6 1.1-1.7 1.6-3.2 1.6-2.6 0-4.3-1.9-4.3-4.6 0-2.7 1.8-4.6 4.3-4.6 1.5 0 2.5.6 3.2 1.6v-5.1h2v12.6zm-1.9-4.5c0-1.8-1.1-3-2.8-3s-2.8 1.2-2.8 3c0 1.7 1.1 2.9 2.8 2.9 1.6 0 2.8-1.2 2.8-2.9zM301.8 543H295c.3 1.4 1.4 2.3 2.8 2.3 1 0 1.9-.4 2.5-1.1l1 1.1c-.9 1-2.2 1.5-3.7 1.5-2.8 0-4.6-1.9-4.6-4.6 0-2.7 1.9-4.6 4.6-4.6 3.1.1 4.4 2.2 4.2 5.4zm-1.8-1.4c-.1-1.5-1-2.3-2.5-2.3-1.4 0-2.4.9-2.7 2.3h5.2zM303.9 546.8v-12.6h2v12.6h-2zM312.4 548c-.6 1.4-1.6 2.1-2.9 2.1-.8 0-1.5-.2-2.1-.8l.8-1.5c.4.3.8.4 1.2.4.6 0 1.1-.3 1.4-1l.3-.7-3.7-8.9h2l2.7 6.9 2.5-6.9h2l-4.2 10.4zM330.4 536l-.8 1.8c-1.3-.8-2.6-1.1-3.5-1.1-1.2 0-1.9.4-1.9 1.2 0 2.6 6.4 1.2 6.4 5.5 0 2.1-1.9 3.4-4.5 3.4-1.9 0-3.6-.8-4.9-1.9l.9-1.7c1.2 1.1 2.8 1.7 4 1.7 1.4 0 2.2-.5 2.2-1.4 0-2.7-6.4-1.2-6.4-5.4 0-2 1.8-3.3 4.3-3.3 1.6 0 3.1.5 4.2 1.2zM342.3 542.3c0 2.7-1.7 4.6-4.3 4.6-1.4 0-2.5-.6-3.2-1.6v4.9h-2v-12.3h2v1.6c.7-1.1 1.8-1.6 3.2-1.6 2.6-.2 4.3 1.6 4.3 4.4zm-2-.1c0-1.7-1.1-2.9-2.8-2.9-1.6 0-2.8 1.2-2.8 2.9 0 1.8 1.1 3 2.8 3 1.7 0 2.8-1.2 2.8-3zM352.9 542.3c0 2.7-1.9 4.6-4.7 4.6-2.8 0-4.7-1.9-4.7-4.6 0-2.7 1.9-4.6 4.7-4.6s4.7 1.8 4.7 4.6zm-7.4 0c0 1.8 1.1 2.9 2.8 2.9 1.6 0 2.8-1.2 2.8-2.9s-1.1-2.9-2.8-2.9c-1.7 0-2.8 1.2-2.8 2.9zM357 544.3v2.5h-2v-12.6h2v7.6l4-4h2.2l-3.3 3.5 3.6 5.5h-2.3l-2.7-4.1-1.5 1.6zM372.6 543h-6.8c.3 1.4 1.4 2.3 2.8 2.3 1 0 1.9-.4 2.5-1.1l1 1.1c-.9 1-2.2 1.5-3.7 1.5-2.8 0-4.6-1.9-4.6-4.6 0-2.7 1.9-4.6 4.6-4.6 3.2.1 4.5 2.2 4.2 5.4zm-1.7-1.4c-.1-1.5-1-2.3-2.5-2.3-1.4 0-2.4.9-2.7 2.3h5.2zM383.3 541.2v5.6h-2v-5.1c0-1.4-.8-2.2-2.2-2.2-1.5 0-2.4 1.1-2.6 2.5v4.8h-2v-9h2v1.7c.6-1.3 1.8-1.8 3.3-1.8 2.3 0 3.5 1.3 3.5 3.5z"/></g><g><path class="st7" d="M85.2 408.1l-.8 1.8c-1.3-.8-2.6-1.1-3.5-1.1-1.2 0-1.9.4-1.9 1.2 0 2.6 6.4 1.2 6.4 5.5 0 2.1-1.9 3.4-4.5 3.4-1.9 0-3.6-.8-4.9-1.9l.9-1.7c1.2 1.1 2.8 1.7 4 1.7 1.4 0 2.2-.5 2.2-1.4 0-2.7-6.4-1.2-6.4-5.4 0-2 1.8-3.3 4.3-3.3 1.6 0 3.1.5 4.2 1.2zM92.7 418.3c-.7.4-1.5.7-2.2.7-1.4 0-2.5-.8-2.5-2.6v-4.7h-1.3v-1.5H88v-2.5h1.9v2.5h2.7v1.5h-2.7v4.3c0 .9.4 1.2 1 1.2.4 0 .8-.1 1.4-.4l.4 1.5zM99.9 417.8c-.6.8-1.7 1.2-3 1.2-2 0-3.2-1.2-3.2-2.8 0-1.6 1.2-2.7 3.4-2.7h2.7v-.3c0-1.1-.7-1.8-2.2-1.8-.9 0-1.8.3-2.7.9l-.8-1.4c1.3-.7 2.2-1.1 3.9-1.1 2.3 0 3.6 1.2 3.7 3.2v5.9h-1.9l.1-1.1zm0-2.1v-.8h-2.4c-1.3 0-1.9.3-1.9 1.2 0 .8.7 1.3 1.8 1.3 1.3 0 2.4-.7 2.5-1.7zM109.6 418.3c-.7.4-1.5.7-2.2.7-1.4 0-2.5-.8-2.5-2.6v-4.7h-1.3v-1.5h1.3v-2.5h1.9v2.5h2.7v1.5h-2.7v4.3c0 .9.4 1.2 1 1.2.4 0 .8-.1 1.4-.4l.4 1.5zM119.2 415.1h-6.8c.3 1.4 1.4 2.3 2.8 2.3 1 0 1.9-.4 2.5-1.1l1 1.1c-.9 1-2.2 1.5-3.7 1.5-2.8 0-4.6-1.9-4.6-4.6s1.9-4.6 4.6-4.6c3.2.1 4.5 2.1 4.2 5.4zm-1.7-1.4c-.1-1.5-1-2.3-2.5-2.3-1.4 0-2.4.9-2.7 2.3h5.2zM132.9 409.9c0 1.2-.9 2.5-2.2 3.9l-3.1 3.3h5.8v1.8H125v-1.5l4.4-4.7c.9-.9 1.4-1.9 1.4-2.5 0-1-.7-1.5-2-1.5-1 0-2.2.6-3.2 1.5l-.8-1.5c1.3-1.1 2.8-1.7 4.3-1.7 2.2-.1 3.8 1.1 3.8 2.9zM145.1 412.9c0 3.9-1.8 6-5 6-3.3 0-5.1-2.1-5.1-6s1.8-6 5.1-6c3.2 0 5 2.2 5 6zm-8 0c0 3 1 4.4 3 4.4s3-1.4 3-4.4-1-4.4-3-4.4-3 1.4-3 4.4zM156.9 412.9c0 3.9-1.8 6-5 6-3.3 0-5.1-2.1-5.1-6s1.8-6 5.1-6c3.2 0 5 2.2 5 6zm-8.1 0c0 3 1 4.4 3 4.4s3-1.4 3-4.4-1-4.4-3-4.4-3 1.4-3 4.4zM163.9 414.2v-2.8h1.9v2.8h1.7v1.8h-1.7v2.9h-1.9V416h-5.7v-1.5l4.1-7.5h1.9l-3.9 7.2h3.6zM79.1 429.2v3.2h5.8v1.8h-5.8v3.3h6.7v1.8h-8.7v-11.9h8.5v1.8h-6.5zM96.4 439.3h-2v-1.8c-.6 1.3-1.8 1.8-3.2 1.8-2.1 0-3.3-1.3-3.3-3.5v-5.6h2v5.1c0 1.4.8 2.2 2.1 2.2 1.6 0 2.5-1.2 2.5-2.8v-4.5h2l-.1 9.1zM101.2 432c.6-1.2 1.7-1.9 3.1-1.9v1.9c-1.8-.1-3 1-3.1 2.5v4.7h-2v-9h2v1.8zM114.5 434.8c0 2.7-1.9 4.6-4.7 4.6-2.8 0-4.7-1.9-4.7-4.6s1.9-4.6 4.7-4.6c2.8 0 4.7 1.8 4.7 4.6zm-7.5 0c0 1.8 1.1 2.9 2.8 2.9 1.6 0 2.8-1.2 2.8-2.9s-1.1-2.9-2.8-2.9c-1.6-.1-2.8 1.1-2.8 2.9zM118.2 437.7h5.3v1.6h-7.7V438l5.2-6.1h-5v-1.6h7.4v1.3l-5.2 6.1zM134.1 434.8c0 2.7-1.9 4.6-4.7 4.6s-4.7-1.9-4.7-4.6 1.9-4.6 4.7-4.6c2.8 0 4.7 1.8 4.7 4.6zm-7.5 0c0 1.8 1.1 2.9 2.8 2.9 1.6 0 2.8-1.2 2.8-2.9s-1.1-2.9-2.8-2.9c-1.7-.1-2.8 1.1-2.8 2.9zM144.8 433.6v5.6h-2v-5.1c0-1.4-.8-2.2-2.2-2.2-1.5 0-2.4 1.1-2.6 2.5v4.8h-2v-9h2v1.7c.6-1.3 1.8-1.8 3.3-1.8 2.2.1 3.5 1.4 3.5 3.5zM155.3 435.5h-6.8c.3 1.4 1.4 2.3 2.8 2.3 1 0 1.9-.4 2.5-1.1l1 1.1c-.9 1-2.2 1.5-3.7 1.5-2.8 0-4.6-1.9-4.6-4.6s1.9-4.6 4.6-4.6c3.2.1 4.5 2.1 4.2 5.4zm-1.7-1.4c-.1-1.5-1-2.3-2.5-2.3-1.4 0-2.4.9-2.7 2.3h5.2zM169 430.3c0 1.2-.9 2.5-2.2 3.9l-3.1 3.3h5.8v1.8H161v-1.5l4.4-4.7c.9-.9 1.4-1.9 1.4-2.5 0-1-.7-1.5-2-1.5-1 0-2.2.6-3.2 1.5l-.8-1.5c1.3-1.1 2.8-1.7 4.3-1.7 2.4-.1 3.9 1.1 3.9 2.9zM181.3 433.3c0 3.9-1.8 6-5 6-3.3 0-5.1-2.1-5.1-6s1.8-6 5.1-6c3.1 0 5 2.2 5 6zm-8.1 0c0 3 1 4.4 3 4.4s3-1.4 3-4.4-1-4.4-3-4.4-3 1.4-3 4.4zM193 433.3c0 3.9-1.8 6-5 6-3.3 0-5.1-2.1-5.1-6s1.8-6 5.1-6c3.2 0 5 2.2 5 6zm-8.1 0c0 3 1 4.4 3 4.4s3-1.4 3-4.4-1-4.4-3-4.4-3 1.4-3 4.4zM203.1 430.4c0 1.2-.7 2.1-1.8 2.5 1.4.5 2.4 1.6 2.4 3 0 2.1-1.8 3.4-4.6 3.4s-4.6-1.3-4.6-3.4c0-1.5.9-2.6 2.4-3.1-1.2-.5-1.9-1.5-1.9-2.6 0-1.9 1.5-3 4-3 2.6.1 4.1 1.3 4.1 3.2zm-6.6 5.4c0 1.3 1 2 2.7 2s2.7-.7 2.7-2c0-1.2-1-2-2.7-2s-2.7.7-2.7 2zm.4-5.3c0 1.1.8 1.7 2.3 1.7 1.4 0 2.3-.6 2.3-1.7s-.8-1.8-2.3-1.8-2.3.7-2.3 1.8z"/></g><g><path class="st7" d="M263.2 336.7c2 .2 3.3 1.3 3.3 3.2 0 2.2-1.7 3.8-4.3 3.8-1.5 0-3-.5-4-1.3l.8-1.6c.9.8 2 1.2 3 1.2 1.6 0 2.5-.8 2.5-2 0-1.3-.9-2-2.5-2h-1.6v-1.2l3.1-3.3h-4.8v-1.8h7.2v1.3l-3.4 3.7h.7zM270.5 333.5v2.6h1.6c2.6 0 4.2 1.5 4.2 3.6 0 2.4-1.7 4-4.4 4-1.4 0-3.1-.5-4.2-1.4l.8-1.6c1 .8 2.1 1.3 3.2 1.3 1.5 0 2.5-.8 2.5-2.1 0-1.2-.9-2-2.5-2-.7 0-2.3.1-3.1.2v-6.3h7.2v1.8h-5.3v-.1zM286.8 331.7c0 1.1-.9 2-2 2s-2-.9-2-2 .9-2 2-2 2 1 2 2zm-3.1 0c0 .6.5 1.1 1.1 1.1s1.1-.5 1.1-1.1-.5-1.1-1.1-1.1-1.1.6-1.1 1.1zM297.3 343.6l-6.3-8.5v8.5h-2v-11.9h2l6.4 8.5v-8.5h2v11.9h-2.1zM312.1 342.5c-.6.8-1.7 1.2-3 1.2-2 0-3.2-1.2-3.2-2.8 0-1.6 1.2-2.7 3.4-2.7h2.7v-.3c0-1.1-.7-1.8-2.2-1.8-.9 0-1.8.3-2.7.9l-.8-1.4c1.3-.7 2.2-1.1 3.9-1.1 2.3 0 3.6 1.2 3.7 3.2v5.9H312v-1.1h.1zm0-2.1v-.8h-2.4c-1.3 0-1.9.3-1.9 1.2 0 .8.7 1.3 1.8 1.3 1.3 0 2.4-.7 2.5-1.7zM325.3 337.9v5.6h-2v-5.1c0-1.4-.8-2.2-2.2-2.2-1.5 0-2.4 1.1-2.6 2.5v4.8h-2v-9h2v1.7c.6-1.3 1.8-1.8 3.3-1.8 2.2 0 3.5 1.4 3.5 3.5zM336.5 343.6h-2V342c-.6 1.1-1.7 1.6-3.2 1.6-2.6 0-4.3-1.9-4.3-4.6s1.8-4.6 4.3-4.6c1.5 0 2.5.6 3.2 1.6v-5.1h2v12.7zm-1.9-4.5c0-1.8-1.1-3-2.8-3s-2.8 1.2-2.8 3c0 1.7 1.1 2.9 2.8 2.9 1.6 0 2.8-1.2 2.8-2.9zM347.5 336.7c2 .2 3.3 1.3 3.3 3.2 0 2.2-1.7 3.8-4.3 3.8-1.5 0-3-.5-4-1.3l.8-1.6c.9.8 2 1.2 3 1.2 1.6 0 2.5-.8 2.5-2 0-1.3-.9-2-2.5-2h-1.6v-1.2l3.1-3.3H343v-1.8h7.2v1.3l-3.4 3.7h.7zM356.7 336.7c2 .2 3.3 1.3 3.3 3.2 0 2.2-1.7 3.8-4.3 3.8-1.5 0-3-.5-4-1.3l.8-1.6c.9.8 2 1.2 3 1.2 1.6 0 2.5-.8 2.5-2 0-1.3-.9-2-2.5-2h-1.6v-1.2l3.1-3.3h-4.8v-1.8h7.2v1.3l-3.4 3.7h.7zM370.5 331.7c0 1.1-.9 2-2 2s-2-.9-2-2 .9-2 2-2 2 1 2 2zm-3.1 0c0 .6.5 1.1 1.1 1.1s1.1-.5 1.1-1.1-.5-1.1-1.1-1.1c-.6.1-1.1.6-1.1 1.1zM374.6 333.5v3.2h5.8v1.8h-5.8v3.3h6.7v1.8h-8.7v-11.9h8.5v1.8h-6.5z"/></g><g><path class="st4" d="M273.1 431.3c-.1.4-.5.7-1 .5-9.9-2.7-19.5-6.5-28.7-11.2-12.4-6.3-23.8-14.2-33.9-23.4l-.6-.6c-.3-.3-.3-.8-.1-1.1h1.1c.3.2.5.4.8.7 10 9.1 21.3 16.9 33.4 23 9.1 4.6 18.7 8.4 28.5 11.1.4.2.6.6.5 1z"/></g><path class="st4" d="M210.6 396.2v.2c0 .5-.4.9-.8.9H75.4c-.5 0-.9-.4-.9-.9s.4-.9.9-.9h134.5l.7.7z"/><path class="st8" d="M313.2 178.4c-57.8 0-104.6 46.8-104.6 104.6s46.8 104.6 104.6 104.6S417.7 340.7 417.7 283s-46.8-104.6-104.5-104.6zm73.8 49.1l-.2.2-.2.9-.3.4v1.5l-.3.5-.4.2h-.3l-1.5.3-.4.6-.8-.1-5.2 2.6-.1.1-1.3.9-.1.2-.3.7-.4.1-.5 1.4-.3.5-1.6 1.3-1.9.8-1.6 1.1-.9.9-1.7 1.8-6.8 3-.8.4-1.5.9-3 2.2-1.4 1.2-1.8 2.1-.3.6-.2.5-.5 1.7-.2.4-.5.3-1 .3-.6.1h-1.6l-1.4-.4-.8.1-.8.1-1 .6-.1.1-.5.5-.7.8-.7 1.3-.6.5-1 2-.1.4-.6 3 .1.7v.1l.7 2.1-.2.4-.4.1-.3.3.1.1h.7l.3.2.2.3 1.4 1.9.7.7.8.6.5 1.1.2.4.1.2.8 1 1.1 1.1.3.2.7.6 2.1 1.7 1.6 2.4.3.5.1.1.1.2.9 1.1-.6.6.6 1.1.7.1.1.1.1.2-.3.5h-.3l-.2-.3v-.1l-.3.1-.2.1h-.3l-1.9-1.1-.5-.1-.9-.6-.9.1h-.4l-.6-.2-.7.2-1.1-.4h-.4l-.5.5-.1.1-.2.1-1.8.1-1.5.6-.2.3-.4.6-.8.4-.6.5-.8.4-.5.1-.2-.1-.6-.3-.2-.2-1-1-.9-.7-.8-.3h-.2l-2.4-.4h-.9H324.2l-.8.1-.6.3-1.1.8-.7.8-.8 1.9-.2 1.5.1 1.5-.2.8v1.3l-1.3 1.9-.5.3-.5 1.6-.3.2-2-.3-1.7.1-.5.3-.4.5-.5.7-.6.3-.6.6-.9.1-.4.7-2.1.2-.8.2-.8.4-.9.7-1.4.7-.1.1-.4.2-1.3.4-1.4 1-.3.1h-.7l-1.1.6h-.5l-.8.4-.5-.1-1.2-.3-.4.1-.9.4-.1.1-.1.1-.3.8-.3.1-8.4-.6-1.2.2-2.8 1h-.1v.1l-1.1.5-1.1.7-1.3 1.2-1.3.8-.5.6v.2l-.2.7-.2.3-.1.8.1.6.1.9.3.7.3.5.8 1 .4.5.1.3-.1.3-.2.1h-.5l-1-.5-.4-.2h-.8l-.8-.3-.5.2-.7.4-.5-.1-.7-.1-.4.1-.3.2-.2.1-.1-.2v-.1l.1-.2.4-.3v-.5l-.3-.8-.4-.6-.5-1.6-.1-.2-.8-1.2-.8-.9.3-.4h-.7l-.6-.7-.5-.4-1.9-.4-.9.3-1-.3-1.5.7-.6-.2-2 .3-.6.3-.2.2-.8.5-.5.1-.5-.1h-.7l-.7.6h-.5l-.6-.2-.9-.3-1-.2-1.8-.7-.3-.1-.4-.1-.8-.2-1-.4-.5-.4-.3-.3-.6-.4-1.4-.9-.7-.2-1.6-.5h-.8l-.6-.4-.3-.2-.7.1h-.1l-.6.4-.4-.4-.3-.1-.4-.2-2-1.8-.4-.2-.7.1-.7-1-.5-.5h-.3l-.5.1-.5-.4.2-1.4-.1-.5-.4-.7v-1l-.6-1.6-.1-1.3-.3-.4-.4-.2-.3-.1-.4-.4h-.4l-.3-.2-.5.1-.4-.4-.6-1.4-1.1-.9-.6-.5-.1-.4.2-.2.5-.6.3-1-.3-.7-1.3-1.7.1-.5.5-.3-.2-.6.3-.8-.5-1.5-.2-.4-.3-.5-.1-.1-.5-1.1-1.5-2.1-.1-.9v-.1l.2-2.1.1-.4.1-.4.2-.3h.5l.6.4h.1l.3.2 1.9 1.9 1.3 1.1 1.2.8 1.1.4 1.2.2h.7l1.3-.3 1.6-.6 1.7-1.3.7-.6.8-.9.2-.3.8-1.1 1.2-2.8.5-.7.7-.6.7-.6.2-.5v-.8l.2-.2.4.1.3.2.5.3.3-.1H244.3l.2-.1.4-.2.5-.2.3-.1h.7l.3-.2.1-.1.5-.8h.4l.6.2.4-.2.9-.4h.9l.6.1 1.2.5h1.3l.3.1.4.1 1 .3.7.1.3.4 1.3.8 1.2.3 1.1.8.8.2.8.5h.7l1.1-.1.4-.2 1.3-.8 1.8-1.3.8-.5.3-.5 1.2-3.6.3-1.4.3-1.5.1-.4.3-2.9v-1.8l-.2-1.8-.2-.6-.6-.6-.2-.5v-1.4l-.1-.9-.3-.9.1-.3.6.1 1.6.8 2.4 1.5 1.8 1h.3l1-.1.4.1 1.2.6 1.2.3h1l.7-.2.9-.3.5-.4h.5l2.9.8.9.3 3.1-.4.6.5.9.1.4.3.4.1.7-.3h.3l.9.3h.4l.5-.3 1.1.3.5.1 2.1.3 1.4.5.9-.2 1.8.2 3.9-.2h.1l.5.1 1.3-.2.7-.2h1.1l1.5-.5 2.9-.3 2.6-.9h.1l.5.1h.7l1.3-.2.4-.1.5-.2v.7l1.6-.5 1.3-.7.9-.8 2.6-1.3 1.6-.8.8-.2h1.3l1.9.2.7-.3 1.2.1 2.6-.8.4-.1h.1l1.9-.6 2.1-.8 1.2-.2.8-.3 4-2 2.5-1.3 1-.8 1.4-.4 1.4-.7 1.6-1.7.8-1.1.1-.1.7-.4.4-.5v-.1l.1-.6.4-.1.5.2.7.3h.5l.4-.3.2.4.6-.2.5.1.1-.1.4-.3.3-.1.1-.1.5-.5 1.3-.1.7-.4h.9l.5-.3.6-.5.7-.3.3-.3.1-.7h.3l.4.1.3-.1.6-.6.5-1.1.3-.2 1.1-.1.7-.6.4-.1.9.1h.2l.7-.3 1.4-1.2.6-.3 1.4.4 1-.5 1.3-.1.4-.3.3-.5.1-.7.3-.1.5.2.6-.2.1-.1 1.6-1.1.9-.4h1l.3-.1.8-.3.1.2-.4.3.4.4z"/></svg>