<?xml version="1.0" encoding="utf-8"?>
<!-- Generator: Adobe Illustrator 21.0.0, SVG Export Plug-In . SVG Version: 6.00 Build 0)  -->
<svg version="1.1" id="Layer_1" xmlns="http://www.w3.org/2000/svg" xmlns:xlink="http://www.w3.org/1999/xlink" x="0px" y="0px"
	 viewBox="0 0 563.2 534.8" style="enable-background:new 0 0 563.2 534.8;" xml:space="preserve">
<style type="text/css">
	.st0{fill:#143E69;}
</style>
<title>academic</title>
<g>
	<g>
		<path class="st0" d="M79.2,178.2c0,60.8,44.5,110.3,99.2,110.3c54.7,0,99.2-49.5,99.2-110.3c0-60.8-44.5-110.3-99.2-110.3
			C123.7,67.9,79.2,117.4,79.2,178.2z M178.4,257.3c-39.2,0-71.1-35.5-71.1-79c0-15,3.8-29,10.4-40.9c16,18,38,25.2,60.2,30.4
			c27.9,6.6,57.6,9.9,63.7,46.4c0,0.1,0,0.2,0.1,0.3C229.8,239.8,205.9,257.3,178.4,257.3z M248.4,164.8
			c-29.8-27.2-82.5-17.5-111.7-50.5c11.7-9.5,26.1-15.1,41.7-15.1C213.5,99.2,242.7,127.6,248.4,164.8z"/>
		<path class="st0" d="M391.8,0.8C359.9,0.8,334,29.6,334,65v6.7l-46.6,73.8l46.6-6v96.1c0,35.4,25.9,64.2,57.8,64.2h113.7
			c31.9,0,57.8-28.8,57.8-64.2V65c0-35.4-25.9-64.2-57.8-64.2L391.8,0.8L391.8,0.8L391.8,0.8z M535.1,65v170.7
			c0,18.2-13.3,33-29.7,33H391.8c-16.4,0-29.7-14.8-29.7-33V104.5l-15.7,2l15.7-24.9V65c0-18.2,13.3-33,29.7-33h113.7
			C521.8,32,535.1,46.8,535.1,65z"/>
		<path class="st0" d="M14.7,534.8h55.7h216.1h248.3c7.8,0,14.1-7,14.1-15.6c0-8.6-6.3-15.6-14.1-15.6H336.3
			c3-6.6,4.8-13.8,4.8-21.4l-17.5-132.9c-0.7-28.5-24.9-51.5-54.6-51.5h-62.7l-26.8,30.8l-0.4-1.1l-0.8,2.5l-0.3,0.3L148,297.7H87.8
			c-29.7,0-53.9,23-54.6,51.5L15.9,479.8l-0.1,2.3c0,7.7,1.7,14.9,4.8,21.4h-5.8c-7.8,0-14.1,7-14.1,15.6
			C0.6,527.8,6.9,534.8,14.7,534.8z M187.3,446.4l-8.2,5.9l-8.2-5.9l8.2-25.5L187.3,446.4z M43.9,483l17.3-130.3l0.1-2.3
			c0-11.6,12.1-21.5,26.5-21.5h48.8l31.2,33.7l-30.8,96.5l42.1,30.5l42.1-30.5L190,361.4l28.2-32.4H269c14.4,0,26.5,9.8,26.5,21.4
			l17.5,132.6c-0.6,11.2-12.5,20.5-26.5,20.5H70.3C56.4,503.5,44.5,494.3,43.9,483z"/>
		<path class="st0" d="M411.2,113h-5.9c-1,0-1.9,0.9-1.9,2.1v15.6c0,1.1-0.8,2.1-1.9,2.1h-14.4c-1,0-1.9-0.9-1.9-2.1v-15.6
			c0-1.1-0.8-2.1-1.9-2.1h-6c-1,0-1.9,0.9-1.9,2.1v47.7c0,1.1,0.8,2.1,1.9,2.1h6c1,0,1.9-0.9,1.9-2.1v-19c0-1.1,0.9-2.1,1.9-2.1
			h14.4c1,0,1.9,0.9,1.9,2.1v19c0,1.1,0.8,2.1,1.9,2.1h5.9c1,0,1.9-0.9,1.9-2.1v-47.7C413.1,114,412.2,113,411.2,113z"/>
		<path class="st0" d="M450.2,133c-1.6-2.6-3.6-4.5-6-5.7c-2.4-1.2-5.1-1.8-8.1-1.8c-5.1,0-9.2,1.8-12.3,5.3
			c-3.2,3.5-4.8,8.6-4.8,15.3c0,6.1,1.3,10.7,3.9,13.9c0.7,0.9,2,2,2.9,2.7c3.1,2.3,6.7,3.5,10.6,3.5c5.6,0,9.9-1.9,13-5.6
			c1.4-1.7,2.4-3.3,2.9-4.9c0.3-1.1-0.4-2-1.4-2h-5.5c-1,0-2.2,0.7-2.7,1.4c-0.3,0.5-0.7,0.9-1.1,1.2c-1.3,1.2-3,1.8-5,1.8
			c-1.9,0-3.6-0.5-5-1.4c-1.8-1.3-3-3.3-3.4-6c-0.2-1.1,0.6-2.1,1.7-2.1h21.4c1,0,1.9-0.9,1.9-2.1c0-2.3-0.1-4.2-0.3-5.5
			C452.5,137.9,451.6,135.3,450.2,133z M442,141.9h-11.8c-1,0-1.8-0.9-1.5-2c0.4-1.6,1.1-2.9,2-3.9c1.3-1.5,3.1-2.2,5.4-2.2
			c2.1,0,3.9,0.7,5.4,2.1c1,1,1.7,2.3,2.1,4C443.8,141,443,141.9,442,141.9z"/>
		<path class="st0" d="M465.1,113h-5.3c-1,0-1.9,0.9-1.9,2.1v47.7c0,1.1,0.8,2.1,1.9,2.1h5.3c1,0,1.9-0.9,1.9-2.1v-47.7
			C467,114,466.1,113,465.1,113z"/>
		<path class="st0" d="M483.1,113h-5.3c-1,0-1.9,0.9-1.9,2.1v47.7c0,1.1,0.8,2.1,1.9,2.1h5.3c1,0,1.9-0.9,1.9-2.1v-47.7
			C485,114,484.2,113,483.1,113z"/>
		<path class="st0" d="M491.7,145.8c0,5.6,1.5,10.4,4.4,14.4c2.9,4,7.3,6,13.3,6c5.9,0,10.4-2,13.3-6c2.9-4,4.4-8.8,4.4-14.4
			c0-5.5-1.5-10.3-4.4-14.4c-2.9-4.1-7.3-6.1-13.3-6.1c-5.9,0-10.4,2-13.3,6.1C493.1,135.4,491.7,140.2,491.7,145.8z M503.2,136.9
			c1.4-2.1,3.5-3.1,6.1-3.1c2.6,0,4.7,1,6.1,3.1c1.4,2.1,2.1,5,2.1,8.9c0,3.8-0.7,6.8-2.1,8.9c-1.4,2.1-3.4,3.1-6.1,3.1
			c-2.6,0-4.7-1-6.1-3.1c-1.4-2.1-2.1-5.1-2.1-8.9C501.1,141.9,501.8,139,503.2,136.9z"/>
	</g>
</g>
</svg>
