<svg id="Layer_1" data-name="Layer 1" xmlns="http://www.w3.org/2000/svg" viewBox="0 0 786.13 318.12"><defs><style>.cls-1{fill:#47ab54;}</style></defs><title>logo (1)</title><path class="cls-1" d="M81.94,139.94A30.8,30.8,0,0,0,65.58,135c-10.91,0-22.5,5.82-21.31,18.71,1.88,21.25,51.48,12,51.48,44.5,0,13.45-9.21,25.43-29.83,25.43-20.28,0-31-12.17-31.53-25.79h7.33C43.08,209.51,53.31,216,65.92,216c10.57,0,22.16-5.26,22.16-17.61,0-25.25-48.24-15.81-51.31-43.78-1.36-11.44,6.31-26.88,28.81-26.88,11.93,0,19.09,5.27,19.09,5.27Z" transform="translate(-34.39 -91.98)"/><path class="cls-1" d="M116.88,190.25c-.17,26.34,23.69,28.52,45.5,22.89l1.71,6.72c-12.1,3.45-25.4,4.18-35.79.73-13.47-4.73-19.09-14-19.09-32.34V165c0-35.42,28.12-43.95,54.54-30.87l-2.22,6.35c-21-9.81-44.65-5.45-44.65,23.43Z" transform="translate(-34.39 -91.98)"/><path class="cls-1" d="M189.82,93.8v41.05c11.08-7.45,29.83-8.35,40.74-2.9,8.52,4.17,14.49,12.35,14.49,26.15V221h-7.5V158.46c0-28.15-31.7-25.61-47.73-16.34V221h-7.67V93.8Z" transform="translate(-34.39 -91.98)"/><path class="cls-1" d="M264.31,163.55c0-22.89,11.42-35.6,32-35.6,19.77,0,31.53,13.62,31.53,35.6v24c0,18.52-9,35.24-31.53,35.24-22.33,0-32-16.72-32-35.24ZM272,188.8c0,14.71,8.18,26.7,24.37,26.7s23.86-11.62,23.86-26.7V163.37c0-20-10.57-28-23.86-28-14,0-24.37,8-24.37,28Z" transform="translate(-34.39 -91.98)"/><path class="cls-1" d="M355.83,93.8V221h-7.67V93.8Z" transform="translate(-34.39 -91.98)"/><path class="cls-1" d="M404.58,128.49c35.45,0,35.45,20.89,35.45,38.33V221c-27.1,2.72-65.62,8.17-65.62-30.7V175.18c0-13.08,4.94-20.53,11.93-24.16,12.1-6.36,33.92-2.36,46,7.08,0-11.44-4.26-23.25-28.29-23.07Zm-22.67,63c0,24.34,23,26.52,50.45,22.53V164.82c-15.34-8.9-50.45-19.8-50.45,10.9Z" transform="translate(-34.39 -91.98)"/><path class="cls-1" d="M469.51,130l-.34,7.26C479.91,126,495.42,128,504.45,130l-2,7.63c-13.3-4.54-32.9-.19-32.9,11.8V221h-7.67V130Z" transform="translate(-34.39 -91.98)"/><path class="cls-1" d="M559.51,139.94A30.81,30.81,0,0,0,543.14,135c-10.9,0-22.49,5.82-21.3,18.71,1.87,21.25,51.47,12,51.47,44.5,0,13.45-9.2,25.43-29.83,25.43-20.28,0-31-12.17-31.53-25.79h7.33c1.37,11.63,11.59,18.16,24.2,18.16,10.57,0,22.16-5.26,22.16-17.61,0-25.25-48.23-15.81-51.3-43.78-1.36-11.44,6.31-26.88,28.8-26.88,11.93,0,19.09,5.27,19.09,5.27Z" transform="translate(-34.39 -91.98)"/><path class="cls-1" d="M597.34,93.8v41.05c11.08-7.45,29.83-8.35,40.74-2.9,8.52,4.17,14.48,12.35,14.48,26.15V221h-7.5V158.46c0-28.15-31.7-25.61-47.72-16.34V221h-7.67V93.8Z" transform="translate(-34.39 -91.98)"/><path class="cls-1" d="M678.81,92a4.74,4.74,0,0,1,4.6,4.91,4.9,4.9,0,0,1-4.6,5.08A5,5,0,0,1,674,96.89,4.88,4.88,0,0,1,678.81,92Zm3.75,38v91h-7.67V130Z" transform="translate(-34.39 -91.98)"/><path class="cls-1" d="M713.41,130l-.68,10a32,32,0,0,1,24.2-11.45c22.67,0,33.07,15.63,33.07,35.42V189c0,22.71-13.47,34.15-31.88,34.15-10.91,0-18.92-3.27-24.71-11.63v47.59L705.74,256V130Zm48.92,33.24c0-21.25-13.81-27.25-24.89-27.25-9.54,0-22.33,5.09-24,22.16v33.24c0,16.71,10.4,24.34,24.88,24.34,11.59,0,24-7.08,24-24.88Z" transform="translate(-34.39 -91.98)"/><path d="M103.81,407.13,66.21,246.88H92.85l24.71,110.8,24.05-110.8H168.9L131.52,407.13Z" transform="translate(-34.39 -91.98)"/><path d="M183.93,257.87c0-7.1,6-13.28,12.89-13.28,6.66,0,12.46,6.18,12.46,13.28,0,7.33-5.8,13.74-12.46,13.74C189.94,271.61,183.93,265.2,183.93,257.87Zm.43,149.26V292.44H208V407.13Z" transform="translate(-34.39 -91.98)"/><path d="M254.6,366.61V373c0,14.88,13.53,19,39.53,4.35l8.59,21.75a69,69,0,0,1-35.45,10.76c-21.26.69-36.52-9.62-36.52-33.42V329.53c0-25.19,16.12-39.15,39.53-39.15,23.85,0,37.81,14.42,37.81,38.46v34.8Zm29.64-37.31c0-9.62-6.66-14.2-14.17-14.2-12,0-15.47,8.93-15.47,14.65v13.74l29.64-2.06Z" transform="translate(-34.39 -91.98)"/><path d="M361.14,410.11c-25.56-.46-32.65-15.34-32.65-33.2v-130h24.06v45.56H373L367.8,316H352.55v60.89c0,11.22,7.09,13,15.68,13Z" transform="translate(-34.39 -91.98)"/><path d="M445.13,407.13V335c0-17.17-14-26.1-32.22-16.25v88.36H389.49V292.44h20.84l2.79,1.37c8.38-3,23.63-5.95,37.38.92,10.74,5.26,18.26,15.79,18.26,33.19v79.21Z" transform="translate(-34.39 -91.98)"/><path d="M570.36,407.13c-34.16,3.44-82.7,10.3-82.7-38.69v-19c0-16.48,6-25.87,14.82-30.44,15.25-8,36.73-.69,44.25,3.66,0-12.59-12.24-14.65-23-14.65l1.93-17.4c44.68,0,44.68,26.32,44.68,48.3Zm-23.63-57.69c-8-5.95-35.23-16.48-35.23,3.21v12.59c0,14.88,9.24,24.49,35.23,19.69Z" transform="translate(-34.39 -91.98)"/><path d="M704.83,407.13V337.54c0-23.12-8-27.47-26.43-20.15L674.75,319a30.71,30.71,0,0,1,.86,6.63v81.5H652V338.22c0-22.43-15.68-29.76-33.94-18.77v87.68H594.41V292.44h20.84L618,294c11-5.26,30.29-5.72,42.32,7.56,3-1.84,8.59-4.81,9-5,30.08-14.88,59.08-2.29,59.08,31.36v79.21Z" transform="translate(-34.39 -91.98)"/><path class="cls-1" d="M744.52,240.37a4.77,4.77,0,0,1,4.6-4.76,4.66,4.66,0,0,1,4.46,4.76,4.79,4.79,0,0,1-4.46,4.9A4.91,4.91,0,0,1,744.52,240.37Zm.68,97.57V265.73h7.57v72.21Z" transform="translate(-34.39 -91.98)"/><path class="cls-1" d="M813.08,337.94V288.5c0-21.18-23.39-18.73-34.89-11.81v61.25h-7.57V265.73h7.57l-.54,4.9c7.71-6.92,22.72-7.78,31.37-3.46,6.76,3.32,11.5,9.95,11.5,20.9v49.87Z" transform="translate(-34.39 -91.98)"/></svg>