<?xml version="1.0" encoding="utf-8"?>
<!-- Generator: Adobe Illustrator 21.0.0, SVG Export Plug-In . SVG Version: 6.00 Build 0)  -->
<svg version="1.1" id="Layer_1" xmlns="http://www.w3.org/2000/svg" xmlns:xlink="http://www.w3.org/1999/xlink" x="0px" y="0px"
	 viewBox="0 0 1013.3 442.1" style="enable-background:new 0 0 1013.3 442.1;" xml:space="preserve">
<style type="text/css">
	.st0{fill:#FEFEFE;}
	.st1{fill:#060906;}
	.st2{fill:#080B08;}
	.st3{fill:#080A08;}
	.st4{fill:#EAEBEA;}
	.st5{fill:#4F514F;}
	.st6{fill:#CBCBCB;}
	.st7{fill:#C4C5C4;}
	.st8{fill:#0B0E0B;}
	.st9{fill:#040704;}
	.st10{fill:#0A0D0A;}
	.st11{fill:#090C09;}
	.st12{fill:#010401;}
	.st13{fill:#050805;}
	.st14{fill:#070907;}
	.st15{fill:#101210;}
	.st16{fill:#151715;}
	.st17{fill:#181B18;}
	.st18{fill:#252725;}
	.st19{fill:#F7F7F7;}
	.st20{fill:#FDFDFD;}
	.st21{fill:#F6F6F6;}
	.st22{fill:#F8F8F8;}
	.st23{fill:#000300;}
</style>
<g>
	<g>
		<path class="st0" d="M698.2,450c-38.5,0-76.9,0-115.4,0c0-7.3,3.4-5.8,5.4-7c6.9-4.2,8-11.1,3.5-24.1c1.9,8.2,3.5,16.4-1.7,22.2
			c-5.8,6.4-14.5,3.2-18.3-7.2c-4.2-11.3-5.3-23.6-1.8-36.5c3.4-12.4,9.2-15.2,15.9-13.8c1.2,0.2,2.3,1.3,3.6,1
			c-10.5-5.6-17.7-0.6-21.2,14.8c-3.7,16.3-0.7,32.6,7.9,42.8c1.6,1.9,4,2.4,3.6,7.7c-68.4,0-136.8,0-205.3,0
			c-0.5-1.3-0.5-2.5,0-3.8c4.3-5.1,10.1-8.1,8.3-21.8c-0.4-3.2-1.1-5.2-3.6-5.8c2.6,4,3.1,8.6,2.5,13.6c-0.8,6.4-3.4,9.1-6.4,10.8
			c-8,4.7-17-5.8-18.8-22c-2-17.2,3.6-34.8,11.8-37.2c3.1-0.9,6.2-0.1,10.8,1.3c-11.7-5.6-19-0.7-22.4,13.4
			c-3.6,15-0.9,31.8,6.9,42.6c1.2,1.7,2.6,2.8,3.6,5.2c0.4,1.3,0.3,2.6-0.1,3.8c-42.9,0-85.9,0-128.8,0c-0.5-1.2-0.5-2.5-0.1-3.8
			c6.2-8.8,12.7-16.9,11.7-35c-0.8-15-4.4-25-11.3-28.3c-6.6-3.1-13.7,1.9-17,12c-3.6,11-2.9,29.3,1.3,38.8
			c2.3,5.2,5.6,7.7,8.1,12.5c0.4,1.3,0.4,2.6-0.1,3.8c-27.5,0-54.9,0-82.4,0c-0.2-7,3.3-5.9,5.1-8.4c6.5-9.2,6.1-20.9-1.2-27.7
			c-2-1.9-4.2-3.2-6.1-5.3c-2.9-3.2-5.7-7.1-4.6-14.6c1-6.7,3.9-9.6,7.4-10.2c1.5-0.3,3,0.2,4.8,0.3c-2.9-2.8-5.6-2.3-8.1-0.2
			c-2.7,2.2-4.4,6.1-4.9,11.8c-0.6,6.2,1.4,9.8,3.7,12.9c2.1,2.7,4.6,3.9,6.7,6.2c3.4,3.6,6.7,7.8,5.6,16.5
			c-1.1,8.2-4.7,10.5-8.7,10.7c-1.7,0.1-3.4-0.4-5.3-1.1c0.9,3.7,3.6,4.5,2.8,9.3c-44.4,0-88.9,0-133.3,0c-0.4-1.3-0.4-2.5,0.1-3.7
			c1.6-2.6,3.7-2.8,5.4-4.5c5.7-5.6,6.1-20.1,0.7-26.7c-2.1-2.6-4.6-3.5-6.8-5.6c-3.3-3.3-5.7-8.1-5-15.8c0.7-8.3,4.1-9.9,7.8-10
			c1.2,0,2.4,0.9,3.7,0.3c-2.1-2.2-4.3-1.6-6.4-1.2c-3.3,0.7-5.5,4.4-6.1,10.7c-0.6,6.2,0.3,11.3,3.2,14.8c2.1,2.6,4.6,3.6,6.8,5.6
			c4.1,3.6,6.4,9.3,5.3,18.1c-1.2,9.6-5.3,10.3-9.4,9.9c-3.5-0.3-6.8-2.8-9.8-6.2c0-138.4,0.1-276.8-0.2-415.2
			c0-11.5,1.8-13,7.1-12.8c20.7,0.6,41.3,0.3,62,0.3c3.2,7.4,2.4,16.3,2.4,24.8c0.1,101.4,0,202.9,0,304.3c0,25.1,0,25.1,13.3,25.1
			c275.1,0,550.3,0,825.4,0c13.3,0,13.3,0,13.3-25.1c0-101.4,0-202.9,0-304.3c0-8.5-0.8-17.4,2.4-24.8c22.7,0,45.4,0.3,68.2-0.3
			c4.5-0.1,5.4,1.7,5.4,10.3c-0.2,140.2-0.1,280.4-0.1,420.6c-4.7,5.9-9.6,4.7-14.5,1.8c-3.1-5-2.4-12-2.6-18.5
			c-0.2-10.6,0.3-21.4-1-31.9c-0.8,14.5-0.8,28.9-0.6,43.4c0.1,7,1.9,10,5.7,9.9c3.7-0.1,7.4-0.9,11.1,1.3c0.7,0.8,1.4,1.6,2,2.6
			c0.2,5.7-2.1,2.7-3,2.7c-14.5,0.2-29,0.2-43.4,0.2c-0.5-1.2-0.5-2.5-0.1-3.8c6.2-8.8,12.7-16.9,11.7-35c-0.8-15-4.4-25-11.3-28.3
			c-6.6-3.1-13.7,1.9-17,12c-3.6,11-2.9,29.3,1.3,38.8c2.3,5.2,5.6,7.7,8.1,12.5c0.4,1.3,0.4,2.6-0.1,3.8c-12.5,0-25,0-37.5,0
			c-0.5-1.2-0.5-2.5-0.1-3.8c6.2-8.8,12.7-16.9,11.7-35c-0.8-15-4.4-25-11.3-28.3c-6.6-3.1-13.7,1.9-17,12
			c-3.6,11-2.9,29.3,1.3,38.8c2.3,5.2,5.6,7.7,8.1,12.5c0.4,1.3,0.4,2.6-0.1,3.8c-26.5,0-52.9,0-79.4,0c0.6-8.9,5.3-4.9,7.5-9.1
			c-6.9,1.6-13.9,3.3-18.2-10.5c-3.6-11.6-3.9-23.8,0.1-35.2c4.5-13.1,11.2-13.5,18.5-9.8c-9.3-6.2-16.2-2.2-20.1,11.1
			c-4.3,14.6-2.5,31.5,4.3,42.6c1.9,3.1,5.3,4,5,11c-11.5,0-23,0-34.5,0c-0.2-7,3.3-5.9,5.1-8.4c6.5-9.2,6.1-20.9-1.2-27.7
			c-2-1.9-4.2-3.2-6.1-5.3c-2.9-3.2-5.7-7.1-4.6-14.6c1-6.7,3.9-9.6,7.4-10.2c1.5-0.3,3,0.2,4.8,0.3c-2.9-2.8-5.6-2.3-8.1-0.2
			c-2.7,2.2-4.4,6.1-4.9,11.8c-0.6,6.2,1.4,9.8,3.7,12.9c2.1,2.7,4.6,3.9,6.7,6.2c3.4,3.6,6.7,7.8,5.6,16.5
			c-1.1,8.2-4.7,10.4-8.7,10.7c-1.7,0.1-3.4-1.1-5.2-0.6c0.7,3.2,3.5,4,2.7,8.8c-25.5,0-50.9,0-76.4,0c-0.5-1.3-0.4-2.5,0-3.8
			c4.3-5.1,10.1-8.1,8.3-21.8c-0.4-3.2-1.1-5.2-3.6-5.8c2.6,4,3.1,8.6,2.5,13.6c-0.8,6.4-3.4,9.1-6.4,10.8c-8,4.7-17-5.8-18.8-22.1
			c-2-17.2,3.6-34.8,11.8-37.2c3.1-0.9,6.3-0.6,9.3,0.9c-10.3-5.2-17.5-0.3-21,13.8c-3.6,15-0.9,31.8,6.9,42.6
			c1.2,1.7,2.6,2.8,3.6,5.2C698.7,447.5,698.7,448.8,698.2,450z"/>
		<path d="M927.4,7.9c0,115.3-0.1,230.6,0.1,345.9c0,10.7-1.3,13.2-6.9,13.2c-281.2-0.3-562.3-0.3-843.5,0c-5.6,0-6.9-2.5-6.9-13.2
			c0.2-115.3,0.1-230.6,0.1-345.9C356.1,7.9,641.7,7.9,927.4,7.9z"/>
		<path class="st1" d="M579.8,450c-8.5-7.4-15.3-17-15-37.5c0.3-27.2,14.9-43.7,27.3-30.4c1.4,1.4,3.7,2.4,2.6,7.1
			c-1.2,4.8-2.8,1.7-4.3,0.4c-5.9-5-11.8-5.7-16.7,3.5c-4.7,8.9-5.1,20.4-2.8,32c2.6,13.5,12,19.9,18.8,13.5
			c3.3-3.1,1.8-8.1,2.1-12.4c0.4-5.1-1.5-4.9-3.3-4.9c-1.2,0-2.5,0.4-3.4-3.8c3.7-3.4,7.9-5.9,10.8,0.8c2.8,6.5-0.7,22.9-4.2,26.7
			c-2.8,3.1-6.5-0.7-8.8,4.9C581.8,450,580.8,450,579.8,450z"/>
		<path class="st2" d="M819.5,450c-8.7-8.7-14.5-20.7-13.5-41.1c1.3-24.2,15.5-39,26-26.8c1.4,1.7,4.2,3,2.5,8.2
			c-1.6,4.6-3,0.3-4.4-0.9c-6.1-5.3-11.7-4.3-16.3,5.6c-4.2,9.2-4.3,26.7-0.1,36.1c4.7,10.7,10.6,11.2,16.8,5.1
			c1.5-1.5,3.1-4.8,4.3-0.1c1.2,4.3-1.4,5.1-2.4,7.2c-2.7,5.4-7.2,1.7-10,6.8C821.5,450,820.5,450,819.5,450z"/>
		<path class="st2" d="M145.3,450c-0.2-0.8-0.3-1.8-0.7-2.3c-2.2-3.5-7.9-3.2-6.3-10.6c1.8-8.5,4.6,2.1,7.3,2.3
			c4,0.3,7.7,0.8,9.3-7.7c1.9-9.7-2-12.4-5.6-15.1c-2.1-1.6-4.3-2.6-6.3-4.6c-3.7-3.9-5-10.3-4.3-18.1c0.8-8.6,3.6-13.6,7.9-15.2
			c4-1.5,8-0.4,11.2,5c0.4,0.6,0.6,3,0.4,3.5c-0.6,1.2-1.6,2.5-2.4,2.3c-1.4-0.4-2.8-2.2-4.2-2.6c-3.6-1-7.4-1.1-8.6,7.2
			c-1.3,8.2,2.2,10.5,5.3,12.9c1.1,0.9,2.3,1.8,3.5,2.4c5,2.8,8.8,8,8.2,19c-0.6,10.4-3.6,17.7-9.5,18.8c-1.1,0.2-1.9,0.5-2.1,2.9
			C147.3,450,146.3,450,145.3,450z"/>
		<path class="st2" d="M782.1,450c-0.2-0.8-0.3-1.8-0.7-2.3c-2.2-3.5-7.9-3.2-6.3-10.6c1.8-8.5,4.6,2.1,7.3,2.3
			c4,0.3,7.7,0.8,9.3-7.7c1.9-9.7-2-12.4-5.6-15.1c-2.1-1.6-4.3-2.6-6.3-4.6c-3.7-3.9-5-10.3-4.3-18.1c0.8-8.6,3.6-13.6,7.9-15.2
			c4-1.5,8-0.4,11.2,5c0.4,0.6,0.6,3,0.4,3.5c-0.6,1.2-1.6,2.5-2.4,2.3c-1.4-0.4-2.8-2.2-4.2-2.6c-3.6-1-7.4-1.1-8.6,7.2
			c-1.3,8.2,2.2,10.5,5.3,12.9c1.1,0.9,2.3,1.8,3.5,2.4c5,2.8,8.8,8,8.2,19c-0.6,10.4-3.6,17.7-9.5,18.8c-1.1,0.2-1.9,0.5-2.1,2.9
			C784.1,450,783.1,450,782.1,450z"/>
		<path class="st3" d="M1.5,435.6c1.8-0.5,3.3-1.9,5.3,0.5c4.3,5.1,9.7,7,12.2-3.4c3-12.4-2.9-14.5-7.4-17.5
			c-7.5-5-10.3-14.4-7.8-25.5c2.5-11.2,10.4-15.3,16.7-8.7c1.3,1.3,2.9,2.4,2.2,6.1c-0.7,3.8-2.3,2.9-3.6,1.5
			c-2.1-2.1-4.3-2.4-6.5-2.1c-2.4,0.4-4.4,2.2-5,7.1c-0.7,5.5,0.4,9.3,3.1,11.4c1.4,1.1,2.7,2.3,4.1,3.2c5.5,3.4,10.4,7.6,9.4,21.5
			c-1,13.6-5.8,17.7-12.1,17.9c-4.2,2.1-7.6-0.3-10.5-6.2C1.5,439.5,1.5,437.6,1.5,435.6z"/>
		<path class="st4" d="M1.5,441.4c3.7,1,6.5,7.2,10.5,6.2c0,0.8,0,1.6,0,2.4c-2.2,0-4.6-0.8-6.7,0.2C0.5,452.2,1.6,446.1,1.5,441.4z
			"/>
		<path class="st5" d="M985.8,438.5c5,0,10,0,15,0c0,2.9,0,5.7,0,8.6c-0.5-0.1-1-0.2-1.5-0.3c-2.6-4-5.7-2-8.6-2.7
			C988.7,443.7,985.9,445.3,985.8,438.5z"/>
		<path class="st6" d="M230.7,450c0.1-0.8,0-1.7-0.1-2.5c2.5-4.6,5.1-4.6,7.6,0c-0.1,0.8-0.1,1.7-0.1,2.5
			C235.7,450,233.2,450,230.7,450z"/>
		<path class="st7" d="M374.6,447.6c0,0.8,0,1.6-0.1,2.4c-2.5,0-5,0-7.5,0c0.1-0.8,0.1-1.7-0.1-2.5
			C369.6,443.2,372.1,443.2,374.6,447.6z"/>
		<path class="st7" d="M705.7,447.6c0,0.8,0,1.6-0.1,2.4c-2.5,0-5,0-7.5,0c0.1-0.8,0.1-1.7-0.1-2.5
			C700.7,443.2,703.2,443.2,705.7,447.6z"/>
		<path class="st6" d="M909.5,447.5c-0.1,0.8-0.1,1.7-0.1,2.5c-2.5,0-5,0-7.5,0c0.1-0.8,0-1.7-0.1-2.5
			C904.4,442.9,906.9,442.9,909.5,447.5z"/>
		<path class="st6" d="M946.9,450c0.1-0.8,0-1.7-0.1-2.5c2.5-4.6,5.1-4.6,7.6,0c-0.1,0.8-0.1,1.7-0.1,2.5
			C951.9,450,949.4,450,946.9,450z"/>
		<path class="st8" d="M422.2,427.8c0-13.8-0.1-27.4,0-41.1c0-2.9-0.8-7.6,1.9-7.7c2.6-0.1,2.1,4.5,2.1,7.6
			c0.1,17.2,0.1,34.4,0,51.7c0,3,1,7.1-1.3,8.6c-2.1,1.3-3.1-2-4.2-4.6c-4.4-11-8.8-22-13.2-32.9c-1.6-4-3.2-7.9-6-14.7
			c0,17,0.1,30.6-0.1,44.3c0,3.1,1.3,8.6-2.2,8.2c-2.7-0.3-2-4.7-2-7.7c-0.1-17.2-0.1-34.4,0-51.7c0-3-0.9-7.3,1.4-8.5
			c2-1.1,3.1,2.1,4.2,4.8c5,12.5,10,25.1,15.1,37.5C419,423.7,419.4,427.5,422.2,427.8z"/>
		<path class="st8" d="M279.6,417.1c3.7,9.9,7.1,19.1,10.7,28.6c-3.2,3-5.3,1.4-6.9-3.7c-0.9-2.8-1.8-5.8-3.1-8.1
			c-2.8-5.3-3.6-17.7-8.7-14.8c-4.6,2.7-1.2,13.1-2.1,19.8c-0.4,3.3,0.7,8.1-2.5,8.2c-3.3,0.1-2.6-4.6-2.6-8.1
			c-0.1-17.1,0.1-34.3-0.1-51.4c-0.1-6.5,0.9-10,4.6-9.1c1.7,0.4,3.5,0,5.2,0.1c5.6,0.4,11.4,1.7,13.2,14.1
			C289,404.7,285.6,412.5,279.6,417.1z"/>
		<path class="st2" d="M528.7,394.9c0,18.2,0,31.9,0,45.7c0,3.5-0.1,7-2.6,6.5c-2.3-0.4-1.6-4-1.6-6.6c-0.1-17.6-0.1-35.3,0-52.9
			c0-2.9-1-7.3,1.4-8.5c2-1,3.1,2.3,4.2,5c4.4,10.9,8.8,21.9,13.2,32.9c1.5,3.6,3,7.1,6,14.2c0-17.6,0-31,0-44.5
			c0-3.1-0.5-7.6,2.1-7.5c2.7,0.1,1.9,4.8,1.9,7.7c0.1,17.6,0.1,35.3,0,52.9c0,2.6,0.7,6-1.3,7.2c-1.8,1-2.7-1.6-3.6-3.8
			C542.1,428.1,536.1,413.2,528.7,394.9z"/>
		<path class="st9" d="M238.3,447.5c-2.5,0-5.1,0-7.6,0c-12.3-9-17-28.3-12.2-49.8c3.9-17.3,14.7-24.7,23.9-16.3
			c6.5,6,10,18.4,9.5,34.4C251.4,432.8,246.6,443,238.3,447.5z"/>
		<path class="st9" d="M954.4,447.5c-2.5,0-5.1,0-7.6,0c-12.3-9-17-28.3-12.2-49.8c3.9-17.3,14.7-24.7,23.9-16.3
			c6.5,6,10,18.4,9.5,34.4C967.6,432.8,962.8,443,954.4,447.5z"/>
		<path class="st9" d="M909.5,447.5c-2.5,0-5.1,0-7.6,0c-12.3-9-17-28.3-12.2-49.8c3.9-17.3,14.7-24.7,23.9-16.3
			c6.5,6,10,18.4,9.5,34.4C922.7,432.8,917.9,443,909.5,447.5z"/>
		<path class="st10" d="M636.4,403.7c0,6.7,0.3,13.5-0.1,20.1c-1,15.7-6.4,23.9-14.9,23.5c-7.7-0.4-12.8-10-13.1-25.5
			c-0.3-11.9-0.1-23.9,0-35.8c0-3.1-0.5-7.1,2.3-7.2c2.7-0.1,2.5,3.7,2.5,7c0.1,11-0.1,22,0.1,33c0.2,13.9,3.7,21.6,9.4,21.1
			c6.7-0.6,8.8-9.1,8.9-20.4c0.1-11,0-22,0-33c0-3.9,0-8.1,3-7.6c2.7,0.5,2,4.6,2.1,7.7C636.6,392.2,636.5,397.9,636.4,403.7
			C636.5,403.7,636.5,403.7,636.4,403.7z"/>
		<path class="st1" d="M374.6,447.6c-2.5-0.1-5.1-0.1-7.6-0.2c-11.8-8.7-16.8-27.7-12.6-48.5c3.5-17.2,13.8-25.4,23.7-18.6
			c2.1,1.5,6,2.1,5,8c-1.4,7.7-3.9,0.5-6-0.4c-5.9-2.8-11.7-3.3-15.8,6.6c-4.5,10.8-4.6,23.3-1,34.9c3.1,10.1,8.4,13,14.3,10.7
			c2.8-1.1,5.6-1.8,5.8-10.2c0.2-9.2-2.5-8.6-5.5-9c-0.5-0.1-1.1-1.5-2.4-3.4c4.6-2.6,8.8-6.6,11.5,1.2c3,8.7-0.3,23.6-5.1,26.9
			C377.6,446.6,376.1,447,374.6,447.6z"/>
		<path class="st11" d="M677.7,445.6c-3.9,4-5.7-0.4-6.2-5.8c-1.3-14.1-6.8-10.7-11.5-11.3c-4.4-0.6-7.8,0.4-8.9,10.4
			c-0.5,4.4-1.6,10.8-4.9,7.7c-2.8-2.7,0-7.1,0.6-10.4c3.4-16.9,7-33.6,10.5-50.5c0.8-3.7,1.4-7.1,3.9-7.1c2.7,0,3.2,3.9,3.9,7.4
			C669.4,405.8,673.5,425.7,677.7,445.6z"/>
		<path class="st11" d="M514.5,446.2c-5.4,2.8-6-3.6-6.7-9c-1.3-10.9-5.7-8.7-9.5-8.5c-3.9,0.2-8.9-3.4-10.1,8.8
			c-0.2,2.3-0.9,4.5-1.4,6.6c-0.8,3.2-2.3,3.6-3.8,2.7c-2.6-1.5-0.7-4.9-0.3-6.6c3.7-18.2,7.6-36.2,11.4-54.4
			c0.8-3.7,1.3-7.1,3.9-7.3c2.7-0.1,3.2,3.8,3.9,7.2C506,405.7,510.2,425.7,514.5,446.2z"/>
		<path class="st1" d="M705.7,447.6c-2.5-0.1-5.1-0.1-7.6-0.2c-11.8-8.7-16.8-27.7-12.6-48.5c3.5-17.2,13.8-25.4,23.7-18.6
			c2.1,1.5,6,2.1,5,8c-1.4,7.7-3.9,0.5-6-0.4c-5.9-2.8-11.7-3.3-15.8,6.6c-4.5,10.8-4.6,23.3-1,34.9c3.1,10.1,8.4,13,14.3,10.7
			c2.8-1.1,5.6-1.8,5.8-10.2c0.2-9.2-2.5-8.6-5.5-9c-0.5-0.1-1.1-1.5-2.4-3.4c4.6-2.6,8.8-6.6,11.5,1.2c3,8.7-0.3,23.6-5.1,26.9
			C708.7,446.6,707.2,447,705.7,447.6z"/>
		<path class="st12" d="M876.5,413.7c0,9.1,0,18.1,0,27.2c0,3.6-0.1,6.7-2.7,6.2c-2.2-0.4-2-3.3-2-6.1c0-0.5,0-1,0-1.4
			c-1-25-1-24.6-14.5-24.3c-4.2,0.1-5.1,2.8-4.8,9.9c0.2,5.7,0,11.4,0.1,17.2c0,3.6-0.8,5-2.7,4.8c-1.6-0.2-2-2.1-2-4.7
			c0-19.6,0-39.1,0-58.7c0-3.3,0.7-5.3,2.7-5c1.7,0.3,1.9,2.5,2,4.9c0.1,2.9,0.3,5.8,0,8.6c-1.5,14.9,1.9,18.4,9.2,17.5
			c9.8-1.3,9.7-0.3,10.1-20.2c0.1-3.9-1.6-11.1,2.7-10.4c3.4,0.5,1.8,6.7,1.9,10.3C876.6,397.4,876.5,405.6,876.5,413.7z"/>
		<path class="st13" d="M70.4,413.1c0-1.9-0.1-3.8,0-5.7c0.5-9.3-2.4-23.5,1.2-26.8c5.1-4.7,12.1-1.6,18.3-1.8
			c1.7,0,2.8,1.6,2.6,5.2c-0.2,3.5-1.8,2.8-2.9,2.8c-2.5,0.2-5,0.3-7.5,0c-4.2-0.5-7.4-1-7.3,11.1c0.1,11.7,2.9,12.2,7.3,11.4
			c1.5-0.3,3-0.1,4.5,0c1,0.1,2.1,0.5,2.2,2.7c0.2,3.3-1.1,3.8-2.4,3.9c-1.5,0.1-3,0.3-4.5,0c-4.6-1-7.1,0.4-7.2,11.6
			c-0.1,11.8,2.9,11,7.2,11.6c3.5,0.5,9.6-5.6,9.9,4.4c0.2,6.6-6.2,3-9.5,3.2c-12.1,0.6-12.1,0.2-12.1-22.4
			C70.4,420.7,70.4,416.9,70.4,413.1z"/>
		<path class="st14" d="M104.9,412.1c0-5.2-0.4-10.6,0.1-15.7c0.6-5.9-2.4-15.7,2-17.1c6.4-1.9,13.7-3.6,19,7
			c3.1,6.3,3.5,14.5,1.4,22.6c-2.2,8.8-6.3,13-10.9,12c-6.6-1.4-7.5,4.6-6.9,14.6c0.1,2.3,0,4.8,0,7.1c0,2.8-0.7,4.2-2.2,4.4
			c-2,0.2-2.6-1.6-2.6-5C104.9,432.1,104.9,422.1,104.9,412.1z"/>
		<path class="st13" d="M728.1,412.7c0-1.4,0-2.9,0-4.3c0-32.1,1.8-34.9,19-29.8c1.5,0.5,3.1,0.4,3.2,4.2c0.1,4.4-1.7,3.8-3.1,3.9
			c-2.2,0.2-4.5-0.2-6.7,0.1c-3.5,0.4-7.8-3.5-7.9,9.9c0,12,2.5,13.7,7.5,12.5c1.2-0.3,2.5-0.1,3.7,0c1.2,0.1,2.7-0.1,2.8,3.1
			c0.1,3.4-1.4,3.4-2.6,3.5c-1.5,0.2-3,0.4-4.5,0c-4.9-1.3-6.9,1.3-7,12c-0.1,10.8,2.5,10.6,6.7,11.3c3.6,0.6,10-5.8,10.3,4.8
			c0.2,5.9-6.7,2.7-10.4,2.8c-11.2,0.5-11.2,0.2-11.2-21.4C728.1,421.3,728.1,417,728.1,412.7z"/>
		<path class="st9" d="M321.9,413c0-1.4,0-2.9,0-4.3c0-34,0-34,18.3-30.1c1.8,0.4,3.7,0.1,3.6,4.9c-0.1,4.3-2.1,3.1-3.4,3.2
			c-2.2,0.2-4.5,0.3-6.7,0c-4.3-0.6-7.3-0.8-7.2,11.2c0.1,11.7,2.8,12.2,7.2,11.4c1.5-0.3,3,0,4.5,0c1,0,2,0.5,2.1,2.9
			c0.1,3.3-1.1,3.7-2.4,3.8c-1.2,0-2.5,0.2-3.7,0c-4.5-0.6-7.8-0.9-7.7,12c0.1,12.1,3.2,10.7,7.3,11.2c3.4,0.4,9.5-4.3,9.5,3.7
			c0.1,8.5-6,3.7-9.2,3.9c-12.2,0.7-12.2,0.3-12.2-22.4C321.9,420.7,321.9,416.8,321.9,413z"/>
		<path class="st15" d="M186,412.8c0-1,0-1.9,0-2.9c0-34.4,1.1-36.1,19-31.4c1.5,0.4,3.1-0.1,3.3,4c0.3,5.7-2,4.3-3.5,4.4
			c-2.5,0.2-5,0.5-7.5-0.1c-4.7-1.1-6.3,1.8-6.3,11.4c0,9.4,1.4,13,6.2,11.5c0.7-0.2,1.5-0.4,2.2,0c2,1.3,5.9-3.6,5.9,3.9
			c0.1,7.4-3.9,4.8-5.8,4.2c-7.8-2.5-9.2,4.8-8.5,17.5c0.2,4,2.1,12-2.7,11.6c-4.1-0.3-2-7.3-2.2-11.2
			C185.7,428.1,186,420.4,186,412.8z"/>
		<path class="st16" d="M43.6,417.1c0-4.8-0.2-9.6,0-14.3c0.6-10.8,0-19-7.5-16c-1.4,0.6-3.9,1.7-3.9-3.7c0-4.7,2-4.5,3.8-4.5
			c6.7,0,13.4,0,20.2,0c1.7,0,3.8-0.9,4,4.1c0.2,5.7-2.2,4.7-3.6,4.2c-7-2.6-8.3,3.9-7.8,15.6c0.5,12.3,0.1,24.8,0.1,37.2
			c0,3.9,0.1,7.9-2.9,7.6c-2.7-0.3-2.2-4.1-2.3-7.2C43.6,432.3,43.6,424.7,43.6,417.1z"/>
		<path class="st17" d="M454.6,411.7c0-9,0-18.1,0-27.1c0-3,0.3-5.6,2.3-6c2.5-0.4,2.9,2.5,2.9,6.3c0,13.8,0.3,27.6-0.1,41.3
			c-0.3,9.5,0.7,13.7,6.3,13c2.9-0.4,8.5-4.3,8.5,4c0,7.8-5.6,3.7-8.5,3.8c-11.4,0.6-11.4,0.2-11.4-21.1
			C454.6,421.2,454.6,416.4,454.6,411.7z"/>
		<path class="st17" d="M985.8,438.5c2.4,4.5,5.5,1.7,8.2,2.5c2.2,0.6,5.2-1.7,5.2,5.8c-19.3,1.7-19.3,1.7-19.3-34.5
			c0-8.1-0.1-16.2,0-24.3c0.1-3.8-1-9.7,2.7-9.3c3.5,0.4,2.4,6.1,2.5,9.9C985.6,405.3,984.5,421.9,985.8,438.5z"/>
		<path class="st18" d="M307,412.9c0,9.5,0,19,0,28.5c0,2.9-0.1,5.7-2.2,6c-2.2,0.2-3.2-1.4-3.2-5.7c0-19,0-37.9,0-56.9
			c0-3.8,0.6-6.5,3-6.2c2.6,0.3,2.3,4.1,2.3,7.3C307.1,394.8,307,403.8,307,412.9z"/>
		<path class="st0" d="M498.9,337.8c-134.6,0-269.2,0-403.8,0c-9.6,0-9.6,0-9.6-19.2c0-89.5,0.1-179-0.1-268.4
			c0-10.1,0.8-13.7,6.8-13.7c271.2,0.3,542.3,0.3,813.5,0c5.9,0,6.8,3.6,6.8,13.7c-0.2,91.4-0.3,182.8,0.1,274.2
			c0,12-2.1,13.6-7.6,13.6C769.6,337.8,634.2,337.8,498.9,337.8z"/>
		<path class="st19" d="M269.5,400.1c0-7.6-1.2-15.1,4.7-13.9c4.3,0.9,8.4,1.8,8.5,11.6c0.1,10.8-4,13.7-9,14.5
			C267.3,413.2,270.3,404,269.5,400.1z"/>
		<path class="st20" d="M247.2,413.2c0,16.4-5.2,27-13,26.7c-7.5-0.3-12.3-10.4-12.5-26.3c-0.1-16.7,4.7-27.1,12.6-27.2
			C242.3,386.3,247.2,396.5,247.2,413.2z"/>
		<path class="st20" d="M963.3,412.4c0.2,16.5-4.8,27.3-12.6,27.5c-7.6,0.2-12.6-9.8-12.9-25.5c-0.3-16.7,4.4-27.5,12.2-28
			C958.1,385.9,963.2,395.8,963.3,412.4z"/>
		<path class="st20" d="M918.4,412.7c0.1,16.5-4.9,27.2-12.7,27.2c-7.5,0-12.5-10.1-12.7-25.8c-0.2-16.7,4.5-27.3,12.4-27.7
			C913.3,386,918.3,396.1,918.4,412.7z"/>
		<path class="st21" d="M667.6,421.5c-4.9,0-8.4,0-12.6,0c1-5.7,1.8-10.7,2.8-15.7c0.9-4.8,2-9.5,3.5-16.4
			C663.6,401,665.5,410.6,667.6,421.5z"/>
		<path class="st21" d="M491.4,421.2c2.2-10.7,4.2-20.6,6.5-32c2.2,11.1,4,20.3,6.2,31C499.9,423,495.9,421.5,491.4,421.2z"/>
		<path class="st22" d="M109.7,400.1c-0.2-7.9-1-14.7,4.8-13.9c5.1,0.7,9.2,2.8,8.9,14.3c-0.2,11.2-4.4,13.4-9.4,13.7
			C107.1,414.6,110.6,404.5,109.7,400.1z"/>
		<path class="st23" d="M449.7,182.3c0-37.8,0.2-75.6-0.1-113.3c-0.1-9.6,0.9-13.1,6.4-13c30.4,0.5,60.9,0.6,91.3,0
			c5.8-0.1,7.2,3.3,6.9,13.7c-0.3,8.9,0.6,16.1-6.6,15.7c-22.4-1.1-44.9,0.1-67.4-0.7c-6.2-0.2-7.4,3.7-7.1,14.3
			c0.4,19.6,0.4,39.2,0,58.8c-0.2,8.7,1,11.3,5.7,11.1c18-0.6,35.9,0.4,53.9-0.6c6.1-0.3,5.7,5.5,5.4,13c-0.2,7,1.7,15.3-5.3,15
			c-18-0.8-35.9,0-53.9-0.5c-4.6-0.1-6,2.2-5.8,11.1c0.3,21,0.4,42.1,0,63.1c-0.2,10.3,1.9,11.4,6.4,11.3
			c22.7-0.4,45.4,0.5,68.1-0.5c7.3-0.3,6.3,6.9,6.6,15.7c0.4,10.5-1.1,13.8-6.9,13.7c-30.2-0.6-60.4-0.7-90.6,0
			c-6.3,0.1-7.3-3.9-7.2-14.5C449.9,257.8,449.7,220.1,449.7,182.3z"/>
		<path class="st23" d="M612,182.9c0-38.7,0-77.4,0-116.2c0-5-0.9-10.9,3.7-10.6c23.2,1.4,46.4-3.1,69.5,3.8
			c7.1,2.2,14,6.4,20.4,13.3c24.5,26.4,26.2,89.4,2.9,119.9c-12.1,15.9-25.9,21.4-40.4,21.9c-9.2,0.3-18.5,0.5-27.7-0.1
			c-4.4-0.3-5.4,2.6-5.3,10.5c0.2,24.4-0.1,48.8,0.2,73.1c0.1,8-0.4,11.6-5.5,11.6c-17.8,0-17.8,0.5-17.8-34
			C612,245,612,214,612,182.9z"/>
		<path class="st23" d="M815.2,312.7c-16.7,1-32.1-6.9-46.1-24.3c-2-2.5-7.8-3.8-4.5-12.3c3.1-8,5.3-21.4,13-16.1
			c3,2.1,5.7,5.7,8.5,8.7c13.9,14.8,28.6,18.8,44.1,12c4.2-1.8,8-5.1,11.5-10c13-18.6,11.8-48.3-2.7-62.3c-9-8.7-19-11.4-28.5-16.4
			c-7.7-4-15.4-7.6-22.5-14.8c-21.2-21.4-24-70.2-5.4-99.5c14.5-22.8,31.8-25.7,49.6-22.8c10.8,1.8,21.2,6.6,30.4,17.8
			c2,2.5,7.8,2.6,4.7,12c-2.7,8.2-4.4,21-11.9,16.6c-2.1-1.2-4-3.7-6-5.6c-13.5-12.7-27.5-16-42-7.6c-4.4,2.5-8.2,6.8-11.3,13.5
			c-6.4,14.1-5.3,32.8,2.7,43.5c9,12.1,19.8,15.2,30,20.7c7.9,4.2,15.9,8,23.4,14.6c23.9,20.9,27.5,74.9,7.2,107.1
			C846.4,307.7,831.3,313.5,815.2,312.7z"/>
		<path class="st23" d="M126.1,279.4c1.1-2.7,2-5,2.9-7.2c6.9-17.1,7.8-17.6,17.8-6.1c14.4,16.4,29.6,21.7,46,14.7
			c4.2-1.8,8.1-4.9,11.6-9.6c13-17.4,12.2-48.4-1.8-62.4c-9.2-9.2-19.4-11.8-29.2-17c-7.9-4.2-16-7.8-23.2-15.6
			c-20.6-22.1-22.8-70.3-4.5-98.9c14.3-22.2,31.3-25.4,48.9-22.7c10.7,1.7,21.2,6.4,30.5,17.3c2.3,2.7,7.7,2.9,5,13.4
			c-3.8,15.2-7.8,20-13.6,14.2c-8.9-9-18.2-15.5-28.3-16.1c-8.8-0.5-17.5,1.4-25.1,11c-11.5,14.6-11.2,39.8,0.6,53.3
			c8.5,9.6,18.1,12.8,27.5,17.8c7.9,4.2,15.9,8,23.4,14.4c24.3,20.8,28.1,73.2,7.9,106.9c-8,13.3-17.4,20-27.5,23.8
			C170.8,319.8,142.7,307.4,126.1,279.4z"/>
		<path class="st23" d="M336.3,56.2c20,0,40,0.6,59.9-0.3c6.9-0.3,6.1,6.7,6.1,15c0,8.2,0.9,15.5-6.1,14.9c-14-1.2-28,0.1-41.9-0.6
			c-5.3-0.3-6.6,2.6-6.6,12.6c0.2,66.5,0,133,0.2,199.5c0,9.7-1,12.9-6.4,12.8c-16.7-0.5-16.7,0-16.7-31.7
			c0-59.8-0.2-119.6,0.2-179.4c0.1-11.7-1.8-14.2-7.5-13.9c-14,0.8-28-0.4-41.9,0.6c-6.5,0.5-5.9-6.2-5.7-14.1
			c0.2-7.4-1.7-16,5.7-15.7C295.8,56.8,316,56.2,336.3,56.2z"/>
		<path class="st0" d="M635.3,134.9c0-14.3,0-28.6,0-42.9c0-4.6,0-8.3,3.4-8.1c13.9,0.7,27.9-2.1,41.6,4.3
			c13.1,6.1,20.6,21.9,21.2,43.5c0.6,23.7-6,41.4-19.1,50c-14.5,9.5-29.6,4.4-44.4,5.5c-3.2,0.2-2.6-4.5-2.6-8
			C635.2,164.5,635.3,149.7,635.3,134.9z"/>
	</g>
</g>
</svg>
