<svg xmlns="http://www.w3.org/2000/svg" viewBox="0 0 463.72 325.48"><defs><style>.cls-1{isolation:isolate}.cls-2{fill:none}.cls-3{fill:#002856}.cls-4{fill:#a6b1c1}.cls-5{fill:#fff}.cls-6{fill:#ddc4aa}.cls-7{fill:#d0ae89}.cls-8{fill:#16325b}.cls-11,.cls-9{fill:#c7ced8}.cls-9{fill-rule:evenodd}.cls-10{fill:#6b7e9d}.cls-12,.cls-13{fill:#d6dae3;mix-blend-mode:multiply}.cls-13{fill:#bec5d4}.cls-14{fill:#c49a6c}</style></defs><title>research</title><g class="cls-1"><g id="Content"><path class="cls-2" d="M44.54 17.65h187.84v220.53H44.54zM232.39 17.65h187.85v220.53H232.39z"/><path class="cls-3" d="M171.5 282.48a6.7 6.7 0 1 1 0-13.39h60.89v-7.65H1.06v.18c0 15.75 8.07 28.52 18 28.52h213.33v-7.66z"/><path class="cls-4" d="M232.39 261.44v7.65h60.9a6.7 6.7 0 0 1 0 13.39h-60.9v7.66h213.33c9.94 0 18-12.77 18-28.52v-.18z"/><path class="cls-5" d="M164.8 275.79a6.69 6.69 0 0 0 6.7 6.69h60.89v-13.39H171.5a6.69 6.69 0 0 0-6.7 6.7zM293.29 282.48a6.7 6.7 0 0 0 0-13.39h-60.9v13.39z"/><path class="cls-4" d="M440.41 229.28V26.55c0-14.67-10.75-26.55-24-26.55h-184v17.65h187.83v220.53H232.39v17.65h184c13.27 0 24.02-11.89 24.02-26.55z"/><path class="cls-3" d="M44.54 238.18V17.65h187.85V0h-184c-13.25 0-24 11.88-24 26.55v202.73c0 14.66 10.74 26.55 24 26.55h184v-17.65z"/><path class="cls-6" d="M44.48 17.65h316.25v14.66H44.48z"/><path class="cls-7" d="M420.17 17.65h-59.44v14.66h59.44V17.65z"/><path class="cls-5" d="M410.59 32.31H44.48v205.87h375.69V32.31h-9.58z"/><path class="cls-8" d="M418.32 34.17v202.16h-372V34.17h372m1.85-1.86H44.48v205.87h375.69V32.31z"/><path class="cls-5" d="M239 8.77a6.7 6.7 0 1 1-6.7-6.69 6.69 6.69 0 0 1 6.7 6.69z"/><path class="cls-9" d="M114.16 111c-.1.24-.37.53-.18.83s-.29.88-.42 1a.63.63 0 0 0-.22.59c.06.3-.42.48-.55.59a8.82 8.82 0 0 1-.58.88.61.61 0 0 0 .12.89c.35.18.59.83.11 1a.64.64 0 0 0-.35.93 9 9 0 0 0 .7 1.18 10.72 10.72 0 0 1 .84 1.89 6.18 6.18 0 0 1 .75 2.18c-.06.53.61 1.06.77 1.18s.95.82 1.24 1a1.53 1.53 0 0 1 1 1.77c-.14 1.35-.25 4-.25 4.47a1.74 1.74 0 0 1-.37 1.12 2.74 2.74 0 0 0-.1 1.17 9 9 0 0 1-.35 3.31 8 8 0 0 0-.36 2.83 9.48 9.48 0 0 1-.35 1.11A2 2 0 0 0 116 142c.26.36.06 1 0 1.47a1.26 1.26 0 0 0 0 .82 1 1 0 0 1-.37.77 3.79 3.79 0 0 0-.14 1.83c.09.77.4 2.09.4 2.2s0 1.31.36 1.47.16.66 1.37.61a1.16 1.16 0 0 1 1 .16c.21.2.73 0 1.12-.11s.28-.35-.25-.45a1.67 1.67 0 0 1-1.12-.77c-.19-.35-.14-.76-.29-1s-.67-.76 0-1.27a4.12 4.12 0 0 0 1.37-1.93c0-.37-.1-.47-.35-.47s-.77-1 .25-1.37.73-1.79.52-2.09a.77.77 0 0 1-.06-1c.27-.31.71.55 1.23 0s0-1.22.19-1.42 1.5.91 2.41-.77c.5-1-.37-1.63-.52-1.93s-.81-.92-.6-1.06.86.5 1.22.75 1 .61 1.36-.05.73-.7.73-1.22.25-.77.39-.72.47-.35.72-1.06 1-1.17.72-1.78a1.05 1.05 0 0 1 .5-1.53c.71-.3.46-.71.71-.77s.52.06.72-.3.72-.21.82-.21.82-.15.87-.76a3 3 0 0 1 .66-1.63 4.61 4.61 0 0 0 .35-2.24c0-.66-.26-1.22.31-1.79a3.78 3.78 0 0 0 1-1.36c.3-.62.71-.41.77-1.74s-.3-1.89-.71-1.63-.71 0-1-.51-.61-.92-.87-.92-.85.52-1.07 0a.39.39 0 0 0-.67-.14c-.1.09-.35.2-.35-.47s-.55-.61-.77-.61a2 2 0 0 1-1-.41.79.79 0 0 0-1.07.06c-.4.35-.65.14-.34-.2s.91-.92.64-1.23-.54-.16-.54-.92-.68-1.38-1.89-1.48-1.64-.4-1.84-.71-.14-.76-.86-1-.72-1.13-1.32-1.13-1.53.36-1.59-.05-.56.16-.91-.31-1.07-.35-1.12.06 0 1.16-.37 1.07-.35-.36-.2-.92.35-1 0-1-.34.71-.72.71-.85 0-1 .61-1.17.62-1 1.43.57.86.36 1.42zM146.34 93.66c-.3.39-.54 1.15-.26 1.29s.26.61-.14 1.07-.61.75-.87.68-.47-.21-.95.94a26.29 26.29 0 0 1-1.55 3.22c-.2.21-.14.82.14.89s.26.53.26.94.42 1.28-.06 1.81-1 1-.67 1.14a2.12 2.12 0 0 1 .6 1.35c0 .34.55.82.88 1.07s.88.82.68 1.09 0 .67.32.94 1.48 1 1.62 1.35.34.53 1.07.46 1.9-.33 2.36-.33a1.87 1.87 0 0 0 1.15-.34c.26-.2.54-.68 1.21-.61s1.08.27 1.16.68.05.6 1 .54 1 .2 1.2.47 0 1.21 0 1.68-.74.88-.34 1.41 1.15 1.42 1.15 1.76.68.53.68 1.07.53 1.28.39 1.83a1.17 1.17 0 0 0 .22 1.13c.19.2 0 .74-.34 1.15a4 4 0 0 0-.67 2c-.07.8-.2 1.54.27 1.88a1.57 1.57 0 0 1 .52 1.15c0 .14.75.6.61 1.54a4.06 4.06 0 0 0 .41 2.83 3.49 3.49 0 0 1 .81 1.82c0 .4 0 .6.26.74a.46.46 0 0 1 .13.75c-.26.18-.07.52.14.86s.42 1.22 1.08.81a4.2 4.2 0 0 1 1.95-.53 2.1 2.1 0 0 0 2.15-1.28c.81-1.42 1.89-3.17 2-3.37s.34-.54-.13-.61-.12-.74.21-.81.94.07 1.27-.39-.06-1.36-.13-1.76-.61-.87-.61-1.14.34-.34.81-.61a2.15 2.15 0 0 0 1-.95c.14-.32 1.22-.2 1.28-1.34a8.59 8.59 0 0 0-.39-3.57 2.81 2.81 0 0 1-.41-1.81 5.79 5.79 0 0 1 .47-2.29c.41-.54 1.16-1.34 1.74-2.09a17.48 17.48 0 0 0 2-2.29 17.78 17.78 0 0 0 .74-2c.21-.48.95-1.35 1-2s.14-1-.53-.73-1.55.27-2 .47-1.14.73-1.42-.34a2.76 2.76 0 0 0-.93-1.76 3.16 3.16 0 0 1-1.08-1.6 1.48 1.48 0 0 0-.66-1.08c-.22-.13-.34-1.15-.34-1.55a.93.93 0 0 0-.48-.94c-.34-.13-.28-.61-.4-1.08a3.88 3.88 0 0 0-.55-1.54c-.34-.34-1.06-1.42-.87-1.69s.6.47.82.68.34-.14.39-.89-.27-1.41-.87-1.41-1.15-.13-1.48.14-.48.34-1.28.13-2-1.08-2.41-1.14-1.1.06-1 .54a1.33 1.33 0 0 1-.47 1.35c-.34.14-.34-.61-.81-.68s-.86-1.21-1.75-1.28-1.88.07-2-.46.06-.68.25-.68.34-.61.21-.74.34-1-.21-1a21.7 21.7 0 0 1-2.68.32c-.89-.07-2.1-.26-2.77.61s-1.54.47-1.89.47a1.35 1.35 0 0 0-1.26.75c-.29.71-.67.57-.95.91zM205.93 127.68c-.29.21-1.09.49-1 .87a1.38 1.38 0 0 1-.1.84 4 4 0 0 1 .21.58 4.24 4.24 0 0 0 0 1.61 12.48 12.48 0 0 1 .86 3.3c0 1.07 0 1.26.34 1.45a.93.93 0 0 0 1.13-.09 1.73 1.73 0 0 1 1.17-.49c.38 0 1.06.24 1.34-.19a3.13 3.13 0 0 1 1.52-.88c.29 0 1.11-.2 1.45-.29s1.09-.14 1.18 0 .59 0 .81.43.22.49.5 1 .4.34.59.15.43-.3.47-.39.25-.34.34.15a4.62 4.62 0 0 1 .25 1c0 .34.43.2.58.58s.05 1 .58 1.36 1.07.48 1.22.63.34.05.58-.28.21-.44.6 0 .34.68.68.33.18-.68.82-.72.45 0 .64-.25-.15-.43 0-.68.2-.73.34-1.07a5.38 5.38 0 0 1 .58-1.4c.29-.3.53-.4.59-.93a5.75 5.75 0 0 1 .19-1.65c.19-.45-.15-.54-.25-.83s.15-1.12-.19-1.5-.43-.74-.58-.83 0-.89-.38-1-.34-.48-.53-.82-.2-.63-.49-.83-.97-.17-.97-.84a3.19 3.19 0 0 0-.2-1.31c-.09-.2-.09-.92-.34-1.22s-.63.39-.68-.39a2.65 2.65 0 0 0-.38-1.31c-.14-.24-.3-.73-.44-.14a7 7 0 0 0-.2 1.93 2.42 2.42 0 0 1-.19 1c-.1.28-.15.87-.4.87s-1-.78-1.36-1-1.19-.59-1.06-.93.4-.59.49-.87.19-.68-.24-.63a2.68 2.68 0 0 1-.93-.15c-.24-.05-.62-.1-.62.15s-.44.09-.69.09a.67.67 0 0 0-.68.59c-.16.48-.54.68-.25.86s.16.4-.14.21-.67-.1-.79-.39-.29-.59-.58-.3-.68.82-.92 1.12-.49.49-.49.59-.15.28-.28.09-.45-.14-.49.49-.1.93-.49 1.07-.77 0-1.11.39a1.16 1.16 0 0 1-.82.39 1.66 1.66 0 0 0-.79.48z"/><path class="cls-9" d="M119.5 74.1c-.2.34-.36 1-1 .73s-.85-.55-.81-1 .36-1.18-.23-1.09-.81-.36-1.4-.74a5.09 5.09 0 0 0-1.92-.5c-.23 0-.2.14-.37.59s-.6.92-.22 1.24a.68.68 0 0 1 0 1c-.33.27-.29.36.13.9s.74 1.29.09 1.92-1 .68-.69 1.23a2.67 2.67 0 0 1 .51 1.27c.05.32-.23.56-.68.83s-.77-.36-1-.74-.09-1.09-.33-1.36a2.8 2.8 0 0 0-.86-.78 25.13 25.13 0 0 1-2.1-1.44c-.26-.29-1-.34-1.4-.38s-.6-.18-.6-.68-.13-.5-.51-.5-.35-.55-.35-1a1.9 1.9 0 0 1 .5-1.46 1.62 1.62 0 0 0 .54-1.27c-.09-.23.09-.36.45-.32a2.16 2.16 0 0 0 1.43-.41c.58-.36.72-1.54.86-1.77s.27-.69.68-.38a1.06 1.06 0 0 0 1.4-.09 1.11 1.11 0 0 0 .15-1.08.48.48 0 0 1 .26-.55.35.35 0 0 0-.21-.64 3.41 3.41 0 0 1-1.06-.22c-.35-.14-.63.27-.44.45s-.34.46-.51.73-.09 1-.55.86-.49-.95-.44-1.36a.66.66 0 0 0-.73-.73c-.47 0-.79.23-.92-.09s.45-.54.08-.81-1.41-1.29-1.76-1.11-1 1.33-.38 1.6 1.6.86.82 1.46-.16 1-.74 1.27-.16-.57-1.47-.57a4.47 4.47 0 0 1-2.29-.41 3.81 3.81 0 0 0-1.87-.16c-.4.07-.49.5-.24.89S99 68 99 68a4.47 4.47 0 0 0-1.62-.74c-.58 0-1.48-.08-1.64-.4a1.86 1.86 0 0 0-1.48-.9 15.42 15.42 0 0 0-2.53-.57c-1.06 0-2.27-.41-2.85-.34a10.56 10.56 0 0 0-1.55.66c-.33.08-.74-.41-1 .16s-.58.81-.92.33-2.52-1.06-4-1.15a11.62 11.62 0 0 1-3.91-.65 5.34 5.34 0 0 0-3.34.17 3.88 3.88 0 0 0-1.51 1 1.24 1.24 0 0 1-1 .52c-.33 0-1 .57-.17.88a3.71 3.71 0 0 1 1.54.86c.37.37.89 1 .07.77s-1.14-.5-1.7-.4a.85.85 0 0 0-.52 1.23 1.4 1.4 0 0 0 1.22.61c.53 0 1.54-.51 1.54-.1s-.1 1.08-.54 1.24a8.2 8.2 0 0 0-1.81.77c-.61.36.11.92.61 1.23s1.5.56 1.4 1.13.15.77.92.51 2.16-.83 1.08.51a7.64 7.64 0 0 1-2.63 2.26c-.5.21-1.06.51-.81.67s.31.1 1.12-.26a8 8 0 0 0 2.68-1.59c.72-.77 1.95-1.23 1.74-1.69s.48-1.29.68-1.39.4-.11.15.41-.31.82-.15.82.25-.15.87-.45.82-.47.82-.68.15-.51.67-.35 1 .77 1.9.91 1.79 0 2.36.36.67.68 1.28.57 1 .51 1.43 1.18 1.3 3 2 3.86.39.82.5 1.34a4.94 4.94 0 0 0 .56 1.38 13.42 13.42 0 0 1 .87 4.32 7.86 7.86 0 0 0 1 4c.67 1.08 1.1 1.91 1.7 2s.84.36 1.09 1.18a21.86 21.86 0 0 0 1.32 3.52c.35.51 1.46 2.77 1.82 2.52s0-.7-.36-1.21-.79-1.77-1.31-2.52-.94-1.71-.6-1.92 1 1.31 1.35 1.92 1.53 2.22 2.13 3.13 1 1.26.82 2 .89 1.46 1.91 2.07a23.29 23.29 0 0 0 2.36 1.1.58.58 0 0 0 .86-.19c.25-.41.71.09 1 .5a3 3 0 0 0 1.82 1.1 1.26 1.26 0 0 1 1.21.91c.21.55.34 1.37.79 1.57s.87.65 1.37.85.46.3 1-.15a.83.83 0 0 1 1.16 0c.09.15.41-.14 0-.5s-.7-.36-1.37-.2-.58.4-1.14-.3-.61-.52-.51-1.36.8-2.38.15-2.38-1.72 0-2.07.1-.65-.1-.44-.6.58-.51.58-1.31.52-1.77-.35-1.56-1 .66-1.15 1.21-.47.45-.86.49-1.21.41-1.71-.45a3.49 3.49 0 0 1-.76-2.32 15 15 0 0 0 .09-2.12c.06-.7.22-1.31.58-1.51a4.19 4.19 0 0 1 2.47-.6c.65.25.9.45.74-.15s.31-.55.91-.51 1.72-.2 2 .41.09 1.36.39 1.91.72 1.11 1 1.06.52-.81.27-1.47a7 7 0 0 1-.59-2.42 1.88 1.88 0 0 1 1.12-1.36c.65-.3 1.81-1.07 1.69-2s.07-2.12.76-2.3 1.83-1 1.78-1.93.44-1.52 1-1.52a.92.92 0 0 0 .85-.29c.42-.31.51 0 .26.5s-.06.65.2.71.36-.46.86-.82a11.17 11.17 0 0 1 1.47-.74c.3-.16 0-1-.76-.92s-1.09 0-1.14-.19.41-.51.41-1.07-.67-1-.91-.86a6 6 0 0 0-1.41 1.31c-.26.41-.52.36-.67.25s0-.7.67-1.15 1-1.11 1.55-1.21a11.86 11.86 0 0 1 1.93.1c.45 0 .91.11 1.11-.3s.39-.76.7-.66 0 .61-.21 1.31-.58 1.11-.58 1.57.48.3 1 .2a1.63 1.63 0 0 1 1.41.55c.24.36.65 0 .8-.3s.27-.91-.15-1-.71-.91-1.32-1-.54-.3-.2-.57.87-.45.35-1.3-.2-.76-.54-1.27-.3-1.21-1.16-1-.81-.34-1.06-.59a.8.8 0 0 1-.1-1.07c.29-.31.1-.31-.3-.65a2.14 2.14 0 0 1-.76-1.47c-.1-.4-.43-.95-1.15.34z"/><path class="cls-9" d="M98.58 66.1a2 2 0 0 1 1.77-.35c.81.29 1.15.5 1.51.25s1.06-.91.36-1.32-1.28-.65-1.37-1.2a2 2 0 0 0-.85-1.32c-.36-.15-.76.31-.56.61s-.2.35-.55 0a4.31 4.31 0 0 0-1.53-.77c-.44-.14-1 .11-1.61-.2s-.9-1-1.36-.86a1.43 1.43 0 0 1-1.25-.35 1.14 1.14 0 0 0-1.17.21c-.2.14.37.4-.11.86s-1.3 1-.59 1.56.7 1 1.66.55 1.06-1.11 1.32-1.11-.07.95.31 1.42.64 1.75 1.84 1.61c.41-.16.58.3.73.45s.28.51 1.45-.04zM103.64 66.2a2.32 2.32 0 0 1 1 .15c.21.1.3 0 .59-.31s.15-.5-.34-.64a2.08 2.08 0 0 0-1.47-.06.45.45 0 0 0 .22.86zM102.15 62.87a2.62 2.62 0 0 1 1 .65c.26.36.62.41 1.12 0s.57-.65.25-1.05.36-1.07-.35-1.11-1.17-.31-1.92.35-.54.91-.1 1.16zM109.58 70.34c.18-.31.29-1.52.81-1.32a13.57 13.57 0 0 1 1.7.86c.52.31.92.6.41 1s-1-.15-1.11-.46-.45 0-.6.36-.46.61-.92.25-.44-.44-.29-.69zM114.88 69.78c.21-.16.64-.15 1.06.31a6.9 6.9 0 0 0 1.8 1.36 13.33 13.33 0 0 1 1.31.55c.15.15.87.15.47-.25s-1.27-.86-1.16-1.11 1.11.4 1.41.66.5-.1.65-.37-.11-1-.65-1.3-1.47-1.26-1.23-1.62.66-.2 1.11.45.82 1.57 1.33.77 1.26-1.56.54-1.63-.94-.7-1.6-.8-1 0-1.26-.4-.25-.75.1-.91.24-.81-.51-1.15a12 12 0 0 1-2.25-1.07 2.59 2.59 0 0 0-1.58-.8 5.22 5.22 0 0 0-1.5.4c-.61.15-.77 0-.61-.65s-.06-1.07-.66-1.07-1.1 1-1.1 1.17 0 .7-.25.66-.21-.61 0-1.17.06-.66-.56-.51-1.45.37-1.59 1-.07 1.91.58 2 .88.26 1 .4a13.3 13.3 0 0 0 2 .25c.75.16 1.38.27 1.38 0s.44-.35.58.1a1.32 1.32 0 0 0 1.07 1c.61.1 1 .31.85.86s.2.91-.39 1.21.81 1-.21.86-1.07-.35-1.36-.05-.06.61.16.91.5.35 1.07-.06zM105.38 61.87a1.83 1.83 0 0 0 .06.8.47.47 0 0 0 .71.25c.35-.21 1-.91 1.26-1.05s.61-.82 0-.86a4.71 4.71 0 0 0-1.25-.06c-.58.05-.78-.05-.78.92zM127.13 71.45c.45.59 1 1.51 1.4 1.51s.92-.16 1.06.25.47 1.11.81 0 .62-1.36.55-1.87 0-.7.32-1 .59-.5.59-.85.52-.55.71-.66.87-.68 1.11-.57.35-.06.92-.51 1.06-.86 1.06-1.26.3-.51.49-.31a1.43 1.43 0 0 0 1.53 0c.6-.34 1.75-1.15 2-1.25s1.06-.66.86-1.42-.64-.45-.34-1.11.29-.86.69-.81.45-.46.67-.7.09-1 0-1.46-.56-.56-.06-1.47.5-1 .5-1.56a1.69 1.69 0 0 1 .71-1.26 5.94 5.94 0 0 1 1.57-1.14c.75-.35 1.05-.3.61-1s-.67-.27-1.42-.16a19.66 19.66 0 0 0-2.51.65 13.27 13.27 0 0 0-1.68.8c-.36.21-.61-.09-.14-.45s1.35-.55 1.5-.9 1.16-.91.15-1.05a16.43 16.43 0 0 0-2.37-.41c-.74 0-1.25.1-1.72-.2a1.8 1.8 0 0 0-1.56-.36c-.69.15-1.55.05-1.8.15s-.56-.4-1.11-.2-.81.55-.72.71-.29 0-1-.06a11.76 11.76 0 0 0-1.51.1c-.35 0-.14.61-.91.56l-1.66-.1a5.57 5.57 0 0 0-1.4.26 10.58 10.58 0 0 1-2.17.29c-.61.06-1.47.26-1.23.76s0 .66-1 .66a2.77 2.77 0 0 0-1.86.61c0 .15.1.4.71.29s.85.27.3.72a3.4 3.4 0 0 1-1.93.55c-.59 0-2 .31-1.4.81s1.21.5 1.21.61-.4.14.1.54a3.18 3.18 0 0 1 .91 1.07c.1.24.49.2.94-.16s2.29-.09 3 .36a4.43 4.43 0 0 1 1.95 2.55c0 .9-.15 1.66.29 1.66s1.21-1 1.83 0 .9 2.11 0 2.51-1.41.66-1.27 1.57a10.87 10.87 0 0 0 1.72 3.71zM160.53 77.39c-.22.4-.48.58-.72.46s-.29-.06-.78.08-.85.29-1.06.35-.42-.1-.62-.17a.45.45 0 0 0-.63.11c-.29.27-.29.21-.46.06a1.14 1.14 0 0 1-.58-.61c-.16-.43.24-1.11.24-1.42s.12-.8.14-1-.2-.15-.44.1-1 .36-.85 1.08.41 1.07.41 1.52 0 .86-.21.81a4.08 4.08 0 0 0-1.35.33.88.88 0 0 0-.59.71c-.13.48-.17.37-.47.44s-1 .25-1 .65-.22.28-.55.61-.34.25-.58.21-.36.14-.29.43-.05.14-.41.19-.73.1-1 .1-.21.5.18.61a1.23 1.23 0 0 1 .81.76c.11.31.21.28.38.43a1.24 1.24 0 0 1 .41 1c-.07.45-.19.59-.21.91s-.2.32-.76.22-1-.18-1.35-.25a1.52 1.52 0 0 0-1 0c-.34.15-.41 0-.69.18s-.1.5 0 .75.05.72.1 1-.13.83-.23 1.16.18.67.1 1 .08.58.35.58.9-.06 1 .25.37.33.63.18 1 .25 1.2-.18.72-.61.84-1 .6-.43.38-.76 0-.54.18-.76a4.61 4.61 0 0 1 .85-.78c.3-.18.44-.22.47-.72s.05-.47.39-.65.53-.18.73 0a.56.56 0 0 0 .66 0c.16-.11.36-.29.47-.29s.23-.14.31-.32.27-.22.48-.07a1.93 1.93 0 0 1 .53.93 3.5 3.5 0 0 0 .82 1.15c.17.14.51.11.78.36a8.61 8.61 0 0 1 .86 1 1.23 1.23 0 0 1 0 .75c-.1.29-.16.64.14.36s.24-.47.3-.53.31-.41.08-.55a.4.4 0 0 1-.14-.57c.09-.18.3-.11.43 0s.31.29.39.18-.11-.36-.28-.46-.48-.33-.6-.43 0-.33-.42-.36-.58-.4-.72-.61-.36-.76-.61-.86a.43.43 0 0 1-.27-.61c.15-.36 0-.43.31-.61s.42 0 .37.28.62-.14.73.36a2.6 2.6 0 0 0 1 1.19 8.1 8.1 0 0 1 1 .53c.17.18.62.4.34.79s.08.61.31 1a3 3 0 0 1 .47 1.36c0 .39.24.73.55.57s1.15-.36.95-.79-.48-.64-.64-1-.07-.68.19-.5.11-.58.73-.5.53.55 1 .28 1.17-.35.83-.61-.57-.48-.44-.82-2.42-8.2-2.42-8.2z"/><path class="cls-9" d="M164.27 87.1a.76.76 0 0 1 .26-.69 3.4 3.4 0 0 0 .54-.93c.15-.34.44-.19.59-.68s.19-.83.62-.69.68.54.53.84 0 .53.25.78.55-.15.84-.5.43-.63.09-.67.16-.59.59-.59.75.43.41.77-.25.84.19.93.68.59 1.12.74.93.59.58 1-.53.29-1.26.25-1.42-.59-2.16-.59a1.41 1.41 0 0 0-1.18.54c-.28.24-.68-.1-1.16.39s-.64.74-.93.78a.8.8 0 0 0-.45 1.23 8.08 8.08 0 0 0 1.38 1.13c.25.24.48-.25 1.12-.11s.68.45 1.26.11.95-.34.65 0-.2 1-.2 1.51a6.6 6.6 0 0 1-.45 1.47c-.1.44.15.64.31 1.08s-.16 1.42.09 1.81.5 1 .73 1.47.89.74 1 1.67.34 1.66.87 1.95a1.94 1.94 0 0 1 .89 1.47c.09.59 0 1.63.3 2.06s0 1 .73.88a7.55 7.55 0 0 0 2.69-1.27 16.32 16.32 0 0 1 2.65-1.81c.49-.15.67-.63.88-1.13s.59-.68.79-1a1.16 1.16 0 0 0-.15-1.33c-.39-.59-1-.48-1.1-.93s-.33-1-.57-.73-.59 1-1.08 1-.74 0-.74-.68-.05-.84-.43-.93a1.91 1.91 0 0 1-1-1.08c-.2-.5-.39-.79.1-1.18s.6.25.73.59.85.83 1 1.23a1 1 0 0 0 1.25.63c.65-.14 1.19-.14 1.28.2a.68.68 0 0 0 .9.58c.57-.15.77-.15.92.1s.53.15 1 0 .37.25 1 0 .74.06.84.54.23.64.53.64.09.34.15.69.23.82.68.82.68-.44 1-.53.25.24.16 1a6.8 6.8 0 0 0 .35 3 20.31 20.31 0 0 1 1.06 2.84c.11.65.3 1.72.59 1.72s.53-.39.94-.93a2 2 0 0 0 .48-1.23c0-.53.4-.68.25-1.37s0-1.27.34-1.32a1 1 0 0 0 .79-.83c0-.4.29-.69.68-1a2.29 2.29 0 0 0 1.08-1.27c.18-.74.39-.79.77-.7s.8.06.9-.29.53-.44.58.11a1.06 1.06 0 0 0 .63 1 1.51 1.51 0 0 1 .59 1.33c0 .43-.14 1.66.36 1.61s.68-1.18 1-.79.29 1.33.44 1.72 1.8-.59 1.8-.59l2.69-.43.2-.11s-1.26-1.81-1.17-2.15.83-.78 1.17-1.28.69-.38.73.15.07.49-.34 1-.25.53.07.77.77-.43 1-.58-.11-.69-.2-.89a.59.59 0 0 1 .31-.73 3.62 3.62 0 0 0 1.4-.49c.4-.34 1.14-.1 1.73-1s1.08-2.15 1.4-2.45a3.21 3.21 0 0 0 .59-1.91 7.78 7.78 0 0 0-.67-2c-.24-.63-.93-1-.24-1.52s.77-.73 1-.73.44-.59 0-.64a3.22 3.22 0 0 0-1.36.3c-.21.09-.25-.1-.51-.59s.07-.74.55-.74 1.17-1.72 1.32-1.17.23.77.68.77.73 0 .84.59.74 1.33.59 2-.14 1.23.43.94a2 2 0 0 0 1.12-1.32c.11-.55-.53-1-.87-1.43s-.34-.74 0-1a8.93 8.93 0 0 0 1.12-1.24c.39-.48.35-1.17.74-.82s.84.53 1.47-.25a14.44 14.44 0 0 0 2.21-3.28 5.28 5.28 0 0 0 .37-2c0-.59.32-.59.32-1.57s-.41-1.42-.69-1.42-.56.4-1.13 0-1.12-.3-.45-.87a12.06 12.06 0 0 0 2.2-2.21c.35-.63.6-1.07 1.43-1.18s1.6.45 2.11.45.54-.2.58-.4.15-.19.4-.19.68.29.34.59-.15.43.48.34.84-.34 1.14-.3.43-.44.24-.49-.2-.34.11-.44a3 3 0 0 0 1-1c.39-.5.69-.4.83-.29s1-.3.78.14 0 .78.35.49.3.29-.38.88-.94 1.23-1.68 1.52a1.8 1.8 0 0 0-.77 2.06c.2.68.24 1.61.39 2.24s.06 1.28.38 1.13a2.62 2.62 0 0 0 1-1.26c.05-.36.6-.25.65-.74s.63-.4.59-1 0-1.08.52-1.13.16-.74.07-1.42a1.55 1.55 0 0 1 .87-1.57c.53-.24.94-.15 1.23-.39a.75.75 0 0 1 1 0c.24.23.54.34.92-.2s1.37-.64 1.8-1.08a1.78 1.78 0 0 1 1.59-.44c.49.1.72-.45.38-.93s-.68-.74-.19-.88 1.12-.25.92-.74.35-.64.55-.25.48.16.84.16.63.72 1.12.93a.71.71 0 0 0 1-.35c.09-.3-.05-.54.49-.64s.75-.44.45-.83a1.58 1.58 0 0 0-1.33-.58 1.77 1.77 0 0 1-1.31-.44 23.61 23.61 0 0 0-2.36-1.18 6.3 6.3 0 0 0-2-.69c-.68-.09-1.5-.34-1.8-.15s-.28.3-.24.64-.1.79-.44.68-.69-.93-1.33-1-1.91-.35-2.51 0-.78.55-.92 0-.59-1.66-1.7-1.56-2.18.44-2.61.25-.44-1.53-1.41-1.43-1.68.45-1.93 0-.68-1.18-1-1.18-1.08.83-1.08 1.33 0 .68-.45.82-1.18-.09-1.57-.05-1.35-.43-1.65.3-.41.44-.88.09-.84-.53-.75-1.07-.68-1-1.36-1.13-1.22-.29-1.33.25-.59.49-.93.43-1.7-.53-2.29-.63-1.67 0-1.91-.3-.29-.82-.89-.29-.64-.23.11-.63 1.31-.49 1.31-1.08-.25-.92-1.12-.92-2.35.38-2.16-.16 0-.79-.53-.79-1.24 0-1.58.4-.39.34-.88.44-.2.78-.93.74-1.26-.4-1.9-.15-1.48.34-2.35.68-2.36.79-2 1.24-.25.52-.78.52-1.17 0-1.17.3.64.78.3 1.08-1.18-.93-1.68-.74a1.28 1.28 0 0 0-.78 1c0 .34-.68.18-.59-.45s-.38-.82-.57-.29a5.83 5.83 0 0 0 .09 2.69c.2.54.44 2.11.05 2.6a2.05 2.05 0 0 1-1.43 1c-.74.09-.89-.19-.3-.44a1.49 1.49 0 0 0 1.09-1.43 8 8 0 0 0-.34-2.49c-.21-.19-.16-.63 0-1.13s.1-.83-.48-.74-1.08.11-1.32.79-1 1.27-.59 2.06.93 1.23.68 1.38-1.65-.65-1.94-.88a4.49 4.49 0 0 0-1.53-.45c-.43-.1-.87 0-.48.38s-.1.45-.51.45a11 11 0 0 0-1.85.14c-.2.11-.64.25-.64 0s-.38-.69-1.22-.1-1.57 1.07-1.57 1.28-.88.29-.83-.15-.44-1-.72-.94-.8.5-.5.74.05.84-.3.93a4.06 4.06 0 0 0-1.28.73c-.25.25-1.41 1.42-2.24 1.24s-.35-1.14-.75-1.48.15-.58.75-.33 1 .67 1.9 0 .2-1.18-.38-1.48-2.76-1.1-3.23-1.24-.34-1.47-2.21-1.32-3.68.1-5 1.73a38.72 38.72 0 0 0-2.84 3.66c-.4.69-.25 1.52-1.56 2a1.82 1.82 0 0 0-1.48 2.1c0 1-.1 2.21.84 2.06A1.92 1.92 0 0 0 155.9 74c.15-.44.64.15.53.73s.4 1.27.45 1.61.14 1.22.54 1.08.5-.49.89-.93.92-.38.78-1.22.09-1 .34-1.08 1-.73.43-1.07a1.45 1.45 0 0 1-.68-1.08.82.82 0 0 1 .49-1.09 3 3 0 0 0 1.33-1.68 1.27 1.27 0 0 1 1.19-.78c.53 0 1.31.25.68.74s-2 1.7-1.76 2.84.14 2 .93 1.41a4.92 4.92 0 0 1 2.11-.74c.59-.09 1.06.25 1.06.45s-.72.69-1.47.64-1.4-.29-1.4.24.47.55.34 1.18-.83.78-.89.34.25-1.13-.15-1-.39.93-.64 1.31-.34.84 0 1.09-.26.14-.56.53 2.5 8.23 2.5 8.23zM110.36 100.57c.24 0 .56-.44.85-.41a8.21 8.21 0 0 0 1.28.06c.24 0 .33.09.44.26a4.34 4.34 0 0 0 1.1.68 3.27 3.27 0 0 1 .89.5c.22.18.57.24.39.4s-.39.13-.75.13-.71-.15-.71-.38-.33-.5-.59-.56-.56 0-.68-.3a.64.64 0 0 0-.63-.38c-.33 0-1.1-.14-.81.18s.07.56-.25.47-.5-.09-.65-.24-.05-.41.12-.41zM115.65 103.2c.17 0 .06-.53.26-.71a1.31 1.31 0 0 1 1-.11 4.78 4.78 0 0 1 1.22.47c.15.11.24.55-.19.55s-.51 0-.71.27-.41.06-.83 0a2.69 2.69 0 0 0-.88 0c-.14.06-.05-.47.13-.47zM113.93 103c-.2-.06-.71-.06-.46.24a2.09 2.09 0 0 0 .59.44c.07.09.3 0 .46 0s0-.24-.21-.38-.19-.3-.38-.3zM115.56 101.38c0 .11.11.32.26.32a.29.29 0 0 0 .28-.35c-.05-.2-.45-.18-.54.03zM119.19 102.79c-.27 0-.6.11-.51.35s.13.41.45.32a2.22 2.22 0 0 0 .69-.45c.15-.07.63-.34.27-.34s-.73.12-.9.12zM121.52 108.21c.09.25.09.39.37.35s.46-.44.46-.5a.33.33 0 0 0-.4-.25c-.29.05-.48.19-.43.4zM122.81 107.33c-.26-.17-.28-.26-.08-.38a.77.77 0 0 0 .33-.43c0-.06.27-.13.39 0s.17.29-.15.43-.19.15-.19.27-.2.18-.3.11zM123.26 106a.19.19 0 0 1 .2-.23c.18 0 .42.06.38.3s-.2.35-.35.28-.19-.22-.23-.35zM123.23 104.93a.21.21 0 0 1-.12-.38c.19-.12.1-.45.35-.23s.45.35.22.5a.61.61 0 0 1-.45.11zM122.59 104.28c-.12 0-.21-.14-.21-.25s.17-.13.35-.13.3.15.16.27a.42.42 0 0 1-.3.11zM123.55 105.39c-.07.09-.15-.2 0-.25s.24-.18.24 0-.09.12-.24.25zM121.82 103.4c-.11-.05-.31-.11-.21-.23s.06-.27.34-.18.38.33.22.47-.17.03-.35-.06zM113.38 99.21c-.25 0-.18-.37.06-.54s.34-.27.34 0-.09.45 0 .57.46.07.26.22-.26.25-.42.1-.15-.33-.24-.35zM113.81 98.25c.09-.19.18-.26.07-.47s0-.34.19-.23.47.26.4.59-.07.38 0 .48-.09.08-.28 0-.41-.25-.38-.37zM114.67 99.45a.16.16 0 0 1-.06-.31c.14-.07.2-.25.29-.09s-.11.34-.11.36-.08.04-.12.04zM115.31 100.06c-.13-.19-.22 0-.27-.13s0-.3.22-.27.14.12.26.25.24.21.16.27-.3-.03-.37-.12zM113.26 98.09c.15 0 .26-.22.21-.35s-.12-.26-.28-.16-.37.26-.23.45.26.06.3.06zM121.06 82.48c-.21-.2-.56-.3-.7-.45a.23.23 0 0 1 .14-.39c.2 0 .54.22.77.47s.25.26.13.39a.24.24 0 0 1-.34-.02zM122 84.31c-.17-.07-.38-.39-.09-.59s.35 0 .38.25.23.31.18.63-.34.41-.37.1-.01-.33-.1-.39zM120.22 73c-.2 0-.44-.21-.16-.48s.36-.36.41 0 0 .48-.25.48zM111.56 72.09c.18-.18.19-.3.3-.4s.23-.44-.08-.42a1.54 1.54 0 0 0-.84.34c-.14.18-.21.52.11.64s.36-.03.51-.16zM114.23 67.33c-.24 0-.44-.12-.3-.48s.35-.86.68-.56.73.45.38.77a.86.86 0 0 1-.76.27zM94.79 58.9c.14-.27.74-.33.55-.78s-.16-1.16-.7-.91-.82.11-1.19.55-.76 1-1.07 1-.8-.17-.66.33.36.81.78.54.51-.41.86-.25 1.34-.82 1.06-.29-.17.9.18.45.1-.47.19-.64zM95 59.72a.67.67 0 0 0 .52-.54c.12-.34.25-.5.59-.53s.66.46 1 .62.6.41.73.47.93 0 .91-.2-.59-.43-.44-.74.48-1.12.66-.59 0 .78.39.84.88-.15.79.36 0 1.17-.41 1.17-.8-.23-1.24-.06-1 .59-1.38.47-.73-.22-.59-.39.11-.63-.21-.41-.56.16-1.09.16-.56-.56-.23-.63zM105.14 60.41a1.82 1.82 0 0 1 .92.15c.17 0 .43-.4.06-.65s-.69-.8-.83-.53a1.8 1.8 0 0 1-.51.61c-.12.11.16.45.36.42zM104 59.77a1.51 1.51 0 0 1 .16-.81.43.43 0 0 0-.43-.64c-.53 0-.59-.36-.92 0s-.24.57-.77.78-.44.27-.55 0-.17-.64-.46-.81-.65-.05-.52.38.67.79.73 1 .36.34.85.3.82 0 .94.15.46.14.71.14.26-.26.26-.49zM98.42 57.32c-.09-.27-.21-.45.1-.54s.69-.21.34-.52-.91-.7-1.17-.5-.31.36-.66.45-.91-.42-.94 0 .09 1 .41 1.11.91-.08.91.16.35.25.67.23.41-.11.34-.39zM101.38 56.82c.37-.09.42-.2.84.14a1.92 1.92 0 0 0 .75.47c.25.08.53.08.45-.34s.25-.75-.36-.94-1.14-.11-1.39-.45-.29-.58-.73-.52-.53.33-.28.61.37.38.25.55a.46.46 0 0 0 .17.59c.19.07.19-.09.3-.11zM108.08 59a.61.61 0 0 0 .73.48c.48-.09.74-.06.86.19s.34.38.78.06a1.81 1.81 0 0 1 1.39-.4c.41.09 1.42.22 1 .61s-.19.67-.67.84-1.1-.21-1.21-.12-.57.06-1 .06-1.38.06-1.35-.19-.38-.23-.51-.08-.36.14-.69.08-.34-.19-.44-.69-.28-.95-.7-.9-.66.14-1-.11-.48-.61-.4-.78.4-.59-.25-.53-.72.11-.8-.33-.57-1.28 0-1.06a7.08 7.08 0 0 0 1.11.5c.45.09.47.09.42.45s1.06.23.67.59-.26.46.13.5.54.07.54.24.25.06.5 0 .71-.03.89.59zM107.29 57.12a2.8 2.8 0 0 0 1.07-.34c.34-.11.93-.52.72-.82s-.72-.38-.61-.76.15-.5-.37-.67a2.07 2.07 0 0 1-1.06-.8c-.3-.42-.49-.48-.72-.15a1.43 1.43 0 0 0-.25.84c0 .23-.14.23-.25.55s-.43.65 0 .67.86.23.86.32-.6.38-.38.66a1 1 0 0 0 .99.5z"/><path class="cls-9" d="M110.67 58.77c0 .59 1.11-.31 1.33-.14s.19.5.7.3.77-.11.94-.34 0-.3-.28-.52-.25-.5.09-.47.16-.59.58-.57 1-.16 1-.44-.39-.78.26-.92a3 3 0 0 0 1.76-.75 1.36 1.36 0 0 1 1.14-.67c.68-.08.36-.64.75-1a1.64 1.64 0 0 1 1.4-.33c.49.06 1 0 1-.39s0-.7-1-.7-2.45-.34-3.52-.28-2.61.3-3.57.45a6.7 6.7 0 0 0-2.24.47c-.59.33-.53.11-1.56.17s-1.92 0-2 .41.2.73.78.9a9.65 9.65 0 0 0 2.17.44c.32 0 .48.61-.22.5s-1.31.29-1 .59 1.31.86.72 1a1.5 1.5 0 0 0-1.13.76c-.13.33.72.84.27 1s-1.16.66-.36.66 1.37.12 1.45-.13.54-.14.54 0zM69.32 70.88c.3.23.55.35.73.09s.23-.54-.43-.67-1.09 0-1 .16.55.29.7.42zM70.65 73.6c-.05.1.17.43.35.45s.52-.13.54-.32-.65-.47-.89-.13zM77.2 75.64c-.29.22-.72.41-.45.66s.39.29.73 0 .54-.5.38-.66-.27-.29-.66 0zM151 78.42a2.44 2.44 0 0 1-.76-.83c-.31-.45-.41-.18-.56-.91s-.09-.82.07-1 .27-.45-.07-.45-.82.15-.82 0 .25-.34.36-.46.27-.48-.19-.48a1 1 0 0 0-.85.64c-.16.3-.19 0-.23.67s-.14.91.15 1.25.08.75.34.82.53-.18.76.15.55.53.22.8-.77 0-.77.27.23.63-.13 1 .11.45.11.45a.77.77 0 0 1-.24.37c-.19.2-.53.61-.34.8s.2 0 .58-.12.28-.14 1-.34a4.13 4.13 0 0 1 1.33-.22c.27 0 .52 0 .5-.3a.57.57 0 0 1 .26-.64c.19-.11.29-.57.08-.68s-.42.16-.62-.08-.01-.55-.18-.71z"/><path class="cls-9" d="M147.5 79c-.05-.34-.29-.42.12-.68a.46.46 0 0 0 .12-.76c-.15-.14-.49-.41-.78-.14s-.24.67-.45.67-.4 0-.55.26-.1.68 0 .72a.41.41 0 0 1 .16.56c-.16.15-.79.08-.49.42s.15.57.63.34 1.42-.52 1.24-1.39zM195.22 102.13c0 .61.38.9.38 1.35s-.08 1.2.39 1.13.51-.83.89-.22a4.93 4.93 0 0 1 .84 1.72 5.27 5.27 0 0 1 .13 2.33c-.22.53-.36.23.31 1.36s.39 1.34.68 2.17a2.49 2.49 0 0 0 1.19 1.36c.38.23.38-.23.17-.91a6.36 6.36 0 0 0-.77-2c-.51-.75-1.35-1-1.12-2.56s.14-2.11.53-1.57 1.49 1.72 1.79 2.17 1 .08 1.82-.52.83-1.13.36-2.19-1.36-2.1-1.5-2.54a1.51 1.51 0 0 1 .53-1.51c.44-.3.67-.91 1-.6s-7.62 1.03-7.62 1.03zM199.22 113.38a5 5 0 0 1-1.41-1.29c-.23-.41-.48-.79-.91-.83s-1.26-.32-.74.37a12.42 12.42 0 0 1 1.69 2.22c.31.73 1.07 1.86 1.43 2.7s1.11 1.43 1.59 1.38a1 1 0 0 0 .43-1.54 8.9 8.9 0 0 1-1.23-2 3.59 3.59 0 0 0-.85-1.01zM202.93 118.49c-.46 0-.91-.37-1.28-.43s-.9.75-.17 1a9.92 9.92 0 0 0 1.71.27c.68.16 1.64.42 1.91.52s.63-.42 0-.64-.5-.67-1.06-.83-.71.11-1.11.11zM204.56 116.34c.9-.07.95.79 1.65 0s.94-1 .79-1.64-.33-.64.1-.8.15-.84 0-1.26.1-.69.32-.91.11-.57-.16-1-.49-.33-.8-.11-.2 1-.68 1.11-.47.63-.86.74-.74.1-.79.53-.16.37-.59.27-.46-.11-.69.31 0 .91.28 1.7.69 1.11 1.43 1.06zM207.21 120.2a.5.5 0 0 1-.68-.32c-.06-.25.36-.16.57-.16s.68.16.11.48zM209.94 120.45c.49-.48.59-.69 1.13-.84s1.1-.43.53 0-.82.53-1.12.79-.91.42-.54.05zM208.07 120.58c-.15-.09-.49-.29-.28-.31s.37-.09.5 0 .32.21.26.31-.38.07-.48 0zM208.29 119.81c.16 0 .52.2.69.14s.25-.17.39-.16.42-.14.14-.18a5.2 5.2 0 0 1-.69-.07 1.26 1.26 0 0 0-.61 0c-.21.06-.14.27.08.27zM207.62 117.37a.87.87 0 0 0-.09-.8c-.14-.36.16-.7.2-1a6.94 6.94 0 0 0 .19-1c.05-.49-.26-.83.67-.8s1.29.19 1.6 0 1-.25.39.18-.62.31-1.2.23-1.08 0-1 .42.68.5.93.46.38.28 0 .54-.58.54-.25.77 1 .61.54 1-.64.31-.8-.19-.16-1.08-.31-.54 0 1.07-.35 1.07-.66.08-.52-.34zM213.67 115.35c-.17-.23 0-.39.42-.5s.95-.16.95.3-.07.58.23.92.42.39.66.08.26-.69.65-.73a2.08 2.08 0 0 1 1.06.2c.43.14 1.13.64 1.63.84a3.13 3.13 0 0 1 1.41.84c.36.42 1.22 1 1 1.22a.55.55 0 0 0 .08.89 5.93 5.93 0 0 1 1.18 1.19c.11.19.11.57-.34.3s-.84-.14-1.06-.5-.33-.77-.93-1-1-.31-.93 0-.26.46-.79.46-.62-.31-1-.46-.27.31-.52-.39-.35-.64-.35-1-.51-.46-.91-.74-.44-.33-1-.64-1.24-.24-1.07-.54-.22-.52-.37-.74zM222.83 118.16a3.34 3.34 0 0 0 1-.73c.1-.15.38-.15.14-.5s-.19-.31-.49.08-.19.42-.57.49-.5.28-.75.31.2.39.67.35zM225.34 118.7c-.27-.11-.32-.22-.34-.52s-.12-.43.22 0 .69.38.62.61-.15.07-.5-.09zM229.8 128.32c.45.46.58.57.87.61s.35-.23 0-.42a1.91 1.91 0 0 1-.72-.58c-.34-.38-.47-.58-.58-.54s.16.66.43.93zM234.58 138c-.3-.19-.12-.41-.39-.75s-.66-.66-.45-.86.26 0 .61.28.5.46.5.8.12.69.23.73.28.35.49.54a.52.52 0 0 0 .78 0c.31-.27.56-.14.33.31s-.52.5-.69.8a3.32 3.32 0 0 0-.38.85.43.43 0 0 1-.56.39c-.25-.12 0-.31-.15-.55s-.12-.76-.4-.83-.07-.16.19-.36.21-1.18-.11-1.35zM234.08 142.08c-.22.22 0 .46-.42.77s-.58.23-.77.69-.46 1.42-1 1.26-.93-.38-1-.34-.34-.08-.07-.53.26-.93 1-1.05a1.42 1.42 0 0 0 1.27-1c.12-.46.38-.61.38-.92s.14-.76.42-.43.73.05.73.39a1.55 1.55 0 0 1-.54 1.16zM220.7 140.73c.38.15.42.3.72.07s.46-.46.46 0a2.43 2.43 0 0 1-.25 1.22c-.21.31-.43.69-.75.38a4.69 4.69 0 0 1-.57-1c-.18-.21-.75-1.13.39-.67zM211.54 116.71c-.19.14-.24-.07-.43-.07s0-.15.19-.23.28-.08.39 0 0 .19-.15.3zM212.34 116.6c-.33.08-.58-.19-.17-.27a2 2 0 0 1 .82 0c.31 0 .49.5.15.38a1.21 1.21 0 0 0-.8-.11zM235.94 127.89c-.21 0-.71-.27-.28-.43s.55-.27.59 0a.37.37 0 0 1-.31.43zM236.21 126.85c.06-.32.6-.47.69-.42s.08.35-.13.42-.6.15-.56 0zM230.71 123.87a.34.34 0 0 1 .15-.5c.06 0 .15.11.15.34s-.15.5-.3.16zM227.92 120.13c-.25-.07-.53-.35-.29-.35a.9.9 0 0 1 .62.19c.1.16-.33.16-.33.16zM228.22 120.82c.09.24.43.31.43.31s0-.23-.12-.31-.34-.11-.31 0zM226.65 119.78c0-.15-.13-.26-.23-.19s-.13.19 0 .31.23 0 .23-.12zM211.79 114.26c-.14-.31-.34-.54 0-.92s.27-.27.41.11.29.5.05.81-.25.43-.46 0zM210.87 110.46c-.05-.18 0-.22.09-.5a1.58 1.58 0 0 0 .15-.95c-.12-.23 0-.54-.46-.2s-.6.2-1 .38-.54.59-.05.62.65 0 .53.38.24.39.43.58.44 0 .31-.31zM208.72 105.25a1.72 1.72 0 0 1 .42-1.11c.28-.36.05-.39 0-.77s.05-.34-.33-.39-.43.19-.51.42a4 4 0 0 0 0 1c0 .15-.45 0-.27.38a7.83 7.83 0 0 1 .42 1.07c.12.34.19.23.47.2a.76.76 0 0 1 .81.19c.3.31.4.15.35-.12a.65.65 0 0 0-.63-.5c-.34.01-.68.01-.73-.37zM210.47 107.51a.67.67 0 0 0-.13-.47c-.12-.18-.24-.38.08-.41s.39-.27.39.3a11.87 11.87 0 0 0 0 1.24c.04.11-.34-.17-.34-.66zM208.89 107.81c0-.38-.12-.84.3-.57a7.19 7.19 0 0 1 .72.54c.24.15 0 .42-.19.73s-.58.22-.61 0-.22-.42-.22-.7zM207.43 108.67c.1-.21.1-.36.3-.43s.19-.15.19-.43-.15-.34-.3 0-.28.23-.38.57-.58.46-.62.73 0 .31.31.08.34-.19.5-.52z"/><path class="cls-9" d="M202.63 103.1c.08.27.16.34.47.3a.64.64 0 0 0 .6-.45c.07-.28.27-.85-.12-.8s-.48.18-.77.3-.3.26-.18.65zM208.35 100.11a1.18 1.18 0 0 1 .19-.88c.18-.23.3-.54.43-.59s.34 0 .22.43a3.7 3.7 0 0 0-.26 1.11c.07.31-.47.7-.58-.07zM212.75 93.57c-.09-.36-.19-.95.24-1.07a2 2 0 0 0 1-.61c.32-.31.32-.26.82-.31s.76.2.92-.19a1.73 1.73 0 0 1 .66-.81 5.28 5.28 0 0 0 .92-.91 2.52 2.52 0 0 0 .47-1.24c0-.34 0-.68.21-.72s.43 0 .58.42.24 1-.07 1.23-.36.23-.36.65v1.16c0 .16-.31 1-1 1.1s-1-.11-1 0-.16.45-.43.65-.39.07-.41-.12-.25-.5-.2-.27-.05.39-.3.54-.51.66-.62.35-.24-.54 0-.62.1-.22-.19-.15-.53.07-.38.31a1.27 1.27 0 0 1 .09.89c-.09.3-.15.64-.58.61s-.26-.23-.19-.43-.13-.3-.18-.46zM218.12 86.91c-.05-.07.28-.2.28-.2a2.08 2.08 0 0 0 .47.23c.21.08.45.11.56-.14s.08-.39.46-.39.68 0 .54-.27.06-.61-.54-.54-.46.2-.77-.23-.46-1.08-.67-.92-.17.31 0 .69.17.69 0 .85 0 .23-.23.31-.28 0-.47.19-.26.37-.19.49a.45.45 0 0 0 .43.23c.22-.04.22-.21.13-.3zM218.87 83.26v-1a6.44 6.44 0 0 0 0-1.45c-.1-.38-.3-.54-.15-1s.15-.39.24-.66.14-.69.34-.72.19.8.27 1.07-.23.81 0 1.26.67.8.19 1-.5.65-.55 1.11a2.14 2.14 0 0 0 .16 1c.1.22-.16.27-.24.11s-.57.47-.38 0 .12-.49.12-.72zM142.62 70.36a6.2 6.2 0 0 1 1.4-.76c.34-.14.64-.62.29-.86s-.76-1-1.06-.76-.48.44-1 .3-1.11-.4-1.24 0-.35.49-.42.07-.23-.69-.61-.27-1 .62-.59.79.51.49.25.49.29.27.47.4-.21.77.51.86a2.51 2.51 0 0 0 2-.26zM158.18 59.2c.09 0 .38-.33.51-.84a6.31 6.31 0 0 1 .69-1.86c.18-.22.39-.22.33.55s.29 1 .77 1 .64-.55.31-1.13-.59-1.2-.79-1.65-.23-.84.06-.91.29 1.06.91.34 1.32-1.29.66-1.65-1.34-.84-2-.55-.65.88-1.4.77-1-1-1.37-.15-.77 1.72-.44 2.19 1 .73.91 1.31a1.91 1.91 0 0 0 .11 1.46c.3.54.5 1.01.74 1.12zM178 63.41a.72.72 0 0 1-.38-1.09 3.86 3.86 0 0 1 1-1.18c.48-.46-.06-.38.91-.92a11.56 11.56 0 0 1 2.47-1.14c.92-.29 1.63-.08 1.9-.76s-.09-1-.68-.88-.14.63-1 .72-1.64.3-2 .34a9.81 9.81 0 0 0-1.76.8c-.59.29-.79 1.17-1.13 1.51s-.49.83-1 1-1.05 1-.5 1.27a6.85 6.85 0 0 0 1.51.74c.77.22 1.32.3 1.36.13s-.38-.38-.7-.54zM174.16 54.29c.47-.23.47-.2 1-.41s.46-.38.41-.8.14-1-.36-.63-.54.84-1 .59a1.86 1.86 0 0 0-1.74-.42c-.74.29-1.93.59-1.39.83a7.88 7.88 0 0 0 1.26.38c.27.09.09-.08.43-.33s.76-.26.67 0-.17 1.26.72.79zM175.33 54.93c.33.1.25-.51.09-.51s-.46 0-.46.26.25.2.37.25zM176.21 54.38c.18.11.42-.09.46-.34a.3.3 0 0 0-.38-.37c-.29.03-.29.59-.08.71zM180.19 53.83c.48 0 .82 0 .64-.45a1.53 1.53 0 0 1 0-.88c0-.18 0-.81-.41-.81s-.18.59-.42.81-.34.24-.43.79.17.54.62.54zM181.33 52.65c.12.28.22.14.68 0s.26.12.21-.59.05-1.22-.33-1.18-.39.25-.63.54-.09.81.07 1.23zM179.83 54.42c-.26 0-.51 0-.55.17s.17.34.43.34.29-.51.12-.51zM179.06 54.09c.39 0 .13-.68 0-.76s-.65-.17-.65.25 0 .55.11.64.42-.13.54-.13zM177.64 54.09c.11.22.18.38.34.38s.16 0 0-.59-.34-.72 0-.89 0-.08.11-.46.09-.42.68-.67.37-1-.09-.84a8 8 0 0 0-1.18.84c-.29.17-.66.12-.71.42s-.38.37.13.54.42.34.47.68a1.72 1.72 0 0 0 .25.59zM174.12 65.39c-.07.1-.21.37.17.42s.49.16.67-.13.07-.75-.22-.75-.45.2-.62.46zM199.52 56.77c.51 0 .62-.08 1.1-.08s.59-.13.49-.68-.24-.83-.79-.88-.46-.75-.71-.2a9.32 9.32 0 0 1-.51 1.3c-.39.64-.54.79-.29.84s.47-.3.71-.3zM198.81 55.6c-.1-.32-.12-.3.13-.67s.07-.67-.54-.71-.88-.59-1.64 0-1.49.46-1.06.91.63.34 1.22.88.62.89 1.18.52.79-.64.71-.93zM197.1 53.54c.25-.21.2-.3 0-.59s-.34-1.09-.77-.92-1 .2-1.35.76-.53.79-.19 1 .42.43 1 .47 1.08-.56 1.31-.72zM194.87 54.42c-.3 0-.52.21-.38.43a.58.58 0 0 0 .53.2c.19 0 .43 0 .3-.29a.62.62 0 0 0-.45-.34zM217.34 60.06a5.09 5.09 0 0 0 1.3 0c.53-.09.59-.34.92-.31s.41 0 .49-.37-.29-.72-.76-.67-.83-.64-.95-.17-.18.37-.54.17a.81.81 0 0 0-1 .2c-.36.29-.02 1.09.54 1.15zM221.15 59.79c-.28-.14-1.14-.75-.34-.79a5.08 5.08 0 0 1 1.43.17c.37 0 .76.08.76.46s0 .46-.64.46a2.36 2.36 0 0 1-1.21-.3zM237.44 63.79c.48 0 .92 0 1-.12s.3-.56-.36-.56-1-.25-1.28.13-.12.51.64.55zM220.7 85.46c-.14.05.07-.42.07-.42s.22.17.22.29-.18.09-.29.13zM221.36 84.79c-.2.13 0-.17.22-.34s.36-.66.41-.25.16.5-.2.63-.3-.13-.43-.04zM225.05 80.46c-.21.13-.28.25-.17.45s.19.23.39.16.55-.23.39-.43-.48-.29-.61-.18zM222.31 84.13c0 .12.1.21.39 0s.3-.5.24-.55a.9.9 0 0 0-.52.19 1 1 0 0 0-.11.36zM223.26 83.36c0-.07 0 0 .21-.25s.43-.25.49-.53a.89.89 0 0 1 .34-.58c.18-.11.43-.21.24.07s-.39.39-.43.54a1.35 1.35 0 0 1-.42.56c-.21.17-.41.23-.43.19zM189.3 108.8a2.35 2.35 0 0 0-.34 1 2.79 2.79 0 0 0 .51 1.18c.12.15.35-.1.69-.41s.54-.3.14-.93-.78-1.28-1-.84zM242.23 127.83c0 .25-.16.19-.36.34s-.14.4.07.62.56.32.74 0a1.38 1.38 0 0 0 0-1c-.16-.21-.46-.21-.45.04zM238.26 124.22c.26.3.77.14.77.14a1.14 1.14 0 0 0-.48-.75c-.44-.33-.67-.23-.72 0s.17.39.43.61zM166.38 92.57c-.22 0 .07-.67.39-.67s1.29-.39.88 0a1.86 1.86 0 0 1-1.27.67zM162.85 92.39c-.45 0-.8-.31-.62-.49s.26-.3.71-.09 1 .22.78.44-.53.14-.87.14zM158.27 90.89c-.24-.31 0-.79-.4-.76s-1.47.09-1 .45.69.18.93.36.59.12.47-.05zM155.71 88.82c-.05-.26-.24-.67-.31-.67s-.45-.4-.49 0-.26 1 .07 1.18a.49.49 0 0 0 .73-.51zM152.62 89.34c.24 0 .13-.61-.05-.61s-.44.22-.39.4.25.21.44.21zM156.22 77.7c-.08-.2-.31-.48-.08-.79s.4-.62.58-.09a.69.69 0 0 1-.18.88c-.19.18-.28.09-.32 0zM159.49 75.68c-.16-.09.14-.54.35-.63s.54-.48.45 0-.48.8-.8.63zM174.31 123.12a2.34 2.34 0 0 1-1.43 1.21c-.46.08-.79 1-.79 1.2s.79 1.14.25 1.75-.69.63-.5 1.5.3 1.29.63 1.58.67.25 1.05-.18a2.11 2.11 0 0 0 .69-1.69c0-1.05-.2-1.21.21-1.67s.38-.83.47-1.44a2.76 2.76 0 0 1 .44-1.34c.22-.29 0-.54-.12-1.12s-.28-1.57-.9.2zM125.34 65.67c-.23-.27-.4-.51 0-1s.18-.92.77-.48 1.11.79.4 1.26-.79.66-1.17.22zM86 76.37c-.29-.46-.66-1-.19-.93s.46 0 1 .62a4.26 4.26 0 0 1 .79 1.57 1.37 1.37 0 0 0 0 1.2c.3.88 1 2 .44 1.49A2.47 2.47 0 0 1 87 78.38a1.89 1.89 0 0 0-.53-1.54c-.32-.38-.28-.12-.47-.47zM103.22 55.11c0 .54.45.31.62.31s0-.57-.22-.61-.4.04-.4.3zM101.81 57.3c.28.11.45.63.32.66a.8.8 0 0 1-.66-.12c-.14-.18.14-.61.34-.54zM100.36 57c.19.38.24.74-.13.88s-.4-.23-.48-.45.46-.87.61-.43zM100.68 61.48c.22.08.17.31.09.62s-.36.13-.61-.22.11-.53.52-.4zM101 60.34c-.26.25-.48-.4-.43-.49s.17-.35.39 0 .2.35.04.49zM113.07 71.86c0-.25 0-.48-.25-.41s-.24.36-.23.55a.33.33 0 0 0 .37.27c.16-.02.09-.27.11-.41zM113.64 71.13c-.17-.09-.34-.34-.17-.49s.32-.17.46-.08.13 0 .31-.13.4-.25.46.13-.33.44-.39.33a.21.21 0 0 0-.36 0c-.1.17-.22.31-.31.24z"/><path class="cls-3" d="M108.91 86.81c0 .46-2.23.84-5 .84s-5-.38-5-.84 2.23-.83 5-.83 5 .37 5 .83z"/><path class="cls-3" d="M109.91 76.19a6 6 0 0 0-12 0 5.78 5.78 0 0 0 0 .58v.07c.48 4.79 6 10 6 10 3.85-3.65 5.23-6.91 5.72-8.83a6 6 0 0 0 .26-1.41c.02-.28.02-.41.02-.41zm-6 3.74a3.93 3.93 0 1 1 3.94-3.93 3.93 3.93 0 0 1-3.94 3.93zM128.73 122.1c0 .46-2.24.84-5 .84s-5-.38-5-.84 2.23-.83 5-.83 5 .37 5 .83z"/><path class="cls-3" d="M129.73 111.48a6 6 0 0 0-12 0 5.78 5.78 0 0 0 0 .58v.07c.48 4.79 6 10 6 10 3.85-3.65 5.23-6.91 5.72-8.83a6.51 6.51 0 0 0 .26-1.41c.02-.28.02-.41.02-.41zm-6 3.74a3.93 3.93 0 1 1 3.94-3.93 3.93 3.93 0 0 1-3.94 3.93zM164.26 81.88c0 .46-2.23.84-5 .84s-5-.38-5-.84 2.24-.83 5-.83 5 .37 5 .83z"/><path class="cls-3" d="M165.26 71.26a6 6 0 1 0-12 0V71.91c.48 4.79 6 10 6 10 3.85-3.65 5.22-6.91 5.71-8.83a6 6 0 0 0 .26-1.41c.03-.28.03-.41.03-.41zm-6 3.74a3.93 3.93 0 1 1 3.93-3.93 3.93 3.93 0 0 1-3.92 3.93zM167.18 117.47c0 .46-2.24.84-5 .84s-5-.38-5-.84 2.24-.83 5-.83 5 .36 5 .83z"/><path class="cls-3" d="M168.17 106.85a6 6 0 1 0-12 0 5.78 5.78 0 0 0 0 .58.2.2 0 0 0 0 .07c.47 4.79 6 10 6 10 3.85-3.65 5.23-6.91 5.72-8.83a6 6 0 0 0 .25-1.41 2.17 2.17 0 0 0 .03-.41zm-6 3.74a3.93 3.93 0 1 1 3.93-3.93 3.93 3.93 0 0 1-3.92 3.93zM200.22 84.42c0 .46-2.24.84-5 .84s-5-.38-5-.84 2.24-.83 5-.83 5 .41 5 .83z"/><path class="cls-3" d="M201.21 73.8a6 6 0 0 0-12 0v.58a.17.17 0 0 1 0 .07c.48 4.79 6 10 6 10 3.85-3.65 5.22-6.91 5.71-8.83a5.49 5.49 0 0 0 .26-1.41c.03-.28.03-.41.03-.41zm-6 3.74a3.93 3.93 0 1 1 3.93-3.93 3.93 3.93 0 0 1-3.92 3.93z"/><path class="cls-5" d="M222.5 131.27c0 .46-2.24.83-5 .83s-5-.37-5-.83 2.24-.84 5-.84 5 .38 5 .84z"/><path class="cls-5" d="M223.49 120.64a6 6 0 0 0-12 0 5.63 5.63 0 0 0 0 .58.17.17 0 0 0 0 .07c.47 4.79 5.95 10 5.95 10 3.85-3.66 5.23-6.92 5.72-8.84a6 6 0 0 0 .25-1.41 2.17 2.17 0 0 0 .08-.4zm-6 3.74a3.93 3.93 0 1 1 3.93-3.93 3.93 3.93 0 0 1-3.92 3.93zM363.77 62.94a1.86 1.86 0 1 0-1.86-1.86 1.86 1.86 0 0 0 1.86 1.86zM369.56 71.2l-2.1-6.3a1.36 1.36 0 0 0-1.35-1.21h-4.64a1.36 1.36 0 0 0-1.15.63.9.9 0 0 0-.12.24l-.05.14-2 6.52a.82.82 0 1 0 1.57.5l1.62-5.18h.31l-2.47 9.26h2.53v7.31a1 1 0 1 0 1.91 0v-7.29h.56v7.31a1 1 0 1 0 1.91 0v-7.31h2.52L366 66.56h.31l1.69 5.16a.82.82 0 1 0 1.56-.52z"/><path class="cls-10" d="M354.57 88.73a1.41 1.41 0 1 0-1.41-1.4 1.41 1.41 0 0 0 1.41 1.4zM359 95l-1.6-4.77a1 1 0 0 0-1-.92h-3.52a1 1 0 0 0-.87.48.76.76 0 0 0-.09.18.22.22 0 0 0 0 .1l-1.56 5a.62.62 0 0 0 .41.78.64.64 0 0 0 .79-.41l1.23-3.92h.23l-1.87 7H353V104a.73.73 0 0 0 .73.72.72.72 0 0 0 .72-.72v-5.5h.43v5.5a.72.72 0 1 0 1.44 0v-5.5h1.91l-2-7h.24l1.31 3.92A.63.63 0 0 0 359 95zM364 88.73a1.41 1.41 0 1 0-1.42-1.4 1.4 1.4 0 0 0 1.42 1.4zM368.39 95l-1.59-4.77a1 1 0 0 0-1-.92h-3.52a1 1 0 0 0-.86.48.77.77 0 0 0-.1.18.54.54 0 0 0 0 .1l-1.55 5a.61.61 0 0 0 .41.78.63.63 0 0 0 .78-.41l1.23-3.92h.23l-1.87 7h1.91V104a.73.73 0 0 0 1.46 0v-5.5h.42v5.5a.72.72 0 0 0 .72.72.73.73 0 0 0 .73-.72v-5.5h1.91l-2-7h.23l1.31 3.92a.63.63 0 0 0 .8.39.62.62 0 0 0 .35-.81zM373.42 88.73a1.41 1.41 0 1 0-1.41-1.4 1.41 1.41 0 0 0 1.41 1.4zM377.82 95l-1.6-4.77a1 1 0 0 0-1-.92h-3.52a1 1 0 0 0-.87.48.51.51 0 0 0-.09.18v.1l-1.55 5a.62.62 0 1 0 1.19.37l1.23-3.92h.23l-1.87 7h1.92V104a.72.72 0 0 0 .72.72.73.73 0 0 0 .73-.72v-5.5h.42v5.5a.73.73 0 0 0 1.45 0v-5.5h1.91l-2-7h.24l1.31 3.92a.62.62 0 0 0 .79.39.63.63 0 0 0 .36-.81z"/><path class="cls-5" d="M350 109.23a1.08 1.08 0 1 0-1.08-1.09 1.08 1.08 0 0 0 1.08 1.09zM353.4 114l-1.22-3.66a.79.79 0 0 0-.79-.7h-2.69a.83.83 0 0 0-.67.36.61.61 0 0 0-.07.14.24.24 0 0 0 0 .08l-1.21 3.78a.48.48 0 1 0 .91.28l.94-3h.18l-1.43 5.37h1.47V121a.55.55 0 1 0 1.1 0v-4.3h.33v4.3a.56.56 0 0 0 1.11 0v-4.3h1.46l-1.51-5.37h.18l1 3a.48.48 0 0 0 .91-.3zM357.25 109.23a1.08 1.08 0 1 0 0-2.16 1.08 1.08 0 1 0 0 2.16zM360.62 114l-1.22-3.66a.8.8 0 0 0-.79-.7h-2.7a.8.8 0 0 0-.66.36.61.61 0 0 0-.07.14v.08L354 114a.48.48 0 1 0 .92.28l.94-3h.14l-1.44 5.37H356V121a.56.56 0 0 0 1.11 0v-4.3h.32v4.3a.56.56 0 0 0 1.12 0v-4.3H360l-1.51-5.37h.18l1 3a.47.47 0 0 0 .6.3.48.48 0 0 0 .35-.63zM364.46 109.23a1.08 1.08 0 1 0 0-2.16 1.07 1.07 0 0 0-1.07 1.07 1.08 1.08 0 0 0 1.07 1.09zM367.83 114l-1.22-3.66a.79.79 0 0 0-.78-.7h-2.7a.83.83 0 0 0-.67.36.61.61 0 0 0-.07.14v.08l-1.21 3.78a.48.48 0 0 0 .31.6.47.47 0 0 0 .6-.32l1-3h.17l-1.43 5.37h1.47V121a.56.56 0 0 0 1.11 0v-4.3h.32v4.3a.56.56 0 0 0 1.11 0v-4.3h1.46l-1.51-5.37h.18l1 3a.48.48 0 0 0 .61.3.47.47 0 0 0 .25-.63zM371.68 109.23a1.08 1.08 0 1 0-1.08-1.09 1.08 1.08 0 0 0 1.08 1.09zM375.05 114l-1.22-3.66a.79.79 0 0 0-.79-.7h-2.69a.81.81 0 0 0-.67.36.37.37 0 0 0-.07.14v.08L368.4 114a.48.48 0 1 0 .91.28l.94-3h.18L369 116.7h1.47v4.3a.56.56 0 0 0 1.11 0v-4.3h.33v4.3a.56.56 0 0 0 1.11 0v-4.3h1.46l-1.48-5.37h.18l1 3a.47.47 0 0 0 .6.3.47.47 0 0 0 .27-.63zM378.9 109.23a1.08 1.08 0 0 0 1.07-1.09 1.08 1.08 0 0 0-2.15 0 1.08 1.08 0 0 0 1.08 1.09zM382.26 114l-1.26-3.64a.78.78 0 0 0-.78-.7h-2.7a.8.8 0 0 0-.66.36.37.37 0 0 0-.07.14.26.26 0 0 0 0 .08l-1.18 3.76a.48.48 0 0 0 .32.6.46.46 0 0 0 .59-.32l1-3h.18l-1.44 5.37h1.47V121a.56.56 0 0 0 1.11 0v-4.3h.32v4.3a.56.56 0 0 0 1.11 0v-4.3h1.46l-1.51-5.37h.18l1 3a.48.48 0 0 0 .61.3.47.47 0 0 0 .25-.63zM342.27 125.69a.84.84 0 1 0 0-1.68.84.84 0 0 0 0 1.68zM344.91 129.44l-1-2.86a.61.61 0 0 0-.61-.55h-2.11a.62.62 0 0 0-.52.29.53.53 0 0 0-.06.1.14.14 0 0 1 0 .06l-.93 3a.38.38 0 0 0 .25.47.38.38 0 0 0 .47-.25l.74-2.35h.13l-1.12 4.21h1.15v3.32a.44.44 0 0 0 .43.44.44.44 0 0 0 .44-.44v-3.32h.25v3.32a.44.44 0 0 0 .44.44.44.44 0 0 0 .43-.44v-3.32h1.14l-1.18-4.21h.14l.79 2.35a.38.38 0 0 0 .47.24.38.38 0 0 0 .26-.5zM347.92 125.69a.84.84 0 1 0 0-1.68.84.84 0 1 0 0 1.68zM350.55 129.44l-.95-2.86a.62.62 0 0 0-.6-.58h-2.1a.65.65 0 0 0-.53.29.47.47 0 0 0-.05.1.14.14 0 0 0 0 .06l-.93 3a.37.37 0 1 0 .71.22l.74-2.35h.14l-1.12 4.21H347v3.32a.44.44 0 0 0 .88 0v-3.32h.25v3.32a.44.44 0 0 0 .43.44.44.44 0 0 0 .44-.44v-3.32h1.14l-1.18-4.21h.14l.78 2.35a.39.39 0 0 0 .48.24.38.38 0 0 0 .19-.47zM353.57 125.69a.84.84 0 1 0-.85-.84.85.85 0 0 0 .85.84zM356.2 129.44l-1-2.86a.61.61 0 0 0-.61-.55h-2.11a.62.62 0 0 0-.52.29.47.47 0 0 0-.05.1v.06l-.93 3a.37.37 0 0 0 .24.47.38.38 0 0 0 .47-.25l.74-2.35h.14l-1.13 4.21h1.15v3.32a.44.44 0 0 0 .44.44.44.44 0 0 0 .43-.44v-3.32h.25v3.32a.44.44 0 0 0 .44.44.44.44 0 0 0 .43-.44v-3.32h1.14l-1.18-4.21h.14l.79 2.35a.37.37 0 1 0 .71-.24zM359.21 125.69a.84.84 0 1 0-.85-.84.85.85 0 0 0 .85.84zM361.85 129.44l-1-2.86a.61.61 0 0 0-.61-.55h-2.12a.62.62 0 0 0-.51.29.27.27 0 0 0-.06.1v.06l-.93 3a.38.38 0 0 0 .25.47.38.38 0 0 0 .47-.25l.74-2.35h.13l-1.12 4.21h1.15v3.32a.44.44 0 0 0 .43.44.44.44 0 0 0 .44-.44v-3.32h.25v3.32a.44.44 0 0 0 .43.44.44.44 0 0 0 .44-.44v-3.32h1.14l-1.18-4.21h.14l.78 2.35a.38.38 0 1 0 .72-.24zM364.86 125.69a.84.84 0 1 0-.85-.84.85.85 0 0 0 .85.84zM367.49 129.44l-.95-2.86a.62.62 0 0 0-.62-.55h-2.11a.62.62 0 0 0-.52.29.47.47 0 0 0-.05.1.14.14 0 0 0 0 .06l-.93 3a.37.37 0 0 0 .24.47.38.38 0 0 0 .47-.25l.74-2.35h.14l-1.12 4.21h1.14v3.32a.44.44 0 0 0 .44.44.44.44 0 0 0 .43-.44v-3.32h.21v3.32a.44.44 0 0 0 .44.44.44.44 0 0 0 .43-.44v-3.32H367l-1.19-4.21h.19l.78 2.35a.38.38 0 0 0 .47.24.38.38 0 0 0 .24-.5zM370.46 125.69a.84.84 0 1 0-.85-.84.85.85 0 0 0 .85.84zM373.09 129.44l-1-2.86a.6.6 0 0 0-.61-.55h-2.1a.6.6 0 0 0-.52.29.27.27 0 0 0-.06.1.14.14 0 0 0 0 .06l-.93 3a.38.38 0 0 0 .25.47.37.37 0 0 0 .46-.25l.74-2.35h.14l-1.12 4.21h1.14v3.32a.44.44 0 0 0 .44.44.44.44 0 0 0 .43-.44v-3.32h.26v3.32a.43.43 0 1 0 .86 0v-3.32h1.15l-1.19-4.21h.15l.78 2.35a.39.39 0 0 0 .47.24.38.38 0 0 0 .26-.5zM376.11 125.69a.84.84 0 1 0-.85-.84.85.85 0 0 0 .85.84zM378.74 129.44l-1-2.86a.61.61 0 0 0-.61-.55h-2.11a.62.62 0 0 0-.52.29l-.06.1a.14.14 0 0 1 0 .06l-.93 3a.38.38 0 0 0 .25.47.38.38 0 0 0 .47-.25l.74-2.35h.13l-1.1 4.19h1.14v3.32a.44.44 0 1 0 .87 0v-3.32h.25v3.32a.44.44 0 0 0 .44.44.44.44 0 0 0 .43-.44v-3.32h1.14l-1.18-4.21h.14l.79 2.35a.37.37 0 1 0 .71-.24zM381.75 125.69a.84.84 0 1 0-.84-.84.84.84 0 0 0 .84.84zM384.38 129.44l-.95-2.86a.62.62 0 0 0-.62-.55h-2.1a.65.65 0 0 0-.53.29.47.47 0 0 0-.05.1v.06l-.93 3a.38.38 0 0 0 .25.47.37.37 0 0 0 .46-.25l.74-2.35h.14l-1.12 4.21h1.15v3.32a.44.44 0 0 0 .43.44.44.44 0 0 0 .44-.44v-3.32h.25v3.32a.44.44 0 0 0 .44.44.44.44 0 0 0 .43-.44v-3.32h1.14l-1.18-4.21h.14l.78 2.35a.39.39 0 0 0 .48.24.38.38 0 0 0 .21-.5zM387.63 125.69a.84.84 0 0 0 0-1.68.84.84 0 1 0 0 1.68zM390.26 129.44l-.95-2.86a.61.61 0 0 0-.61-.55h-2.11a.65.65 0 0 0-.53.29s0 .07-.05.1 0 0 0 .06l-.93 3a.38.38 0 0 0 .25.47.38.38 0 0 0 .47-.25l.74-2.35h.13l-1.12 4.21h1.15v3.32a.44.44 0 0 0 .43.44.44.44 0 0 0 .44-.44v-3.32h.25v3.32a.44.44 0 1 0 .87 0v-3.32h1.14l-1.18-4.21h.14l.79 2.35a.37.37 0 1 0 .7-.24zM285.58 64.46c1.32 0 2.39-1.53 2.39-2.85a2.39 2.39 0 0 0-4.78 0c0 1.32 1.07 2.85 2.39 2.85zM291.05 73.06l-.75-6.8v-.14a1.46 1.46 0 0 0-.07-.19.45.45 0 0 0-.1-.14.81.81 0 0 0-.12-.14.54.54 0 0 0-.18-.11l-.11-.07a17.62 17.62 0 0 0-2.62-.68 8.46 8.46 0 0 0-3.48.1 17.32 17.32 0 0 0-2 .56H281.5a1.28 1.28 0 0 0-.25.15l-.08.11a.7.7 0 0 0-.13.17 1.39 1.39 0 0 0-.06.19.74.74 0 0 0 0 .14l-.76 6.8a1 1 0 0 0 .83 1H281a.94.94 0 0 0 .94-.84l.69-6.2.26-.08v6.46l-.75 9.35a1.14 1.14 0 0 0 1 1.23h.09a1.13 1.13 0 0 0 1.13-1l.68-8.46a1.09 1.09 0 0 0 .91 0l.68 8.46a1.14 1.14 0 0 0 1.13 1h.1a1.13 1.13 0 0 0 1-1.23l-.75-9.35V67l.27.08.68 6.2a1 1 0 0 0 .94.84h.11a1 1 0 0 0 .94-1.06z"/><path class="cls-10" d="M295.15 89.9a2.15 2.15 0 0 0 1.85-2.17 1.82 1.82 0 0 0-3.64 0 2.15 2.15 0 0 0 1.79 2.17zM299.31 96.43l-.57-5.17v-.1-.15a.76.76 0 0 0-.08-.11.81.81 0 0 0-.09-.1.46.46 0 0 0-.13-.08l-.09-.06a13.88 13.88 0 0 0-2-.51 6.33 6.33 0 0 0-2.65.08 10.84 10.84 0 0 0-1.54.42H292a.78.78 0 0 0-.2.11l-.06.08a.64.64 0 0 0-.1.13.83.83 0 0 0 0 .15 1 1 0 0 0 0 .1l-.64 5.21a.71.71 0 0 0 .63.79h.08a.72.72 0 0 0 .72-.64l.52-4.71.2-.06v4.91l-.57 7.1a.86.86 0 0 0 .79.93h.07a.87.87 0 0 0 .86-.79l.51-6.42a.91.91 0 0 0 .7 0L296 104a.85.85 0 0 0 .85.79h.07a.86.86 0 0 0 .79-.93l-.57-7.1v-4.94l.2.06.52 4.71a.72.72 0 0 0 .72.64h.08a.71.71 0 0 0 .65-.8zM285.81 89.9a2.14 2.14 0 0 0 1.81-2.17 1.82 1.82 0 0 0-3.63 0 2.14 2.14 0 0 0 1.82 2.17zM290 96.43l-.58-5.17a.29.29 0 0 0 0-.1.44.44 0 0 0-.05-.15.76.76 0 0 0-.08-.11l-.08-.1a.5.5 0 0 0-.14-.08l-.09-.06a13.88 13.88 0 0 0-2-.51 6.26 6.26 0 0 0-2.64.08 11.13 11.13 0 0 0-1.55.42h-.05a.72.72 0 0 0-.19.11l-.07.08a.6.6 0 0 0-.09.13.88.88 0 0 0-.05.15.29.29 0 0 0 0 .1l-.57 5.17a.7.7 0 0 0 .63.79h.08a.71.71 0 0 0 .71-.64l.53-4.71.2-.06v4.91l-.58 7.1a.87.87 0 0 0 .79.93h.07a.85.85 0 0 0 .86-.79l.52-6.42a1 1 0 0 0 .35.07.94.94 0 0 0 .34-.07l.52 6.42a.86.86 0 0 0 .86.79h.07a.86.86 0 0 0 .79-.93l-.58-7.1v-4.86l.21.06.52 4.71a.71.71 0 0 0 .71.64h.08a.71.71 0 0 0 .55-.8zM276.38 89.9a2.14 2.14 0 0 0 1.82-2.17 1.82 1.82 0 0 0-3.63 0 2.14 2.14 0 0 0 1.81 2.17zM280.54 96.43l-.54-5.17a.29.29 0 0 0 0-.1s0-.1-.05-.15a.76.76 0 0 0-.08-.11.81.81 0 0 0-.09-.1.35.35 0 0 0-.13-.08l-.09-.06a13.88 13.88 0 0 0-2-.51 6.26 6.26 0 0 0-2.64.08 11.13 11.13 0 0 0-1.55.42h-.05a.59.59 0 0 0-.19.11l-.07.08a1.47 1.47 0 0 0-.1.13.83.83 0 0 0 0 .15.29.29 0 0 0 0 .1l-.58 5.17a.71.71 0 0 0 .64.79h.08a.71.71 0 0 0 .71-.64l.52-4.71.2-.06v4.91l-.57 7.1a.86.86 0 0 0 .79.93h.07a.86.86 0 0 0 .86-.79l.51-6.42a1 1 0 0 0 .35.07 1 1 0 0 0 .35-.07l.52 6.42a.85.85 0 0 0 .85.79h.07a.86.86 0 0 0 .79-.93l-.57-7.1v-4.86l.2.06.53 4.71a.71.71 0 0 0 .71.64h.08a.71.71 0 0 0 .47-.8z"/><path class="cls-5" d="M286.1 110.17a1.62 1.62 0 0 0 1.38-1.65 1.38 1.38 0 1 0-2.76 0 1.63 1.63 0 0 0 1.38 1.65zM289.27 115.15l-.44-3.94a.24.24 0 0 0 0-.08.76.76 0 0 0 0-.11.24.24 0 0 0-.06-.08l-.06-.08-.11-.07h-.06a8.51 8.51 0 0 0-1.52-.4 5 5 0 0 0-2 .06 9.35 9.35 0 0 0-1.17.32h-.07a.54.54 0 0 0-.15.09l-.05.06a.36.36 0 0 0-.07.1.49.49 0 0 0 0 .11v.08l-.44 3.94a.54.54 0 0 0 .48.6h.06a.55.55 0 0 0 .55-.49l.4-3.59h.15v3.73l-.44 5.42a.66.66 0 0 0 .6.71h.06a.65.65 0 0 0 .65-.61l.4-4.89a.58.58 0 0 0 .26.06.63.63 0 0 0 .27-.06l.39 4.89a.65.65 0 0 0 .65.61h.06a.66.66 0 0 0 .6-.71l-.44-5.42v-3.73h.16l.39 3.59a.55.55 0 0 0 .55.49h.06a.54.54 0 0 0 .34-.6zM279 110.17a1.63 1.63 0 0 0 1.38-1.65 1.38 1.38 0 1 0-2.76 0 1.63 1.63 0 0 0 1.38 1.65zM282.15 115.15l-.44-3.94a.24.24 0 0 0 0-.08.76.76 0 0 0 0-.11.24.24 0 0 0-.06-.08l-.06-.08-.11-.07h-.06a8.51 8.51 0 0 0-1.52-.4 5 5 0 0 0-2 .06 9.35 9.35 0 0 0-1.17.32h-.07a.54.54 0 0 0-.15.09l-.05.06a.36.36 0 0 0-.07.1.49.49 0 0 0 0 .11v.08l-.44 3.94a.54.54 0 0 0 .48.6h.06a.55.55 0 0 0 .55-.49l.4-3.59h.15v3.73l-.44 5.42a.66.66 0 0 0 .61.71h.05a.65.65 0 0 0 .65-.61l.4-4.89a.58.58 0 0 0 .26.06.63.63 0 0 0 .27-.06l.39 4.89a.65.65 0 0 0 .65.61h.06a.66.66 0 0 0 .6-.71l-.44-5.42v-3.73h.16l.39 3.59a.55.55 0 0 0 .55.49h.06a.54.54 0 0 0 .34-.6z"/><path class="cls-5" d="M286.1 110.17a1.62 1.62 0 0 0 1.38-1.65 1.38 1.38 0 1 0-2.76 0 1.63 1.63 0 0 0 1.38 1.65zM289.27 115.15l-.44-3.94a.24.24 0 0 0 0-.08.76.76 0 0 0 0-.11.24.24 0 0 0-.06-.08l-.06-.08-.11-.07h-.06a8.51 8.51 0 0 0-1.52-.4 5 5 0 0 0-2 .06 9.35 9.35 0 0 0-1.17.32h-.07a.54.54 0 0 0-.15.09l-.05.06a.36.36 0 0 0-.07.1.49.49 0 0 0 0 .11v.08l-.44 3.94a.54.54 0 0 0 .48.6h.06a.55.55 0 0 0 .55-.49l.4-3.59h.15v3.73l-.44 5.42a.66.66 0 0 0 .6.71h.06a.65.65 0 0 0 .65-.61l.4-4.89a.58.58 0 0 0 .26.06.63.63 0 0 0 .27-.06l.39 4.89a.65.65 0 0 0 .65.61h.06a.66.66 0 0 0 .6-.71l-.44-5.42v-3.73h.16l.39 3.59a.55.55 0 0 0 .55.49h.06a.54.54 0 0 0 .34-.6zM279 110.17a1.63 1.63 0 0 0 1.38-1.65 1.38 1.38 0 1 0-2.76 0 1.63 1.63 0 0 0 1.38 1.65zM282.15 115.15l-.44-3.94a.24.24 0 0 0 0-.08.76.76 0 0 0 0-.11.24.24 0 0 0-.06-.08l-.06-.08-.11-.07h-.06a8.51 8.51 0 0 0-1.52-.4 5 5 0 0 0-2 .06 9.35 9.35 0 0 0-1.17.32h-.07a.54.54 0 0 0-.15.09l-.05.06a.36.36 0 0 0-.07.1.49.49 0 0 0 0 .11v.08l-.44 3.94a.54.54 0 0 0 .48.6h.06a.55.55 0 0 0 .55-.49l.4-3.59h.15v3.73l-.44 5.42a.66.66 0 0 0 .61.71h.05a.65.65 0 0 0 .65-.61l.4-4.89a.58.58 0 0 0 .26.06.63.63 0 0 0 .27-.06l.39 4.89a.65.65 0 0 0 .65.61h.06a.66.66 0 0 0 .6-.71l-.44-5.42v-3.73h.16l.39 3.59a.55.55 0 0 0 .55.49h.06a.54.54 0 0 0 .34-.6zM271.8 110.17a1.63 1.63 0 0 0 1.39-1.65 1.39 1.39 0 0 0-2.77 0 1.63 1.63 0 0 0 1.38 1.65zM275 115.15l-.44-3.94a.24.24 0 0 0 0-.08v-.11l-.07-.08-.06-.08-.11-.07h-.06a8.51 8.51 0 0 0-1.52-.4 5 5 0 0 0-2 .06 9.92 9.92 0 0 0-1.17.32h-.07l-.15.09-.05.06a.86.86 0 0 0-.07.1.49.49 0 0 0 0 .11v.08l-.44 3.94a.54.54 0 0 0 .49.6h.06a.55.55 0 0 0 .54-.49l.4-3.59h.15v3.73l-.44 5.42a.67.67 0 0 0 .61.71h.05a.65.65 0 0 0 .65-.61l.4-4.89a.58.58 0 0 0 .26.06.6.6 0 0 0 .27-.06l.39 4.89a.65.65 0 0 0 .65.61h.06a.66.66 0 0 0 .6-.71l-.44-5.42v-3.73h.16l.39 3.59a.56.56 0 0 0 .55.49h.06a.54.54 0 0 0 .35-.6zM300.63 110.17a1.63 1.63 0 0 0 1.38-1.65 1.38 1.38 0 1 0-2.76 0 1.63 1.63 0 0 0 1.38 1.65zM303.8 115.15l-.44-3.94a.24.24 0 0 0 0-.08.76.76 0 0 0 0-.11.24.24 0 0 0-.06-.08.27.27 0 0 0-.07-.08l-.1-.07h-.06a8.51 8.51 0 0 0-1.52-.4 5 5 0 0 0-2 .06 9.35 9.35 0 0 0-1.17.32h-.07a.54.54 0 0 0-.15.09l-.05.06a.36.36 0 0 0-.07.1.49.49 0 0 0 0 .11v.08l-.44 3.94a.54.54 0 0 0 .48.6H298a.55.55 0 0 0 .55-.49l.4-3.59h.15v3.73l-.44 5.42a.66.66 0 0 0 .6.71h.06a.65.65 0 0 0 .65-.61l.4-4.89a.59.59 0 0 0 .52 0l.4 4.89a.65.65 0 0 0 .65.61h.06a.66.66 0 0 0 .6-.71l-.44-5.42v-3.73h.15l.4 3.59a.55.55 0 0 0 .55.49h.06a.54.54 0 0 0 .48-.6zM293.51 110.17a1.63 1.63 0 0 0 1.38-1.65 1.38 1.38 0 1 0-2.76 0 1.62 1.62 0 0 0 1.38 1.65zM296.68 115.15l-.44-3.94a.24.24 0 0 0 0-.08.76.76 0 0 0 0-.11.24.24 0 0 0-.06-.08.27.27 0 0 0-.07-.08l-.1-.07h-.06a8.51 8.51 0 0 0-1.52-.4 4.92 4.92 0 0 0-2 .06 10.3 10.3 0 0 0-1.18.32h-.06a.54.54 0 0 0-.15.09v.06a.36.36 0 0 0-.07.1.49.49 0 0 0 0 .11.24.24 0 0 0 0 .08l-.44 3.94a.54.54 0 0 0 .48.6h.06a.55.55 0 0 0 .55-.49l.4-3.59h.15v3.73l-.44 5.42a.66.66 0 0 0 .6.71h.06a.65.65 0 0 0 .65-.61l.4-4.89a.59.59 0 0 0 .52 0l.4 4.89a.65.65 0 0 0 .65.61h.05a.66.66 0 0 0 .61-.71l-.44-5.42v-3.73h.15l.4 3.59a.55.55 0 0 0 .55.49h.06a.54.54 0 0 0 .29-.6zM275.3 126.41a1.3 1.3 0 0 0 1.1-1.31 1.1 1.1 0 0 0-2.19 0 1.3 1.3 0 0 0 1.09 1.31zM277.81 130.34l-.34-3.11v-.06a.94.94 0 0 0 0-.09.18.18 0 0 0-.05-.07l-.05-.06h-.14a7.07 7.07 0 0 0-1.2-.31 3.77 3.77 0 0 0-1.59 0 6.26 6.26 0 0 0-.93.26h-.06a.41.41 0 0 0-.11.07.24.24 0 0 0-.06.08V127.2l-.34 3.11a.43.43 0 0 0 .38.48h.05a.44.44 0 0 0 .43-.38l.31-2.84h.12v3l-.34 4.28a.51.51 0 0 0 .47.56.52.52 0 0 0 .52-.48l.31-3.88a.54.54 0 0 0 .21.05.46.46 0 0 0 .21-.05l.32 3.88a.51.51 0 0 0 .51.48.52.52 0 0 0 .48-.56l-.34-4.28v-3h.12l.31 2.84a.43.43 0 0 0 .43.38h.05a.43.43 0 0 0 .32-.45zM269.67 126.41a1.31 1.31 0 0 0 1.1-1.31 1.1 1.1 0 0 0-2.19 0 1.3 1.3 0 0 0 1.09 1.31zM272.18 130.34l-.35-3.11a.11.11 0 0 0 0-.06.24.24 0 0 0 0-.09l-.05-.07-.06-.06h-.08-.05a7.39 7.39 0 0 0-1.2-.31 3.76 3.76 0 0 0-1.59 0 6.53 6.53 0 0 0-.94.26h-.05l-.12.07a.22.22 0 0 0-.05.08v.08a.14.14 0 0 0 0 .07l-.35 3.11a.44.44 0 0 0 .39.48.42.42 0 0 0 .43-.38l.32-2.84h.12v3l-.35 4.28a.52.52 0 0 0 .48.56.52.52 0 0 0 .52-.48l.31-3.88a.54.54 0 0 0 .21.05.46.46 0 0 0 .21-.05l.31 3.88a.52.52 0 0 0 .52.48.52.52 0 0 0 .48-.56l-.35-4.28v-3h.12l.32 2.84a.42.42 0 0 0 .43.38h.05a.43.43 0 0 0 .37-.45z"/><path class="cls-5" d="M275.3 126.41a1.3 1.3 0 0 0 1.1-1.31 1.1 1.1 0 0 0-2.19 0 1.3 1.3 0 0 0 1.09 1.31zM277.81 130.34l-.34-3.11v-.06a.94.94 0 0 0 0-.09.18.18 0 0 0-.05-.07l-.05-.06h-.14a7.07 7.07 0 0 0-1.2-.31 3.77 3.77 0 0 0-1.59 0 6.26 6.26 0 0 0-.93.26h-.06a.41.41 0 0 0-.11.07.24.24 0 0 0-.06.08V127.2l-.34 3.11a.43.43 0 0 0 .38.48h.05a.44.44 0 0 0 .43-.38l.31-2.84h.12v3l-.34 4.28a.51.51 0 0 0 .47.56.52.52 0 0 0 .52-.48l.31-3.88a.54.54 0 0 0 .21.05.46.46 0 0 0 .21-.05l.32 3.88a.51.51 0 0 0 .51.48.52.52 0 0 0 .48-.56l-.34-4.28v-3h.12l.31 2.84a.43.43 0 0 0 .43.38h.05a.43.43 0 0 0 .32-.45zM269.67 126.41a1.31 1.31 0 0 0 1.1-1.31 1.1 1.1 0 0 0-2.19 0 1.3 1.3 0 0 0 1.09 1.31zM272.18 130.34l-.35-3.11a.11.11 0 0 0 0-.06.24.24 0 0 0 0-.09l-.05-.07-.06-.06h-.08-.05a7.39 7.39 0 0 0-1.2-.31 3.76 3.76 0 0 0-1.59 0 6.53 6.53 0 0 0-.94.26h-.05l-.12.07a.22.22 0 0 0-.05.08v.08a.14.14 0 0 0 0 .07l-.35 3.11a.44.44 0 0 0 .39.48.42.42 0 0 0 .43-.38l.32-2.84h.12v3l-.35 4.28a.52.52 0 0 0 .48.56.52.52 0 0 0 .52-.48l.31-3.88a.54.54 0 0 0 .21.05.46.46 0 0 0 .21-.05l.31 3.88a.52.52 0 0 0 .52.48.52.52 0 0 0 .48-.56l-.35-4.28v-3h.12l.32 2.84a.42.42 0 0 0 .43.38h.05a.43.43 0 0 0 .37-.45zM264 126.41a1.3 1.3 0 0 0 1.1-1.31 1.1 1.1 0 0 0-2.19 0 1.3 1.3 0 0 0 1.09 1.31zM266.5 130.34l-.35-3.11a.11.11 0 0 0 0-.06.14.14 0 0 0 0-.09.43.43 0 0 0 0-.07L266 127h-.09-.05a7.39 7.39 0 0 0-1.2-.31 3.76 3.76 0 0 0-1.59 0 7 7 0 0 0-.94.26h-.05l-.08.05a.22.22 0 0 0-.05.08v.08a.14.14 0 0 0 0 .07l-.35 3.11a.44.44 0 0 0 .38.48h.05a.42.42 0 0 0 .43-.38l.32-2.84h.12v3l-.35 4.28a.53.53 0 0 0 .48.56.52.52 0 0 0 .52-.48l.31-3.88a.54.54 0 0 0 .21.05.46.46 0 0 0 .21-.05l.31 3.88a.52.52 0 0 0 .52.48.52.52 0 0 0 .48-.56l-.35-4.28v-3h.12l.32 2.84a.42.42 0 0 0 .43.38h.05a.43.43 0 0 0 .34-.48zM286.8 126.41a1.3 1.3 0 0 0 1.09-1.31 1.1 1.1 0 0 0-2.19 0 1.3 1.3 0 0 0 1.1 1.31zM289.31 130.34l-.35-3.11a.11.11 0 0 0 0-.06v-.09a.18.18 0 0 0-.05-.07l-.05-.06h-.08-.05a7.39 7.39 0 0 0-1.2-.31 3.83 3.83 0 0 0-1.6 0 6.67 6.67 0 0 0-.93.26h-.05a.35.35 0 0 0-.12.07l-.06.08v.08a.14.14 0 0 0 0 .07l-.35 3.11a.44.44 0 0 0 .38.48h.05a.42.42 0 0 0 .43-.38l.32-2.84h.12v3l-.35 4.28a.52.52 0 0 0 .48.56.52.52 0 0 0 .52-.48l.31-3.88a.46.46 0 0 0 .21.05.54.54 0 0 0 .11-.1l.31 3.88a.52.52 0 0 0 .52.48.5.5 0 0 0 .47-.56l-.34-4.28v-3h.12l.32 2.84a.42.42 0 0 0 .43.38.44.44 0 0 0 .48-.4zM281.17 126.41a1.3 1.3 0 0 0 1.09-1.31 1.1 1.1 0 0 0-2.19 0 1.3 1.3 0 0 0 1.1 1.31zM283.67 130.34l-.34-3.11v-.06a.94.94 0 0 0 0-.09.18.18 0 0 0 0-.07l-.05-.06h-.08-.05a7.75 7.75 0 0 0-1.2-.31 3.81 3.81 0 0 0-1.6 0 6.26 6.26 0 0 0-.93.26h-.06a.41.41 0 0 0-.11.07l-.06.08v.08a.25.25 0 0 1 0 .07l-.34 3.11a.43.43 0 0 0 .38.48.43.43 0 0 0 .43-.38l.31-2.84h.12v3l-.34 4.28a.52.52 0 0 0 .47.56h.05a.54.54 0 0 0 .52-.48L281 131a.46.46 0 0 0 .21.05.46.46 0 0 0 .2-.05l.32 3.88a.52.52 0 0 0 .51.48.52.52 0 0 0 .48-.56l-.34-4.28v-3h.12l.31 2.84a.44.44 0 0 0 .43.38h.05a.43.43 0 0 0 .38-.4zM298 126.41a1.3 1.3 0 0 0 1.09-1.31 1.1 1.1 0 0 0-2.19 0 1.3 1.3 0 0 0 1.1 1.31zM300.49 130.34l-.35-3.11a.11.11 0 0 0 0-.06v-.09a.18.18 0 0 0 0-.07L300 127h-.08-.05a7.39 7.39 0 0 0-1.2-.31 3.83 3.83 0 0 0-1.6 0 6.67 6.67 0 0 0-.93.26h-.05a.47.47 0 0 0-.12.07l-.06.08a.19.19 0 0 0 0 .08.14.14 0 0 0 0 .07l-.35 3.11a.43.43 0 0 0 .38.48.42.42 0 0 0 .43-.38l.32-2.84h.12v3l-.35 4.28a.52.52 0 0 0 .48.56.52.52 0 0 0 .52-.48l.31-3.88a.46.46 0 0 0 .21.05.54.54 0 0 0 .21-.05l.31 3.88a.52.52 0 0 0 .52.48.51.51 0 0 0 .47-.56l-.34-4.28v-3h.12l.31 2.84a.44.44 0 0 0 .44.38.44.44 0 0 0 .47-.5zM292.35 126.41a1.3 1.3 0 0 0 1.09-1.31 1.1 1.1 0 0 0-2.19 0 1.3 1.3 0 0 0 1.1 1.31zM294.85 130.34l-.34-3.11v-.06a.94.94 0 0 0 0-.09.18.18 0 0 0 0-.07l-.05-.06h-.08-.06a7.12 7.12 0 0 0-1.19-.31 3.77 3.77 0 0 0-1.59 0 6.67 6.67 0 0 0-.93.26h-.06a.41.41 0 0 0-.11.07l-.06.08v.08a.25.25 0 0 1 0 .07l-.34 3.11a.43.43 0 0 0 .38.48.43.43 0 0 0 .43-.38l.31-2.84h.12v3l-.34 4.28a.52.52 0 0 0 .47.56h.05a.52.52 0 0 0 .51-.48l.32-3.88a.46.46 0 0 0 .21.05.54.54 0 0 0 .21-.05l.31 3.88a.52.52 0 0 0 .51.48h.05a.52.52 0 0 0 .47-.56l-.34-4.28v-3h.12l.31 2.84a.43.43 0 0 0 .43.38h.05a.43.43 0 0 0 .23-.45zM309.47 126.41a1.3 1.3 0 0 0 1.1-1.31 1.1 1.1 0 0 0-2.19 0 1.3 1.3 0 0 0 1.09 1.31zM312 130.34l-.35-3.11v-.06a.94.94 0 0 0 0-.09.18.18 0 0 0 0-.07l-.05-.06h-.09a7.39 7.39 0 0 0-1.2-.31 3.77 3.77 0 0 0-1.59 0 6.26 6.26 0 0 0-.93.26h-.06a.41.41 0 0 0-.11.07.16.16 0 0 0-.06.08v.08a.14.14 0 0 0 0 .07l-.35 3.11a.44.44 0 0 0 .39.48.44.44 0 0 0 .44-.38l.31-2.84h.12v3l-.34 4.28a.51.51 0 0 0 .47.56.52.52 0 0 0 .52-.48l.31-3.88a.54.54 0 0 0 .21.05.46.46 0 0 0 .21-.05l.31 3.88a.53.53 0 0 0 .52.48.52.52 0 0 0 .48-.56l-.35-4.28v-3h.13l.31 2.84a.42.42 0 0 0 .43.38h.05a.43.43 0 0 0 .27-.45zM303.84 126.41a1.3 1.3 0 0 0 1.09-1.31 1.1 1.1 0 0 0-2.19 0 1.3 1.3 0 0 0 1.1 1.31zM306.35 130.34l-.35-3.11a.11.11 0 0 0 0-.06.14.14 0 0 0 0-.09.43.43 0 0 0 0-.07l-.06-.06h-.08a7.39 7.39 0 0 0-1.2-.31 3.76 3.76 0 0 0-1.59 0 6.53 6.53 0 0 0-.94.26h-.05l-.12.07-.06.08v.08a.14.14 0 0 0 0 .07l-.35 3.11a.44.44 0 0 0 .38.48h.05a.42.42 0 0 0 .43-.38l.32-2.84h.12v3l-.35 4.28a.52.52 0 0 0 .48.56.52.52 0 0 0 .52-.48l.31-3.88a.47.47 0 0 0 .42 0l.31 3.88a.52.52 0 0 0 .52.48.52.52 0 0 0 .48-.56l-.35-4.28v-3h.12l.32 2.84a.42.42 0 0 0 .43.38H306a.44.44 0 0 0 .35-.45zM95.59 184.05h5.49v29.22h-5.49zM101.93 191.08h5.05v22.19h-5.05z"/><path class="cls-10" d="M107.94 188.67h5.27v24.61h-5.27z"/><path class="cls-5" d="M114.17 195.48h5.05v17.8h-5.05zM127.33 167.78h5.49v45.5h-5.49zM133.67 182.02h5.05v31.25h-5.05z"/><path class="cls-10" d="M139.68 179.76h5.27v33.51h-5.27z"/><path class="cls-5" d="M145.91 190.26h5.05v23.02h-5.05zM158.19 184.05h5.49v29.22h-5.49zM164.53 191.08h5.05v22.19h-5.05z"/><path class="cls-10" d="M170.54 188.67h5.27v24.61h-5.27z"/><path class="cls-5" d="M176.77 195.48h5.05v17.8h-5.05zM85.6 158.36a.68.68 0 0 0-.17.47.62.62 0 0 0 .22.52.72.72 0 0 0 .42.13.49.49 0 0 0 .47-.26 1.08 1.08 0 0 1-.14.59.62.62 0 0 1-.55.27 1 1 0 0 1-.34-.07v.19a1.19 1.19 0 0 0 .33.05c.6 0 .91-.38.91-1.12s-.22-1-.66-1a.65.65 0 0 0-.49.2zm0 .46a.5.5 0 0 1 .12-.35.46.46 0 0 1 .34-.14.36.36 0 0 1 .33.16.61.61 0 0 1 .11.36.48.48 0 0 1-.12.33.49.49 0 0 1-.34.12c-.3 0-.44-.16-.44-.48zM87.24 158.36a.65.65 0 0 0-.19.47.62.62 0 0 0 .22.52.72.72 0 0 0 .42.13.53.53 0 0 0 .49-.26c0 .58-.24.86-.7.86a1 1 0 0 1-.33-.07v.19a1.19 1.19 0 0 0 .33.05c.62 0 .92-.38.92-1.12s-.22-1-.65-1a.63.63 0 0 0-.49.2zm0 .46a.5.5 0 0 1 .12-.35.45.45 0 0 1 .33-.14.36.36 0 0 1 .33.16.55.55 0 0 1 .11.36.44.44 0 0 1-.12.33.49.49 0 0 1-.34.12c-.28 0-.43-.16-.43-.48zM89.36 158.16c-.45 0-.67.35-.67 1s.22 1.05.67 1.05.67-.35.67-1.05-.22-1-.67-1zm-.48 1c0-.57.16-.87.48-.87s.46.3.46.87-.16.88-.46.88-.48-.29-.48-.88zM86.09 164.17a.65.65 0 0 0-.49.2.68.68 0 0 0-.17.47.62.62 0 0 0 .22.52.72.72 0 0 0 .42.13.49.49 0 0 0 .47-.26 1.08 1.08 0 0 1-.14.59.62.62 0 0 1-.55.27.84.84 0 0 1-.34-.08v.2a1.19 1.19 0 0 0 .33 0c.6 0 .91-.37.91-1.11s-.22-1-.66-1zm-.34.32a.43.43 0 0 1 .34-.15.36.36 0 0 1 .33.16.61.61 0 0 1 .11.36.48.48 0 0 1-.12.33.49.49 0 0 1-.34.12c-.3 0-.44-.16-.44-.48a.5.5 0 0 1 .12-.34zM87.05 164.84a.62.62 0 0 0 .22.52.72.72 0 0 0 .42.13.53.53 0 0 0 .49-.26c0 .58-.24.86-.7.86a.8.8 0 0 1-.33-.08v.2a1.19 1.19 0 0 0 .33 0c.62 0 .92-.37.92-1.11s-.22-1-.65-1a.63.63 0 0 0-.49.2.65.65 0 0 0-.19.47zm.21 0a.5.5 0 0 1 .12-.34.43.43 0 0 1 .33-.15.36.36 0 0 1 .33.16.55.55 0 0 1 .11.36.44.44 0 0 1-.12.33.49.49 0 0 1-.34.12c-.28 0-.43-.16-.43-.48zM89 165v-.66h.85v-.17h-1v1a2 2 0 0 1 .45-.06c.34 0 .51.16.51.47a.44.44 0 0 1-.17.35.68.68 0 0 1-.38.11.92.92 0 0 1-.43-.11v.21a1.61 1.61 0 0 0 .43.07.79.79 0 0 0 .54-.17.65.65 0 0 0 .21-.51.59.59 0 0 0-.17-.44.63.63 0 0 0-.46-.16.83.83 0 0 0-.38.07zM84.48 158.19l-.46.38.11.13.33-.29v1.81h.21v-2.03h-.19zM84.67 164.2h-.19l-.46.38.11.13.33-.29v1.81h.21v-2.03zM85 170.72a.47.47 0 0 0-.17-.4.62.62 0 0 0-.41-.14 1.16 1.16 0 0 0-.51.14v.19a1.08 1.08 0 0 1 .5-.14.37.37 0 0 1 .25.09.38.38 0 0 1 .1.27 1.5 1.5 0 0 1-.48.82l-.47.52v.17H85v-.17h-1l.36-.4a1.64 1.64 0 0 0 .56-.95zM86.77 171.23c0-.69-.22-1-.67-1s-.67.36-.67 1 .22 1 .67 1 .67-.34.67-1zm-.67-.86c.31 0 .47.29.47.86s-.16.87-.47.87-.47-.29-.47-.87.16-.86.47-.86zM88.4 171.23c0-.69-.22-1-.67-1s-.68.36-.68 1 .22 1 .68 1 .67-.34.67-1zm-.67-.86c.31 0 .47.29.47.86s-.16.87-.47.87-.47-.29-.47-.87.16-.86.47-.86zM89.36 170.18c-.45 0-.67.36-.67 1s.22 1 .67 1 .67-.34.67-1-.22-1-.67-1zm-.48 1c0-.57.16-.86.48-.86s.46.29.46.86-.16.87-.46.87-.48-.29-.48-.87zM85 176.73a.47.47 0 0 0-.17-.4.62.62 0 0 0-.41-.14 1.16 1.16 0 0 0-.51.14v.19a1.08 1.08 0 0 1 .5-.14.33.33 0 0 1 .25.1.34.34 0 0 1 .1.26 1.5 1.5 0 0 1-.48.82l-.47.52v.17H85v-.17h-1l.36-.4a1.64 1.64 0 0 0 .56-1zM85 182.74a.47.47 0 0 0-.17-.4.62.62 0 0 0-.41-.14 1.12 1.12 0 0 0-.51.15v.18a1.08 1.08 0 0 1 .5-.14.33.33 0 0 1 .25.1.34.34 0 0 1 .1.26c0 .19-.16.45-.48.83l-.47.51v.18H85v-.18h-1l.36-.4a1.64 1.64 0 0 0 .56-.95zM84.4 188.21a1.12 1.12 0 0 0-.51.15v.18a1.08 1.08 0 0 1 .5-.14.37.37 0 0 1 .25.09.38.38 0 0 1 .1.27c0 .19-.16.45-.48.83l-.47.51v.18H85v-.18h-1l.36-.4a1.64 1.64 0 0 0 .56-.95.47.47 0 0 0-.17-.4.62.62 0 0 0-.41-.14zM86.1 176.19c-.45 0-.67.36-.67 1.05s.22 1 .67 1 .67-.34.67-1-.22-1.05-.67-1.05zm-.47 1.05c0-.57.16-.86.47-.86s.47.29.47.86-.16.87-.47.87-.47-.29-.47-.87zM88.4 177.24c0-.69-.22-1.05-.67-1.05s-.68.36-.68 1.05.22 1 .68 1 .67-.34.67-1zm-.67-.86c.31 0 .47.29.47.86s-.16.87-.47.87-.47-.29-.47-.87.16-.86.47-.86zM88.83 176.22v1a2 2 0 0 1 .45-.06c.34 0 .51.16.51.47a.44.44 0 0 1-.17.35.68.68 0 0 1-.38.11.92.92 0 0 1-.43-.11v.21a1.61 1.61 0 0 0 .43.07.79.79 0 0 0 .54-.17.64.64 0 0 0 .21-.51.59.59 0 0 0-.17-.44.63.63 0 0 0-.46-.16.83.83 0 0 0-.32.05v-.66h.85v-.17zM86.77 183.25c0-.69-.22-1.05-.67-1.05s-.67.36-.67 1.05.22 1 .67 1 .67-.34.67-1zm-.67-.86c.31 0 .47.29.47.86s-.16.87-.47.87-.47-.29-.47-.87.16-.86.47-.86zM87.27 182.62l.11.12.33-.28v1.8h.21v-2.03h-.18l-.47.39zM89.36 182.2c-.45 0-.67.36-.67 1.05s.22 1 .67 1 .67-.34.67-1-.22-1.05-.67-1.05zm-.48 1.05c0-.57.16-.86.48-.86s.46.29.46.86-.16.87-.46.87-.48-.29-.48-.87zM86.77 189.26c0-.69-.22-1-.67-1s-.67.36-.67 1 .22 1 .67 1 .67-.34.67-1zm-.67-.86c.31 0 .47.29.47.86s-.16.87-.47.87-.47-.29-.47-.87.16-.86.47-.86zM87.27 188.63l.11.12.33-.28v1.81h.21v-2.04h-.18l-.47.39zM89.88 188.24h-1v1a3.12 3.12 0 0 1 .45-.06c.34 0 .51.16.51.47a.44.44 0 0 1-.17.35.68.68 0 0 1-.38.11.92.92 0 0 1-.43-.11v.21a1.29 1.29 0 0 0 .43.07.79.79 0 0 0 .54-.17.64.64 0 0 0 .21-.51.56.56 0 0 0-.17-.43.63.63 0 0 0-.46-.16.89.89 0 0 0-.32 0v-.66h.85v-.17zM84.84 194.38a.47.47 0 0 0-.17-.4.62.62 0 0 0-.42-.13 1.2 1.2 0 0 0-.51.13v.19a1.08 1.08 0 0 1 .5-.14.33.33 0 0 1 .25.1.38.38 0 0 1 .1.26 1.47 1.47 0 0 1-.49.82l-.46.52v.18h1.22v-.18h-1l.37-.4a1.64 1.64 0 0 0 .56-1zM86.63 194.89c0-.69-.22-1-.67-1s-.67.35-.67 1 .22 1 .67 1 .67-.34.67-1zM86 194c.31 0 .47.29.47.86s-.16.87-.47.87-.47-.29-.47-.87.15-.86.47-.86zM88.25 194.89c0-.69-.22-1-.67-1s-.67.35-.67 1 .22 1 .67 1 .67-.34.67-1zm-.67-.86c.32 0 .48.29.48.86s-.16.87-.48.87-.46-.29-.46-.87.16-.86.46-.86zM89.22 193.85c-.45 0-.67.35-.67 1s.22 1 .67 1 .67-.34.67-1-.22-1-.67-1zm-.48 1c0-.57.16-.86.48-.86s.46.29.46.86-.16.87-.46.87-.48-.29-.48-.87zM84.84 200.39a.49.49 0 0 0-.17-.4.62.62 0 0 0-.42-.13 1.2 1.2 0 0 0-.51.13v.19a1.08 1.08 0 0 1 .5-.14.37.37 0 0 1 .25.1.4.4 0 0 1 .1.26 1.47 1.47 0 0 1-.49.82l-.46.52v.18h1.22v-.18h-1l.37-.4a1.64 1.64 0 0 0 .56-1zM84.84 206.4a.49.49 0 0 0-.17-.4.62.62 0 0 0-.42-.13 1.16 1.16 0 0 0-.51.14v.18a1.08 1.08 0 0 1 .5-.14.37.37 0 0 1 .25.1.38.38 0 0 1 .1.26 1.55 1.55 0 0 1-.49.83l-.46.52v.17h1.22v-.17h-1l.37-.41a1.64 1.64 0 0 0 .56-.95zM84.25 211.88a1.16 1.16 0 0 0-.51.14v.19a1 1 0 0 1 .5-.15.33.33 0 0 1 .25.1.38.38 0 0 1 .1.26 1.55 1.55 0 0 1-.49.83l-.46.52v.17h1.22v-.17h-1l.37-.41a1.64 1.64 0 0 0 .56-1 .47.47 0 0 0-.17-.4.62.62 0 0 0-.42-.13zM86 199.86c-.45 0-.67.35-.67 1s.22 1 .67 1 .67-.34.67-1-.22-1-.67-1zm-.47 1c0-.57.15-.86.47-.86s.47.29.47.86-.16.87-.47.87-.47-.29-.47-.87zM88.25 200.9c0-.69-.22-1-.67-1s-.67.35-.67 1 .22 1 .67 1 .67-.34.67-1zm-.67-.86c.32 0 .48.29.48.86s-.16.87-.48.87-.46-.29-.46-.87.16-.86.46-.86zM88.69 199.88v1a2 2 0 0 1 .45-.06c.34 0 .51.16.51.47a.44.44 0 0 1-.17.35.68.68 0 0 1-.38.11 1 1 0 0 1-.44-.11v.21a1.39 1.39 0 0 0 .44.07.81.81 0 0 0 .54-.17.67.67 0 0 0 .21-.51.59.59 0 0 0-.17-.44.64.64 0 0 0-.47-.16.78.78 0 0 0-.31.05v-.66h.85v-.17zM86.63 206.91c0-.69-.22-1-.67-1s-.67.35-.67 1 .22 1 .67 1 .67-.34.67-1zm-.67-.86c.31 0 .47.29.47.86s-.16.87-.47.87-.47-.29-.47-.87.15-.86.47-.86zM87.13 206.28l.11.12.33-.28v1.81h.21v-2.04h-.18l-.47.39zM89.22 205.87c-.45 0-.67.35-.67 1s.22 1 .67 1 .67-.34.67-1-.22-1-.67-1zm-.48 1c0-.57.16-.86.48-.86s.46.29.46.86-.16.87-.46.87-.48-.29-.48-.87zM86.63 212.92c0-.69-.22-1-.67-1s-.67.35-.67 1 .22 1 .67 1 .67-.34.67-1zm-.67-.86c.31 0 .47.29.47.86s-.16.87-.47.87-.47-.29-.47-.87.15-.86.47-.86zM87.13 212.29l.11.12.33-.28v1.81h.21v-2.04h-.18l-.47.39zM89.74 211.9h-1v1a3.12 3.12 0 0 1 .45-.06c.34 0 .51.16.51.47a.44.44 0 0 1-.17.35.68.68 0 0 1-.38.11 1 1 0 0 1-.44-.11v.21a1.39 1.39 0 0 0 .44.07.81.81 0 0 0 .54-.17.67.67 0 0 0 .21-.51.56.56 0 0 0-.17-.43.64.64 0 0 0-.47-.16.86.86 0 0 0-.31 0v-.66h.85v-.17zM134.61 220.34v-4.69h.66l1.51 2.37a11.16 11.16 0 0 1 .83 1.53c0-.62-.07-1.19-.07-1.91v-2h.57v4.69h-.62L136 218a13.62 13.62 0 0 1-.87-1.58v3.94zM142.23 218.62a1.66 1.66 0 0 1-1.68 1.81 1.62 1.62 0 0 1-1.62-1.74 1.65 1.65 0 0 1 1.67-1.79 1.59 1.59 0 0 1 1.63 1.72zm-2.67 0c0 .75.42 1.3 1 1.3s1-.55 1-1.3c0-.58-.28-1.29-1-1.29s-1 .67-1 1.33zM143.19 217l.67 1.88a7.66 7.66 0 0 1 .26.88c.07-.28.18-.56.29-.88l.65-1.88h.65l-1.33 3.37h-.59l-1.25-3.37zM164.69 215.72a7.22 7.22 0 0 1 1.29-.11 2.75 2.75 0 0 1 1.92.57 2.17 2.17 0 0 1 .67 1.7 2.47 2.47 0 0 1-.68 1.83 3 3 0 0 1-2.1.68 8.47 8.47 0 0 1-1.1-.07zm.61 4.16h.62a1.8 1.8 0 0 0 2-2 1.67 1.67 0 0 0-1.9-1.82 3.2 3.2 0 0 0-.72.06zM169.69 218.77a1.08 1.08 0 0 0 1.16 1.18 2.45 2.45 0 0 0 .93-.18l.11.43a2.44 2.44 0 0 1-1.12.23 1.58 1.58 0 0 1-1.66-1.72 1.62 1.62 0 0 1 1.57-1.81 1.42 1.42 0 0 1 1.4 1.58 2.44 2.44 0 0 1 0 .29zm1.8-.43a.88.88 0 0 0-.85-1 1 1 0 0 0-.94 1zM175.25 220.24a2.44 2.44 0 0 1-1 .19 1.61 1.61 0 0 1-1.68-1.74 1.72 1.72 0 0 1 1.82-1.79 1.86 1.86 0 0 1 .85.18l-.15.47a1.39 1.39 0 0 0-.7-.17 1.28 1.28 0 0 0 0 2.55 1.91 1.91 0 0 0 .75-.16zM106.87 217.94a2.22 2.22 0 0 1-2.18 2.49 2.17 2.17 0 0 1-2.12-2.41 2.24 2.24 0 0 1 2.18-2.47 2.15 2.15 0 0 1 2.12 2.39zm-3.66.07c0 1 .54 1.92 1.51 1.92s1.51-.9 1.51-2-.49-1.93-1.5-1.93-1.52 1-1.52 2zM110.07 220.24a2.44 2.44 0 0 1-1 .19 1.61 1.61 0 0 1-1.69-1.74 1.72 1.72 0 0 1 1.83-1.79 1.75 1.75 0 0 1 .84.18l-.13.47a1.5 1.5 0 0 0-.71-.17 1.17 1.17 0 0 0-1.2 1.28 1.16 1.16 0 0 0 1.17 1.27 1.82 1.82 0 0 0 .75-.16zM111.61 216.16v.84h.89v.47h-.89v1.83c0 .4.12.64.47.64a2.38 2.38 0 0 0 .35 0v.46a1.73 1.73 0 0 1-.55.09.93.93 0 0 1-.66-.26 1.37 1.37 0 0 1-.23-.89v-1.84h-.52v-.5h.53v-.63zM316.34 161.17a1.31 1.31 0 1 1-1.31-1.31 1.31 1.31 0 0 1 1.31 1.31zM316.34 180.64a1.31 1.31 0 1 1-1.31-1.31 1.31 1.31 0 0 1 1.31 1.31zM316.34 188.47a1.31 1.31 0 1 1-1.31-1.3 1.31 1.31 0 0 1 1.31 1.3zM265.1 209.3h-.27v-.43h.27zm0-1.21h-.27v-.52h.27zm0-1.3h-.27v-.52h.27zm0-1.31h-.27V205h.27zm0-1.3h-.27v-.52h.27zm0-1.31h-.27v-.52h.27zm0-1.3h-.27v-.52h.27zm0-1.31h-.27v-.52h.27zm0-1.3h-.27v-.52h.27zm0-1.3h-.27v-.53h.27zm0-1.31h-.27v-.52h.27zm0-1.3h-.27v-.53h.27zm0-1.31h-.27v-.52h.27zm0-1.3h-.27v-.52h.27zm0-1.31h-.27v-.52h.27zm0-1.3h-.27v-.52h.27zm0-1.31h-.27V188h.27zm0-1.3h-.27v-.52h.27zm0-1.31h-.27v-.52h.27zm0-1.3h-.27v-.52h.27zm0-1.3h-.27v-.53h.27zm0-1.31h-.27v-.52h.27zm0-1.3h-.27v-.53h.27zm0-1.31h-.27v-.52h.27zm0-1.3h-.27v-.52h.27zm0-1.31h-.27v-.52h.27zm0-1.3h-.27V175h.27zm0-1.31h-.27v-.52h.27z"/><path class="cls-5" d="M265.89 173.65a.93.93 0 1 1-.93-.93.92.92 0 0 1 .93.93zM252.56 208.55h-.26v-.37h.26zm0-1.15h-.26v-.52h.26zm0-1.3h-.26v-.52h.26zm0-1.31h-.26v-.52h.26zm0-1.3h-.26V203h.26zm0-1.31h-.26v-.52h.26zm0-1.3h-.26v-.52h.26zm0-1.31h-.26v-.52h.26zm0-1.3h-.26v-.52h.26zm0-1.31h-.26v-.52h.26zm0-1.3h-.26v-.52h.26zm0-1.3h-.26v-.53h.26zm0-1.31h-.26v-.52h.26zm0-1.3h-.26v-.52h.26zm0-1.31h-.26v-.52h.26zm0-1.3h-.26v-.52h.26zm0-1.31h-.26v-.52h.26z"/><path class="cls-10" d="M253.36 187.3a.93.93 0 1 1-.93-.93.93.93 0 0 1 .93.93z"/><path class="cls-5" d="M301.12 208.28v-.52h.26v.52zm0-1.3v-.52h.26v.54zm0-1.31v-.52h.26v.52zm0-1.3v-.52h.27v.53zm0-1.3v-.53h.27v.52zm0-1.31v-.52h.27v.52zm0-1.3v-.53h.26v.52zm0-1.31v-.52h.26v.52zm0-1.3v-.53h.26v.52zm0-1.31V196h.27v.52zm0-1.3v-.52h.26v.52zm0-1.31v-.52h.26v.52zm0-1.3v-.52h.26v.52zm0-1.31v-.52h.26v.52zm0-1.3v-.52h.27v.5zm0-1.31v-.52h.26v.52zm0-1.3v-.52h.26v.52zm0-1.3v-.53h.26v.52zm0-1.31v-.52h.26v.52zm0-1.3v-.5h.26v.52zm0-1.31v-.52h.26v.52zm0-1.3v-.52h.27v.53zm0-1.31v-.52h.27v.52zm0-1.3v-.52h.26v.53zm0-1.31v-.52h.26v.55zm0-1.3v-.52h.26v.52zm0-1.31v-.52h.26v.52zm0-1.3v-.52h.26v.52zm0-1.3v-.53h.26v.52zm0-1.31v-.52h.26v.52zm0-1.3v-.52h.26v.53z"/><path class="cls-5" d="M301.88 168.38a.93.93 0 1 1-.93-.93.93.93 0 0 1 .93.93z"/><path class="cls-10" d="M316.34 169.14a1.31 1.31 0 1 1-1.31-1.31 1.31 1.31 0 0 1 1.31 1.31z"/><path class="cls-5" d="M277.63 207.46h-.26v-.53h.26zm0-1.31h-.26v-.52h.26zm0-1.3h-.26v-.52h.26zm0-1.31h-.26V203h.26zm0-1.3h-.26v-.52h.26zm0-1.31h-.26v-.52h.26zm0-1.3h-.26v-.52h.26zm0-1.31h-.26v-.52h.26zm0-1.3h-.26v-.52h.26zm0-1.3h-.26v-.53h.26zm0-1.31h-.26v-.52h.26zm0-1.3h-.26v-.53h.26zm0-1.31h-.26v-.52h.26zm0-1.3h-.26v-.5h.26zm0-1.31h-.26v-.52h.26zm0-1.3h-.26v-.52h.26zm0-1.31h-.26v-.52h.26zm0-1.3h-.26v-.52h.26zm0-1.31h-.26v-.52h.26zm0-1.3h-.26v-.52h.26zm0-1.3h-.26v-.53h.26zm0-1.31h-.26v-.52h.26zm0-1.3h-.26v-.53h.26zm0-1.31h-.26v-.52h.26zm0-1.3h-.26v-.52h.26z"/><path class="cls-10" d="M278.42 174.58a.93.93 0 1 1-.92-.93.93.93 0 0 1 .92.93z"/><path class="cls-10" d="M233.19 202.49H225v-.52h7.97l19.35-15.06h14.51l10.56-12.59 19.84-.22 6.01 2.01 11.42-7.2.28.45-11.63 7.33-6.16-2.06-19.55.21-10.55 12.59h-14.51l-19.35 15.06z"/><path class="cls-5" d="M234.84 193.37h-9.95v-.52h9.7l12.66-15.57h10.55l26.28 10.35h4.77l3.66-4.93h4.01l8.07 6.81 10.18-1.29.06.51-10.4 1.32-8.1-6.82h-3.56l-3.66 4.92h-5.13l-.05-.02-26.23-10.33h-10.2l-12.66 15.57z"/><path class="cls-5" d="M237.33 197.34h-12.18v-.52h11.92l17.63-23.23h10.12l11.47-10.09h13.82l.06.03 4.83 4.57h5.87l14.02-7.15.29.44-14.16 7.24h-6.16l-.05-.04-4.83-4.56h-13.41l-11.46 10.09h-10.15l-17.63 23.22zM231.65 206.4H225v-.53h6.34l8.34-5.95 9.25.04 9.34-2.74h3.46l4.61-4.02h4.29l10.64-9.4h4.47l11.91-6.03h6.77l6.08 6.99 4.35-4.31.37.37-4.75 4.7-6.28-7.23h-6.41l-11.91 6.03h-4.41l-10.63 9.4h-4.3l-4.61 4.03h-3.57l-9.34 2.74-9.01-.05-8.35 5.96zM226 159.57a1.06 1.06 0 1 1-1.06-1.06 1.06 1.06 0 0 1 1.06 1.06zM315.83 208.55a1.06 1.06 0 1 1-2.12 0 1.06 1.06 0 1 1 2.12 0zM302.31 208.55a1.06 1.06 0 1 1-2.12 0 1.06 1.06 0 1 1 2.12 0zM290.05 208.55a1.07 1.07 0 1 1-1.07-1.06 1.06 1.06 0 0 1 1.07 1.06zM278.56 208.55a1.07 1.07 0 1 1-1.06-1.06 1.06 1.06 0 0 1 1.06 1.06zM266 208.57a1.07 1.07 0 1 1-1.07-1.06 1.07 1.07 0 0 1 1.07 1.06zM253.5 208.55a1.07 1.07 0 1 1-1.07-1.06 1.06 1.06 0 0 1 1.07 1.06zM241 208.55a1.06 1.06 0 0 1-2.12 0 1.06 1.06 0 0 1 2.12 0zM228.69 208.55a1.06 1.06 0 0 1-2.12 0 1.06 1.06 0 0 1 2.12 0z"/><path class="cls-5" d="M314.77 208.81h-89.88a.26.26 0 0 1-.26-.26v-49a.26.26 0 1 1 .52 0v48.72h89.62a.26.26 0 0 1 .26.26.25.25 0 0 1-.26.28z"/><path class="cls-5" d="M289.29 206.48H289V206h.26zm0-1.3H289v-.52h.26zm0-1.31H289v-.52h.26zm0-1.3H289v-.52h.26zm0-1.3H289v-.53h.26zm0-1.31H289v-.52h.26zm0-1.3H289v-.53h.26zm0-1.31H289v-.52h.26zm0-1.3H289v-.52h.26zm0-1.31H289v-.52h.26zm0-1.3H289v-.52h.26zm0-1.31H289v-.52h.26zm0-1.3H289v-.52h.26zm0-1.3H289V189h.26zm0-1.31H289v-.52h.26zm0-1.31H289v-.52h.26z"/><path class="cls-5" d="M290.46 187.63a1.31 1.31 0 0 1-2.61 0 1.31 1.31 0 1 1 2.61 0zM240 206.18h-.26v-.52h.26zm0-1.3h-.26v-.52h.26zm0-1.31h-.26v-.52h.26zm0-1.3h-.26v-.52h.26zm0-1.3h-.26v-.53h.26z"/><path class="cls-5" d="M241.21 200.44a1.31 1.31 0 1 1-2.61 0 1.31 1.31 0 0 1 2.61 0zM219.52 207.24c0 .66-.26 1.08-.75 1.08s-.73-.43-.73-1.06.27-1.07.75-1.07.73.44.73 1.05zm-1.09 0c0 .5.14.76.35.76s.35-.28.35-.77-.11-.76-.35-.76-.35.27-.35.79zM220.77 206.8c0 .43-.25.65-.53.65s-.52-.22-.53-.62a.57.57 0 0 1 .55-.64c.32 0 .51.24.51.61zm-.76 0c0 .24.09.41.24.41s.23-.16.23-.41-.06-.41-.23-.41-.25.2-.25.43zm.24 1.5l1.19-2.13h.22l-1.19 2.13zm1.94-.67c0 .43-.25.66-.53.66a.55.55 0 0 1-.52-.62c0-.39.22-.65.53-.65s.52.26.52.63zm-.76 0c0 .23.08.41.24.41s.23-.17.23-.42-.06-.41-.23-.41-.24.24-.24.47zM216.37 195.8v-.23l.24-.23c.49-.45.71-.7.72-1a.32.32 0 0 0-.33-.34.76.76 0 0 0-.44.17l-.11-.28a1 1 0 0 1 .63-.21.61.61 0 0 1 .68.63c0 .36-.26.65-.62 1l-.18.16h.85v.32zM219.37 194.07h-.79l-.06.41h.15a.86.86 0 0 1 .5.14.57.57 0 0 1 .27.52.75.75 0 0 1-.83.71 1.21 1.21 0 0 1-.55-.12l.08-.3a1 1 0 0 0 .45.11.4.4 0 0 0 .45-.37c0-.24-.17-.39-.58-.39h-.29l.14-1h1.06zM220.77 194.32c0 .44-.25.65-.53.65a.55.55 0 0 1-.53-.61.58.58 0 0 1 .55-.65c.32 0 .51.29.51.61zm-.76 0c0 .24.09.42.24.42s.23-.17.23-.42-.06-.41-.23-.41-.25.2-.25.43zm.24 1.5l1.19-2.13h.22l-1.19 2.13zm1.94-.66c0 .43-.25.65-.53.65s-.52-.22-.52-.62.22-.65.53-.65.52.27.52.64zm-.76 0c0 .23.08.41.24.41s.23-.16.23-.41-.06-.42-.23-.42-.24.26-.24.46zM217.68 182.56h-.79l-.07.41h.18a.94.94 0 0 1 .5.14.58.58 0 0 1 .27.52.75.75 0 0 1-.83.71 1.13 1.13 0 0 1-.54-.12l.08-.29a1 1 0 0 0 .45.11.4.4 0 0 0 .44-.38c0-.24-.17-.39-.58-.39h-.28l.13-1h1.07zM219.52 183.26c0 .66-.26 1.07-.75 1.07s-.73-.43-.73-1.05.27-1.07.75-1.07.73.44.73 1.05zm-1.09 0c0 .49.14.76.35.76s.35-.28.35-.78-.11-.76-.35-.76-.35.28-.35.8zM220.77 182.82c0 .43-.25.65-.53.65s-.52-.22-.53-.62a.57.57 0 0 1 .55-.64c.32 0 .51.24.51.61zm-.76 0c0 .24.09.41.24.41s.23-.16.23-.41-.06-.42-.23-.42-.25.21-.25.44zm.24 1.49l1.19-2.12h.22l-1.19 2.12zm1.94-.66c0 .43-.25.65-.53.65s-.52-.22-.52-.62.22-.64.53-.64.52.26.52.63zm-.76 0c0 .24.08.41.24.41s.23-.16.23-.41-.06-.41-.23-.41-.24.22-.24.45zM217.78 169.71v.29l-.87 1.8h-.41l.87-1.72h-1v-.32zM219.37 170h-.79l-.06.41h.15a.93.93 0 0 1 .5.13.6.6 0 0 1 .27.53.75.75 0 0 1-.83.71 1.21 1.21 0 0 1-.55-.12l.08-.3a1 1 0 0 0 .45.11.4.4 0 0 0 .45-.37c0-.24-.17-.39-.58-.39h-.29l.14-1h1.06zM220.77 170.28c0 .44-.25.66-.53.66s-.52-.23-.53-.62a.58.58 0 0 1 .55-.65c.32 0 .51.24.51.61zm-.76 0c0 .23.09.41.24.41s.23-.17.23-.42-.06-.41-.23-.41-.25.21-.25.45zm.24 1.49l1.19-2.13h.22l-1.19 2.13zm1.94-.66c0 .43-.25.65-.53.65s-.52-.22-.52-.62.22-.65.53-.65.52.28.52.65zm-.76 0c0 .23.08.41.24.41s.23-.16.23-.41-.06-.42-.23-.42-.24.24-.24.47zM215.28 158.55l-.38.19-.07-.29.5-.25h.33v2.06h-.38zM217.82 159.21c0 .67-.26 1.08-.75 1.08s-.73-.43-.73-1.06.27-1.07.75-1.07.73.45.73 1.05zm-1.09 0c0 .5.14.76.35.76s.35-.27.35-.77-.11-.76-.35-.76-.35.28-.35.79zM219.52 159.21c0 .67-.26 1.08-.75 1.08s-.73-.43-.73-1.06.27-1.07.75-1.07.73.45.73 1.05zm-1.09 0c0 .5.14.76.35.76s.35-.27.35-.77-.11-.76-.35-.76-.35.28-.35.79zM220.77 158.77c0 .44-.25.66-.53.66s-.52-.22-.53-.62a.58.58 0 0 1 .55-.65c.32 0 .51.25.51.61zm-.76 0c0 .23.09.41.24.41s.23-.17.23-.42-.06-.41-.23-.41-.25.22-.25.45zm.24 1.49l1.19-2.13h.22l-1.19 2.13zm1.94-.66c0 .43-.25.65-.53.65s-.52-.22-.52-.62.22-.64.53-.64.52.27.52.64zm-.76 0c0 .24.08.41.24.41s.23-.16.23-.41-.06-.41-.23-.41-.24.23-.24.46zM310.51 214.21v-.27l.25-.22c.42-.38.62-.59.62-.82s-.09-.27-.31-.27a.72.72 0 0 0-.41.15l-.12-.32a1 1 0 0 1 .62-.19.59.59 0 0 1 .67.6 1.18 1.18 0 0 1-.51.82l-.17.15h.72v.37zM313.55 213.25c0 .59-.24 1-.72 1s-.71-.44-.72-1 .24-1 .73-1 .71.47.71 1zm-1 0c0 .43.1.64.28.64s.27-.21.27-.65-.09-.65-.27-.65-.27.22-.27.67zM314.34 212.7l-.37.17-.07-.34.5-.23h.38v1.91h-.44zM316.68 212.67h-.74v.29h.06a.91.91 0 0 1 .5.13.54.54 0 0 1 .24.48c0 .36-.31.67-.83.67a1.17 1.17 0 0 1-.53-.11l.08-.33a1.15 1.15 0 0 0 .43.09c.19 0 .39-.09.39-.29s-.16-.32-.54-.32h-.26l.13-1h1.05zM298.36 214.21v-.27l.24-.22c.42-.38.62-.59.63-.82s-.09-.27-.31-.27a.72.72 0 0 0-.41.15l-.13-.32a1.07 1.07 0 0 1 .63-.19.59.59 0 0 1 .67.6 1.21 1.21 0 0 1-.51.82l-.18.15h.72v.37zM301.4 213.25c0 .59-.24 1-.73 1s-.71-.44-.71-1 .23-1 .73-1 .71.47.71 1zm-1 0c0 .43.1.64.27.64s.27-.21.27-.65-.09-.65-.27-.65-.27.22-.26.67zM302.19 212.7l-.36.17-.08-.34.51-.23h.37v1.91h-.43zM304 214.21v-.46h-.85v-.29l.73-1.16h.54v1.12h.23v.33h-.23v.46zm0-.79V213v-.36l-.17.36-.26.41h.43zM286.3 214.21v-.27l.25-.22c.42-.38.62-.59.62-.82s-.09-.27-.31-.27a.75.75 0 0 0-.41.15l-.12-.32a1 1 0 0 1 .62-.19.59.59 0 0 1 .67.6 1.18 1.18 0 0 1-.51.82l-.17.15h.72v.37zM289.34 213.25c0 .59-.24 1-.72 1s-.71-.44-.72-1 .24-1 .73-1 .71.47.71 1zm-1 0c0 .43.11.64.28.64s.27-.21.27-.65-.1-.65-.27-.65-.27.22-.27.67zM290.13 212.7l-.37.17-.07-.34.5-.23h.37v1.91h-.43zM291.27 213.77a1.07 1.07 0 0 0 .45.12c.23 0 .35-.11.35-.26s-.19-.27-.39-.27h-.18V213h.17c.15 0 .34-.06.34-.22s-.09-.2-.28-.2a1 1 0 0 0-.4.11l-.09-.32a1.21 1.21 0 0 1 .59-.14c.41 0 .64.21.64.47a.47.47 0 0 1-.35.45.47.47 0 0 1 .41.47c0 .34-.3.58-.78.58a1.14 1.14 0 0 1-.57-.13zM274.18 214.21v-.27l.25-.22c.42-.38.62-.59.63-.82s-.1-.27-.32-.27a.75.75 0 0 0-.41.15l-.12-.32a1 1 0 0 1 .62-.19.59.59 0 0 1 .67.6 1.2 1.2 0 0 1-.5.82l-.18.15h.72v.37zM277.23 213.25c0 .59-.24 1-.73 1s-.71-.44-.71-1 .23-1 .72-1 .72.47.72 1zm-1 0c0 .43.11.64.28.64s.27-.21.27-.65-.09-.65-.27-.65-.28.22-.28.67zM278 212.7l-.37.17-.07-.34.51-.23h.37v1.91H278zM279.08 214.21v-.27l.24-.22c.42-.38.62-.59.63-.82s-.1-.27-.32-.27a.72.72 0 0 0-.4.15l-.13-.32a1 1 0 0 1 .63-.19.59.59 0 0 1 .67.6 1.21 1.21 0 0 1-.51.82l-.18.15h.72v.37zM262.25 214.21v-.27l.25-.22c.42-.38.62-.59.62-.82s-.09-.27-.31-.27a.75.75 0 0 0-.41.15l-.12-.32a1 1 0 0 1 .62-.19.59.59 0 0 1 .67.6 1.18 1.18 0 0 1-.51.82l-.17.15h.72v.37zM265.29 213.25c0 .59-.24 1-.72 1s-.71-.44-.72-1 .24-1 .73-1 .71.47.71 1zm-1 0c0 .43.11.64.28.64s.27-.21.27-.65-.1-.65-.27-.65-.27.22-.27.67zM266.08 212.7l-.37.17-.07-.34.51-.23h.37v1.91h-.44zM267.71 212.7l-.37.17-.07-.34.51-.23h.36v1.91h-.43zM249.94 214.21v-.27l.25-.22c.41-.38.62-.59.62-.82s-.09-.27-.31-.27a.72.72 0 0 0-.41.15l-.13-.32a1.07 1.07 0 0 1 .63-.19.59.59 0 0 1 .67.6 1.18 1.18 0 0 1-.51.82l-.18.15h.72v.37zM253 213.25c0 .59-.24 1-.73 1s-.71-.44-.71-1 .24-1 .73-1 .71.47.71 1zm-1 0c0 .43.1.64.28.64s.26-.21.26-.65-.09-.65-.27-.65-.27.22-.27.67zM253.77 212.7l-.36.17-.07-.34.5-.23h.37v1.91h-.43zM256.24 213.25c0 .59-.24 1-.72 1s-.72-.44-.72-1 .24-1 .73-1 .71.47.71 1zm-1 0c0 .43.1.64.28.64s.26-.21.26-.65-.09-.65-.27-.65-.26.22-.26.67zM237.83 214.21v-.27l.25-.22c.42-.38.62-.59.62-.82s-.09-.27-.31-.27a.75.75 0 0 0-.41.15l-.13-.32a1.07 1.07 0 0 1 .63-.19.59.59 0 0 1 .67.6 1.18 1.18 0 0 1-.51.82l-.17.15h.72v.37zM240.87 213.25c0 .59-.24 1-.72 1s-.71-.44-.72-1 .24-1 .73-1 .71.47.71 1zm-1 0c0 .43.11.64.28.64s.27-.21.27-.65-.1-.65-.27-.65-.27.22-.27.67zM242.5 213.25c0 .59-.23 1-.72 1s-.71-.44-.72-1 .24-1 .73-1 .71.47.71 1zm-1 0c0 .43.11.64.28.64s.27-.21.27-.65-.09-.65-.27-.65-.27.22-.27.67zM242.87 213.89h.19a.77.77 0 0 0 .37-.12.62.62 0 0 0 .25-.35.51.51 0 0 1-.39.14.57.57 0 0 1-.59-.59.69.69 0 0 1 .72-.69.72.72 0 0 1 .72.82 1.17 1.17 0 0 1-.33.88 1.25 1.25 0 0 1-.73.27h-.2zm.26-1a.27.27 0 0 0 .27.3.29.29 0 0 0 .25-.12.18.18 0 0 0 0-.11c0-.21-.08-.41-.28-.41s-.24.18-.24.38zM225.72 214.21v-.27l.25-.22c.41-.38.62-.59.62-.82s-.09-.27-.31-.27a.72.72 0 0 0-.41.15l-.13-.32a1.07 1.07 0 0 1 .63-.19.59.59 0 0 1 .67.6 1.18 1.18 0 0 1-.51.82l-.17.15h.71v.37zM228.76 213.25c0 .59-.24 1-.72 1s-.72-.44-.72-1 .24-1 .73-1 .71.47.71 1zm-1 0c0 .43.1.64.28.64s.27-.21.27-.65-.1-.65-.28-.65-.26.22-.26.67zM230.39 213.25c0 .59-.24 1-.72 1s-.72-.44-.72-1 .24-1 .73-1 .71.47.71 1zm-1 0c0 .43.1.64.28.64s.27-.21.27-.65-.1-.65-.28-.65-.26.22-.26.67zM230.58 213.71a.52.52 0 0 1 .34-.48.46.46 0 0 1-.27-.42c0-.32.29-.53.67-.53s.63.26.63.49a.48.48 0 0 1-.27.42.51.51 0 0 1 .35.47c0 .35-.3.58-.74.58s-.71-.24-.71-.53zm1 0c0-.16-.12-.26-.3-.31a.29.29 0 0 0-.23.29.26.26 0 0 0 .27.26.24.24 0 0 0 .25-.26zm-.5-.9c0 .13.11.21.27.26a.26.26 0 0 0 .19-.25.22.22 0 0 0-.23-.23.21.21 0 0 0-.24.2zM359.64 183.89V182a5 5 0 0 0-9.92 0v11.71h9.92v-9.86zM396.14 163.53v-9.95a5 5 0 0 0-9.93 0v9.95zM386.21 179.71h9.92v14.02h-9.92zM386.21 194.06v11.69a5 5 0 0 0 9.93 0v-11.69zM386.21 163.86h9.92v15.52h-9.92z"/><path class="cls-5" d="M388.45 154.51l-.66.34-.13-.61.89-.46h.68v3.87h-.77zM392.17 155.7c0 1.39-.51 2-1.13 2-.85 0-1.13-1-1.13-2s.35-2 1.16-2 1.1 1.08 1.1 2zm-1.48 0c0 .9.1 1.31.36 1.31s.33-.43.33-1.31-.08-1.32-.33-1.32-.36.44-.36 1.34zM394.55 155.7c0 1.39-.5 2-1.13 2-.84 0-1.13-1-1.13-2s.36-2 1.16-2 1.1 1.08 1.1 2zm-1.47 0c0 .9.1 1.31.36 1.31s.33-.43.33-1.31-.08-1.32-.33-1.32-.37.44-.36 1.34zM391 158.92c0 .54-.32.81-.67.81a.68.68 0 0 1-.66-.77c0-.49.28-.81.68-.81s.65.3.65.77zm-1 0c0 .3.11.52.3.52s.29-.21.29-.52-.08-.52-.29-.52-.3.25-.3.54zm.3 1.88l1.49-2.67h.28l-1.5 2.67zm2.44-.83c0 .54-.31.82-.67.82a.69.69 0 0 1-.66-.78c0-.49.28-.81.68-.81s.69.32.69.8zm-1 0c0 .29.11.51.3.51s.29-.2.29-.52-.08-.51-.29-.51-.22.28-.22.55z"/><path class="cls-10" d="M367.96 179.71h9.92v14.02h-9.92zM377.89 169.53v-1.84a5 5 0 0 0-9.93 0v11.71h9.93V169.53zM368 194.06v11.69a5 5 0 0 0 9.93 0v-11.69z"/><path class="cls-5" d="M372.56 169.57h-.32a1.18 1.18 0 0 0-.87 1 .75.75 0 0 1 .6-.31c.52 0 .87.47.87 1.21s-.34 1.36-1.1 1.36-1.18-.63-1.18-1.59a2.55 2.55 0 0 1 .64-1.81 1.73 1.73 0 0 1 .95-.52 1.63 1.63 0 0 1 .39 0zm-.47 2c0-.33-.11-.64-.36-.64a.37.37 0 0 0-.32.26 1 1 0 0 0 0 .34c0 .51.15.85.38.85s.3-.38.3-.85zM375.23 170.9c0 1.39-.51 2-1.13 2-.85 0-1.13-1-1.13-2s.36-2 1.16-2 1.1 1.1 1.1 2zm-1.48 0c0 .91.1 1.32.37 1.32s.32-.43.32-1.32-.07-1.31-.32-1.31-.37.41-.37 1.33zM372.62 174.12c0 .55-.32.82-.67.82s-.66-.28-.66-.78a.72.72 0 0 1 .68-.81c.41 0 .65.31.65.77zm-1 0c0 .3.1.52.3.52s.29-.21.29-.53-.08-.51-.29-.51-.26.26-.26.55zM372 176l1.49-2.67h.28l-1.5 2.67zm2.44-.83c0 .54-.32.82-.67.82a.69.69 0 0 1-.66-.78.72.72 0 0 1 .68-.81c.36.02.61.33.61.79zm-1 0c0 .29.1.52.3.52s.29-.21.29-.52-.08-.52-.29-.52-.3.28-.3.57zM349.72 194.06v11.69a5 5 0 1 0 9.92 0v-11.69zM352.51 187.47a1.19 1.19 0 0 0 .58.15.53.53 0 0 0 .58-.56c0-.43-.33-.61-.73-.61h-.1v-.58h.07c.29 0 .66-.12.66-.5a.42.42 0 0 0-.46-.44.91.91 0 0 0-.48.15l-.1-.59a1.63 1.63 0 0 1 .79-.2.94.94 0 0 1 .47 1.8 1 1 0 0 1 .66 1 1.19 1.19 0 0 1-1.29 1.17 1.55 1.55 0 0 1-.76-.18zM356.81 185h-1l-.09.69h.12a1.18 1.18 0 0 1 .72.29 1.17 1.17 0 0 1 .34.89 1.3 1.3 0 0 1-1.35 1.37 1.74 1.74 0 0 1-.72-.16l.12-.62a1.27 1.27 0 0 0 .55.14.6.6 0 0 0 .63-.66c0-.52-.39-.69-.84-.69H355l.21-1.94h1.6zM354.43 189.47c0 .55-.32.82-.67.82a.68.68 0 0 1-.66-.77c0-.49.28-.81.68-.81s.65.29.65.76zm-1 0c0 .3.1.52.3.52s.29-.21.29-.52-.08-.52-.29-.52-.26.26-.26.55zm.29 1.88l1.5-2.67h.28l-1.5 2.67zm2.44-.83c0 .54-.31.81-.67.81a.68.68 0 0 1-.65-.77c0-.49.28-.81.67-.81s.69.33.69.8zm-.95 0c0 .3.1.52.3.52s.29-.21.29-.52-.08-.52-.29-.52-.26.28-.26.57zM341.39 194.06a5 5 0 0 0-9.92 0v11.73a5 5 0 0 0 9.92 0v-11.73z"/><path class="cls-5" d="M334.22 204.18v-.52l.39-.49a3.19 3.19 0 0 0 .91-1.72.48.48 0 0 0-.5-.53 1.08 1.08 0 0 0-.58.19l-.14-.6a1.7 1.7 0 0 1 .87-.24 1 1 0 0 1 1.12 1.12 2.91 2.91 0 0 1-.9 1.82l-.23.28h1.18v.68zM338.86 202.23c0 1.39-.5 2-1.13 2-.84 0-1.13-1-1.13-2s.36-2 1.16-2 1.1 1.08 1.1 2zm-1.47 0c0 .9.1 1.31.36 1.31s.33-.42.33-1.31-.08-1.32-.33-1.32-.37.44-.36 1.34zM336.25 205.45c0 .54-.32.82-.67.82s-.65-.28-.66-.78.28-.81.68-.81.65.32.65.77zm-1 0c0 .3.11.51.3.51s.29-.2.29-.52-.08-.51-.29-.51-.26.26-.26.55zm.3 1.87l1.49-2.67h.28l-1.49 2.67zm2.44-.83c0 .54-.31.82-.67.82a.69.69 0 0 1-.66-.78.72.72 0 0 1 .68-.81c.45.03.66.34.66.8zm-1 0c0 .29.11.52.3.52s.29-.21.29-.52-.08-.52-.29-.52-.22.29-.22.58z"/><path class="cls-11" d="M144.92 152.85a53.57 53.57 0 1 0 6.9 75.44 53.57 53.57 0 0 0-6.9-75.44zm-.17 69.56a44.37 44.37 0 1 1-5.75-62.49 44.37 44.37 0 0 1 5.75 62.49z"/><path class="cls-12" d="M76.54 165.64a44.37 44.37 0 0 0 5.72 62.49L139 159.92a44.38 44.38 0 0 0-62.46 5.72z"/><path class="cls-13" d="M139 159.92l-56.74 68.21A44.38 44.38 0 0 0 139 159.92z"/><path class="cls-5" d="M77 196.68a3 3 0 0 1-3.33-2.29c-.12-.54-2.81-13.38 6-24a36.1 36.1 0 0 1 29.57-13.21 3 3 0 0 1-.56 5.88 30.15 30.15 0 0 0-24.47 11.1c-7 8.38-4.77 18.82-4.75 18.93a3 3 0 0 1-2.25 3.51z"/><path class="cls-3" d="M117.42 239.19a45.87 45.87 0 1 1 38.22-52.41 45.91 45.91 0 0 1-38.22 52.41zm-13.87-88.51a43.72 43.72 0 1 0 50 36.43 43.77 43.77 0 0 0-50-36.43z"/><path class="cls-11" transform="rotate(-49.93 68.773 246.469)" d="M51.01 240.7h35.52v11.56H51.01z"/><path class="cls-7" d="M44.62 253.4L2.86 303c-4.37 5.19-3.63 13.09 1.51 18.14l59.08-68.86c-5.91-4.73-14.28-4.28-18.83 1.12z"/><path class="cls-14" d="M63.69 252.52l-.24-.2-59.08 68.86c.28.28.57.55.88.81 5.93 5 14.46 4.58 19.07-.89l41.76-49.64c4.61-5.46 3.54-13.96-2.39-18.94z"/></g></g></svg>