<svg id="Layer_1" data-name="Layer 1" xmlns="http://www.w3.org/2000/svg" viewBox="0 0 609.19 531.21"><defs><style>.cls-1{fill:#eaa97d;}.cls-2{fill:#143e69;}.cls-3{fill:#3762cc;}.cls-4{fill:#ffea92;}.cls-5{fill:#e0ebfc;}</style></defs><title>scholarship</title><path class="cls-1" d="M623.61,248.57V116.64c0-6.17-5.84-11.16-13.05-11.16s-13.05,5-13.05,11.16V248.57c-8.11,3.89-13.6,11.29-13.6,19.79v35.92c0,3.07,2.92,5.56,6.51,5.56H630.7c3.6,0,6.51-2.49,6.51-5.56V268.36C637.21,259.86,631.72,252.46,623.61,248.57Z" transform="translate(-32.99 -2.94)"/><path class="cls-2" d="M480.32,136.65c-36.09-6-171.24-25.13-306.08-.05-5.35,1-8.83,3.48-8.83,6.2v62.12c0,2.82,3.7,5.33,9.33,6.27,36.09,6,171.24,25.13,306.08.06,5.35-1,8.82-3.49,8.82-6.2V142.92C489.65,140.09,486,137.58,480.32,136.65Z" transform="translate(-32.99 -2.94)"/><path class="cls-3" d="M334.26,228.2c-75.47,0-136.74-8.78-160.48-12.74-8.17-1.36-13.46-5.5-13.46-10.55v-62c0-5,5-9.13,12.84-10.58,135-25.12,270-6.33,308.15,0,8.17,1.36,13.45,5.5,13.45,10.55v62c0,5-5,9.13-12.84,10.58C431,225,380,228.2,334.26,228.2Zm-13.42-99.86c-45.1,0-95.3,3.18-145.5,12.51-3.46.64-4.71,1.84-4.84,2.1l0,62c.1.12,1.46,1.38,5.2,2,37.66,6.28,170.88,24.83,304,.07,3.46-.64,4.71-1.84,4.83-2.1l0-62c-.11-.13-1.46-1.38-5.21-2C455.89,137,395.34,128.33,320.84,128.33Z" transform="translate(-32.99 -2.94)"/><path class="cls-2" d="M56.85,353.53h565c8.42,0,15.25,5.83,15.25,13V459.4c0,7.18-6.83,13-15.25,13h-565c-8.42,0-15.24-5.82-15.24-13V366.53C41.61,359.35,48.44,353.53,56.85,353.53Z" transform="translate(-32.99 -2.94)"/><path class="cls-4" d="M598.52,472.4H556.85V353.53h41.67Z" transform="translate(-32.99 -2.94)"/><path class="cls-3" d="M621.83,476.76h-565c-11.22,0-20.34-7.79-20.34-17.36V366.53c0-9.57,9.13-17.36,20.34-17.36h565c11.22,0,20.34,7.79,20.34,17.36V459.4C642.18,469,633.05,476.76,621.83,476.76Zm-565-118.88c-5.59,0-10.14,3.88-10.14,8.65V459.4c0,4.77,4.55,8.65,10.14,8.65h565c5.59,0,10.14-3.88,10.14-8.65V366.53c0-4.77-4.55-8.65-10.14-8.65Z" transform="translate(-32.99 -2.94)"/><path class="cls-5" d="M137,394.62H495c7,0,12.7,4.85,12.7,10.83v15c0,6-5.69,10.84-12.7,10.84H137c-7,0-12.7-4.85-12.7-10.84v-15C124.25,399.47,129.94,394.62,137,394.62Z" transform="translate(-32.99 -2.94)"/><path class="cls-2" d="M172,353.53c-1.78,0-3.54-.06-5.29-.17h-7.09c-37.2,0-67.47-31.6-67.47-70.44s30.27-70.44,67.47-70.44H568.17c10.12,0,18.34,7.63,18.34,17s-8.23,17-18.34,17H163.83c-19.28,0-35,16.37-35,36.5s15.68,36.5,35,36.5H568.17c10.12,0,18.34,7.63,18.34,17s-8.23,17-18.34,17H172Z" transform="translate(-32.99 -2.94)"/><path class="cls-3" d="M568.17,357.88H172c-1.68,0-3.47-.05-5.47-.17h-6.91c-40,0-72.59-33.55-72.59-74.79s32.56-74.79,72.58-74.79H568.16c12.93,0,23.45,9.58,23.45,21.36s-10.52,21.36-23.45,21.36H163.83C147.36,250.86,134,265.28,134,283s13.4,32.15,29.86,32.15H568.17c12.93,0,23.44,9.58,23.44,21.36S581.09,357.88,568.17,357.88ZM166.74,349h.35c1.83.11,3.45.16,4.94.16H568.17c7.3,0,13.24-5.67,13.24-12.65s-5.94-12.65-13.24-12.65H163.83c-22.09,0-40.07-18.33-40.07-40.86s18-40.86,40.07-40.86H568.17c7.3,0,13.24-5.68,13.24-12.65s-5.94-12.65-13.24-12.65H159.65c-34.39,0-62.37,29.65-62.37,66.09s28,66.08,62.37,66.08h7.09Z" transform="translate(-32.99 -2.94)"/><path class="cls-1" d="M591.18,529.8H406c-6.07,0-11-4.2-11-9.37V500.91c0-5.17,4.92-9.37,11-9.37H591.18c6.07,0,11,4.2,11,9.37v19.51C602.16,525.6,597.25,529.8,591.18,529.8Z" transform="translate(-32.99 -2.94)"/><path class="cls-3" d="M591.18,534.15H406c-8.87,0-16.09-6.16-16.09-13.73V500.91c0-7.56,7.22-13.72,16.09-13.72H591.18c8.87,0,16.09,6.16,16.09,13.72v19.51C607.27,528,600.05,534.15,591.18,534.15ZM406,495.9c-3.24,0-5.88,2.25-5.88,5v19.51c0,2.77,2.64,5,5.88,5H591.18c3.24,0,5.88-2.25,5.88-5V500.91c0-2.77-2.64-5-5.88-5Z" transform="translate(-32.99 -2.94)"/><path class="cls-1" d="M591.18,491.54H406c-6.07,0-11-4.2-11-9.37V462.66c0-5.17,4.92-9.37,11-9.37H591.18c6.07,0,11,4.2,11,9.37v19.51C602.16,487.35,597.25,491.54,591.18,491.54Z" transform="translate(-32.99 -2.94)"/><path class="cls-3" d="M591.18,495.9H406c-8.87,0-16.09-6.16-16.09-13.73V462.66c0-7.57,7.22-13.73,16.09-13.73H591.18c8.87,0,16.09,6.16,16.09,13.73v19.51C607.27,489.74,600.05,495.9,591.18,495.9ZM406,457.64c-3.24,0-5.88,2.25-5.88,5v19.51c0,2.77,2.64,5,5.88,5H591.18c3.24,0,5.88-2.25,5.88-5V462.66c0-2.77-2.64-5-5.88-5Z" transform="translate(-32.99 -2.94)"/><path class="cls-1" d="M591.18,453.29H406c-6.07,0-11-4.19-11-9.37V424.41c0-5.17,4.92-9.37,11-9.37H591.18c6.07,0,11,4.2,11,9.37v19.51C602.16,449.09,597.25,453.29,591.18,453.29Z" transform="translate(-32.99 -2.94)"/><path class="cls-3" d="M591.18,457.64H406c-8.87,0-16.09-6.16-16.09-13.73V424.4c0-7.57,7.22-13.73,16.09-13.73H591.18c8.87,0,16.09,6.16,16.09,13.73v19.51C607.27,451.48,600.05,457.64,591.18,457.64ZM406,419.39c-3.24,0-5.88,2.25-5.88,5v19.52c0,2.76,2.64,5,5.88,5H591.18c3.24,0,5.88-2.25,5.88-5V424.4c0-2.77-2.64-5-5.88-5Z" transform="translate(-32.99 -2.94)"/><path class="cls-5" d="M163.83,246.5c-19.28,0-35,16.37-35,36.5s15.68,36.5,35,36.5h392v-73Z" transform="translate(-32.99 -2.94)"/><path class="cls-3" d="M555.87,323.86h-392c-22.09,0-40.07-18.33-40.07-40.86s18-40.86,40.07-40.86h392c2.82,0,5.1,2,5.1,4.35v73C561,321.92,558.68,323.86,555.87,323.86Zm-392-73C147.36,250.86,134,265.28,134,283s13.4,32.15,29.86,32.15H550.76v-64.3H163.83Z" transform="translate(-32.99 -2.94)"/><path class="cls-1" d="M154.47,270.7V387.75c0,3.35,4.88,4.91,7.46,2.37l28.68-28.29a4.75,4.75,0,0,1,6.35-.07l30.79,28.81c2.61,2.44,7.38.86,7.38-2.44V270.7Z" transform="translate(-32.99 -2.94)"/><path class="cls-1" d="M598.83,318.08c0,47.23-44.88,85.52-100.24,85.52s-100.24-38.29-100.24-85.52,44.88-85.52,100.24-85.52S598.83,270.84,598.83,318.08Z" transform="translate(-32.99 -2.94)"/><path class="cls-4" d="M578.11,318.08c0,37.47-35.6,67.85-79.52,67.85s-79.52-30.38-79.52-67.85,35.6-67.85,79.52-67.85S578.11,280.61,578.11,318.08Z" transform="translate(-32.99 -2.94)"/><path class="cls-1" d="M492.51,359.94c-13.38-1.73-23.07-8.79-24.17-20.35a2.25,2.25,0,0,1,2.44-2.23h10.59a2.38,2.38,0,0,1,2.42,1.78A11.5,11.5,0,0,0,491,348c1.63.66,3.53-.33,3.53-1.88V324.27a2.17,2.17,0,0,0-1.78-2c-12-2.9-24.55-6.69-24.55-22.73,0-12.77,9.85-21.73,24.29-23.65a2.2,2.2,0,0,0,2-2.05V268a2.29,2.29,0,0,1,2.45-2.09h3.26a2.29,2.29,0,0,1,2.44,2.09v5.74a2.2,2.2,0,0,0,2,2.05c12.46,1.61,21.08,8.23,23,19.61a2.23,2.23,0,0,1-2.43,2.37H514.85a2.41,2.41,0,0,1-2.4-1.69,12,12,0,0,0-5.9-7.46c-1.64-.92-3.83.05-3.83,1.73v21a2.17,2.17,0,0,0,1.81,2c12,2.79,24.41,6.48,24.41,22.5,0,11.1-8.54,21.87-24.18,24a2.21,2.21,0,0,0-2,2v5.88a2.28,2.28,0,0,1-2.44,2.08H497a2.29,2.29,0,0,1-2.45-2.08V362A2.2,2.2,0,0,0,492.51,359.94Zm2.06-52.19V289.4a2.39,2.39,0,0,0-3.19-2c-5.17,1.55-8.6,5.3-8.6,11.4,0,5.65,3.34,8.75,8.25,10.8C492.66,310.3,494.58,309.3,494.58,307.75Zm8.15,20.07v18.32c0,1.51,1.83,2.51,3.46,1.9,5.36-2,8.33-6.34,8.33-11.52,0-5.55-3.35-8.56-8.26-10.58C504.63,325.27,502.73,326.27,502.73,327.82Z" transform="translate(-32.99 -2.94)"/><path class="cls-3" d="M498.59,408c-58.08,0-105.34-40.32-105.34-89.87s47.26-89.88,105.34-89.88,105.34,40.32,105.34,89.88S556.67,408,498.59,408Zm0-171c-52.45,0-95.13,36.41-95.13,81.17s42.68,81.16,95.13,81.16,95.13-36.41,95.13-81.16S551,236.91,498.59,236.91Z" transform="translate(-32.99 -2.94)"/><path class="cls-2" d="M614.6,102.32,342.46,9.17a35.33,35.33,0,0,0-22.68,0L47.72,102.29c-13,4.46-12.78,20.57.37,24.73l117.33,37.09V142.79c0-2.72,3.47-5.2,8.82-6.2,134.84-25.07,270-6,306.08.05,5.63.94,9.33,3.45,9.33,6.27v23.46L614.23,127C627.35,122.84,627.59,106.76,614.6,102.32Z" transform="translate(-32.99 -2.94)"/><path class="cls-3" d="M489.65,170.73a5.75,5.75,0,0,1-2.92-.78,4.21,4.21,0,0,1-2.19-3.58V142.92c-.1-.13-1.46-1.38-5.2-2-37.66-6.28-170.88-24.83-304-.07-3.46.64-4.71,1.84-4.83,2.1l0,21.16a4.21,4.21,0,0,1-2.18,3.58,5.84,5.84,0,0,1-4.69.51L46.32,131.1c-8-2.52-13.22-8.91-13.33-16.27S37.91,101,45.82,98.24L317.88,5.13a41.07,41.07,0,0,1,26.47,0L616.5,98.27c7.9,2.7,12.93,9.21,12.81,16.56S624,128.56,616,131.08L491.43,170.46A5.89,5.89,0,0,1,489.65,170.73Zm-168.84-51.1c75.47,0,136.74,8.78,160.48,12.74,8.17,1.36,13.46,5.5,13.46,10.55v17.2l117.69-37.21c4.83-1.53,6.6-5.23,6.65-8.19s-1.61-6.72-6.41-8.36L340.56,13.22a29.33,29.33,0,0,0-18.87,0L49.62,106.33c-4.8,1.65-6.47,5.41-6.42,8.39s1.82,6.68,6.67,8.22l110.45,34.92V142.92c0-5,5-9.13,12.84-10.58C224.12,122.86,275.08,119.63,320.82,119.63Z" transform="translate(-32.99 -2.94)"/></svg>