<?xml version="1.0" encoding="utf-8"?>
<!-- Generator: Adobe Illustrator 21.0.0, SVG Export Plug-In . SVG Version: 6.00 Build 0)  -->
<svg version="1.1" id="Layer_1" xmlns="http://www.w3.org/2000/svg" xmlns:xlink="http://www.w3.org/1999/xlink" x="0px" y="0px"
	 viewBox="0 0 512 512" style="enable-background:new 0 0 512 512;" xml:space="preserve">
<style type="text/css">
	.st0{fill:#143E69;}
	.st1{fill:#A1C8D3;}
	.st2{fill:#567580;}
	.st3{fill:#464F5E;}
	.st4{fill:#EDC100;}
	.st5{fill:#F8E8AB;}
	.st6{fill:#393F4B;}
	.st7{fill:#4397D5;}
	.st8{fill:#2B5781;}
	.st9{fill:#3180BC;}
</style>
<g id="Page-1">
	<g id="_x30_31---University">
		<path id="Shape" class="st0" d="M503.2,256v229.5H344.3V238.3L503.2,256z"/>
		<path id="Shape_1_" class="st0" d="M167.7,238.3v247.2H8.8V256L167.7,238.3z"/>
		<path id="Rectangle-path" class="st1" d="M150.1,238.3H362v247.2H150.1V238.3z"/>
		<path id="Shape_2_" class="st2" d="M229.5,353.1h53c4.9,0,8.8,4,8.8,8.8v105.9h-70.6V361.9C220.7,357.1,224.6,353.1,229.5,353.1z"
			/>
		<g>
			<path id="Shape_3_" class="st3" d="M229.5,317.8c-4.9,0-8.8-4-8.8-8.8v-17.7c0-4.9,4-8.8,8.8-8.8s8.8,4,8.8,8.8V309
				C238.3,313.8,234.4,317.8,229.5,317.8z"/>
			<path id="Shape_4_" class="st3" d="M105.9,326.6c-4.9,0-8.8-4-8.8-8.8v-17.7c0-4.9,4-8.8,8.8-8.8c4.9,0,8.8,4,8.8,8.8v17.7
				C114.8,322.7,110.8,326.6,105.9,326.6z"/>
			<path id="Shape_5_" class="st3" d="M53,326.6c-4.9,0-8.8-4-8.8-8.8v-17.7c0-4.9,4-8.8,8.8-8.8s8.8,4,8.8,8.8v17.7
				C61.8,322.7,57.8,326.6,53,326.6z"/>
			<path id="Shape_6_" class="st3" d="M105.9,379.6c-4.9,0-8.8-4-8.8-8.8v-17.7c0-4.9,4-8.8,8.8-8.8c4.9,0,8.8,4,8.8,8.8v17.7
				C114.8,375.6,110.8,379.6,105.9,379.6z"/>
			<path id="Shape_7_" class="st3" d="M53,379.6c-4.9,0-8.8-4-8.8-8.8v-17.7c0-4.9,4-8.8,8.8-8.8s8.8,4,8.8,8.8v17.7
				C61.8,375.6,57.8,379.6,53,379.6z"/>
			<path id="Shape_8_" class="st3" d="M105.9,432.6c-4.9,0-8.8-4-8.8-8.8v-17.7c0-4.9,4-8.8,8.8-8.8c4.9,0,8.8,4,8.8,8.8v17.7
				C114.8,428.6,110.8,432.6,105.9,432.6z"/>
			<path id="Shape_9_" class="st3" d="M53,432.6c-4.9,0-8.8-4-8.8-8.8v-17.7c0-4.9,4-8.8,8.8-8.8s8.8,4,8.8,8.8v17.7
				C61.8,428.6,57.8,432.6,53,432.6z"/>
			<path id="Shape_10_" class="st3" d="M459,326.6c-4.9,0-8.8-4-8.8-8.8v-17.7c0-4.9,4-8.8,8.8-8.8s8.8,4,8.8,8.8v17.7
				C467.9,322.7,463.9,326.6,459,326.6z"/>
			<path id="Shape_11_" class="st3" d="M406.1,326.6c-4.9,0-8.8-4-8.8-8.8v-17.7c0-4.9,4-8.8,8.8-8.8s8.8,4,8.8,8.8v17.7
				C414.9,322.7,410.9,326.6,406.1,326.6z"/>
			<path id="Shape_12_" class="st3" d="M459,379.6c-4.9,0-8.8-4-8.8-8.8v-17.7c0-4.9,4-8.8,8.8-8.8s8.8,4,8.8,8.8v17.7
				C467.9,375.6,463.9,379.6,459,379.6z"/>
			<path id="Shape_13_" class="st3" d="M406.1,379.6c-4.9,0-8.8-4-8.8-8.8v-17.7c0-4.9,4-8.8,8.8-8.8s8.8,4,8.8,8.8v17.7
				C414.9,375.6,410.9,379.6,406.1,379.6z"/>
			<path id="Shape_14_" class="st3" d="M459,432.6c-4.9,0-8.8-4-8.8-8.8v-17.7c0-4.9,4-8.8,8.8-8.8s8.8,4,8.8,8.8v17.7
				C467.9,428.6,463.9,432.6,459,432.6z"/>
			<path id="Shape_15_" class="st3" d="M406.1,432.6c-4.9,0-8.8-4-8.8-8.8v-17.7c0-4.9,4-8.8,8.8-8.8s8.8,4,8.8,8.8v17.7
				C414.9,428.6,410.9,432.6,406.1,432.6z"/>
			<path id="Shape_16_" class="st3" d="M282.5,317.8c-4.9,0-8.8-4-8.8-8.8v-17.7c0-4.9,4-8.8,8.8-8.8s8.8,4,8.8,8.8V309
				C291.3,313.8,287.4,317.8,282.5,317.8z"/>
		</g>
		<path id="Shape_17_" class="st4" d="M503.2,467.9H8.8c-4.9,0-8.8,4-8.8,8.8v17.7c0,4.9,4,8.8,8.8,8.8h123.6c0,4.9,4,8.8,8.8,8.8
			h229.5c4.9,0,8.8-4,8.8-8.8h123.6c4.9,0,8.8-4,8.8-8.8v-17.7C512,471.8,508,467.9,503.2,467.9z"/>
		<path id="Shape_18_" class="st5" d="M379.6,467.9v35.3c0,4.9-4,8.8-8.8,8.8H141.2c-4.9,0-8.8-4-8.8-8.8v-35.3H379.6z"/>
		<path id="Shape_19_" class="st6" d="M335.4,40.8v109.3H176.6V40.8l77.2,30.6c1.4,0.5,3,0.5,4.4,0L335.4,40.8z"/>
		<path id="Shape_20_" class="st7" d="M481.5,212.8c-3-6-9.1-9.8-15.8-9.8h-68.5v-17.7l-47.8-47.8c-3.3-3.3-7.8-5.2-12.5-5.2H167.2
			c-5.3,0-10.2,2.3-13.6,6.4l-38.8,46.6V203H46.3c-6.7,0-12.8,3.8-15.8,9.8L8.8,256h494.3L481.5,212.8z"/>
		<path id="Shape_21_" class="st8" d="M397.2,185.4v26.5c0,4.9-4,8.8-8.8,8.8H123.6c-4.9,0-8.8-4-8.8-8.8v-26.5H397.2z"/>
		<path id="Rectangle-path_1_" class="st9" d="M132.4,220.7h247.2V256H132.4V220.7z"/>
		<path id="Shape_22_" class="st0" d="M379.6,39.7c0.1,4-2.6,7.6-6.5,8.6l-11.1,3l-26.5,7.2l-77.2,20.7c-1.5,0.4-3,0.4-4.4,0
			l-77.2-20.7l-37.6-10.2c-3.9-1-6.7-4.5-6.7-8.6s2.8-7.6,6.7-8.6L253.8,0.3c1.5-0.4,3-0.4,4.4,0l103.7,27.9l11.1,3
			C377,32.1,379.7,35.7,379.6,39.7z"/>
		<path id="Shape_23_" class="st4" d="M386.2,102c-1.6,2.5-4.4,4-7.3,4c-1.7,0-3.4-0.5-4.9-1.5c-7.6-5-12.1-13.4-12.1-22.5V51.3
			l11.1-3c3.9-1,6.6-4.5,6.5-8.6v42.2c0,3.2,1.6,6.1,4.2,7.9c1.9,1.3,3.3,3.3,3.7,5.6C388,97.7,387.5,100,386.2,102z"/>
	</g>
</g>
</svg>
